<svg width="14" height="18" viewBox="0 0 14 18" fill="none" xmlns="http://www.w3.org/2000/svg">
<path fill-rule="evenodd" clip-rule="evenodd" d="M6.99944 16.657L7.60039 15.9799C8.2823 15.199 8.89563 14.458 9.44135 13.7532L9.89182 13.159C11.7728 10.6247 12.7137 8.61324 12.7137 7.12657C12.7137 3.95324 10.1556 1.38086 6.99944 1.38086C3.84325 1.38086 1.28516 3.95324 1.28516 7.12657C1.28516 8.61324 2.22611 10.6247 4.10706 13.159L4.55754 13.7532C5.33605 14.7508 6.15056 15.7187 6.99944 16.657Z" stroke="white" stroke-linecap="round" stroke-linejoin="round"/>
<path d="M6.99814 9.47675C8.3131 9.47675 9.37909 8.41076 9.37909 7.0958C9.37909 5.78083 8.3131 4.71484 6.99814 4.71484C5.68318 4.71484 4.61719 5.78083 4.61719 7.0958C4.61719 8.41076 5.68318 9.47675 6.99814 9.47675Z" stroke="white" stroke-linecap="round" stroke-linejoin="round"/>
</svg>
