<svg width="310" height="99" viewBox="0 0 310 99" fill="none" xmlns="http://www.w3.org/2000/svg">
<path fill-rule="evenodd" clip-rule="evenodd" d="M31.0106 87.3473H47.9896C48.9723 87.3473 49.9352 87.6667 49.9352 88.7621C49.9352 90.2328 48.2329 90.1182 47.2232 90.1182H31.6592C30.5272 90.1182 29.5159 90.1061 29.3013 88.9939C29.2056 88.4979 29.3602 88.0786 29.6666 87.772C29.9846 87.4535 30.3972 87.3475 31.0106 87.3475V87.3473ZM66.5603 81.9824C66.5603 80.8449 67.1399 80.4495 68.329 80.4495H74.3424C74.8372 80.4495 75.2838 80.5502 75.5811 80.7438C76.1733 81.1295 76.4937 82.5511 75.3812 83.021C74.5952 83.353 73.1659 83.158 72.3964 83.1592L70.8642 83.2202C69.9314 83.2202 67.6648 83.3747 67.0798 82.9367C66.8427 82.7592 66.5605 82.3834 66.5605 81.9822L66.5603 81.9824ZM61.8438 83.2204C60.8174 83.2204 55.5707 83.3381 54.8783 83.0525C53.696 82.5646 53.7927 80.4495 55.7715 80.4495H61.7849C64.1123 80.4495 64.0321 82.2233 63.2104 82.8773C62.8671 83.1506 62.4412 83.2204 61.8438 83.2204ZM44.2162 80.4495C45.2613 80.4495 49.4312 80.3826 50.2862 80.5697C51.5303 80.8416 51.6431 82.5113 50.5264 83.0459C49.9107 83.3409 44.3574 83.2204 43.3906 83.2204C41.4232 83.2204 41.1734 81.1535 42.5868 80.5891C42.8643 80.4782 43.809 80.4495 44.216 80.4495H44.2162ZM31.0104 80.4495H36.8469C37.6936 80.4495 38.8514 80.5912 38.8514 81.6875C38.8514 82.2129 38.8116 82.785 38.0642 83.0818C37.4895 83.3101 32.2213 83.2204 31.364 83.2204C30.1647 83.2204 29.486 83.045 29.2806 81.9983C29.1096 81.1268 29.8325 80.4495 31.0104 80.4495ZM37.5542 70.0146C37.5542 70.372 37.5111 70.5509 37.4951 70.8987C37.4578 71.7076 36.75 72.1959 35.9034 72.1959C34.8604 72.1959 30.4815 72.3501 29.8271 71.9049C29.572 71.7313 29.4241 71.5086 29.3512 71.1429C29.1806 70.2883 29.2414 68.655 29.2414 67.7152C29.2414 67.0491 29.2626 66.2738 29.5336 65.8847C29.9024 65.355 30.4058 65.2979 31.0691 65.2979H35.9624C37.8564 65.2979 37.5542 67.17 37.5542 68.7172C37.5542 69.0319 37.524 69.154 37.5016 69.3767C37.4704 69.6891 37.5542 69.7008 37.5542 70.0144V70.0146ZM55.4766 68.0101C55.4766 67.4303 55.8936 66.989 56.3826 66.7936C56.6796 66.6747 57.9118 66.654 58.3654 66.654H74.519C76.4978 66.654 76.485 68.825 75.3237 69.2863C74.5567 69.5908 61.6703 69.3688 59.3087 69.366C58.1518 69.3646 56.6358 69.7301 55.8714 68.9711C55.6678 68.7689 55.4766 68.3908 55.4766 68.0099V68.0101ZM20.988 78.1503L20.9268 87.1138C20.931 87.4544 20.9911 87.5581 20.9894 87.9355C20.9866 88.6048 20.9291 89.0503 20.9291 89.7056C20.9291 90.8071 20.9643 92.4204 21.2569 93.4457C21.7331 95.1138 22.9569 96.6565 24.4253 97.4698C25.7003 98.1757 26.9085 98.431 28.652 98.431H76.3464C79.0309 98.431 80.4416 98.0732 81.9298 96.8219C82.8854 96.0184 83.7572 94.8636 84.1043 93.6316C84.3419 92.7885 84.4104 92.1178 84.4209 91.2362C84.4249 90.8959 84.4852 90.7919 84.4836 90.4145L84.4826 84.9889C84.4857 84.4128 84.4232 83.9214 84.4232 83.2796C84.4232 79.817 84.3419 64.7383 84.4572 63.9765C84.5511 63.3556 84.5134 62.109 84.4393 61.568C84.3352 60.8081 84.4922 60.5386 84.2005 59.3306C83.7642 57.5239 82.497 56.0756 80.9566 55.1463C79.9388 54.5321 78.548 54.2148 76.9358 54.2148H28.1213C26.97 54.2148 25.7436 54.5494 24.9203 54.9051C23.3487 55.584 21.7799 57.3322 21.2948 59.0615C20.9577 60.2632 20.9878 61.1361 20.9878 62.6453C20.9878 65.2392 20.9785 67.8349 20.9892 70.4288C20.9908 70.8197 20.9272 70.9371 20.9268 71.3099L20.9284 74.26C21.0076 75.7291 20.9876 76.6512 20.9876 78.1508L20.988 78.1503Z" fill="#EBEBEB"/>
<path fill-rule="evenodd" clip-rule="evenodd" d="M68.3276 36.2328V49.7926H83.1254C83.4142 49.7926 83.3022 49.123 83.3022 48.5546C83.3022 47.2763 83.2519 45.5774 83.4629 44.4706C83.6041 43.7314 83.8399 42.8787 84.2578 42.4356C85.1869 41.4509 88.7569 40.933 89.5078 44.4121C89.9392 46.4119 89.3114 48.2422 88.0538 49.1794L87.2363 49.777C87.0807 49.8892 86.9335 49.9661 86.7615 50.0684L82.083 52.7002C81.6656 52.9339 81.2479 53.0166 81.1798 53.2708C81.5493 53.3568 82.3156 53.8558 82.6119 54.079C83.2698 54.5747 83.8375 55.074 84.3391 55.7121C84.8603 56.3751 85.2624 57.0162 85.5853 57.8265C86.0722 59.0484 86.2553 60.275 86.2502 61.6421C86.2446 63.155 86.2499 64.6688 86.2499 66.1817L89.4139 64.4524C92.0141 63.1564 96.9362 60.8539 99.091 59.3909C100.031 58.7523 100.418 58.3162 101.115 57.7599C101.282 57.6271 101.593 57.3137 101.73 57.1367C101.942 56.8622 102.109 56.7523 102.312 56.4802C102.707 55.9488 103.24 55.2734 103.563 54.6663C103.652 54.499 103.687 54.4012 103.784 54.2388C104.348 53.2987 104.823 51.6948 105.042 50.6031C105.25 49.564 105.38 48.0961 105.41 46.5986V45.2539C105.385 44.0627 105.292 42.9298 105.121 42.0636C104.677 39.8243 103.923 38.1054 102.54 36.3908C101.758 35.4228 100.853 34.6139 99.8332 33.9092C99.5984 33.7468 99.4353 33.6441 99.186 33.495C95.4972 31.2866 91.7499 30.8086 87.1928 30.8086C83.3476 30.8086 79.4647 31.3565 76.4699 32.2304C74.5493 32.7909 71.8182 33.8377 70.107 34.9466L68.7232 35.8622C68.5906 35.9602 68.3271 36.0693 68.3271 36.2326L68.3276 36.2328Z" fill="#E9A800"/>
<path fill-rule="evenodd" clip-rule="evenodd" d="M0.234608 36.4114V48.3793C0.234608 48.5151 0.275611 48.5561 0.411432 48.5561H15.3271C15.3271 48.1044 15.3771 47.7999 15.3879 47.4378C15.4193 46.3843 15.3452 45.1163 15.6726 44.0083C16.0588 42.7006 16.73 41.7173 18.2748 41.7173C18.977 41.7173 19.6447 41.9735 20.0775 42.2727C20.2763 42.4099 20.5185 42.6701 20.6579 42.8714C21.7868 44.5015 21.9539 48.7224 20.1763 50.1631C18.6026 51.4386 12.8 51.1502 10.5517 51.1502V61.1725C12.6591 61.1725 16.1881 61.0477 18.1821 61.4421C18.5698 61.5187 18.8211 61.6243 19.1592 61.7032C19.1592 59.4765 19.6486 57.541 20.8936 55.9505C22.0417 54.484 23.4649 53.4039 25.3422 52.8527C25.8757 52.6962 26.8108 52.463 27.4699 52.4455L28.6517 52.3847C29.0387 52.391 29.158 52.4474 29.8888 52.4474H35.0768C35.2792 52.4474 35.5497 51.9038 35.6557 51.7294C35.8195 51.4596 35.966 51.1765 36.096 50.8727C36.8895 49.0197 37.164 47.4905 37.1968 45.4292C37.201 45.165 37.2539 45.0776 37.2334 44.8672C37.2101 44.6298 37.197 44.4598 37.1989 44.1935C37.212 42.4122 36.6731 40.2414 35.9996 38.849C35.916 38.6761 35.8922 38.5608 35.8039 38.3963C35.4838 37.8015 34.9039 36.8773 34.4699 36.3699C31.7654 33.2097 27.957 31.7201 23.9446 31.1542C23.6131 31.1074 23.1478 31.0168 22.81 30.9918C22.4042 30.962 21.9511 30.9548 21.5513 30.8944C21.1464 30.8334 20.7086 30.9059 20.304 30.8448C19.8977 30.7833 19.4173 30.8108 18.9821 30.8108C14.7304 30.8108 8.67811 31.8366 5.02958 33.5426C4.65404 33.7183 4.35327 33.8511 3.98798 34.0337C3.6285 34.2136 3.31772 34.355 2.96571 34.5444C1.95951 35.086 1.47098 35.4665 0.611319 36.0221C0.470839 36.1127 0.234375 36.2299 0.234375 36.4116L0.234608 36.4114Z" fill="#E9A800"/>
<path fill-rule="evenodd" clip-rule="evenodd" d="M39.4389 30.8686V34.1111H37.3755V28.3334C37.3755 26.5638 38.8113 26.5927 39.2246 27.3097C39.4557 27.7109 39.4003 27.837 39.4424 28.3889C39.5088 29.2564 39.4389 29.9346 39.4389 30.8684V30.8686ZM49.4613 9.58591C49.8853 9.58591 50.2152 9.69564 50.5814 9.7038C50.4158 9.93001 49.9794 9.84334 49.5452 9.90555C49.1046 9.96868 48.784 9.94492 48.4055 10.063C48.0926 10.1606 47.7804 10.2855 47.4195 10.374C47.1924 10.43 46.5058 10.5292 46.2775 10.5292C46.9529 9.52045 47.512 9.63274 48.693 8.87675C48.8961 8.74676 49.0305 8.5527 49.2241 8.40569C50.3417 7.55698 50.4493 8.06113 51.2298 8.58391C51.0772 9.23832 51.3269 9.16447 50.5567 9.26675C50.0733 9.33105 49.6689 9.27583 49.4613 9.58615V9.58591ZM54.7082 6.34345C54.7644 6.5848 54.7672 6.62022 54.7672 6.93309C54.5682 6.91655 54.5137 6.91702 54.5009 6.6908C54.4899 6.5007 54.5682 6.43733 54.7082 6.34368V6.34345ZM49.5792 0.153222C49.6731 0.29347 49.6505 0.214726 49.6971 0.388987C49.9838 0.388987 49.9848 0.368253 50.1686 0.271105C50.1686 0.718872 50.1096 0.912236 50.1096 1.33228C49.6971 1.36653 49.1004 1.60392 48.6948 1.33228C48.6112 1.50631 48.6284 1.52122 48.518 1.68593C47.6777 1.49023 47.7785 1.74487 47.044 1.74487C47.1838 2.3443 47.7455 2.33451 48.282 2.33451C48.238 2.52392 48.2002 2.52299 48.1424 2.72567C47.9947 3.24542 47.9934 3.47793 47.3706 3.66337C46.9012 3.80315 46.2736 3.65988 45.7694 3.77193C45.5656 3.81713 45.5276 3.8812 45.3342 3.92639C45.5959 5.04907 47.2711 4.66327 48.008 4.41889C48.689 4.19291 49.3767 4.33898 50.1094 4.33898C50.1094 4.74505 50.1122 4.7518 49.6376 4.7518C49.9275 5.99539 49.7821 4.9475 48.4008 5.69626C47.9276 5.95276 47.3827 5.80389 46.8222 5.68088C45.6679 5.42741 45.3995 5.87192 44.3909 5.87192C43.8877 5.87192 43.272 5.67669 43.094 6.34345C42.7112 6.31153 42.5966 5.83022 41.7381 6.28451C41.8958 6.96152 42.7047 6.75604 43.5068 6.75604C43.9886 6.75604 44.2761 6.63815 44.6859 6.63815C45.4579 6.63815 45.6993 6.93286 46.6049 6.6116C46.7446 6.56197 47.3606 6.21811 47.5211 6.4823C47.5728 6.5678 47.5379 6.49232 47.5262 6.6936C47.5158 6.87602 47.5009 7.13228 47.4976 7.29559C47.4915 7.61266 47.6336 8.05391 47.6336 8.40686C46.6997 8.62445 46.4187 9.55143 45.5113 9.76274C45.5113 10.7386 45.2786 10.0293 45.0393 10.6469C44.8434 11.1529 45.0097 11.0056 44.0858 11.1081C43.5001 11.1731 42.8545 11.2102 42.3178 11.4035C42.0654 11.4944 41.9853 11.5147 41.9152 11.7083L43.5658 11.5314C43.8346 11.5012 44.1389 11.4965 44.434 11.456C45.0738 11.3681 44.9757 11.5314 45.3345 11.5314C45.5563 11.5314 45.6387 11.2269 46.0427 11.1787C46.3635 11.1403 46.7861 11.1242 47.0629 11.0788C47.3287 11.035 49.2842 10.2823 49.2842 10.8241L49.1663 11.9443C49.027 12.0111 48.6932 12.0803 48.5178 12.1211C48.5178 12.7559 48.467 15.5821 48.6445 16.066C48.8153 16.5321 48.6981 15.9068 48.8912 16.3423C49.01 16.6097 48.9306 21.7697 48.9306 22.4381C49.6418 22.7794 49.3166 22.6676 49.4273 23.4154C49.493 23.8597 49.4613 24.382 49.4613 24.8552C49.1547 24.693 48.8791 24.553 48.58 24.3804L45.9714 22.8032C45.6129 22.5774 42.6208 20.6694 42.5044 20.6694C42.1819 20.6694 41.5203 21.0629 41.2771 21.2106L37.9761 23.2155C37.574 23.4571 33.8975 25.6529 33.6613 25.9753H34.8404V27.2133H32.1873C32.1873 26.9149 32.1472 26.91 32.1284 26.6826C32.4643 26.6826 32.79 26.5712 33.0717 26.5058C33.0768 26.274 33.0556 26.3674 33.1306 26.2111L32.13 26.0813C32.1799 25.4618 33.5034 26.0906 34.015 25.3267C33.0393 24.6735 31.9378 25.5879 31.8337 23.794C31.7668 22.6457 31.48 21.5172 31.48 20.3745C31.832 20.2925 32.0955 20.2988 32.1286 19.903C31.9175 19.8466 32.0412 19.851 31.849 19.7699C31.7277 19.7187 31.6023 19.6956 31.48 19.6672C31.4926 19.659 31.5147 19.6374 31.522 19.6502C31.5292 19.6632 31.5546 19.6371 31.5648 19.6341L32.3322 19.5172C32.65 19.4522 32.811 19.3499 32.9538 19.1365C32.6782 18.6156 31.946 18.6202 31.3032 18.6058C31.1902 18.1207 30.7688 13.7905 30.7156 13.0031C30.6942 12.6844 30.6546 12.519 30.6546 12.1798C31.1404 12.1798 31.2508 12.0889 31.4211 11.7672C31.0872 11.678 31.0166 11.5422 30.5367 11.5314C30.5367 10.6781 31.5599 11.6169 32.0107 10.765C31.6114 10.1688 30.1547 10.3524 29.4756 10.3524L29.4762 7.63969C29.4788 7.20008 29.4133 7.01952 29.4157 6.58014C29.4199 5.85817 29.4003 5.20563 29.2396 4.5158C28.7797 4.62297 28.9437 4.97615 28.9448 5.87192L28.8302 9.94352C28.8386 10.5579 28.9924 10.3526 27.4709 10.3526C26.99 10.3526 26.4537 10.4388 26.3507 10.8241C26.7566 11.4303 27.8245 10.833 27.8245 11.4138C27.8245 11.7618 27.3635 11.5431 26.9401 11.8264C27.168 12.1667 27.3231 12.136 27.7656 12.2392C27.7656 12.7361 27.6372 13.3127 27.5939 13.836C27.5086 14.8645 27.1172 17.9586 27.1172 18.6652C26.6562 18.6652 25.5253 18.5904 25.5253 19.1959C25.5253 19.5484 26.6555 19.6087 26.9401 19.6087L26.5555 19.8135C26.3752 19.9144 26.3752 19.9815 26.2918 20.1392C26.4327 20.2137 26.7118 20.3356 26.8814 20.375C26.8814 21.4764 26.6133 22.583 26.5264 23.6752C26.4136 25.0949 25.609 24.7173 24.6838 25.0751C24.5198 25.1385 24.5298 25.1667 24.3465 25.2093C24.5625 26.1367 26.1774 25.4257 26.2331 26.0937C25.8957 26.1011 25.6115 26.2115 25.2309 26.2115C25.2553 26.5055 25.2958 26.489 25.5281 26.5629C25.697 26.6167 25.9081 26.6784 26.1152 26.6831C25.8848 27.672 25.034 27.3279 24.2286 27.3316C23.8396 27.3333 23.6418 27.2974 23.3443 27.2727V21.3182H19.0406C19.0406 20.3747 19.2824 20.3102 18.3333 20.3158L9.01829 20.375C9.01829 20.6892 9.0085 21.0233 9.07723 21.3182L6.24782 21.2456C5.78747 21.2453 5.49346 21.311 5.1284 21.3194C4.19675 21.3408 4.125 21.0885 4.125 23.8534C4.125 26.4068 4.24288 28.9328 4.24288 31.4585C4.6168 31.3713 4.99071 31.1705 5.35624 31.0389L8.24506 30.0956C8.4354 30.0413 8.78252 30.0278 8.78252 29.8076V25.3269C8.78252 25.1238 8.73896 25.0986 8.72358 24.9144H19.3353V28.4515C19.3353 28.7584 20.4335 28.6013 20.9433 28.6712L22.7127 28.7884C22.9235 28.8157 23.4025 28.8678 23.5553 28.8441C23.6548 28.8285 23.891 28.7688 23.9488 28.7611L25.2299 28.7474C25.5484 28.7775 25.6758 28.8944 25.7026 29.218C26.583 29.4232 27.5135 29.6338 28.3631 29.9178C28.6112 30.0008 28.9598 30.155 29.24 30.1613V29.7485C29.24 29.3797 30.3825 29.5025 30.516 28.3104C30.6036 27.528 29.8399 26.9186 28.9451 26.9186C28.0656 26.9186 28.0801 27.4519 27.6481 27.5672C27.4788 27.2655 27.8154 27.0703 28.0803 26.9382C28.3282 26.8147 28.4405 26.6866 28.7093 26.6239V13.1233H28.8861V26.6239C29.0658 26.6199 29.1012 26.5973 29.2398 26.5649C29.2398 25.7684 29.1808 25.1855 29.1808 24.3837V13.5948C29.1808 13.3239 29.2055 13.1797 29.4166 13.1233C29.4166 14.037 29.3511 25.9793 29.4189 26.4447C29.4863 26.9072 30.3217 26.8086 30.659 27.7987C30.714 27.9602 30.6924 28.0979 30.8904 28.0979H34.8404V28.3336H31.0083C30.6753 28.3336 30.5675 29.1038 30.362 29.2793C29.938 29.6415 29.4753 29.6304 29.4753 30.1613C29.4753 30.4129 30.2709 30.6379 30.4946 30.7337C31.2468 31.0559 31.9012 31.458 32.5971 31.8736C32.7686 31.9761 32.9109 32.0784 33.0952 32.2009C33.255 32.3072 33.4435 32.477 33.6021 32.5194C33.3205 31.9323 33.0125 30.1205 33.0125 29.3948C33.0125 28.4448 34.4063 28.8054 34.958 28.8054V33.5808C34.958 33.7826 35.4514 34.1411 35.5891 34.3056C35.8228 34.5849 36.0066 34.7902 36.2368 35.073L37.099 36.2742C37.1801 36.4154 37.266 36.6465 37.4342 36.6465C40.3191 36.6465 39.9701 36.9244 39.9694 35.7621V32.5196C39.9694 31.5663 39.8958 31.2607 40.259 30.6279C40.5411 30.1364 40.9931 29.9323 41.4432 29.6308C41.4432 28.6929 41.0411 26.8599 42.6222 26.8599C43.0633 26.8599 43.3976 27.4167 43.4835 27.8262L43.5655 29.5719H45.6289C45.6289 28.6915 45.3349 26.8601 46.6901 26.8601C47.1728 26.8601 47.4785 27.1586 47.598 27.6028C47.6604 27.8346 47.6765 28.0741 47.6951 28.3327C47.8084 29.905 47.1144 29.5721 49.5789 29.5721C49.5789 28.5741 49.6379 27.7876 49.6379 26.8012C49.68 26.8617 49.6488 26.8061 49.7026 26.9135C49.9904 27.487 49.875 28.2395 49.8725 28.866C49.8711 29.204 49.927 29.3144 49.9328 29.5721H54.4722C54.4722 28.6959 54.1887 26.5321 53.9066 25.7162C53.6466 24.964 53.3521 24.5533 53.3521 23.6177C53.3521 23.0012 53.2934 22.3021 53.4481 21.7092C53.5315 21.3895 53.6471 21.1351 53.6471 20.7878C53.6471 19.8442 53.4071 19.0775 53.411 18.076C53.4134 17.5199 53.3461 17.1546 53.3495 16.6596L53.3523 12.1213C53.1883 12.0347 53.0865 11.9923 52.8808 11.9445C52.8808 11.6046 52.772 11.2731 52.961 10.9635C53.0898 10.7522 53.377 10.58 53.5294 10.3526C53.3216 9.96006 53.1536 9.47875 53.0616 9.05171C53.0225 8.87023 53.0096 8.67035 52.94 8.52497C53.1965 8.5308 54.2369 8.66149 54.2369 8.9965C54.2369 10.259 53.8504 9.9999 54.0012 10.6473C54.2709 10.6247 54.342 10.5301 54.4515 10.3312C54.7921 9.71195 54.7087 8.92288 54.7087 8.23027C55.1653 8.19229 55.593 7.99194 55.593 9.46826C55.593 9.69518 55.504 9.67211 55.5947 9.87526C55.6683 10.0409 55.7538 10.0717 55.9469 10.1166C56.3427 9.36832 55.5793 7.41021 55.4668 7.29513C55.3547 7.18074 55.3379 7.18703 55.1562 7.13415L54.8268 6.99203H55.5343C55.6925 6.6929 56.3008 5.87122 56.3008 5.51804C56.3008 5.02181 55.878 4.33572 55.5611 4.13537C55.19 3.90053 54.4072 3.74957 53.8248 3.74957C53.6333 3.74957 53.7018 3.7943 53.644 3.92243C53.6431 3.92476 53.6065 4.04497 53.6019 4.05732C53.566 4.1554 53.5683 4.14864 53.5299 4.2211H52.6455C52.601 4.4119 52.5453 4.47969 52.5276 4.69263C51.6757 4.28377 51.9969 4.31452 51.9969 2.98287C51.9969 2.02373 51.5671 1.87323 51.0536 1.62699C51.0704 0.878922 51.2752 0.839317 50.5232 0.270872C49.9796 -0.140086 50.2413 -0.00100334 49.5799 0.152989L49.5792 0.153222Z" fill="#EBEBEB"/>
<path fill-rule="evenodd" clip-rule="evenodd" d="M65.2622 34.0521C64.807 33.9461 64.8853 33.5218 64.9067 32.8122L64.9675 29.5716C65.3491 29.5716 65.3295 29.5679 65.3263 29.9793L65.3193 31.8139C65.3377 32.429 65.4393 31.9102 65.3298 32.8816L65.2622 34.0521ZM65.0264 25.0909H65.2622C65.2622 25.5394 65.3785 25.8965 65.3815 26.7429C65.3829 27.1201 65.323 27.2242 65.3188 27.5646C65.3151 27.8775 65.3211 28.1964 65.3211 28.5102C64.8573 28.5102 64.9628 28.4145 64.9675 27.7437C64.974 26.7893 64.8613 27.3086 64.964 25.9718C64.9759 25.8173 64.9596 25.6689 64.9764 25.5124C64.9955 25.3316 65.0264 25.3435 65.0264 25.0909ZM64.9675 22.261H65.2622C65.2622 22.635 65.3211 22.7533 65.3211 23.1454V24.1476H64.9675V22.261ZM83.3024 23.2043C83.4669 22.498 84.1877 22.2191 84.5153 23.1706C84.6296 23.5028 84.6583 23.9011 84.6583 24.3245C84.3971 24.1497 83.4154 23.3732 83.3024 23.2043ZM56.8317 22.8507V22.6149C56.8317 22.2899 56.8739 22.1693 57.1854 22.1432V22.9686C57.0307 23.0047 56.8317 23.1081 56.8317 22.8507ZM59.2488 21.7895C59.5472 21.7895 59.5521 21.8296 59.7795 21.8485C59.8082 22.1919 59.8974 22.4425 59.8974 22.8507H59.308L59.249 21.7895H59.2488ZM60.6636 19.0778C60.6636 19.3911 60.7489 19.3652 60.6636 19.5493C60.5213 19.4449 60.447 19.307 60.4279 19.0778H60.6636ZM59.0128 18.547C59.266 18.6146 59.2467 18.6985 59.3075 18.9596C59.0333 18.9368 59.0189 18.8275 59.0128 18.547ZM58.9539 17.0141L59.0128 18.547L58.9539 17.0141ZM58.8949 15.4812H59.0128L59.1391 15.8912C58.7428 15.8034 58.8949 15.7656 58.8949 15.4812ZM64.8494 14.7736C64.8494 14.1234 64.8186 14.1153 64.9673 13.4767H65.203C65.3335 14.0363 65.262 15.6871 65.262 16.3655C65.262 16.5013 65.221 16.5423 65.0851 16.5423C64.7483 16.5423 64.927 16.099 64.9097 15.7773C64.8923 15.4465 64.8494 15.1946 64.8494 14.7736ZM60.6047 17.5446C60.5693 17.1189 60.3223 16.4522 60.1756 16.0871C60.129 15.9713 59.9461 15.463 59.9065 15.4129C59.7546 15.2214 59.4601 15.3041 59.4259 14.8913C59.5603 14.8601 59.5614 14.8456 59.7206 14.8324C59.588 14.5561 59.4499 14.1765 59.3476 13.8495C59.1861 13.333 58.9979 13.6512 58.7183 13.1228C58.898 13.1268 58.9331 13.1494 59.072 13.1818C58.9818 12.795 58.7673 12.2003 58.6002 11.8848C58.117 12.0139 58.039 12.9048 57.9144 13.3213L56.6631 17.3759C56.3453 18.4343 56.1109 17.5409 55.9295 18.8236C55.8908 19.0976 55.8521 19.4202 55.8044 19.7599C55.7431 20.1967 55.5914 21.7436 55.4516 22.0602C55.3803 22.2221 55.3286 22.2235 55.1891 22.3281C54.4813 22.8591 54.5391 24.0715 55.1807 24.501C55.0488 25.0672 55.0132 26.2166 54.9398 26.8543C54.92 27.0274 54.7825 27.9143 54.8103 27.9676C54.9021 28.1428 55.8183 28.0385 56.0648 28.0385C56.1575 27.6405 56.2044 26.9582 56.2433 26.5074C56.3118 25.7148 56.4802 24.8759 56.4781 24.0892C56.4772 23.7101 56.5322 23.6071 56.5368 23.2635C56.5445 22.6869 56.5753 22.1299 57.126 22.084L57.0044 27.4462C56.9305 28.2474 56.6135 28.0385 59.6609 28.0385C59.6609 27.7016 59.6257 27.5814 59.6052 27.3279L59.3073 22.084C59.4706 22.1623 59.8951 22.2263 60.0092 22.3253C60.0831 22.3892 60.0372 22.2888 60.1001 22.4703L61.0983 28.5466C61.1783 28.9538 61.4734 29.1283 61.596 29.5229C61.8341 30.2913 61.6833 31.4097 61.7295 32.282C61.7437 32.5504 61.7474 32.4052 61.7334 32.6452C61.6854 33.4634 61.7246 34.2937 61.7246 35.113H66.0282C66.0282 33.4587 66.5915 33.0778 67.7727 32.2592C68.09 32.0392 68.3744 31.8636 68.706 31.6597L69.4128 31.2464C69.7709 31.0503 69.6534 30.8345 69.7536 30.4082L70.2655 28.6206C70.3901 28.2737 70.5471 27.8644 70.7051 27.5273C71.1885 26.496 71.7141 25.5289 72.3862 24.6101C72.9087 23.8956 73.5191 23.1552 74.2574 22.6492C75.0751 22.0886 75.9383 21.5181 76.9938 21.4946C77.6809 22.7927 78.0257 24.5688 78.2153 26.1095L78.3497 27.9795C78.808 27.8728 79.3238 27.7775 79.7813 27.7016C80.0555 27.6559 81.1614 27.5143 81.2975 27.449C81.4119 27.3337 80.6084 24.4111 80.583 24.3314L79.4698 21.4946C80.4311 22.0031 81.1207 22.6913 81.5332 22.9094L81.5328 26.8009C81.523 27.8921 81.7042 27.272 83.0662 27.272V24.6189C83.2926 24.6793 83.1969 24.6541 83.3304 24.8265C83.769 25.3929 84.4836 26.4734 84.5402 27.1541C85.1352 27.1541 85.4956 27.0938 86.0729 27.0952C86.6232 27.0963 87.1734 27.0952 87.7237 27.0952C87.6156 26.6311 87.2503 26.1384 87.0129 25.7425C86.2723 24.5069 85.9284 24.1945 86.3538 22.6009C86.6765 21.393 88.0354 20.9217 88.4214 22.3295C88.6188 23.0496 88.5964 25.479 88.5491 26.3292C88.5016 27.1839 88.2134 27.1541 89.7279 27.1541L89.7277 24.1472C89.7263 23.7397 89.7801 23.5321 89.7887 23.2057C89.8176 22.0924 89.9998 20.7113 91.3795 20.7223C92.3651 20.73 92.5664 21.7569 92.5587 22.5546C92.5548 22.9721 92.6147 23.1417 92.6191 23.4965L92.5557 25.4422C92.5546 26.1763 92.6168 26.7012 92.6168 27.4488C93.1267 27.4602 93.6637 27.6739 94.1495 27.6846C94.1495 26.9838 94.2198 25.7446 94.1245 25.1154C93.954 23.9892 93.9673 21.4079 94.6441 20.5152C95.0566 19.971 95.7474 19.6271 96.485 19.7466C98.1868 20.022 97.8635 22.2864 97.8635 23.6167C97.8635 24.5374 97.8045 25.2442 97.8045 26.1519C97.8045 27.0362 97.8045 27.9206 97.8045 28.8049C98.0004 28.9086 98.1558 28.9587 98.3746 29.06C99.3249 29.5003 100.202 30.0336 101.071 30.6088L102.049 31.3401V17.4856C101.821 17.4668 101.354 17.323 101.157 17.2573C99.949 16.8538 99.7312 16.6283 98.3946 16.9556C96.5234 17.4139 94.6413 17.7515 92.7684 18.1682L88.9754 18.9738C88.2011 19.1379 87.8917 19.3606 87.1336 18.9596C87.5054 17.3633 86.0044 15.9837 84.4936 16.2017C84.2059 16.2432 83.7425 16.4331 83.5503 16.6146C82.8786 17.2482 82.9138 17.665 82.4982 18.3924C82.3072 18.7264 81.9291 18.7222 81.5917 18.9007C81.5917 19.2152 81.5908 19.5297 81.592 19.8442C81.5936 20.2403 81.5328 20.4814 81.5328 20.7873L79.943 20.1958C79.3412 19.8629 79.4144 19.5202 78.5107 19.3878C77.1746 19.1921 76.8331 19.4181 75.7477 19.8365C75.4506 19.9512 75.1629 19.9964 74.8584 20.0676C72.6737 20.5788 70.6636 21.7105 69.2113 23.3814C69.2113 19.8167 69.1523 16.4172 69.1523 12.8875C68.9401 12.7454 68.7171 12.6177 68.5037 12.4747C68.5037 11.7301 68.6069 11.7082 68.196 11.3085C67.2348 10.3731 65.8828 10.706 64.3177 10.706V11.944L63.787 12.1798V16.4834C63.6591 16.5132 63.4266 16.6071 63.3155 16.6602V18.5468H63.8462C64.1465 17.9793 64.3077 17.347 65.2016 17.3626C66.3511 17.3824 66.9053 18.7229 66.1328 19.4775C65.6753 19.9246 64.8499 20.062 64.342 19.5838C64.2378 19.4857 63.9231 18.928 63.8462 18.7826H63.3155V20.3745C63.4266 20.4278 63.6594 20.5215 63.787 20.5513C63.787 22.0444 63.7947 23.5396 63.7863 25.0327C63.7838 25.4721 63.8492 25.6528 63.8469 26.0922C63.8409 27.1499 63.949 28.4475 63.7283 29.3946H63.4336C63.2137 28.9363 62.994 26.9321 62.8864 26.2868L61.6703 18.8364C61.5857 18.3425 61.1694 18.571 60.9353 18.1564C60.8204 17.953 60.7529 17.716 60.6038 17.5446H60.6047Z" fill="#EBEBEB"/>
<path fill-rule="evenodd" clip-rule="evenodd" d="M42.1484 40.7718C42.4098 40.8417 42.8809 41.265 43.0428 41.4693C43.8358 42.4692 43.8582 44.155 43.8582 45.5472V52.445H59.4222C59.558 52.445 59.599 52.404 59.599 52.2682V31.752H42.1484V40.7721V40.7718Z" fill="#EAA700"/>
<path fill-rule="evenodd" clip-rule="evenodd" d="M0 77.6198C0 77.877 1.36287 78.7653 1.556 78.8937C2.13679 79.2795 2.73646 79.6697 3.36081 79.9777C4.06042 80.3227 4.4588 80.5855 5.30587 80.9215C5.99919 81.1966 6.66595 81.4638 7.42077 81.6954C11.398 82.915 14.5608 83.1617 19.1603 83.1617V72.1371C15.5181 72.9856 15.3774 69.2141 15.3874 66.5363C15.3893 66.01 15.327 65.7177 15.3282 65.1807C15.3291 64.7092 15.3282 64.2374 15.3282 63.7656H0V77.6201V77.6198Z" fill="#EAA700"/>
<path fill-rule="evenodd" clip-rule="evenodd" d="M86.1953 71.6639C86.1953 73.1244 86.2543 74.3866 86.2543 75.8496V82.1578H104.471V66.4757C104.471 66.3398 104.43 66.2988 104.294 66.2988H89.6738C89.6738 67.3537 89.5578 68.2737 89.2875 69.2142C89.1943 69.5385 88.9432 70.0783 88.7454 70.3229C87.8212 71.4661 86.7433 71.3738 86.1953 71.6639Z" fill="#EAA700"/>
<path fill-rule="evenodd" clip-rule="evenodd" d="M16.3329 27.7429C16.3329 27.5835 16.3611 27.5803 16.3918 27.4482H17.5709V28.2146H16.3329V27.7431V27.7429ZM14.9181 27.4482H16.0971C16.1032 27.7147 16.1561 27.6825 16.1561 27.9789V28.2146H14.9181V27.4482ZM13.5033 27.4482H14.6823V28.2146H13.5033V27.4482ZM12.0293 27.5071L13.2673 27.4482V28.2736L12.0293 28.2146V27.5071ZM11.7935 28.2146H10.6144V27.4482H11.6756C11.9918 27.4482 11.7935 27.9109 11.7935 28.2146ZM16.3329 26.0923H17.5709V27.2124H16.3329V26.0923ZM14.9181 26.0923H16.1561V27.2124H14.9181V26.0923ZM13.5033 26.0923H14.6823V27.2124H13.5033V26.0923ZM12.0293 26.0923H13.2673V27.2124H12.0293V26.0923ZM11.7935 26.5051V27.1537L10.6144 27.2126V26.0925H11.8524C11.8371 26.2768 11.7935 26.302 11.7935 26.5053V26.5051ZM9.37621 26.7998C9.37621 27.8729 9.43515 28.7372 9.43515 29.8065C9.56561 29.7439 9.8969 29.6733 10.039 29.6439C10.7111 29.5062 10.6142 29.7562 10.6142 28.5683H11.6164C11.8417 28.5683 11.6379 28.5865 11.7933 28.5093V29.2758H12.029V28.5683L13.2081 28.5093V29.0401C13.5454 29.0326 13.5028 29.0529 13.5028 28.5093H14.6819V28.863H14.9176C14.9176 28.3975 14.8932 28.6776 14.9766 28.5093H16.0967C16.1195 28.7833 16.0335 28.6126 16.2146 28.7451C16.6155 28.6382 16.1158 28.5664 16.7401 28.5632C16.9663 28.562 17.2194 28.5473 17.4251 28.5462L17.9798 28.6305C18.2162 28.6307 18.4539 28.6272 18.6908 28.6272V25.3848H9.37598V26.7996L9.37621 26.7998Z" fill="#EBEBEB"/>
<path fill-rule="evenodd" clip-rule="evenodd" d="M31.0655 70.3683C32.6849 70.3683 34.1055 70.4272 35.723 70.4272C35.723 69.841 35.7018 68.8747 35.7659 68.4067C35.7992 68.1627 35.7799 67.9044 35.7831 67.6553C35.792 66.9732 35.9164 67.0668 34.8976 67.0668C34.2316 67.0668 34.2078 67.1246 33.8949 67.1302C33.641 67.1346 33.5914 67.0955 33.415 67.0755L31.0655 67.0668C31.0655 67.6155 31.1098 68.2242 31.0315 68.7426C30.9509 69.2745 31.028 69.917 31.0655 70.3685V70.3683Z" fill="#E9A800"/>
<path d="M121.398 50.5813V45.9286H122.169C122.431 45.74 122.672 45.4738 122.89 45.13C123.108 44.7825 123.295 44.3037 123.45 43.6937C123.605 43.08 123.716 42.2777 123.783 41.2869L124.104 36.4844H131.619V45.9286H132.861V50.5702H130.554V47.8418H123.705V50.5813H121.398ZM124.942 45.9286H129.312V38.4642H126.267L126.09 41.2869C126.041 42.0374 125.962 42.7029 125.851 43.2833C125.744 43.8637 125.613 44.3721 125.457 44.8083C125.306 45.2409 125.134 45.6143 124.942 45.9286ZM134.321 36.4844H136.716V43.6271H136.811L141.718 36.4844H143.82V47.8418H141.419V40.6935H141.336L136.4 47.8418H134.321V36.4844ZM155.825 40.4606H153.396C153.352 40.1463 153.261 39.8672 153.124 39.6232C152.988 39.3755 152.812 39.1648 152.598 38.991C152.383 38.8172 152.135 38.6841 151.854 38.5917C151.577 38.4993 151.276 38.4531 150.951 38.4531C150.363 38.4531 149.851 38.5991 149.414 38.8912C148.978 39.1795 148.64 39.601 148.4 40.1556C148.159 40.7064 148.039 41.3756 148.039 42.1631C148.039 42.9727 148.159 43.653 148.4 44.2039C148.644 44.7547 148.984 45.1707 149.42 45.4516C149.856 45.7326 150.361 45.8731 150.934 45.8731C151.256 45.8731 151.553 45.8306 151.827 45.7456C152.104 45.6605 152.35 45.5367 152.564 45.374C152.779 45.2076 152.956 45.0061 153.097 44.7695C153.241 44.5329 153.341 44.263 153.396 43.9599L155.825 43.971C155.762 44.4922 155.605 44.995 155.354 45.4794C155.106 45.96 154.771 46.3907 154.35 46.7715C153.932 47.1486 153.433 47.4481 152.853 47.6699C152.276 47.888 151.623 47.9971 150.895 47.9971C149.882 47.9971 148.976 47.7679 148.178 47.3094C147.383 46.851 146.754 46.1874 146.292 45.3185C145.834 44.4497 145.605 43.3979 145.605 42.1631C145.605 40.9246 145.837 39.8709 146.303 39.0021C146.769 38.1333 147.401 37.4715 148.2 37.0167C148.998 36.5583 149.897 36.3291 150.895 36.3291C151.553 36.3291 152.163 36.4215 152.725 36.6064C153.291 36.7912 153.792 37.0611 154.228 37.416C154.664 37.7673 155.019 38.198 155.293 38.7082C155.57 39.2184 155.747 39.8025 155.825 40.4606ZM164.418 47.8418L160.769 43.0005H159.948V47.8418H157.547V36.4844H159.948V41.0207H160.431L164.202 36.4844H167.191L162.76 41.7527L167.396 47.8418H164.418ZM178.4 42.1631C178.4 43.4016 178.165 44.4553 177.696 45.3241C177.23 46.1929 176.594 46.8565 175.788 47.315C174.986 47.7697 174.084 47.9971 173.082 47.9971C172.072 47.9971 171.167 47.7679 170.364 47.3094C169.562 46.851 168.928 46.1874 168.462 45.3185C167.996 44.4497 167.763 43.3979 167.763 42.1631C167.763 40.9246 167.996 39.8709 168.462 39.0021C168.928 38.1333 169.562 37.4715 170.364 37.0167C171.167 36.5583 172.072 36.3291 173.082 36.3291C174.084 36.3291 174.986 36.5583 175.788 37.0167C176.594 37.4715 177.23 38.1333 177.696 39.0021C178.165 39.8709 178.4 40.9246 178.4 42.1631ZM175.965 42.1631C175.965 41.3608 175.845 40.6843 175.605 40.1334C175.368 39.5825 175.034 39.1648 174.601 38.8801C174.169 38.5954 173.662 38.4531 173.082 38.4531C172.501 38.4531 171.995 38.5954 171.562 38.8801C171.13 39.1648 170.793 39.5825 170.553 40.1334C170.316 40.6843 170.198 41.3608 170.198 42.1631C170.198 42.9653 170.316 43.6419 170.553 44.1928C170.793 44.7436 171.13 45.1614 171.562 45.4461C171.995 45.7308 172.501 45.8731 173.082 45.8731C173.662 45.8731 174.169 45.7308 174.601 45.4461C175.034 45.1614 175.368 44.7436 175.605 44.1928C175.845 43.6419 175.965 42.9653 175.965 42.1631ZM180.179 47.8418V36.4844H182.58V41.1704H187.455V36.4844H189.85V47.8418H187.455V43.1502H182.58V47.8418H180.179ZM191.398 38.4642V36.4844H200.725V38.4642H197.248V47.8418H194.875V38.4642H191.398ZM202.261 47.8418V36.4844H204.663V41.1704H209.537V36.4844H211.933V47.8418H209.537V43.1502H204.663V47.8418H202.261ZM215.87 47.8418H213.297L217.218 36.4844H220.312L224.228 47.8418H221.654L218.81 39.0797H218.721L215.87 47.8418ZM215.709 43.3776H221.787V45.252H215.709V43.3776ZM234.312 47.8418H231.917V38.4475H230.297C229.835 38.4475 229.451 38.5159 229.144 38.6527C228.841 38.7858 228.613 38.9817 228.462 39.2405C228.31 39.4993 228.234 39.8173 228.234 40.1944C228.234 40.5678 228.31 40.8802 228.462 41.1316C228.613 41.383 228.841 41.5715 229.144 41.6973C229.447 41.823 229.828 41.8858 230.286 41.8858H232.893V43.8157H229.898C229.029 43.8157 228.286 43.6715 227.669 43.3831C227.051 43.0947 226.58 42.6807 226.255 42.1409C225.929 41.5974 225.766 40.9486 225.766 40.1944C225.766 39.4439 225.925 38.7913 226.243 38.2368C226.565 37.6785 227.029 37.2478 227.635 36.9447C228.245 36.6378 228.979 36.4844 229.837 36.4844H234.312V47.8418ZM228.184 42.6733H230.774L228.012 47.8418H225.362L228.184 42.6733ZM246.771 47.8418L243.122 43.0005H242.301V47.8418H239.899V36.4844H242.301V41.0207H242.783L246.554 36.4844H249.543L245.112 41.7527L249.749 47.8418H246.771ZM252.914 47.8418H250.341L254.261 36.4844H257.356L261.271 47.8418H258.698L255.853 39.0797H255.764L252.914 47.8418ZM252.753 43.3776H258.831V45.252H252.753V43.3776ZM262.638 47.8418V36.4844H267.119C267.98 36.4844 268.714 36.6489 269.32 36.9779C269.927 37.3033 270.389 37.7562 270.707 38.3366C271.028 38.9133 271.189 39.5788 271.189 40.333C271.189 41.0872 271.027 41.7527 270.701 42.3295C270.376 42.9062 269.905 43.3554 269.287 43.677C268.673 43.9987 267.93 44.1595 267.058 44.1595H264.202V42.2352H266.67C267.132 42.2352 267.513 42.1557 267.812 41.9967C268.115 41.834 268.341 41.6104 268.489 41.3257C268.64 41.0373 268.716 40.7064 268.716 40.333C268.716 39.9559 268.64 39.6269 268.489 39.3459C268.341 39.0612 268.115 38.8413 267.812 38.686C267.509 38.527 267.124 38.4475 266.658 38.4475H265.039V47.8418H262.638ZM272.316 38.4642V36.4844H281.644V38.4642H278.167V47.8418H275.794V38.4642H272.316ZM283.75 47.8418H281.177L285.098 36.4844H288.192L292.107 47.8418H289.534L286.689 39.0797H286.601L283.75 47.8418ZM283.589 43.3776H289.667V45.252H283.589V43.3776ZM121.398 69.5813V64.9286H122.169C122.431 64.74 122.672 64.4738 122.89 64.13C123.108 63.7825 123.295 63.3037 123.45 62.6937C123.605 62.08 123.716 61.2777 123.783 60.2869L124.104 55.4844H131.619V64.9286H132.861V69.5702H130.554V66.8418H123.705V69.5813H121.398ZM124.942 64.9286H129.312V57.4642H126.267L126.09 60.2869C126.041 61.0374 125.962 61.7029 125.851 62.2833C125.744 62.8637 125.613 63.3721 125.457 63.8083C125.306 64.2409 125.134 64.6143 124.942 64.9286ZM133.705 66.8418V64.9119L134.027 64.8842C134.441 64.8509 134.775 64.6938 135.03 64.4128C135.286 64.1281 135.476 63.6752 135.602 63.0541C135.731 62.4293 135.814 61.5901 135.851 60.5364L136.04 55.4844H143.748V66.8418H141.413V57.4087H138.269L138.092 61.3627C138.032 62.6345 137.881 63.6734 137.637 64.4794C137.397 65.2853 137.012 65.8806 136.483 66.2651C135.958 66.6495 135.239 66.8418 134.326 66.8418H133.705ZM154.446 66.8418H152.05V57.4475H150.431C149.968 57.4475 149.584 57.5159 149.277 57.6527C148.974 57.7858 148.747 57.9817 148.595 58.2405C148.443 58.4993 148.368 58.8173 148.368 59.1944C148.368 59.5678 148.443 59.8802 148.595 60.1316C148.747 60.383 148.974 60.5715 149.277 60.6973C149.58 60.823 149.961 60.8858 150.42 60.8858H153.026V62.8157H150.031C149.163 62.8157 148.419 62.6715 147.802 62.3831C147.185 62.0947 146.713 61.6807 146.388 61.1409C146.063 60.5974 145.9 59.9486 145.9 59.1944C145.9 58.4439 146.059 57.7913 146.377 57.2368C146.698 56.6785 147.162 56.2478 147.769 55.9447C148.379 55.6378 149.113 55.4844 149.97 55.4844H154.446V66.8418ZM148.318 61.6733H150.908L148.146 66.8418H145.495L148.318 61.6733ZM170.054 59.4606H167.625C167.58 59.1463 167.49 58.8672 167.353 58.6232C167.216 58.3755 167.041 58.1648 166.826 57.991C166.612 57.8172 166.364 57.6841 166.083 57.5917C165.806 57.4993 165.505 57.4531 165.179 57.4531C164.591 57.4531 164.079 57.5991 163.643 57.8912C163.207 58.1795 162.869 58.601 162.628 59.1556C162.388 59.7064 162.268 60.3756 162.268 61.1631C162.268 61.9727 162.388 62.653 162.628 63.2039C162.872 63.7547 163.212 64.1707 163.649 64.4516C164.085 64.7326 164.59 64.8731 165.163 64.8731C165.484 64.8731 165.782 64.8306 166.055 64.7456C166.333 64.6605 166.579 64.5367 166.793 64.374C167.007 64.2076 167.185 64.0061 167.325 63.7695C167.47 63.5329 167.569 63.263 167.625 62.9599L170.054 62.971C169.991 63.4922 169.834 63.995 169.582 64.4794C169.335 64.96 169 65.3907 168.579 65.7715C168.161 66.1486 167.662 66.4481 167.081 66.6699C166.505 66.888 165.852 66.9971 165.124 66.9971C164.111 66.9971 163.205 66.7679 162.406 66.3094C161.612 65.851 160.983 65.1874 160.521 64.3185C160.062 63.4497 159.833 62.3979 159.833 61.1631C159.833 59.9246 160.066 58.8709 160.532 58.0021C160.998 57.1333 161.63 56.4715 162.429 56.0167C163.227 55.5583 164.126 55.3291 165.124 55.3291C165.782 55.3291 166.392 55.4215 166.954 55.6064C167.519 55.7912 168.02 56.0611 168.457 56.416C168.893 56.7673 169.248 57.198 169.521 57.7082C169.799 58.2184 169.976 58.8025 170.054 59.4606ZM178.647 66.8418L174.998 62.0005H174.177V66.8418H171.776V55.4844H174.177V60.0207H174.659L178.43 55.4844H181.42L176.989 60.7527L181.625 66.8418H178.647ZM182.832 55.4844H185.228V62.6271H185.322L190.23 55.4844H192.332V66.8418H189.931V59.6935H189.848L184.912 66.8418H182.832V55.4844ZM193.7 69.5813V64.9286H194.471C194.734 64.74 194.974 64.4738 195.192 64.13C195.41 63.7825 195.597 63.3037 195.752 62.6937C195.907 62.08 196.018 61.2777 196.085 60.2869L196.407 55.4844H203.921V64.9286H205.163V69.5702H202.856V66.8418H196.007V69.5813H193.7ZM197.244 64.9286H201.614V57.4642H198.569L198.392 60.2869C198.344 61.0374 198.264 61.7029 198.153 62.2833C198.046 62.8637 197.915 63.3721 197.76 63.8083C197.608 64.2409 197.436 64.6143 197.244 64.9286ZM217.06 61.1631C217.06 62.4016 216.825 63.4553 216.356 64.3241C215.89 65.1929 215.254 65.8565 214.448 66.315C213.646 66.7697 212.744 66.9971 211.742 66.9971C210.732 66.9971 209.827 66.7679 209.024 66.3094C208.222 65.851 207.588 65.1874 207.122 64.3185C206.656 63.4497 206.423 62.3979 206.423 61.1631C206.423 59.9246 206.656 58.8709 207.122 58.0021C207.588 57.1333 208.222 56.4715 209.024 56.0167C209.827 55.5583 210.732 55.3291 211.742 55.3291C212.744 55.3291 213.646 55.5583 214.448 56.0167C215.254 56.4715 215.89 57.1333 216.356 58.0021C216.825 58.8709 217.06 59.9246 217.06 61.1631ZM214.625 61.1631C214.625 60.3608 214.505 59.6843 214.265 59.1334C214.028 58.5825 213.694 58.1648 213.261 57.8801C212.829 57.5954 212.322 57.4531 211.742 57.4531C211.161 57.4531 210.655 57.5954 210.222 57.8801C209.79 58.1648 209.453 58.5825 209.213 59.1334C208.976 59.6843 208.858 60.3608 208.858 61.1631C208.858 61.9653 208.976 62.6419 209.213 63.1928C209.453 63.7436 209.79 64.1614 210.222 64.4461C210.655 64.7308 211.161 64.8731 211.742 64.8731C212.322 64.8731 212.829 64.7308 213.261 64.4461C213.694 64.1614 214.028 63.7436 214.265 63.1928C214.505 62.6419 214.625 61.9653 214.625 61.1631ZM225.71 66.8418L222.061 62.0005H221.24V66.8418H218.839V55.4844H221.24V60.0207H221.722L225.493 55.4844H228.482L224.052 60.7527L228.688 66.8418H225.71Z" fill="#D5D5D5"/>
</svg>
