<svg width="165" height="45" viewBox="0 0 165 45" fill="none" xmlns="http://www.w3.org/2000/svg">
<g filter="url(#filter0_iiiiii_3766_45157)">
<path d="M0.78125 22.3853C0.78125 10.0222 10.8035 0 23.1665 0H141.773C154.136 0 164.158 10.0222 164.158 22.3853C164.158 34.7483 154.136 44.7705 141.773 44.7705H23.1665C10.8035 44.7705 0.78125 34.7483 0.78125 22.3853Z" fill="#464646"/>
</g>
<path fill-rule="evenodd" clip-rule="evenodd" d="M33.5472 35.0093H39.9097C40.2779 35.0093 40.6388 35.129 40.6388 35.5395C40.6388 36.0906 40.0009 36.0477 39.6225 36.0477H33.7903C33.3661 36.0477 32.9871 36.0431 32.9067 35.6264C32.8708 35.4405 32.9288 35.2834 33.0436 35.1685C33.1628 35.0491 33.3174 35.0094 33.5472 35.0094V35.0093ZM46.8686 32.999C46.8686 32.5727 47.0858 32.4246 47.5314 32.4246H49.7848C49.9702 32.4246 50.1376 32.4623 50.249 32.5348C50.4709 32.6794 50.5909 33.2121 50.1741 33.3882C49.8795 33.5126 49.3439 33.4395 49.0556 33.4399L48.4814 33.4628C48.1319 33.4628 47.2825 33.5207 47.0633 33.3566C46.9744 33.2901 46.8687 33.1492 46.8687 32.9989L46.8686 32.999ZM45.1013 33.4629C44.7166 33.4629 42.7505 33.507 42.4911 33.4C42.048 33.2172 42.0843 32.4246 42.8258 32.4246H45.0792C45.9513 32.4246 45.9213 33.0893 45.6134 33.3343C45.4847 33.4367 45.3251 33.4629 45.1013 33.4629ZM38.4957 32.4246C38.8874 32.4246 40.4499 32.3995 40.7703 32.4696C41.2365 32.5715 41.2788 33.1972 40.8603 33.3975C40.6296 33.508 38.5486 33.4629 38.1863 33.4629C37.4491 33.4629 37.3555 32.6884 37.8852 32.4769C37.9891 32.4353 38.3431 32.4246 38.4956 32.4246H38.4957ZM33.5471 32.4246H35.7343C36.0515 32.4246 36.4854 32.4776 36.4854 32.8885C36.4854 33.0853 36.4705 33.2997 36.1904 33.411C35.975 33.4965 34.0009 33.4629 33.6797 33.4629C33.2302 33.4629 32.9759 33.3972 32.8989 33.0049C32.8349 32.6783 33.1058 32.4246 33.5471 32.4246ZM35.9993 28.5143C35.9993 28.6482 35.9832 28.7153 35.9771 28.8456C35.9632 29.1487 35.6979 29.3317 35.3807 29.3317C34.9899 29.3317 33.349 29.3895 33.1038 29.2227C33.0082 29.1576 32.9527 29.0742 32.9254 28.9371C32.8615 28.6169 32.8843 28.0048 32.8843 27.6527C32.8843 27.4031 32.8922 27.1126 32.9938 26.9668C33.1319 26.7682 33.3206 26.7469 33.5691 26.7469H35.4028C36.1125 26.7469 35.9993 27.4484 35.9993 28.0282C35.9993 28.1461 35.988 28.1918 35.9796 28.2753C35.9679 28.3924 35.9993 28.3967 35.9993 28.5142V28.5143ZM42.7153 27.7632C42.7153 27.5459 42.8715 27.3806 43.0548 27.3073C43.1661 27.2628 43.6278 27.255 43.7978 27.255H49.851C50.5925 27.255 50.5877 28.0686 50.1525 28.2414C49.8651 28.3555 45.0362 28.2723 44.1513 28.2713C43.7177 28.2708 43.1497 28.4077 42.8632 28.1233C42.7869 28.0475 42.7153 27.9058 42.7153 27.7631V27.7632ZM29.7915 31.563L29.7686 34.9219C29.7701 35.0495 29.7926 35.0883 29.792 35.2298C29.791 35.4806 29.7694 35.6475 29.7694 35.8931C29.7694 36.3058 29.7826 36.9104 29.8923 37.2946C30.0707 37.9196 30.5293 38.4977 31.0795 38.8025C31.5573 39.067 32.0101 39.1627 32.6634 39.1627H50.5357C51.5417 39.1627 52.0703 39.0286 52.628 38.5597C52.9861 38.2586 53.3128 37.8259 53.4428 37.3642C53.5319 37.0483 53.5575 36.797 53.5615 36.4666C53.563 36.3391 53.5856 36.3001 53.585 36.1587L53.5846 34.1256C53.5857 33.9097 53.5623 33.7256 53.5623 33.4851C53.5623 32.1875 53.5319 26.5372 53.5751 26.2517C53.6103 26.019 53.5961 25.5519 53.5684 25.3492C53.5293 25.0644 53.5882 24.9634 53.4789 24.5108C53.3154 23.8338 52.8405 23.291 52.2633 22.9428C51.8819 22.7127 51.3607 22.5938 50.7566 22.5938H32.4645C32.0331 22.5938 31.5736 22.7191 31.265 22.8524C30.6761 23.1068 30.0882 23.7619 29.9065 24.4099C29.7802 24.8602 29.7914 25.1873 29.7914 25.7529C29.7914 26.7249 29.7879 27.6975 29.792 28.6695C29.7926 28.816 29.7687 28.86 29.7686 28.9997L29.7692 30.1052C29.7988 30.6557 29.7913 31.0012 29.7913 31.5632L29.7915 31.563Z" fill="#EBEBEB"/>
<path fill-rule="evenodd" clip-rule="evenodd" d="M47.5246 15.8558V20.937H53.0697C53.1779 20.937 53.1359 20.6861 53.1359 20.4731C53.1359 19.9941 53.1171 19.3575 53.1962 18.9428C53.2491 18.6658 53.3374 18.3462 53.4941 18.1802C53.8422 17.8112 55.18 17.6171 55.4614 18.9208C55.623 19.6702 55.3878 20.3561 54.9165 20.7073L54.6102 20.9312C54.5519 20.9733 54.4967 21.0021 54.4323 21.0404L52.6791 22.0266C52.5227 22.1142 52.3661 22.1452 52.3407 22.2404C52.4791 22.2726 52.7662 22.4596 52.8773 22.5433C53.1238 22.729 53.3366 22.9161 53.5245 23.1552C53.7198 23.4037 53.8705 23.6439 53.9915 23.9476C54.1739 24.4054 54.2426 24.8651 54.2406 25.3774C54.2385 25.9443 54.2406 26.5115 54.2406 27.0785L55.4262 26.4304C56.4005 25.9448 58.245 25.082 59.0524 24.5338C59.4049 24.2945 59.5497 24.1311 59.811 23.9226C59.8733 23.8728 59.9901 23.7554 60.0414 23.6891C60.1208 23.5862 60.1835 23.545 60.2593 23.4431C60.4073 23.2439 60.6073 22.9908 60.7283 22.7633C60.7617 22.7007 60.7747 22.664 60.8111 22.6031C61.0223 22.2509 61.2003 21.6498 61.2823 21.2407C61.3605 20.8514 61.4089 20.3013 61.4203 19.7402V19.2363C61.4111 18.7899 61.3763 18.3654 61.3119 18.0408C61.1458 17.2017 60.8633 16.5576 60.3447 15.915C60.052 15.5523 59.7127 15.2492 59.3306 14.9851C59.2426 14.9243 59.1815 14.8858 59.088 14.8299C57.7057 14.0024 56.3015 13.8232 54.5939 13.8232C53.153 13.8232 51.6979 14.0286 50.5757 14.356C49.856 14.5661 48.8326 14.9583 48.1914 15.3739L47.6728 15.7169C47.6231 15.7537 47.5244 15.7946 47.5244 15.8558L47.5246 15.8558Z" fill="#E9A800"/>
<path fill-rule="evenodd" clip-rule="evenodd" d="M22.002 15.9223V20.4069C22.002 20.4578 22.0174 20.4732 22.0683 20.4732H27.6576C27.6576 20.3039 27.6763 20.1898 27.6804 20.0542C27.6921 19.6594 27.6644 19.1842 27.787 18.769C27.9318 18.279 28.1833 17.9105 28.7622 17.9105C29.0253 17.9105 29.2755 18.0065 29.4377 18.1186C29.5122 18.1701 29.603 18.2676 29.6552 18.343C30.0782 18.9538 30.1408 20.5355 29.4747 21.0754C28.885 21.5534 26.7106 21.4453 25.8681 21.4453V25.2009C26.6578 25.2009 27.9802 25.1541 28.7274 25.3019C28.8727 25.3306 28.9669 25.3702 29.0936 25.3998C29.0936 24.5654 29.277 23.8401 29.7435 23.2441C30.1737 22.6945 30.707 22.2898 31.4105 22.0833C31.6104 22.0246 31.9608 21.9372 32.2078 21.9307L32.6507 21.9079C32.7957 21.9102 32.8404 21.9314 33.1142 21.9314H35.0583C35.1342 21.9314 35.2355 21.7277 35.2753 21.6623C35.3366 21.5612 35.3915 21.4551 35.4403 21.3413C35.7376 20.6469 35.8404 20.0739 35.8527 19.3015C35.8543 19.2025 35.8741 19.1697 35.8664 19.0909C35.8577 19.0019 35.8528 18.9382 35.8535 18.8384C35.8584 18.1709 35.6565 17.3575 35.4041 16.8357C35.3728 16.7709 35.3639 16.7277 35.3308 16.6661C35.2108 16.4432 34.9935 16.0969 34.8309 15.9067C33.8174 14.7225 32.3904 14.1643 30.8868 13.9523C30.7626 13.9347 30.5882 13.9008 30.4616 13.8914C30.3096 13.8802 30.1398 13.8775 29.99 13.8549C29.8382 13.8321 29.6742 13.8592 29.5226 13.8363C29.3703 13.8133 29.1903 13.8236 29.0272 13.8236C27.434 13.8236 25.166 14.208 23.7988 14.8473C23.6581 14.9131 23.5454 14.9628 23.4085 15.0313C23.2738 15.0987 23.1574 15.1517 23.0255 15.2226C22.6484 15.4256 22.4653 15.5682 22.1432 15.7764C22.0906 15.8104 22.002 15.8543 22.002 15.9224L22.002 15.9223Z" fill="#E9A800"/>
<path fill-rule="evenodd" clip-rule="evenodd" d="M36.7047 13.8456V15.0606H35.9315V12.8956C35.9315 12.2325 36.4696 12.2433 36.6244 12.512C36.711 12.6623 36.6902 12.7096 36.706 12.9164C36.7309 13.2415 36.7047 13.4956 36.7047 13.8455V13.8456ZM40.4604 5.87041C40.6193 5.87041 40.7429 5.91153 40.8801 5.91459C40.818 5.99935 40.6545 5.96688 40.4918 5.99019C40.3267 6.01385 40.2066 6.00494 40.0647 6.0492C39.9475 6.08578 39.8305 6.13257 39.6953 6.16575C39.6102 6.1867 39.3529 6.22389 39.2673 6.22389C39.5204 5.84588 39.7299 5.88796 40.1725 5.60467C40.2486 5.55596 40.299 5.48324 40.3715 5.42815C40.7903 5.11012 40.8306 5.29904 41.1231 5.49494C41.0659 5.74016 41.1595 5.71249 40.8709 5.75081C40.6897 5.77491 40.5382 5.75422 40.4604 5.8705V5.87041ZM42.4265 4.65538C42.4476 4.74582 42.4486 4.75909 42.4486 4.87633C42.3741 4.87013 42.3536 4.87031 42.3488 4.78554C42.3447 4.7143 42.3741 4.69056 42.4265 4.65546V4.65538ZM40.5045 2.33574C40.5397 2.38829 40.5313 2.35878 40.5487 2.42408C40.6562 2.42408 40.6565 2.41631 40.7254 2.37991C40.7254 2.5477 40.7033 2.62016 40.7033 2.77756C40.5487 2.79039 40.3251 2.87935 40.1732 2.77756C40.1418 2.84277 40.1483 2.84836 40.1069 2.91008C39.792 2.83675 39.8298 2.93217 39.5545 2.93217C39.6069 3.15679 39.8174 3.15312 40.0185 3.15312C40.002 3.2241 39.9878 3.22375 39.9662 3.2997C39.9108 3.49446 39.9103 3.58159 39.6769 3.65108C39.501 3.70346 39.2658 3.64977 39.0769 3.69176C39.0005 3.7087 38.9863 3.73271 38.9139 3.74964C39.0119 4.17034 39.6397 4.02577 39.9158 3.93419C40.171 3.84951 40.4287 3.90425 40.7032 3.90425C40.7032 4.05641 40.7043 4.05894 40.5265 4.05894C40.6351 4.52495 40.5806 4.13228 40.063 4.41286C39.8857 4.50897 39.6815 4.45319 39.4714 4.4071C39.0389 4.31211 38.9383 4.47868 38.5604 4.47868C38.3718 4.47868 38.1411 4.40552 38.0744 4.65538C37.9309 4.64342 37.888 4.46305 37.5663 4.63329C37.6254 4.88698 37.9285 4.80998 38.2291 4.80998C38.4096 4.80998 38.5173 4.76581 38.6709 4.76581C38.9602 4.76581 39.0507 4.87624 39.39 4.75586C39.4424 4.73726 39.6732 4.60841 39.7333 4.70741C39.7527 4.73945 39.7396 4.71116 39.7353 4.78659C39.7313 4.85494 39.7257 4.95097 39.7245 5.01217C39.7222 5.13098 39.7755 5.29633 39.7755 5.42859C39.4255 5.51013 39.3202 5.85749 38.9802 5.93667C38.9802 6.30237 38.893 6.03654 38.8033 6.26798C38.7299 6.45759 38.7922 6.40242 38.446 6.44083C38.2265 6.46518 37.9846 6.47907 37.7835 6.55152C37.689 6.58557 37.6589 6.59317 37.6326 6.66571L38.2512 6.59945C38.3519 6.5881 38.4659 6.58636 38.5765 6.57117C38.8163 6.53825 38.7795 6.59945 38.9139 6.59945C38.9971 6.59945 39.028 6.48535 39.1793 6.46728C39.2995 6.45288 39.4579 6.44685 39.5616 6.42983C39.6612 6.41342 40.394 6.13135 40.394 6.33441L40.3498 6.75415C40.2976 6.7792 40.1725 6.80513 40.1068 6.82041C40.1068 7.0583 40.0878 8.11733 40.1543 8.29865C40.2183 8.47334 40.1744 8.23903 40.2467 8.40219C40.2913 8.50241 40.2615 10.436 40.2615 10.6865C40.528 10.8144 40.4062 10.7725 40.4476 11.0527C40.4722 11.2192 40.4604 11.4149 40.4604 11.5922C40.3455 11.5314 40.2422 11.479 40.1301 11.4143L39.1526 10.8233C39.0183 10.7387 37.8971 10.0237 37.8534 10.0237C37.7326 10.0237 37.4847 10.1711 37.3935 10.2265L36.1566 10.9778C36.0059 11.0683 34.6282 11.8911 34.5397 12.0119H34.9815V12.4759H33.9874C33.9874 12.364 33.9723 12.3622 33.9653 12.277C34.0912 12.277 34.2132 12.2353 34.3188 12.2107C34.3207 12.1239 34.3127 12.1589 34.3408 12.1003L33.9659 12.0517C33.9846 11.8195 34.4805 12.0552 34.6722 11.7689C34.3066 11.5241 33.8939 11.8668 33.8548 11.1946C33.8298 10.7643 33.7223 10.3414 33.7223 9.91317C33.8542 9.88244 33.953 9.8848 33.9654 9.73648C33.8863 9.71535 33.9326 9.71701 33.8606 9.68663C33.8151 9.66742 33.7682 9.65878 33.7223 9.64813C33.727 9.64508 33.7353 9.63696 33.738 9.64176C33.7407 9.64665 33.7503 9.63687 33.7541 9.63573L34.0417 9.59191C34.1607 9.56755 34.2211 9.52923 34.2746 9.44926C34.1713 9.25406 33.8969 9.25581 33.6561 9.25039C33.6137 9.06864 33.4558 7.446 33.4359 7.15092C33.4279 7.0315 33.413 6.96952 33.413 6.84241C33.595 6.84241 33.6364 6.80836 33.7002 6.6878C33.5751 6.65436 33.5487 6.60347 33.3688 6.59945C33.3688 6.27967 33.7523 6.63149 33.9212 6.31224C33.7716 6.08884 33.2257 6.15763 32.9712 6.15763L32.9715 5.14111C32.9724 4.97638 32.9479 4.90872 32.9488 4.74407C32.9503 4.47353 32.943 4.229 32.8828 3.97051C32.7104 4.01067 32.7719 4.14301 32.7723 4.47868L32.7294 6.00442C32.7325 6.23463 32.7901 6.15772 32.22 6.15772C32.0398 6.15772 31.8388 6.19002 31.8002 6.33441C31.9523 6.56156 32.3525 6.33773 32.3525 6.55537C32.3525 6.68579 32.1797 6.60382 32.0211 6.70997C32.1065 6.83752 32.1646 6.82599 32.3304 6.86467C32.3304 7.05088 32.2823 7.26695 32.2661 7.46302C32.2341 7.84845 32.0875 9.00787 32.0875 9.27265C31.9147 9.27265 31.4909 9.24463 31.4909 9.47152C31.4909 9.60361 31.9144 9.62622 32.0211 9.62622L31.877 9.70295C31.8094 9.74076 31.8094 9.7659 31.7782 9.825C31.831 9.85294 31.9356 9.89859 31.9991 9.91335C31.9991 10.3261 31.8986 10.7408 31.8661 11.15C31.8238 11.682 31.5223 11.5405 31.1756 11.6746C31.1142 11.6984 31.1179 11.7089 31.0492 11.7249C31.1301 12.0724 31.7353 11.806 31.7562 12.0563C31.6297 12.0591 31.5232 12.1005 31.3806 12.1005C31.3898 12.2106 31.4049 12.2044 31.492 12.2321C31.5553 12.2523 31.6344 12.2754 31.712 12.2772C31.6256 12.6477 31.3068 12.5188 31.005 12.5202C30.8592 12.5208 30.7851 12.5074 30.6736 12.4981V10.2668H29.061C29.061 9.91326 29.1516 9.88908 28.7959 9.89117L25.3053 9.91335C25.3053 10.0311 25.3017 10.1563 25.3274 10.2668L24.2672 10.2396C24.0947 10.2395 23.9845 10.2641 23.8477 10.2673C23.4986 10.2753 23.4717 10.1807 23.4717 11.2168C23.4717 12.1736 23.5159 13.1202 23.5159 14.0666C23.656 14.034 23.7961 13.9587 23.9331 13.9094L25.0156 13.5559C25.0869 13.5356 25.217 13.5305 25.217 13.448V11.769C25.217 11.6929 25.2006 11.6834 25.1949 11.6144H29.1714V12.9399C29.1714 13.0548 29.5829 12.996 29.7739 13.0222L30.437 13.0661C30.516 13.0763 30.6955 13.0959 30.7527 13.087C30.79 13.0811 30.8785 13.0588 30.9002 13.0559L31.3802 13.0507C31.4996 13.062 31.5473 13.1058 31.5574 13.2271C31.8873 13.304 32.236 13.3829 32.5543 13.4893C32.6473 13.5204 32.7779 13.5782 32.8829 13.5805V13.4258C32.8829 13.2877 33.311 13.3337 33.3611 12.8869C33.3939 12.5938 33.1077 12.3654 32.7724 12.3654C32.4429 12.3654 32.4483 12.5652 32.2864 12.6085C32.2229 12.4954 32.3491 12.4223 32.4484 12.3728C32.5412 12.3265 32.5833 12.2785 32.6841 12.255V7.19597H32.7503V12.255C32.8176 12.2535 32.8309 12.245 32.8828 12.2329C32.8828 11.9344 32.8608 11.716 32.8608 11.4155V7.37266C32.8608 7.27114 32.87 7.2171 32.9491 7.19597C32.9491 7.53836 32.9246 12.0134 32.95 12.1879C32.9752 12.3611 33.2883 12.3242 33.4147 12.6952C33.4353 12.7557 33.4272 12.8073 33.5014 12.8073H34.9815V12.8957H33.5455C33.4208 12.8957 33.3804 13.1843 33.3034 13.25C33.1445 13.3858 32.9711 13.3816 32.9711 13.5805C32.9711 13.6748 33.2692 13.7592 33.353 13.795C33.6349 13.9158 33.8802 14.0665 34.1409 14.2222C34.2052 14.2606 34.2585 14.2989 34.3276 14.3449C34.3875 14.3847 34.4581 14.4483 34.5175 14.4642C34.412 14.2442 34.2966 13.5653 34.2966 13.2933C34.2966 12.9373 34.8189 13.0725 35.0256 13.0725V14.8619C35.0256 14.9375 35.2105 15.0719 35.2621 15.1335C35.3497 15.2382 35.4186 15.3151 35.5048 15.4211L35.8279 15.8712C35.8583 15.9241 35.8905 16.0107 35.9535 16.0107C37.0346 16.0107 36.9038 16.1149 36.9035 15.6793V14.4643C36.9035 14.107 36.8759 13.9925 37.012 13.7554C37.1178 13.5712 37.2871 13.4947 37.4558 13.3818C37.4558 13.0303 37.3051 12.3434 37.8976 12.3434C38.0629 12.3434 38.1881 12.5521 38.2203 12.7055L38.2511 13.3597H39.0243C39.0243 13.0298 38.9141 12.3435 39.4219 12.3435C39.6028 12.3435 39.7174 12.4553 39.7621 12.6218C39.7855 12.7087 39.7916 12.7984 39.7985 12.8953C39.841 13.4845 39.5809 13.3598 40.5045 13.3598C40.5045 12.9858 40.5265 12.691 40.5265 12.3214C40.5423 12.3441 40.5306 12.3233 40.5508 12.3635C40.6586 12.5784 40.6154 12.8604 40.6145 13.0952C40.6139 13.2218 40.6349 13.2632 40.6371 13.3598H42.3381C42.3381 13.0314 42.2319 12.2206 42.1261 11.9149C42.0287 11.633 41.9184 11.4791 41.9184 11.1285C41.9184 10.8975 41.8964 10.6355 41.9543 10.4133C41.9856 10.2935 42.0289 10.1982 42.0289 10.068C42.0289 9.71448 41.939 9.42718 41.9404 9.05187C41.9413 8.84349 41.9161 8.7066 41.9174 8.52109L41.9184 6.82049C41.857 6.78802 41.8188 6.77213 41.7418 6.75423C41.7418 6.62686 41.701 6.50264 41.7718 6.38662C41.8201 6.30743 41.9277 6.24292 41.9848 6.15772C41.9069 6.01062 41.844 5.83025 41.8095 5.67023C41.7948 5.60223 41.79 5.52732 41.7639 5.47285C41.86 5.47503 42.2499 5.52401 42.2499 5.64954C42.2499 6.12262 42.1051 6.02554 42.1616 6.26815C42.2627 6.25968 42.2893 6.22424 42.3303 6.14968C42.458 5.91764 42.4267 5.62196 42.4267 5.36242C42.5978 5.34819 42.7581 5.27311 42.7581 5.82633C42.7581 5.91136 42.7247 5.90271 42.7587 5.97884C42.7863 6.04091 42.8183 6.05243 42.8907 6.06928C43.039 5.78887 42.7529 5.05512 42.7108 5.01199C42.6688 4.96913 42.6625 4.97149 42.5944 4.95167L42.471 4.89842H42.7361C42.7954 4.78633 43.0233 4.47842 43.0233 4.34607C43.0233 4.16012 42.8649 3.90303 42.7461 3.82795C42.6071 3.73995 42.3137 3.68338 42.0955 3.68338C42.0237 3.68338 42.0494 3.70014 42.0277 3.74816C42.0274 3.74903 42.0137 3.79408 42.0119 3.7987C41.9985 3.83546 41.9994 3.83293 41.985 3.86008H41.6536C41.6369 3.93157 41.616 3.95698 41.6094 4.03677C41.2902 3.88356 41.4105 3.89508 41.4105 3.39608C41.4105 3.03667 41.2495 2.98027 41.0571 2.88799C41.0633 2.60768 41.1401 2.59283 40.8583 2.37982C40.6546 2.22583 40.7526 2.27794 40.5048 2.33565L40.5045 2.33574Z" fill="#EBEBEB"/>
<path fill-rule="evenodd" clip-rule="evenodd" d="M46.377 15.0385C46.2065 14.9988 46.2358 14.8398 46.2438 14.5739L46.2666 13.3596C46.4096 13.3596 46.4023 13.3582 46.4011 13.5123L46.3984 14.1998C46.4053 14.4303 46.4434 14.2359 46.4024 14.5999L46.377 15.0385ZM46.2887 11.6805H46.377C46.377 11.8486 46.4206 11.9824 46.4217 12.2996C46.4223 12.4409 46.3998 12.4799 46.3983 12.6075C46.3969 12.7247 46.3991 12.8442 46.3991 12.9618C46.2253 12.9618 46.2649 12.9259 46.2666 12.6746C46.2691 12.3169 46.2268 12.5115 46.2653 12.0106C46.2698 11.9527 46.2636 11.8971 46.2699 11.8385C46.2771 11.7707 46.2887 11.7752 46.2887 11.6805ZM46.2666 10.6201H46.377C46.377 10.7602 46.3991 10.8046 46.3991 10.9515V11.3271H46.2666V10.6201ZM53.1372 10.9736C53.1988 10.7089 53.4689 10.6044 53.5917 10.9609C53.6345 11.0854 53.6453 11.2347 53.6453 11.3933C53.5474 11.3278 53.1795 11.0369 53.1372 10.9736ZM43.2179 10.8411V10.7527C43.2179 10.6309 43.2337 10.5857 43.3505 10.5759V10.8852C43.2925 10.8988 43.2179 10.9375 43.2179 10.8411ZM44.1237 10.4434C44.2355 10.4434 44.2373 10.4584 44.3225 10.4655C44.3333 10.5942 44.3667 10.6881 44.3667 10.8411H44.1458L44.1238 10.4434H44.1237ZM44.6538 9.42724C44.6538 9.54466 44.6858 9.53497 44.6538 9.60393C44.6005 9.56482 44.5726 9.51314 44.5655 9.42724H44.6538ZM44.0352 9.22837C44.1301 9.25369 44.1229 9.28512 44.1457 9.38298C44.0429 9.37442 44.0375 9.33348 44.0352 9.22837ZM44.0131 8.65394L44.0352 9.22837L44.0131 8.65394ZM43.9911 8.07951H44.0352L44.0825 8.23315C43.9341 8.20024 43.9911 8.1861 43.9911 8.07951ZM46.2223 7.81438C46.2223 7.57072 46.2108 7.56767 46.2665 7.32838H46.3549C46.4038 7.53807 46.377 8.15668 46.377 8.4109C46.377 8.46179 46.3616 8.47716 46.3107 8.47716C46.1845 8.47716 46.2514 8.31103 46.245 8.19046C46.2384 8.0665 46.2223 7.97213 46.2223 7.81438ZM44.6317 8.85272C44.6185 8.69322 44.5259 8.44337 44.4709 8.30657C44.4535 8.26319 44.385 8.0727 44.3701 8.05393C44.3132 7.98217 44.2028 8.01316 44.19 7.85846C44.2404 7.84677 44.2408 7.84135 44.3004 7.83638C44.2508 7.73284 44.199 7.59063 44.1607 7.46806C44.1002 7.27452 44.0296 7.39377 43.9249 7.19577C43.9922 7.19726 44.0054 7.20572 44.0574 7.21786C44.0236 7.07294 43.9432 6.85007 43.8806 6.73186C43.6996 6.78023 43.6703 7.11406 43.6236 7.27015L43.1547 8.78952C43.0357 9.18612 42.9478 8.85132 42.8798 9.33199C42.8653 9.43466 42.8508 9.55557 42.8329 9.68285C42.81 9.84654 42.7531 10.4262 42.7008 10.5448C42.6741 10.6055 42.6547 10.606 42.6024 10.6452C42.3372 10.8442 42.3588 11.2985 42.5992 11.4595C42.5498 11.6716 42.5365 12.1024 42.509 12.3413C42.5016 12.4062 42.45 12.7385 42.4604 12.7585C42.4948 12.8242 42.8382 12.785 42.9305 12.785C42.9653 12.6359 42.9828 12.3802 42.9974 12.2113C43.0231 11.9143 43.0862 11.6 43.0854 11.3051C43.0851 11.1631 43.1057 11.1245 43.1074 10.9958C43.1103 10.7797 43.1218 10.571 43.3282 10.5538L43.2826 12.5631C43.2549 12.8634 43.1361 12.785 44.2781 12.785C44.2781 12.6588 44.2649 12.6138 44.2572 12.5188L44.1456 10.5538C44.2068 10.5831 44.3658 10.6071 44.4086 10.6442C44.4363 10.6681 44.4191 10.6305 44.4427 10.6985L44.8167 12.9754C44.8467 13.128 44.9573 13.1934 45.0032 13.3413C45.0924 13.6292 45.0359 14.0484 45.0532 14.3752C45.0586 14.4758 45.06 14.4214 45.0547 14.5113C45.0367 14.8179 45.0514 15.129 45.0514 15.4361H46.6641C46.6641 14.8162 46.8752 14.6734 47.3178 14.3667C47.4367 14.2842 47.5433 14.2184 47.6675 14.142L47.9324 13.9872C48.0666 13.9137 48.0226 13.8328 48.0601 13.6731L48.2519 13.0032C48.2986 12.8732 48.3574 12.7198 48.4166 12.5935C48.5978 12.207 48.7947 11.8447 49.0466 11.5003C49.2424 11.2326 49.4711 10.9552 49.7478 10.7655C50.0542 10.5555 50.3776 10.3417 50.7732 10.3329C51.0306 10.8193 51.1598 11.4849 51.2309 12.0622L51.2813 12.763C51.453 12.723 51.6463 12.6873 51.8177 12.6588C51.9205 12.6417 52.3349 12.5886 52.3859 12.5642C52.4287 12.521 52.1276 11.4258 52.1181 11.3959L51.701 10.3329C52.0612 10.5235 52.3196 10.7813 52.4742 10.8631L52.4741 12.3213C52.4704 12.7302 52.5383 12.4978 53.0487 12.4978V11.5037C53.1335 11.5263 53.0976 11.5168 53.1477 11.5814C53.312 11.7937 53.5798 12.1986 53.601 12.4537C53.824 12.4537 53.959 12.431 54.1753 12.4316C54.3815 12.432 54.5878 12.4316 54.794 12.4316C54.7534 12.2577 54.6166 12.073 54.5276 11.9247C54.2501 11.4617 54.1212 11.3446 54.2806 10.7475C54.4015 10.2948 54.9108 10.1182 55.0554 10.6458C55.1294 10.9156 55.121 11.826 55.1033 12.1445C55.0854 12.4648 54.9775 12.4537 55.545 12.4537L55.5449 11.3269C55.5444 11.1742 55.5645 11.0964 55.5678 10.9741C55.5786 10.5569 55.6469 10.0394 56.1639 10.0435C56.5332 10.0464 56.6087 10.4312 56.6058 10.7301C56.6043 10.8865 56.6267 10.9501 56.6284 11.0831L56.6046 11.8122C56.6042 12.0873 56.6275 12.2839 56.6275 12.5641C56.8186 12.5684 57.0198 12.6484 57.2019 12.6524C57.2019 12.3898 57.2282 11.9255 57.1925 11.6897C57.1286 11.2677 57.1336 10.3004 57.3872 9.96588C57.5418 9.76195 57.8006 9.63309 58.077 9.67788C58.7148 9.78106 58.5936 10.6296 58.5936 11.1281C58.5936 11.4731 58.5715 11.738 58.5715 12.0781C58.5715 12.4095 58.5715 12.7409 58.5715 13.0723C58.6449 13.1111 58.7031 13.1299 58.7851 13.1679C59.1412 13.3329 59.4701 13.5327 59.7954 13.7482L60.1621 14.0223V8.83063C60.0767 8.82356 59.9017 8.7697 59.8279 8.74508C59.3751 8.59388 59.2935 8.50937 58.7926 8.63203C58.0914 8.80374 57.3861 8.93024 56.6843 9.08642L55.263 9.3883C54.9728 9.44976 54.8569 9.53322 54.5728 9.38298C54.7122 8.7848 54.1497 8.26781 53.5835 8.34952C53.4757 8.36506 53.3021 8.43621 53.2301 8.50422C52.9784 8.74167 52.9916 8.89785 52.8358 9.1704C52.7642 9.29559 52.6226 9.29402 52.4961 9.36089C52.4961 9.47875 52.4958 9.5966 52.4962 9.71445C52.4968 9.86286 52.4741 9.95322 52.4741 10.0678L51.8783 9.84619C51.6528 9.72144 51.6802 9.59302 51.3416 9.54343C50.8409 9.4701 50.713 9.55478 50.3062 9.71157C50.1949 9.75453 50.0871 9.77146 49.973 9.79818C49.1543 9.98971 48.4011 10.4138 47.8569 11.0399C47.8569 9.70415 47.8348 8.43028 47.8348 7.1076C47.7552 7.05435 47.6717 7.00651 47.5917 6.95291C47.5917 6.6739 47.6304 6.66569 47.4764 6.51588C47.1162 6.16537 46.6096 6.29013 46.0231 6.29013V6.75404L45.8243 6.84238V8.45507C45.7763 8.46624 45.6892 8.50143 45.6476 8.52133V9.22828H45.8464C45.959 9.01562 46.0194 8.77869 46.3543 8.78454C46.7851 8.79196 46.9928 9.29428 46.7033 9.57704C46.5318 9.74457 46.2225 9.79608 46.0322 9.61685C45.9932 9.5801 45.8752 9.3711 45.8464 9.31663H45.6476V9.91315C45.6892 9.93314 45.7764 9.96824 45.8243 9.97941C45.8243 10.5389 45.8271 11.0992 45.824 11.6587C45.823 11.8234 45.8476 11.8911 45.8467 12.0557C45.8444 12.4521 45.8849 12.9383 45.8023 13.2932H45.6918C45.6094 13.1215 45.5271 12.3705 45.4868 12.1286L45.0311 9.3368C44.9994 9.15172 44.8434 9.23736 44.7556 9.08197C44.7126 9.00576 44.6873 8.91697 44.6314 8.85272H44.6317Z" fill="#EBEBEB"/>
<path fill-rule="evenodd" clip-rule="evenodd" d="M37.708 17.5577C37.806 17.5839 37.9825 17.7425 38.0432 17.8191C38.3403 18.1938 38.3487 18.8255 38.3487 19.3472V21.932H44.1809C44.2318 21.932 44.2472 21.9166 44.2472 21.8657V14.1777H37.708V17.5578V17.5577Z" fill="#EAA700"/>
<path fill-rule="evenodd" clip-rule="evenodd" d="M21.9219 31.3644C21.9219 31.4608 22.4326 31.7936 22.5049 31.8417C22.7226 31.9863 22.9473 32.1325 23.1813 32.2479C23.4434 32.3772 23.5927 32.4757 23.9101 32.6016C24.1699 32.7047 24.4198 32.8048 24.7026 32.8916C26.193 33.3486 27.3782 33.4411 29.1017 33.4411V29.3099C27.7369 29.6278 27.6842 28.2145 27.6879 27.2111C27.6886 27.0139 27.6653 26.9043 27.6658 26.7031C27.6661 26.5264 27.6658 26.3496 27.6658 26.1729H21.9219V31.3645V31.3644Z" fill="#EAA700"/>
<path fill-rule="evenodd" clip-rule="evenodd" d="M54.2178 29.1335C54.2178 29.6808 54.2399 30.1537 54.2399 30.702V33.0658H61.0663V27.1893C61.0663 27.1384 61.0509 27.123 61 27.123H55.5212C55.5212 27.5183 55.4778 27.8631 55.3765 28.2155C55.3416 28.337 55.2475 28.5393 55.1734 28.631C54.827 29.0594 54.4231 29.0248 54.2178 29.1335Z" fill="#EAA700"/>
<path fill-rule="evenodd" clip-rule="evenodd" d="M28.0474 12.6747C28.0474 12.6149 28.0579 12.6137 28.0695 12.5642H28.5113V12.8514H28.0474V12.6747V12.6747ZM27.5172 12.5642H27.959C27.9613 12.6641 27.9811 12.6521 27.9811 12.7631V12.8514H27.5172V12.5642ZM26.987 12.5642H27.4289V12.8514H26.987V12.5642ZM26.4347 12.5863L26.8986 12.5642V12.8735L26.4347 12.8514V12.5863ZM26.3463 12.8514H25.9045V12.5642H26.3022C26.4206 12.5642 26.3463 12.7376 26.3463 12.8514ZM28.0474 12.0561H28.5113V12.4759H28.0474V12.0561ZM27.5172 12.0561H27.9811V12.4759H27.5172V12.0561ZM26.987 12.0561H27.4289V12.4759H26.987V12.0561ZM26.4347 12.0561H26.8986V12.4759H26.4347V12.0561ZM26.3463 12.2108V12.4539L25.9045 12.476V12.0562H26.3684C26.3627 12.1253 26.3463 12.1347 26.3463 12.2109V12.2108ZM25.4405 12.3213C25.4405 12.7234 25.4626 13.0473 25.4626 13.448C25.5115 13.4245 25.6356 13.398 25.6889 13.387C25.9407 13.3354 25.9044 13.4291 25.9044 12.984H26.28C26.3644 12.984 26.288 12.9908 26.3463 12.9619V13.2491H26.4346V12.984L26.8764 12.9619V13.1607C27.0028 13.158 26.9869 13.1655 26.9869 12.9619H27.4287V13.0944H27.517C27.517 12.92 27.5079 13.0249 27.5391 12.9619H27.9589C27.9674 13.0645 27.9352 13.0006 28.003 13.0502C28.1533 13.0102 27.966 12.9833 28.2 12.982C28.2847 12.9816 28.3795 12.9761 28.4566 12.9757L28.6645 13.0073C28.7531 13.0074 28.8421 13.0061 28.9309 13.0061V11.791H25.4404V12.3212L25.4405 12.3213Z" fill="#EBEBEB"/>
<path fill-rule="evenodd" clip-rule="evenodd" d="M33.5631 28.647C34.1699 28.647 34.7023 28.669 35.3084 28.669C35.3084 28.4494 35.3005 28.0873 35.3245 27.9119C35.337 27.8205 35.3297 27.7237 35.3309 27.6304C35.3343 27.3747 35.3809 27.4098 34.9991 27.4098C34.7495 27.4098 34.7406 27.4315 34.6234 27.4336C34.5282 27.4352 34.5096 27.4206 34.4435 27.4131L33.5631 27.4098C33.5631 27.6154 33.5797 27.8435 33.5504 28.0378C33.5202 28.2371 33.5491 28.4779 33.5631 28.647V28.647Z" fill="#E9A800"/>
<path d="M70.6969 18.517H73.7121V19.89H70.6969V18.517ZM70.8267 21.0776H74.2224V22.4971H69.0083V16.0027H74.1018V17.4222H70.8267V21.0776ZM79.5552 21.6992V17.4593H77.6904L77.6626 18.1644C77.6502 18.5417 77.6255 18.8942 77.5883 19.2221C77.5574 19.5499 77.511 19.8498 77.4492 20.122C77.3935 20.3941 77.3162 20.6292 77.2172 20.8271C77.1245 21.0188 77.01 21.1673 76.874 21.2724L74.9164 21.0405C75.1329 21.0467 75.3091 20.9755 75.4452 20.8271C75.5875 20.6725 75.6988 20.4591 75.7792 20.1869C75.8658 19.9148 75.9276 19.5932 75.9648 19.2221C76.008 18.851 76.039 18.4458 76.0575 18.0067L76.1317 16.0027H81.3643V21.6992H79.5552ZM74.7215 23.8052V21.0405H82.2457V23.8052H80.5665V22.4971H76.4101V23.8052H74.7215ZM83.1241 22.4971V16.0027H84.9333V19.8158L87.6145 16.0027H89.3402V22.4971H87.531V18.6932L84.859 22.4971H83.1241ZM95.0766 16.0027H96.9136V22.4971H95.0766V16.0027ZM92.5717 22.4971H90.7347V16.0027H92.5717V22.4971ZM95.2065 19.9643H92.4418V18.4427H95.2065V19.9643ZM97.6596 22.4971L100.526 16.0027H102.336L105.212 22.4971H103.3L101.055 16.9026H101.779L99.5337 22.4971H97.6596ZM99.2275 21.2353L99.7007 19.8808H102.874L103.347 21.2353H99.2275ZM109.23 22.4971V20.4838L109.666 20.8642H108.024C107.443 20.8642 106.942 20.7683 106.521 20.5766C106.1 20.3849 105.776 20.1096 105.547 19.7509C105.324 19.3921 105.213 18.9654 105.213 18.4706C105.213 17.9572 105.33 17.5181 105.565 17.1531C105.807 16.782 106.144 16.4975 106.577 16.2996C107.016 16.1017 107.529 16.0027 108.117 16.0027H111.039V22.4971H109.23ZM105.231 22.4971L106.855 20.1498H108.701L107.161 22.4971H105.231ZM109.23 19.8993V16.9954L109.666 17.45H108.154C107.795 17.45 107.523 17.5335 107.337 17.7005C107.158 17.8613 107.068 18.1087 107.068 18.4427C107.068 18.7705 107.158 19.021 107.337 19.1942C107.523 19.3612 107.789 19.4447 108.135 19.4447H109.666L109.23 19.8993ZM119.235 22.4971L117.407 19.4076L118.882 18.5355L121.303 22.4971H119.235ZM115.097 22.4971V16.0027H116.924V22.4971H115.097ZM116.396 20.0107V18.5262H118.752V20.0107H116.396ZM119.058 19.4447L117.36 19.2592L119.355 16.0027H121.285L119.058 19.4447ZM121.089 22.4971L123.956 16.0027H125.765L128.641 22.4971H126.73L124.485 16.9026H125.209L122.963 22.4971H121.089ZM122.657 21.2353L123.13 19.8808H126.303L126.776 21.2353H122.657ZM129.386 22.4971V16.0027H132.354C132.948 16.0027 133.458 16.0986 133.885 16.2903C134.318 16.4821 134.652 16.7604 134.887 17.1253C135.122 17.484 135.24 17.9108 135.24 18.4056C135.24 18.8942 135.122 19.3179 134.887 19.6767C134.652 20.0354 134.318 20.3137 133.885 20.5117C133.458 20.7034 132.948 20.7993 132.354 20.7993H130.406L131.223 20.0014V22.4971H129.386ZM131.223 20.1962L130.406 19.3519H132.243C132.627 19.3519 132.911 19.2684 133.097 19.1014C133.288 18.9345 133.384 18.7025 133.384 18.4056C133.384 18.1026 133.288 17.8675 133.097 17.7005C132.911 17.5335 132.627 17.45 132.243 17.45H130.406L131.223 16.6058V20.1962ZM137.347 22.4971V17.0511L137.755 17.4593H135.352V16.0027H141.141V17.4593H138.748L139.156 17.0511V22.4971H137.347ZM141.013 22.4971L143.879 16.0027H145.689L148.565 22.4971H146.654L144.408 16.9026H145.132L142.887 22.4971H141.013ZM142.581 21.2353L143.054 19.8808H146.227L146.7 21.2353H142.581ZM69.2774 33.6084C69.1537 33.6084 69.0207 33.5991 68.8784 33.5806C68.7424 33.562 68.597 33.5342 68.4424 33.4971L68.5444 31.9941C68.631 32.0126 68.7145 32.0219 68.7949 32.0219C69.0485 32.0219 69.2403 31.923 69.3702 31.725C69.5 31.5209 69.5897 31.2364 69.6392 30.8715C69.6949 30.5066 69.7289 30.0798 69.7413 29.5912L69.834 27.0027H75.0666V33.4971H73.2575V28.0511L73.6564 28.4593H71.0309L71.402 28.0325L71.3556 29.517C71.337 30.1478 71.2937 30.7169 71.2257 31.224C71.1576 31.725 71.0494 32.1549 70.901 32.5136C70.7525 32.8662 70.5453 33.1383 70.2794 33.3301C70.0196 33.5156 69.6856 33.6084 69.2774 33.6084ZM79.6473 33.627C79.1278 33.627 78.6484 33.5435 78.2093 33.3765C77.7701 33.2095 77.3867 32.9744 77.0589 32.6714C76.7372 32.3621 76.4867 32.0034 76.3074 31.5952C76.128 31.1869 76.0383 30.7385 76.0383 30.2499C76.0383 29.7613 76.128 29.3128 76.3074 28.9046C76.4867 28.4964 76.7372 28.1408 77.0589 27.8377C77.3867 27.5284 77.7701 27.2903 78.2093 27.1233C78.6484 26.9563 79.1278 26.8728 79.6473 26.8728C80.1731 26.8728 80.6524 26.9563 81.0854 27.1233C81.5245 27.2903 81.9049 27.5284 82.2265 27.8377C82.5481 28.1408 82.7986 28.4964 82.978 28.9046C83.1636 29.3128 83.2563 29.7613 83.2563 30.2499C83.2563 30.7385 83.1636 31.19 82.978 31.6044C82.7986 32.0126 82.5481 32.3683 82.2265 32.6714C81.9049 32.9744 81.5245 33.2095 81.0854 33.3765C80.6524 33.5435 80.1731 33.627 79.6473 33.627ZM79.6473 32.1054C79.8947 32.1054 80.1236 32.0621 80.3339 31.9755C80.5504 31.8889 80.7359 31.7652 80.8905 31.6044C81.0513 31.4374 81.175 31.2395 81.2616 31.0107C81.3544 30.7818 81.4008 30.5282 81.4008 30.2499C81.4008 29.9654 81.3544 29.7118 81.2616 29.4891C81.175 29.2603 81.0513 29.0654 80.8905 28.9046C80.7359 28.7376 80.5504 28.6108 80.3339 28.5242C80.1236 28.4377 79.8947 28.3944 79.6473 28.3944C79.3999 28.3944 79.168 28.4377 78.9515 28.5242C78.7412 28.6108 78.5557 28.7376 78.3948 28.9046C78.2402 29.0654 78.1165 29.2603 78.0237 29.4891C77.9371 29.7118 77.8939 29.9654 77.8939 30.2499C77.8939 30.5282 77.9371 30.7818 78.0237 31.0107C78.1165 31.2395 78.2402 31.4374 78.3948 31.6044C78.5557 31.7652 78.7412 31.8889 78.9515 31.9755C79.168 32.0621 79.3999 32.1054 79.6473 32.1054ZM87.6305 33.4971V31.4838L88.0666 31.8642H86.4244C85.843 31.8642 85.342 31.7683 84.9215 31.5766C84.5009 31.3849 84.1761 31.1096 83.9473 30.7509C83.7246 30.3921 83.6133 29.9654 83.6133 29.4706C83.6133 28.9572 83.7308 28.5181 83.9659 28.1531C84.2071 27.782 84.5442 27.4975 84.9771 27.2996C85.4163 27.1017 85.9296 27.0027 86.5172 27.0027H89.4397V33.4971H87.6305ZM83.6319 33.4971L85.2554 31.1498H87.1017L85.5616 33.4971H83.6319ZM87.6305 30.8993V27.9954L88.0666 28.45H86.5543C86.1956 28.45 85.9234 28.5335 85.7379 28.7005C85.5585 28.8613 85.4688 29.1087 85.4688 29.4427C85.4688 29.7705 85.5585 30.021 85.7379 30.1942C85.9234 30.3612 86.1894 30.4447 86.5358 30.4447H88.0666L87.6305 30.8993ZM91.0853 33.6084C90.9616 33.6084 90.8286 33.5991 90.6864 33.5806C90.5503 33.562 90.4049 33.5342 90.2503 33.4971L90.3524 31.9941C90.439 32.0126 90.5225 32.0219 90.6029 32.0219C90.8564 32.0219 91.0482 31.923 91.1781 31.725C91.308 31.5209 91.3976 31.2364 91.4471 30.8715C91.5028 30.5066 91.5368 30.0798 91.5492 29.5912L91.642 27.0027H96.8745V33.4971H95.0654V28.0511L95.4643 28.4593H92.8388L93.2099 28.0325L93.1635 29.517C93.1449 30.1478 93.1016 30.7169 93.0336 31.224C92.9656 31.725 92.8573 32.1549 92.7089 32.5136C92.5604 32.8662 92.3532 33.1383 92.0873 33.3301C91.8275 33.5156 91.4935 33.6084 91.0853 33.6084ZM101.576 29.0716C102.368 29.0716 102.98 29.2479 103.413 29.6005C103.852 29.953 104.072 30.4818 104.072 31.1869C104.072 31.9477 103.827 32.5229 103.339 32.9126C102.85 33.3022 102.182 33.4971 101.335 33.4971H98.2637V27.0027H100.073V29.0716H101.576ZM101.214 32.1796C101.523 32.1796 101.768 32.0961 101.947 31.9291C102.133 31.7621 102.225 31.5271 102.225 31.224C102.225 30.9148 102.133 30.6983 101.947 30.5746C101.768 30.4447 101.523 30.3798 101.214 30.3798H100.073V32.1796H101.214ZM109.337 27.0027H111.174V33.4971H109.337V27.0027ZM106.832 33.4971H104.995V27.0027H106.832V33.4971ZM109.467 30.9643H106.703V29.4427H109.467V30.9643ZM115.761 33.627C115.242 33.627 114.762 33.5435 114.323 33.3765C113.884 33.2095 113.501 32.9744 113.173 32.6714C112.851 32.3621 112.601 32.0034 112.421 31.5952C112.242 31.1869 112.152 30.7385 112.152 30.2499C112.152 29.7613 112.242 29.3128 112.421 28.9046C112.601 28.4964 112.851 28.1408 113.173 27.8377C113.501 27.5284 113.884 27.2903 114.323 27.1233C114.762 26.9563 115.242 26.8728 115.761 26.8728C116.287 26.8728 116.766 26.9563 117.199 27.1233C117.638 27.2903 118.019 27.5284 118.34 27.8377C118.662 28.1408 118.913 28.4964 119.092 28.9046C119.278 29.3128 119.37 29.7613 119.37 30.2499C119.37 30.7385 119.278 31.19 119.092 31.6044C118.913 32.0126 118.662 32.3683 118.34 32.6714C118.019 32.9744 117.638 33.2095 117.199 33.3765C116.766 33.5435 116.287 33.627 115.761 33.627ZM115.761 32.1054C116.009 32.1054 116.238 32.0621 116.448 31.9755C116.664 31.8889 116.85 31.7652 117.005 31.6044C117.165 31.4374 117.289 31.2395 117.376 31.0107C117.468 30.7818 117.515 30.5282 117.515 30.2499C117.515 29.9654 117.468 29.7118 117.376 29.4891C117.289 29.2603 117.165 29.0654 117.005 28.9046C116.85 28.7376 116.664 28.6108 116.448 28.5242C116.238 28.4377 116.009 28.3944 115.761 28.3944C115.514 28.3944 115.282 28.4377 115.065 28.5242C114.855 28.6108 114.67 28.7376 114.509 28.9046C114.354 29.0654 114.23 29.2603 114.138 29.4891C114.051 29.7118 114.008 29.9654 114.008 30.2499C114.008 30.5282 114.051 30.7818 114.138 31.0107C114.23 31.2395 114.354 31.4374 114.509 31.6044C114.67 31.7652 114.855 31.8889 115.065 31.9755C115.282 32.0621 115.514 32.1054 115.761 32.1054ZM123.516 33.627C123.003 33.627 122.527 33.5466 122.087 33.3857C121.654 33.2187 121.277 32.9837 120.956 32.6806C120.64 32.3776 120.393 32.0219 120.213 31.6137C120.034 31.1993 119.944 30.7447 119.944 30.2499C119.944 29.7551 120.034 29.3036 120.213 28.8954C120.393 28.481 120.64 28.1222 120.956 27.8191C121.277 27.5161 121.654 27.2841 122.087 27.1233C122.527 26.9563 123.003 26.8728 123.516 26.8728C124.116 26.8728 124.651 26.978 125.121 27.1883C125.597 27.3986 125.993 27.7016 126.309 28.0975L125.14 29.1551C124.929 28.9077 124.698 28.7191 124.444 28.5892C124.197 28.4593 123.918 28.3944 123.609 28.3944C123.343 28.3944 123.099 28.4377 122.876 28.5242C122.653 28.6108 122.462 28.7376 122.301 28.9046C122.146 29.0654 122.022 29.2603 121.93 29.4891C121.843 29.718 121.8 29.9716 121.8 30.2499C121.8 30.5282 121.843 30.7818 121.93 31.0107C122.022 31.2395 122.146 31.4374 122.301 31.6044C122.462 31.7652 122.653 31.8889 122.876 31.9755C123.099 32.0621 123.343 32.1054 123.609 32.1054C123.918 32.1054 124.197 32.0405 124.444 31.9106C124.698 31.7807 124.929 31.5921 125.14 31.3447L126.309 32.4023C125.993 32.792 125.597 33.095 125.121 33.3115C124.651 33.5218 124.116 33.627 123.516 33.627ZM128.522 33.4971V28.0511L128.931 28.4593H126.528V27.0027H132.317V28.4593H129.923L130.331 28.0511V33.4971H128.522ZM133.164 33.4971V27.0027H134.973V30.8158L137.654 27.0027H139.38V33.4971H137.571V29.6932L134.899 33.4971H133.164Z" fill="white"/>
<defs>
<filter id="filter0_iiiiii_3766_45157" x="-5.86006" y="-3.32065" width="176.66" height="54.7325" filterUnits="userSpaceOnUse" color-interpolation-filters="sRGB">
<feFlood flood-opacity="0" result="BackgroundImageFix"/>
<feBlend mode="normal" in="SourceGraphic" in2="BackgroundImageFix" result="shape"/>
<feColorMatrix in="SourceAlpha" type="matrix" values="0 0 0 0 0 0 0 0 0 0 0 0 0 0 0 0 0 0 127 0" result="hardAlpha"/>
<feOffset dx="8.6337" dy="1.99239"/>
<feGaussianBlur stdDeviation="1.32826"/>
<feComposite in2="hardAlpha" operator="arithmetic" k2="-1" k3="1"/>
<feColorMatrix type="matrix" values="0 0 0 0 1 0 0 0 0 1 0 0 0 0 1 0 0 0 0.26 0"/>
<feBlend mode="normal" in2="shape" result="effect1_innerShadow_3766_45157"/>
<feColorMatrix in="SourceAlpha" type="matrix" values="0 0 0 0 0 0 0 0 0 0 0 0 0 0 0 0 0 0 127 0" result="hardAlpha"/>
<feOffset dx="-2.65652" dy="-4.64892"/>
<feGaussianBlur stdDeviation="1.32826"/>
<feComposite in2="hardAlpha" operator="arithmetic" k2="-1" k3="1"/>
<feColorMatrix type="matrix" values="0 0 0 0 1 0 0 0 0 1 0 0 0 0 1 0 0 0 0.25 0"/>
<feBlend mode="normal" in2="effect1_innerShadow_3766_45157" result="effect2_innerShadow_3766_45157"/>
<feColorMatrix in="SourceAlpha" type="matrix" values="0 0 0 0 0 0 0 0 0 0 0 0 0 0 0 0 0 0 127 0" result="hardAlpha"/>
<feOffset dx="-6.64131" dy="6.64131"/>
<feGaussianBlur stdDeviation="1.32826"/>
<feComposite in2="hardAlpha" operator="arithmetic" k2="-1" k3="1"/>
<feColorMatrix type="matrix" values="0 0 0 0 0.27451 0 0 0 0 0.27451 0 0 0 0 0.27451 0 0 0 1 0"/>
<feBlend mode="normal" in2="effect2_innerShadow_3766_45157" result="effect3_innerShadow_3766_45157"/>
<feColorMatrix in="SourceAlpha" type="matrix" values="0 0 0 0 0 0 0 0 0 0 0 0 0 0 0 0 0 0 127 0" result="hardAlpha"/>
<feOffset dx="6.64131" dy="-6.64131"/>
<feGaussianBlur stdDeviation="1.32826"/>
<feComposite in2="hardAlpha" operator="arithmetic" k2="-1" k3="1"/>
<feColorMatrix type="matrix" values="0 0 0 0 0.27451 0 0 0 0 0.27451 0 0 0 0 0.27451 0 0 0 1 0"/>
<feBlend mode="normal" in2="effect3_innerShadow_3766_45157" result="effect4_innerShadow_3766_45157"/>
<feColorMatrix in="SourceAlpha" type="matrix" values="0 0 0 0 0 0 0 0 0 0 0 0 0 0 0 0 0 0 127 0" result="hardAlpha"/>
<feOffset dx="-6.64131" dy="13.2826"/>
<feGaussianBlur stdDeviation="3.32065"/>
<feComposite in2="hardAlpha" operator="arithmetic" k2="-1" k3="1"/>
<feColorMatrix type="matrix" values="0 0 0 0 1 0 0 0 0 1 0 0 0 0 1 0 0 0 0.25 0"/>
<feBlend mode="normal" in2="effect4_innerShadow_3766_45157" result="effect5_innerShadow_3766_45157"/>
<feColorMatrix in="SourceAlpha" type="matrix" values="0 0 0 0 0 0 0 0 0 0 0 0 0 0 0 0 0 0 127 0" result="hardAlpha"/>
<feOffset dx="6.64131" dy="-3.32065"/>
<feGaussianBlur stdDeviation="7.96957"/>
<feComposite in2="hardAlpha" operator="arithmetic" k2="-1" k3="1"/>
<feColorMatrix type="matrix" values="0 0 0 0 0.27451 0 0 0 0 0.27451 0 0 0 0 0.27451 0 0 0 1 0"/>
<feBlend mode="normal" in2="effect5_innerShadow_3766_45157" result="effect6_innerShadow_3766_45157"/>
</filter>
</defs>
</svg>
