<svg width="259" height="64" viewBox="0 0 259 64" fill="none" xmlns="http://www.w3.org/2000/svg">
<g filter="url(#filter0_iiiiii_3970_40101)">
<path d="M0 0.499023H226.801C244.198 0.499023 258.301 14.6021 258.301 31.999C258.301 49.396 244.198 63.499 226.801 63.499H0V0.499023Z" fill="#464646"/>
</g>
<path fill-rule="evenodd" clip-rule="evenodd" d="M61.9849 51.2523H70.6258C71.1259 51.2523 71.6159 51.4148 71.6159 51.9723C71.6159 52.7208 70.7495 52.6624 70.2357 52.6624H62.3149C61.7388 52.6624 61.2242 52.6563 61.115 52.0903C61.0662 51.8378 61.145 51.6244 61.3009 51.4684C61.4627 51.3063 61.6727 51.2524 61.9849 51.2524V51.2523ZM80.0767 48.522C80.0767 47.9431 80.3717 47.7419 80.9768 47.7419H84.0371C84.289 47.7419 84.5162 47.7931 84.6675 47.8916C84.9689 48.088 85.1319 48.8114 84.5658 49.0506C84.1658 49.2195 83.4384 49.1203 83.0468 49.1209L82.267 49.1519C81.7923 49.1519 80.6388 49.2305 80.3411 49.0076C80.2204 48.9173 80.0768 48.7261 80.0768 48.5219L80.0767 48.522ZM77.6764 49.1521C77.154 49.1521 74.4839 49.2119 74.1315 49.0666C73.5298 48.8183 73.579 47.7419 74.5861 47.7419H77.6464C78.8308 47.7419 78.7901 48.6446 78.3719 48.9774C78.1971 49.1165 77.9804 49.1521 77.6764 49.1521ZM68.7054 47.7419C69.2373 47.7419 71.3594 47.7078 71.7946 47.8031C72.4277 47.9414 72.4851 48.7912 71.9168 49.0632C71.6034 49.2133 68.7773 49.1521 68.2852 49.1521C67.284 49.1521 67.1569 48.1002 67.8762 47.8129C68.0174 47.7565 68.4982 47.7419 68.7053 47.7419H68.7054ZM61.9847 47.7419H64.9551C65.3859 47.7419 65.9752 47.814 65.9752 48.3719C65.9752 48.6393 65.9549 48.9305 65.5746 49.0815C65.2821 49.1977 62.601 49.1521 62.1647 49.1521C61.5544 49.1521 61.209 49.0628 61.1044 48.5301C61.0174 48.0865 61.3853 47.7419 61.9847 47.7419ZM65.315 42.4314C65.315 42.6132 65.2931 42.7043 65.2849 42.8813C65.2659 43.293 64.9058 43.5415 64.4749 43.5415C63.9441 43.5415 61.7156 43.62 61.3826 43.3934C61.2527 43.3051 61.1775 43.1917 61.1403 43.0056C61.0536 42.5707 61.0845 41.7394 61.0845 41.2612C61.0845 40.9222 61.0953 40.5276 61.2332 40.3296C61.4209 40.06 61.6771 40.031 62.0146 40.031H64.5049C65.4688 40.031 65.315 40.9837 65.315 41.7711C65.315 41.9313 65.2996 41.9934 65.2882 42.1067C65.2723 42.2657 65.315 42.2717 65.315 42.4313V42.4314ZM74.436 41.4113C74.436 41.1162 74.6482 40.8916 74.8971 40.7921C75.0482 40.7317 75.6753 40.7211 75.9062 40.7211H84.127C85.1341 40.7211 85.1276 41.826 84.5365 42.0607C84.1462 42.2157 77.5881 42.1027 76.3862 42.1013C75.7974 42.1006 75.026 42.2866 74.637 41.9003C74.5333 41.7974 74.436 41.605 74.436 41.4111V41.4113ZM56.8842 46.5718L56.853 51.1335C56.8552 51.3068 56.8858 51.3596 56.8849 51.5516C56.8835 51.8923 56.8542 52.1189 56.8542 52.4525C56.8542 53.013 56.8721 53.8341 57.021 54.3559C57.2634 55.2048 57.8862 55.9899 58.6335 56.4038C59.2824 56.763 59.8972 56.893 60.7845 56.893H85.057C86.4232 56.893 87.1411 56.7108 87.8985 56.0741C88.3848 55.6651 88.8285 55.0774 89.0051 54.4505C89.1261 54.0214 89.1609 53.68 89.1662 53.2314C89.1683 53.0582 89.199 53.0053 89.1981 52.8132L89.1977 50.0521C89.1992 49.7589 89.1674 49.5088 89.1674 49.1822C89.1674 47.42 89.126 39.7462 89.1847 39.3585C89.2325 39.0425 89.2133 38.4081 89.1756 38.1328C89.1226 37.746 89.2025 37.6089 89.0541 36.9941C88.832 36.0747 88.1872 35.3376 87.4032 34.8646C86.8852 34.5521 86.1774 34.3906 85.357 34.3906H60.5145C59.9285 34.3906 59.3044 34.5609 58.8854 34.7419C58.0856 35.0874 57.2872 35.9771 57.0404 36.8572C56.8688 37.4687 56.8841 37.913 56.8841 38.681C56.8841 40.0011 56.8793 41.3221 56.8848 42.6422C56.8856 42.8411 56.8533 42.9009 56.853 43.0906L56.8539 44.5919C56.8942 45.3396 56.884 45.8088 56.884 46.572L56.8842 46.5718Z" fill="#EBEBEB"/>
<path fill-rule="evenodd" clip-rule="evenodd" d="M80.9719 25.24V32.1407H88.5027C88.6497 32.1407 88.5927 31.8 88.5927 31.5107C88.5927 30.8602 88.5671 29.9956 88.6745 29.4323C88.7464 29.0561 88.8664 28.6222 89.0791 28.3967C89.5519 27.8955 91.3687 27.632 91.7509 29.4026C91.9704 30.4203 91.6509 31.3517 91.0109 31.8287L90.5949 32.1328C90.5157 32.1899 90.4407 32.2291 90.3532 32.2811L87.9723 33.6205C87.7598 33.7394 87.5472 33.7815 87.5126 33.9109C87.7007 33.9546 88.0906 34.2086 88.2414 34.3222C88.5762 34.5745 88.8652 34.8285 89.1204 35.1533C89.3857 35.4907 89.5903 35.817 89.7546 36.2293C90.0024 36.8512 90.0956 37.4754 90.093 38.1712C90.0902 38.9411 90.0929 39.7115 90.0929 40.4815L91.7031 39.6014C93.0263 38.9418 95.5313 37.7701 96.6279 37.0255C97.1065 36.7005 97.3032 36.4786 97.6581 36.1954C97.7427 36.1279 97.9014 35.9684 97.971 35.8783C98.0789 35.7386 98.164 35.6827 98.2669 35.5442C98.468 35.2737 98.7396 34.93 98.9039 34.6211C98.9492 34.5359 98.9669 34.4861 99.0163 34.4035C99.3031 33.9251 99.5449 33.1088 99.6563 32.5532C99.7624 32.0244 99.8282 31.2774 99.8438 30.5153V29.8309C99.8312 29.2247 99.7839 28.6481 99.6965 28.2073C99.4709 27.0677 99.0872 26.193 98.383 25.3204C97.9854 24.8277 97.5246 24.4161 97.0056 24.0574C96.8861 23.9748 96.8031 23.9225 96.6763 23.8466C94.799 22.7228 92.8919 22.4795 90.5727 22.4795C88.6158 22.4795 86.6398 22.7584 85.1157 23.2031C84.1382 23.4883 82.7483 24.021 81.8775 24.5854L81.1732 25.0513C81.1058 25.1013 80.9717 25.1567 80.9717 25.2399L80.9719 25.24Z" fill="#E9A800"/>
<path fill-rule="evenodd" clip-rule="evenodd" d="M46.316 25.3289V31.4196C46.316 31.4887 46.3369 31.5096 46.406 31.5096H53.9968C53.9968 31.2797 54.0223 31.1247 54.0278 30.9405C54.0438 30.4043 54.0061 29.759 54.1727 29.1951C54.3692 28.5296 54.7108 28.0292 55.497 28.0292C55.8543 28.0292 56.1941 28.1596 56.4144 28.3118C56.5156 28.3817 56.6389 28.5141 56.7098 28.6165C57.2843 29.4461 57.3693 31.5942 56.4647 32.3274C55.6638 32.9765 52.7108 32.8297 51.5665 32.8297V37.9303C52.6391 37.9303 54.435 37.8667 55.4498 38.0675C55.6471 38.1065 55.775 38.1602 55.9471 38.2004C55.9471 37.0671 56.1962 36.0821 56.8297 35.2727C57.414 34.5264 58.1383 33.9767 59.0937 33.6962C59.3652 33.6165 59.8411 33.4978 60.1765 33.4889L60.778 33.458C60.9749 33.4612 61.0356 33.4899 61.4075 33.4899H64.0478C64.1508 33.4899 64.2885 33.2133 64.3424 33.1245C64.4258 32.9872 64.5003 32.8431 64.5665 32.6885C64.9703 31.7455 65.11 30.9673 65.1267 29.9182C65.1288 29.7838 65.1558 29.7393 65.1453 29.6323C65.1335 29.5114 65.1268 29.4249 65.1278 29.2894C65.1344 28.3828 64.8602 27.2781 64.5174 26.5694C64.4749 26.4815 64.4628 26.4228 64.4178 26.3391C64.2549 26.0364 63.9598 25.5661 63.7389 25.3078C62.3626 23.6995 60.4244 22.9414 58.3824 22.6535C58.2137 22.6296 57.977 22.5835 57.805 22.5708C57.5985 22.5556 57.3679 22.552 57.1644 22.5213C56.9584 22.4902 56.7356 22.5271 56.5297 22.496C56.3229 22.4647 56.0784 22.4787 55.8569 22.4787C53.6932 22.4787 50.6131 23.0007 48.7563 23.869C48.5652 23.9584 48.4121 24.0259 48.2262 24.1189C48.0432 24.2104 47.8851 24.2824 47.7059 24.3788C47.1939 24.6544 46.9452 24.848 46.5078 25.1308C46.4363 25.1769 46.3159 25.2366 46.3159 25.329L46.316 25.3289Z" fill="#E9A800"/>
<path fill-rule="evenodd" clip-rule="evenodd" d="M66.2751 22.5093V24.1595H65.225V21.2191C65.225 20.3186 65.9557 20.3333 66.166 20.6982C66.2836 20.9023 66.2554 20.9665 66.2768 21.2474C66.3106 21.6889 66.2751 22.034 66.2751 22.5092V22.5093ZM71.3756 11.6782C71.5914 11.6782 71.7593 11.7341 71.9457 11.7382C71.8614 11.8533 71.6393 11.8092 71.4183 11.8409C71.1941 11.873 71.0309 11.8609 70.8383 11.921C70.6791 11.9707 70.5202 12.0343 70.3365 12.0793C70.2209 12.1078 69.8715 12.1583 69.7553 12.1583C70.099 11.6449 70.3836 11.7021 70.9846 11.3173C71.088 11.2512 71.1564 11.1524 71.2549 11.0776C71.8237 10.6457 71.8784 10.9022 72.2756 11.1683C72.198 11.5013 72.325 11.4638 71.9331 11.5158C71.6871 11.5485 71.4812 11.5204 71.3756 11.6784V11.6782ZM74.0459 10.0281C74.0744 10.1509 74.0759 10.1689 74.0759 10.3282C73.9746 10.3198 73.9469 10.32 73.9403 10.2049C73.9348 10.1081 73.9746 10.0759 74.0459 10.0282V10.0281ZM71.4356 6.87778C71.4834 6.94916 71.4719 6.90908 71.4956 6.99777C71.6415 6.99777 71.642 6.98721 71.7356 6.93777C71.7356 7.16565 71.7056 7.26406 71.7056 7.47782C71.4956 7.49525 71.192 7.61607 70.9855 7.47782C70.943 7.56639 70.9517 7.57398 70.8955 7.6578C70.4679 7.55821 70.5192 7.6878 70.1454 7.6878C70.2165 7.99286 70.5024 7.98788 70.7754 7.98788C70.753 8.08427 70.7338 8.08379 70.7044 8.18694C70.6293 8.45145 70.6285 8.56978 70.3116 8.66415C70.0727 8.73529 69.7533 8.66238 69.4968 8.7194C69.393 8.7424 69.3737 8.77501 69.2753 8.79801C69.4084 9.36936 70.261 9.17302 70.636 9.04865C70.9826 8.93365 71.3326 9.00798 71.7054 9.00798C71.7054 9.21464 71.7069 9.21808 71.4654 9.21808C71.6128 9.85096 71.5389 9.31767 70.8359 9.69872C70.5951 9.82926 70.3178 9.7535 70.0325 9.6909C69.4451 9.5619 69.3085 9.78812 68.7952 9.78812C68.5391 9.78812 68.2258 9.68877 68.1352 10.0281C67.9404 10.0118 67.8821 9.7669 67.4452 9.99809C67.5254 10.3426 67.9371 10.2381 68.3453 10.2381C68.5905 10.2381 68.7368 10.1781 68.9453 10.1781C69.3382 10.1781 69.4611 10.3281 69.9219 10.1646C69.9931 10.1393 70.3065 9.9643 70.3882 10.0988C70.4145 10.1423 70.3968 10.1039 70.3908 10.2063C70.3855 10.2991 70.3779 10.4295 70.3762 10.5127C70.3732 10.674 70.4455 10.8986 70.4455 11.0782C69.9702 11.1889 69.8272 11.6607 69.3654 11.7682C69.3654 12.2649 69.2469 11.9039 69.1252 12.2182C69.0255 12.4757 69.1101 12.4007 68.6399 12.4529C68.3418 12.486 68.0133 12.5048 67.7401 12.6033C67.6117 12.6495 67.571 12.6598 67.5353 12.7583L68.3753 12.6683C68.5121 12.6529 68.6669 12.6506 68.8172 12.6299C69.1427 12.5852 69.0928 12.6683 69.2754 12.6683C69.3883 12.6683 69.4302 12.5134 69.6358 12.4888C69.7991 12.4693 70.0142 12.4611 70.155 12.438C70.2903 12.4157 71.2855 12.0326 71.2855 12.3084L71.2255 12.8784C71.1546 12.9125 70.9847 12.9477 70.8954 12.9684C70.8954 13.2915 70.8696 14.7298 70.9599 14.976C71.0468 15.2133 70.9872 14.8951 71.0855 15.1166C71.146 15.2528 71.1055 17.8788 71.1055 18.2189C71.4675 18.3926 71.302 18.3357 71.3583 18.7163C71.3917 18.9424 71.3756 19.2082 71.3756 19.449C71.2196 19.3665 71.0793 19.2952 70.9271 19.2074L69.5995 18.4047C69.4171 18.2898 67.8944 17.3188 67.8351 17.3188C67.671 17.3188 67.3343 17.5191 67.2105 17.5942L65.5306 18.6146C65.326 18.7375 63.455 19.855 63.3347 20.0191H63.9348V20.6491H62.5846C62.5846 20.4972 62.5642 20.4947 62.5546 20.379C62.7256 20.379 62.8913 20.3223 63.0347 20.289C63.0373 20.1711 63.0265 20.2186 63.0647 20.139L62.5554 20.073C62.5808 19.7578 63.2544 20.0778 63.5147 19.689C63.0182 19.3565 62.4576 19.8219 62.4046 18.909C62.3706 18.3246 62.2246 17.7503 62.2246 17.1687C62.4038 17.127 62.5379 17.1302 62.5547 16.9287C62.4473 16.9001 62.5103 16.9023 62.4124 16.861C62.3507 16.835 62.2869 16.8232 62.2246 16.8088C62.231 16.8046 62.2423 16.7936 62.246 16.8001C62.2497 16.8067 62.2626 16.7935 62.2678 16.7919L62.6583 16.7324C62.8201 16.6993 62.902 16.6473 62.9747 16.5387C62.8344 16.2736 62.4618 16.2759 62.1347 16.2686C62.0772 16.0217 61.8627 13.818 61.8356 13.4173C61.8247 13.2551 61.8046 13.1709 61.8046 12.9983C62.0518 12.9983 62.108 12.9521 62.1946 12.7883C62.0247 12.7429 61.9888 12.6738 61.7446 12.6683C61.7446 12.2341 62.2653 12.7119 62.4947 12.2783C62.2915 11.9749 61.5501 12.0683 61.2045 12.0683L61.2049 10.6878C61.2062 10.464 61.1729 10.3722 61.1741 10.1485C61.1762 9.78113 61.1662 9.44903 61.0844 9.09797C60.8504 9.15251 60.9339 9.33225 60.9345 9.78812L60.8761 11.8602C60.8804 12.1729 60.9586 12.0684 60.1843 12.0684C59.9396 12.0684 59.6667 12.1123 59.6143 12.3084C59.8208 12.6169 60.3643 12.3129 60.3643 12.6085C60.3643 12.7856 60.1297 12.6743 59.9142 12.8184C60.0302 12.9917 60.1091 12.976 60.3343 13.0285C60.3343 13.2814 60.269 13.5749 60.2469 13.8412C60.2035 14.3646 60.0043 15.9392 60.0043 16.2988C59.7697 16.2988 59.1942 16.2608 59.1942 16.5689C59.1942 16.7483 59.7693 16.779 59.9142 16.779L59.7185 16.8832C59.6267 16.9346 59.6267 16.9687 59.5843 17.049C59.656 17.0869 59.798 17.1489 59.8843 17.169C59.8843 17.7295 59.7479 18.2927 59.7037 18.8485C59.6463 19.571 59.2368 19.3788 58.766 19.5609C58.6825 19.5932 58.6876 19.6075 58.5943 19.6292C58.7042 20.1012 59.5261 19.7394 59.5544 20.0793C59.3827 20.0831 59.2381 20.1393 59.0443 20.1393C59.0568 20.2889 59.0774 20.2805 59.1956 20.3181C59.2816 20.3455 59.389 20.3769 59.4944 20.3793C59.3771 20.8825 58.9442 20.7074 58.5343 20.7093C58.3363 20.7102 58.2356 20.6919 58.0842 20.6793V17.649H55.894C55.894 17.1688 56.0171 17.136 55.5341 17.1388L50.7935 17.169C50.7935 17.3289 50.7885 17.4989 50.8235 17.649L49.3836 17.612C49.1493 17.6119 48.9997 17.6453 48.8139 17.6496C48.3397 17.6605 48.3032 17.5321 48.3032 18.9392C48.3032 20.2386 48.3632 21.5242 48.3632 22.8095C48.5535 22.7652 48.7438 22.663 48.9298 22.596L50.4 22.1159C50.4969 22.0883 50.6735 22.0814 50.6735 21.9694V19.6891C50.6735 19.5857 50.6513 19.5729 50.6435 19.4791H56.044V21.2793C56.044 21.4354 56.6029 21.3555 56.8623 21.3911L57.7628 21.4507C57.8701 21.4646 58.1139 21.4911 58.1916 21.479C58.2423 21.4711 58.3625 21.4407 58.3919 21.4368L59.0439 21.4298C59.2059 21.4451 59.2708 21.5046 59.2844 21.6693C59.7325 21.7738 60.206 21.881 60.6384 22.0255C60.7647 22.0677 60.942 22.1462 61.0847 22.1494V21.9393C61.0847 21.7516 61.6661 21.8141 61.734 21.2074C61.7786 20.8093 61.39 20.4991 60.9346 20.4991C60.487 20.4991 60.4943 20.7705 60.2745 20.8292C60.1883 20.6757 60.3597 20.5763 60.4945 20.5091C60.6206 20.4462 60.6778 20.381 60.8146 20.3491V13.4785H60.9046V20.3491C60.996 20.3471 61.014 20.3356 61.0846 20.3191C61.0846 19.9138 61.0546 19.6171 61.0546 19.209V13.7184C61.0546 13.5806 61.0671 13.5072 61.1745 13.4785C61.1745 13.9435 61.1412 20.0211 61.1757 20.258C61.21 20.4933 61.6352 20.4432 61.8068 20.947C61.8348 21.0292 61.8238 21.0993 61.9246 21.0993H63.9348V21.2193H61.9846C61.8151 21.2193 61.7602 21.6112 61.6557 21.7005C61.4399 21.8849 61.2044 21.8792 61.2044 22.1494C61.2044 22.2774 61.6093 22.392 61.7231 22.4407C62.106 22.6047 62.439 22.8093 62.7931 23.0208C62.8804 23.073 62.9528 23.125 63.0466 23.1874C63.128 23.2415 63.2239 23.3279 63.3046 23.3495C63.1613 23.0507 63.0045 22.1286 63.0045 21.7593C63.0045 21.2758 63.7139 21.4594 63.9947 21.4594V23.8896C63.9947 23.9923 64.2458 24.1748 64.3158 24.2585C64.4348 24.4006 64.5283 24.5051 64.6454 24.649L65.0842 25.2603C65.1255 25.3322 65.1692 25.4498 65.2548 25.4498C66.723 25.4498 66.5454 25.5912 66.545 24.9997V23.3496C66.545 22.8644 66.5076 22.7089 66.6924 22.3869C66.836 22.1367 67.066 22.0328 67.2951 21.8794C67.2951 21.4021 67.0904 20.4692 67.8951 20.4692C68.1195 20.4692 68.2897 20.7526 68.3334 20.961L68.3752 21.8494H69.4253C69.4253 21.4014 69.2756 20.4694 69.9653 20.4694C70.211 20.4694 70.3665 20.6212 70.4273 20.8473C70.4591 20.9653 70.4673 21.0872 70.4768 21.2188C70.5344 22.019 70.1812 21.8495 71.4355 21.8495C71.4355 21.3416 71.4655 20.9414 71.4655 20.4394C71.4869 20.4702 71.471 20.4419 71.4984 20.4965C71.6449 20.7884 71.5862 21.1714 71.5849 21.4902C71.5842 21.6622 71.6126 21.7184 71.6156 21.8495H73.9258C73.9258 21.4036 73.7815 20.3024 73.6379 19.8872C73.5056 19.5044 73.3557 19.2954 73.3557 18.8192C73.3557 18.5055 73.3258 18.1497 73.4046 17.848C73.447 17.6853 73.5058 17.5558 73.5058 17.379C73.5058 16.8989 73.3837 16.5087 73.3857 15.999C73.3869 15.716 73.3526 15.5301 73.3544 15.2781L73.3558 12.9685C73.2724 12.9244 73.2205 12.9029 73.1159 12.8786C73.1159 12.7056 73.0605 12.5369 73.1566 12.3793C73.2222 12.2718 73.3684 12.1841 73.4459 12.0684C73.3402 11.8686 73.2547 11.6237 73.2079 11.4064C73.1879 11.314 73.1814 11.2123 73.146 11.1383C73.2765 11.1413 73.806 11.2078 73.806 11.3783C73.806 12.0208 73.6093 11.8889 73.686 12.2184C73.8233 12.2069 73.8595 12.1588 73.9152 12.0575C74.0885 11.7424 74.0461 11.3408 74.0461 10.9883C74.2785 10.969 74.4962 10.867 74.4962 11.6184C74.4962 11.7338 74.4509 11.7221 74.497 11.8255C74.5345 11.9098 74.578 11.9254 74.6763 11.9483C74.8777 11.5675 74.4892 10.571 74.4319 10.5124C74.3749 10.4542 74.3663 10.4574 74.2739 10.4305L74.1062 10.3582H74.4663C74.5468 10.2059 74.8563 9.78776 74.8563 9.60803C74.8563 9.35549 74.6412 9.00632 74.4799 8.90436C74.291 8.78485 73.8927 8.70802 73.5963 8.70802C73.4988 8.70802 73.5337 8.73079 73.5043 8.79599C73.5038 8.79718 73.4852 8.85836 73.4828 8.86464C73.4645 8.91456 73.4657 8.91112 73.4462 8.94799H72.9961C72.9735 9.04509 72.9451 9.07959 72.9361 9.18796C72.5025 8.97988 72.666 8.99553 72.666 8.31783C72.666 7.82972 72.4473 7.75312 72.186 7.6278C72.1945 7.2471 72.2987 7.22695 71.916 6.93766C71.6394 6.72851 71.7726 6.79929 71.436 6.87766L71.4356 6.87778Z" fill="#EBEBEB"/>
<path fill-rule="evenodd" clip-rule="evenodd" d="M79.413 24.1283C79.1813 24.0743 79.2211 23.8584 79.232 23.4973L79.263 21.8481C79.4572 21.8481 79.4472 21.8462 79.4456 22.0556L79.442 22.9893C79.4514 23.3023 79.5031 23.0382 79.4474 23.5326L79.413 24.1283ZM79.293 19.5678H79.413C79.413 19.796 79.4721 19.9778 79.4737 20.4085C79.4744 20.6005 79.4439 20.6535 79.4418 20.8267C79.4399 20.9859 79.443 21.1482 79.443 21.3079C79.2069 21.3079 79.2606 21.2592 79.263 20.9179C79.2663 20.4321 79.2089 20.6964 79.2612 20.0161C79.2673 19.9375 79.259 19.8619 79.2675 19.7823C79.2772 19.6903 79.293 19.6963 79.293 19.5678ZM79.263 18.1276H79.413C79.413 18.3179 79.443 18.3781 79.443 18.5777V19.0877H79.263V18.1276ZM88.5939 18.6077C88.6776 18.2482 89.0445 18.1063 89.2112 18.5905C89.2694 18.7596 89.284 18.9623 89.284 19.1777C89.151 19.0888 88.6514 18.6936 88.5939 18.6077ZM75.1226 18.4277V18.3077C75.1226 18.1423 75.144 18.0809 75.3025 18.0676V18.4877C75.2238 18.5061 75.1226 18.5587 75.1226 18.4277ZM76.3527 17.8877C76.5045 17.8877 76.507 17.908 76.6227 17.9176C76.6373 18.0924 76.6827 18.22 76.6827 18.4277H76.3828L76.3528 17.8877H76.3527ZM77.0727 16.5076C77.0727 16.6671 77.1161 16.6539 77.0727 16.7476C77.0002 16.6944 76.9624 16.6243 76.9527 16.5076H77.0727ZM76.2325 16.2375C76.3614 16.2719 76.3516 16.3146 76.3825 16.4475C76.243 16.4359 76.2356 16.3803 76.2325 16.2375ZM76.2026 15.4574L76.2325 16.2375L76.2026 15.4574ZM76.1726 14.6772H76.2325L76.2968 14.8859C76.0951 14.8412 76.1726 14.822 76.1726 14.6772ZM79.2029 14.3172C79.2029 13.9863 79.1872 13.9821 79.2629 13.6571H79.3829C79.4493 13.9419 79.4129 14.782 79.4129 15.1273C79.4129 15.1964 79.392 15.2173 79.3229 15.2173C79.1514 15.2173 79.2424 14.9917 79.2336 14.8279C79.2247 14.6596 79.2029 14.5314 79.2029 14.3172ZM77.0427 15.7273C77.0247 15.5107 76.899 15.1714 76.8243 14.9856C76.8006 14.9267 76.7075 14.668 76.6874 14.6425C76.61 14.545 76.4602 14.5871 76.4428 14.377C76.5112 14.3611 76.5118 14.3538 76.5927 14.347C76.5253 14.2064 76.455 14.0133 76.4029 13.8468C76.3208 13.584 76.225 13.7459 76.0827 13.477C76.1741 13.479 76.192 13.4905 76.2627 13.507C76.2168 13.3102 76.1076 13.0075 76.0226 12.847C75.7767 12.9127 75.737 13.3661 75.6735 13.578L75.0367 15.6415C74.875 16.1801 74.7557 15.7254 74.6634 16.3782C74.6437 16.5177 74.624 16.6819 74.5997 16.8547C74.5685 17.077 74.4913 17.8643 74.4202 18.0254C74.3839 18.1078 74.3576 18.1085 74.2866 18.1618C73.9264 18.432 73.9558 19.049 74.2823 19.2676C74.2152 19.5557 74.1971 20.1407 74.1597 20.4652C74.1497 20.5533 74.0797 21.0046 74.0938 21.0318C74.1405 21.121 74.6068 21.0678 74.7323 21.0678C74.7795 20.8653 74.8033 20.5181 74.8231 20.2886C74.8579 19.8853 74.9437 19.4584 74.9426 19.058C74.9421 18.8651 74.9701 18.8127 74.9725 18.6378C74.9764 18.3444 74.992 18.0609 75.2723 18.0375L75.2104 20.7665C75.1728 21.1742 75.0115 21.0678 76.5624 21.0678C76.5624 20.8964 76.5445 20.8352 76.5341 20.7062L76.3824 18.0375C76.4655 18.0774 76.6815 18.11 76.7396 18.1603C76.7772 18.1928 76.7539 18.1417 76.7859 18.2341L77.2939 21.3264C77.3346 21.5337 77.4848 21.6225 77.5472 21.8233C77.6683 22.2143 77.5916 22.7835 77.6151 23.2274C77.6223 23.364 77.6242 23.2902 77.6171 23.4123C77.5927 23.8287 77.6126 24.2512 77.6126 24.6682H79.8028C79.8028 23.8263 80.0895 23.6324 80.6906 23.2158C80.8521 23.1039 80.9968 23.0145 81.1656 22.9108L81.5253 22.7004C81.7075 22.6006 81.6477 22.4908 81.6987 22.2738L81.9592 21.3641C82.0226 21.1876 82.1025 20.9793 82.1829 20.8077C82.4289 20.2828 82.6964 19.7907 83.0385 19.3231C83.3044 18.9595 83.615 18.5827 83.9908 18.3251C84.4069 18.0399 84.8462 17.7495 85.3834 17.7376C85.733 18.3982 85.9085 19.3021 86.005 20.0861L86.0734 21.0378C86.3066 20.9835 86.5691 20.935 86.802 20.8964C86.9415 20.8732 87.5043 20.8011 87.5736 20.7679C87.6318 20.7092 87.2229 19.2218 87.21 19.1813L86.6435 17.7376C87.1327 17.9964 87.4836 18.3466 87.6936 18.4576L87.6933 20.438C87.6884 20.9934 87.7806 20.6778 88.4737 20.6778V19.3276C88.5889 19.3583 88.5402 19.3455 88.6082 19.4332C88.8314 19.7214 89.195 20.2713 89.2238 20.6178C89.5267 20.6178 89.7101 20.5871 90.0039 20.5878C90.2839 20.5884 90.564 20.5878 90.844 20.5878C90.789 20.3516 90.6031 20.1008 90.4823 19.8994C90.1054 19.2706 89.9304 19.1116 90.1469 18.3006C90.3111 17.6859 91.0026 17.446 91.1991 18.1625C91.2995 18.529 91.2881 19.7653 91.2641 20.1979C91.2399 20.633 91.0932 20.6178 91.864 20.6178L91.8639 19.0875C91.8632 18.8801 91.8905 18.7745 91.8949 18.6084C91.9096 18.0418 92.0023 17.3389 92.7045 17.3445C93.2061 17.3484 93.3085 17.8711 93.3046 18.277C93.3026 18.4895 93.3331 18.5758 93.3353 18.7564L93.3031 19.7466C93.3025 20.1202 93.3342 20.3873 93.3342 20.7678C93.5937 20.7736 93.867 20.8823 94.1142 20.8877C94.1142 20.5311 94.15 19.9005 94.1015 19.5802C94.0147 19.0071 94.0215 17.6934 94.3659 17.2391C94.5758 16.9622 94.9274 16.7872 95.3028 16.848C96.1688 16.9881 96.0043 18.1405 96.0043 18.8175C96.0043 19.2861 95.9743 19.6458 95.9743 20.1077C95.9743 20.5578 95.9743 21.0078 95.9743 21.4579C96.074 21.5107 96.1531 21.5362 96.2644 21.5877C96.748 21.8118 97.1946 22.0832 97.6365 22.3759L98.1345 22.7481V15.6973C98.0185 15.6877 97.7808 15.6146 97.6806 15.5811C97.0657 15.3758 96.9548 15.261 96.2746 15.4276C95.3223 15.6608 94.3645 15.8326 93.4113 16.0447L91.481 16.4547C91.0869 16.5382 90.9295 16.6515 90.5437 16.4475C90.7329 15.6351 89.969 14.933 89.2001 15.0439C89.0537 15.065 88.8179 15.1617 88.7201 15.254C88.3783 15.5765 88.3962 15.7886 88.1847 16.1588C88.0874 16.3288 87.895 16.3267 87.7233 16.4175C87.7233 16.5775 87.7229 16.7376 87.7234 16.8977C87.7243 17.0992 87.6933 17.2219 87.6933 17.3776L86.8843 17.0766C86.578 16.9071 86.6152 16.7327 86.1553 16.6654C85.4754 16.5658 85.3016 16.6808 84.7492 16.8937C84.598 16.9521 84.4516 16.9751 84.2967 17.0114C83.1848 17.2715 82.1618 17.8475 81.4227 18.6978C81.4227 16.8837 81.3927 15.1536 81.3927 13.3573C81.2847 13.285 81.1712 13.22 81.0626 13.1472C81.0626 12.7683 81.1152 12.7571 80.906 12.5537C80.4168 12.0776 79.7288 12.2471 78.9323 12.2471V12.8771L78.6622 12.9971V15.1873C78.5971 15.2025 78.4788 15.2502 78.4223 15.2773V16.2374H78.6924C78.8452 15.9486 78.9272 15.6268 79.3821 15.6347C79.9671 15.6448 80.2492 16.327 79.856 16.711C79.6232 16.9386 79.2031 17.0085 78.9447 16.7651C78.8917 16.7152 78.7315 16.4314 78.6924 16.3574H78.4223V17.1675C78.4788 17.1947 78.5973 17.2423 78.6622 17.2575C78.6622 18.0174 78.6661 18.7783 78.6619 19.5382C78.6606 19.7618 78.6939 19.8538 78.6927 20.0774C78.6896 20.6156 78.7446 21.276 78.6324 21.758H78.4824C78.3705 21.5248 78.2587 20.5048 78.2039 20.1764L77.585 16.3848C77.5419 16.1334 77.3301 16.2497 77.2109 16.0387C77.1525 15.9352 77.1181 15.8146 77.0422 15.7273H77.0427Z" fill="#EBEBEB"/>
<path fill-rule="evenodd" clip-rule="evenodd" d="M67.6489 27.5503C67.782 27.5859 68.0217 27.8013 68.1041 27.9053C68.5077 28.4142 68.5191 29.2721 68.5191 29.9806V33.491H76.4398C76.5089 33.491 76.5298 33.4701 76.5298 33.401V22.96H67.6489V27.5504V27.5503Z" fill="#EAA700"/>
<path fill-rule="evenodd" clip-rule="evenodd" d="M46.1997 46.3016C46.1997 46.4325 46.8933 46.8846 46.9916 46.9499C47.2872 47.1462 47.5923 47.3448 47.9101 47.5016C48.2661 47.6772 48.4689 47.8109 48.9 47.9819C49.2528 48.1219 49.5921 48.2579 49.9763 48.3757C52.0003 48.9964 53.6099 49.122 55.9507 49.122V43.5114C54.0971 43.9432 54.0255 42.0238 54.0306 40.661C54.0315 40.3932 53.9999 40.2444 54.0005 39.9711C54.001 39.7312 54.0005 39.4911 54.0005 39.251H46.1997V46.3017V46.3016Z" fill="#EAA700"/>
<path fill-rule="evenodd" clip-rule="evenodd" d="M90.0674 43.2714C90.0674 44.0146 90.0974 44.657 90.0974 45.4016V48.6119H99.3683V40.631C99.3683 40.5619 99.3475 40.541 99.2783 40.541H91.8376C91.8376 41.0779 91.7786 41.5461 91.6411 42.0247C91.5936 42.1897 91.4658 42.4644 91.3652 42.5889C90.8948 43.1707 90.3462 43.1238 90.0674 43.2714Z" fill="#EAA700"/>
<path fill-rule="evenodd" clip-rule="evenodd" d="M54.5136 20.9188C54.5136 20.8377 54.528 20.8361 54.5436 20.7689H55.1437V21.1589H54.5136V20.919V20.9188ZM53.7936 20.7689H54.3937C54.3967 20.9045 54.4237 20.8881 54.4237 21.0389V21.1589H53.7936V20.7689ZM53.0736 20.7689H53.6736V21.1589H53.0736V20.7689ZM52.3234 20.7988L52.9535 20.7689V21.1889L52.3234 21.1589V20.7988ZM52.2035 21.1589H51.6034V20.7689H52.1435C52.3044 20.7689 52.2035 21.0043 52.2035 21.1589ZM54.5136 20.0788H55.1437V20.6489H54.5136V20.0788ZM53.7936 20.0788H54.4237V20.6489H53.7936V20.0788ZM53.0736 20.0788H53.6736V20.6489H53.0736V20.0788ZM52.3234 20.0788H52.9535V20.6489H52.3234V20.0788ZM52.2035 20.2889V20.619L51.6034 20.649V20.0789H52.2335C52.2256 20.1727 52.2035 20.1855 52.2035 20.289V20.2889ZM50.9733 20.4389C50.9733 20.985 51.0033 21.4249 51.0033 21.9691C51.0697 21.9372 51.2382 21.9012 51.3106 21.8863C51.6526 21.8162 51.6033 21.9434 51.6033 21.3389H52.1134C52.228 21.3389 52.1243 21.3481 52.2033 21.3089V21.699H52.3233V21.3389L52.9234 21.3089V21.579C53.095 21.5752 53.0733 21.5855 53.0733 21.3089H53.6734V21.4889H53.7934C53.7934 21.252 53.7809 21.3945 53.8234 21.3089H54.3934C54.405 21.4483 54.3613 21.3614 54.4534 21.4289C54.6575 21.3745 54.4031 21.3379 54.7209 21.3363C54.836 21.3357 54.9648 21.3282 55.0695 21.3276L55.3518 21.3706C55.4721 21.3707 55.593 21.3689 55.7136 21.3689V19.7188H50.9731V20.4388L50.9733 20.4389Z" fill="#EBEBEB"/>
<path fill-rule="evenodd" clip-rule="evenodd" d="M62.0099 42.612C62.8341 42.612 63.557 42.642 64.3802 42.642C64.3802 42.3437 64.3694 41.8519 64.402 41.6137C64.419 41.4896 64.4092 41.3581 64.4108 41.2314C64.4153 40.8842 64.4786 40.9319 63.9602 40.9319C63.6212 40.9319 63.6091 40.9613 63.4499 40.9641C63.3206 40.9664 63.2954 40.9465 63.2056 40.9363L62.0099 40.9319C62.0099 41.2111 62.0325 41.5209 61.9926 41.7847C61.9516 42.0554 61.9908 42.3824 62.0099 42.6122V42.612Z" fill="#E9A800"/>
<path d="M112.438 21.7938H116.533V23.6586H112.438V21.7938ZM112.614 25.2714H117.226V27.1992H110.145V18.3792H117.062V20.307H112.614V25.2714ZM124.468 26.1156V20.3574H121.936L121.898 21.315C121.881 21.8274 121.848 22.3062 121.797 22.7514C121.755 23.1966 121.692 23.604 121.608 23.9736C121.533 24.3432 121.428 24.6624 121.293 24.9312C121.167 25.1916 121.012 25.3932 120.827 25.536L118.168 25.221C118.462 25.2294 118.702 25.1328 118.887 24.9312C119.08 24.7212 119.231 24.4314 119.34 24.0618C119.458 23.6922 119.542 23.2554 119.592 22.7514C119.651 22.2474 119.693 21.6972 119.718 21.1008L119.819 18.3792H126.925V26.1156H124.468ZM117.904 28.9758V25.221H128.122V28.9758H125.842V27.1992H120.197V28.9758H117.904ZM129.315 27.1992V18.3792H131.772V23.5578L135.414 18.3792H137.757V27.1992H135.3V22.0332L131.672 27.1992H129.315ZM145.548 18.3792H148.043V27.1992H145.548V18.3792ZM142.146 27.1992H139.651V18.3792H142.146V27.1992ZM145.725 23.7594H141.97V21.693H145.725V23.7594ZM149.056 27.1992L152.949 18.3792H155.406L159.312 27.1992H156.717L153.668 19.6014H154.65L151.601 27.1992H149.056ZM151.185 25.4856L151.828 23.646H156.137L156.78 25.4856H151.185ZM164.77 27.1992V24.465L165.362 24.9816H163.132C162.342 24.9816 161.662 24.8514 161.091 24.591C160.52 24.3306 160.079 23.9568 159.768 23.4696C159.465 22.9824 159.314 22.4028 159.314 21.7308C159.314 21.0336 159.474 20.4372 159.793 19.9416C160.121 19.4376 160.578 19.0512 161.166 18.7824C161.763 18.5136 162.46 18.3792 163.258 18.3792H167.227V27.1992H164.77ZM159.339 27.1992L161.544 24.0114H164.052L161.96 27.1992H159.339ZM164.77 23.6712V19.7274L165.362 20.3448H163.308C162.821 20.3448 162.452 20.4582 162.2 20.685C161.956 20.9034 161.834 21.2394 161.834 21.693C161.834 22.1382 161.956 22.4784 162.2 22.7136C162.452 22.9404 162.813 23.0538 163.283 23.0538H165.362L164.77 23.6712ZM178.357 27.1992L175.875 23.0034L177.878 21.819L181.167 27.1992H178.357ZM172.737 27.1992V18.3792H175.22V27.1992H172.737ZM174.501 23.8224V21.8064H177.702V23.8224H174.501ZM178.118 23.0538L175.812 22.8018L178.521 18.3792H181.142L178.118 23.0538ZM180.876 27.1992L184.769 18.3792H187.226L191.132 27.1992H188.537L185.488 19.6014H186.47L183.421 27.1992H180.876ZM183.005 25.4856L183.648 23.646H187.957L188.6 25.4856H183.005ZM192.143 27.1992V18.3792H196.175C196.982 18.3792 197.675 18.5094 198.254 18.7698C198.842 19.0302 199.296 19.4082 199.615 19.9038C199.934 20.391 200.094 20.9706 200.094 21.6426C200.094 22.3062 199.934 22.8816 199.615 23.3688C199.296 23.856 198.842 24.234 198.254 24.5028C197.675 24.7632 196.982 24.8934 196.175 24.8934H193.529L194.638 23.8098V27.1992H192.143ZM194.638 24.0744L193.529 22.9278H196.024C196.545 22.9278 196.931 22.8144 197.183 22.5876C197.444 22.3608 197.574 22.0458 197.574 21.6426C197.574 21.231 197.444 20.9118 197.183 20.685C196.931 20.4582 196.545 20.3448 196.024 20.3448H193.529L194.638 19.1982V24.0744ZM202.956 27.1992V19.803L203.51 20.3574H200.247V18.3792H208.109V20.3574H204.858L205.413 19.803V27.1992H202.956ZM207.934 27.1992L211.827 18.3792H214.284L218.19 27.1992H215.595L212.546 19.6014H213.528L210.479 27.1992H207.934ZM210.063 25.4856L210.706 23.646H215.015L215.658 25.4856H210.063ZM110.51 42.3504C110.342 42.3504 110.162 42.3378 109.968 42.3126C109.784 42.2874 109.586 42.2496 109.376 42.1992L109.515 40.158C109.632 40.1832 109.746 40.1958 109.855 40.1958C110.199 40.1958 110.46 40.0614 110.636 39.7926C110.813 39.5154 110.934 39.129 111.002 38.6334C111.077 38.1378 111.123 37.5582 111.14 36.8946L111.266 33.3792H118.373V42.1992H115.916V34.803L116.457 35.3574H112.892L113.396 34.7778L113.333 36.7938C113.307 37.6506 113.249 38.4234 113.156 39.1122C113.064 39.7926 112.917 40.3764 112.715 40.8636C112.514 41.3424 112.232 41.712 111.871 41.9724C111.518 42.2244 111.065 42.3504 110.51 42.3504ZM124.594 42.3756C123.888 42.3756 123.237 42.2622 122.641 42.0354C122.044 41.8086 121.523 41.4894 121.078 41.0778C120.641 40.6578 120.301 40.1706 120.058 39.6162C119.814 39.0618 119.692 38.4528 119.692 37.7892C119.692 37.1256 119.814 36.5166 120.058 35.9622C120.301 35.4078 120.641 34.9248 121.078 34.5132C121.523 34.0932 122.044 33.7698 122.641 33.543C123.237 33.3162 123.888 33.2028 124.594 33.2028C125.308 33.2028 125.959 33.3162 126.547 33.543C127.143 33.7698 127.66 34.0932 128.096 34.5132C128.533 34.9248 128.873 35.4078 129.117 35.9622C129.369 36.5166 129.495 37.1256 129.495 37.7892C129.495 38.4528 129.369 39.066 129.117 39.6288C128.873 40.1832 128.533 40.6662 128.096 41.0778C127.66 41.4894 127.143 41.8086 126.547 42.0354C125.959 42.2622 125.308 42.3756 124.594 42.3756ZM124.594 40.3092C124.93 40.3092 125.24 40.2504 125.526 40.1328C125.82 40.0152 126.072 39.8472 126.282 39.6288C126.5 39.402 126.668 39.1332 126.786 38.8224C126.912 38.5116 126.975 38.1672 126.975 37.7892C126.975 37.4028 126.912 37.0584 126.786 36.756C126.668 36.4452 126.5 36.1806 126.282 35.9622C126.072 35.7354 125.82 35.5632 125.526 35.4456C125.24 35.328 124.93 35.2692 124.594 35.2692C124.258 35.2692 123.943 35.328 123.649 35.4456C123.363 35.5632 123.111 35.7354 122.893 35.9622C122.683 36.1806 122.515 36.4452 122.389 36.756C122.271 37.0584 122.212 37.4028 122.212 37.7892C122.212 38.1672 122.271 38.5116 122.389 38.8224C122.515 39.1332 122.683 39.402 122.893 39.6288C123.111 39.8472 123.363 40.0152 123.649 40.1328C123.943 40.2504 124.258 40.3092 124.594 40.3092ZM135.436 42.1992V39.465L136.028 39.9816H133.798C133.008 39.9816 132.328 39.8514 131.756 39.591C131.185 39.3306 130.744 38.9568 130.433 38.4696C130.131 37.9824 129.98 37.4028 129.98 36.7308C129.98 36.0336 130.139 35.4372 130.459 34.9416C130.786 34.4376 131.244 34.0512 131.832 33.7824C132.428 33.5136 133.126 33.3792 133.924 33.3792H137.893V42.1992H135.436ZM130.005 42.1992L132.21 39.0114H134.717L132.626 42.1992H130.005ZM135.436 38.6712V34.7274L136.028 35.3448H133.974C133.487 35.3448 133.117 35.4582 132.865 35.685C132.622 35.9034 132.5 36.2394 132.5 36.693C132.5 37.1382 132.622 37.4784 132.865 37.7136C133.117 37.9404 133.478 38.0538 133.949 38.0538H136.028L135.436 38.6712ZM140.127 42.3504C139.959 42.3504 139.779 42.3378 139.586 42.3126C139.401 42.2874 139.203 42.2496 138.993 42.1992L139.132 40.158C139.25 40.1832 139.363 40.1958 139.472 40.1958C139.817 40.1958 140.077 40.0614 140.253 39.7926C140.43 39.5154 140.552 39.129 140.619 38.6334C140.694 38.1378 140.741 37.5582 140.757 36.8946L140.883 33.3792H147.99V42.1992H145.533V34.803L146.075 35.3574H142.509L143.013 34.7778L142.95 36.7938C142.925 37.6506 142.866 38.4234 142.773 39.1122C142.681 39.7926 142.534 40.3764 142.332 40.8636C142.131 41.3424 141.849 41.712 141.488 41.9724C141.135 42.2244 140.682 42.3504 140.127 42.3504ZM154.375 36.189C155.45 36.189 156.282 36.4284 156.87 36.9072C157.466 37.386 157.764 38.1042 157.764 39.0618C157.764 40.095 157.432 40.8762 156.769 41.4054C156.105 41.9346 155.198 42.1992 154.047 42.1992H149.877V33.3792H152.334V36.189H154.375ZM153.883 40.41C154.303 40.41 154.635 40.2966 154.879 40.0698C155.131 39.843 155.257 39.5238 155.257 39.1122C155.257 38.6922 155.131 38.3982 154.879 38.2302C154.635 38.0538 154.303 37.9656 153.883 37.9656H152.334V40.41H153.883ZM164.916 33.3792H167.411V42.1992H164.916V33.3792ZM161.514 42.1992H159.019V33.3792H161.514V42.1992ZM165.092 38.7594H161.337V36.693H165.092V38.7594ZM173.64 42.3756C172.934 42.3756 172.283 42.2622 171.687 42.0354C171.091 41.8086 170.57 41.4894 170.125 41.0778C169.688 40.6578 169.348 40.1706 169.104 39.6162C168.86 39.0618 168.739 38.4528 168.739 37.7892C168.739 37.1256 168.86 36.5166 169.104 35.9622C169.348 35.4078 169.688 34.9248 170.125 34.5132C170.57 34.0932 171.091 33.7698 171.687 33.543C172.283 33.3162 172.934 33.2028 173.64 33.2028C174.354 33.2028 175.005 33.3162 175.593 33.543C176.189 33.7698 176.706 34.0932 177.143 34.5132C177.58 34.9248 177.92 35.4078 178.163 35.9622C178.415 36.5166 178.541 37.1256 178.541 37.7892C178.541 38.4528 178.415 39.066 178.163 39.6288C177.92 40.1832 177.58 40.6662 177.143 41.0778C176.706 41.4894 176.189 41.8086 175.593 42.0354C175.005 42.2622 174.354 42.3756 173.64 42.3756ZM173.64 40.3092C173.976 40.3092 174.287 40.2504 174.572 40.1328C174.866 40.0152 175.118 39.8472 175.328 39.6288C175.547 39.402 175.715 39.1332 175.832 38.8224C175.958 38.5116 176.021 38.1672 176.021 37.7892C176.021 37.4028 175.958 37.0584 175.832 36.756C175.715 36.4452 175.547 36.1806 175.328 35.9622C175.118 35.7354 174.866 35.5632 174.572 35.4456C174.287 35.328 173.976 35.2692 173.64 35.2692C173.304 35.2692 172.989 35.328 172.695 35.4456C172.409 35.5632 172.157 35.7354 171.939 35.9622C171.729 36.1806 171.561 36.4452 171.435 36.756C171.317 37.0584 171.259 37.4028 171.259 37.7892C171.259 38.1672 171.317 38.5116 171.435 38.8224C171.561 39.1332 171.729 39.402 171.939 39.6288C172.157 39.8472 172.409 40.0152 172.695 40.1328C172.989 40.2504 173.304 40.3092 173.64 40.3092ZM184.172 42.3756C183.475 42.3756 182.828 42.2664 182.232 42.048C181.644 41.8212 181.131 41.502 180.694 41.0904C180.266 40.6788 179.93 40.1958 179.686 39.6414C179.443 39.0786 179.321 38.4612 179.321 37.7892C179.321 37.1172 179.443 36.504 179.686 35.9496C179.93 35.3868 180.266 34.8996 180.694 34.488C181.131 34.0764 181.644 33.7614 182.232 33.543C182.828 33.3162 183.475 33.2028 184.172 33.2028C184.987 33.2028 185.713 33.3456 186.352 33.6312C186.999 33.9168 187.536 34.3284 187.965 34.866L186.377 36.3024C186.091 35.9664 185.776 35.7102 185.432 35.5338C185.096 35.3574 184.718 35.2692 184.298 35.2692C183.937 35.2692 183.605 35.328 183.303 35.4456C183 35.5632 182.74 35.7354 182.521 35.9622C182.311 36.1806 182.143 36.4452 182.017 36.756C181.9 37.0668 181.841 37.4112 181.841 37.7892C181.841 38.1672 181.9 38.5116 182.017 38.8224C182.143 39.1332 182.311 39.402 182.521 39.6288C182.74 39.8472 183 40.0152 183.303 40.1328C183.605 40.2504 183.937 40.3092 184.298 40.3092C184.718 40.3092 185.096 40.221 185.432 40.0446C185.776 39.8682 186.091 39.612 186.377 39.276L187.965 40.7124C187.536 41.2416 186.999 41.6532 186.352 41.9472C185.713 42.2328 184.987 42.3756 184.172 42.3756ZM190.971 42.1992V34.803L191.525 35.3574H188.262V33.3792H196.124V35.3574H192.873L193.428 34.803V42.1992H190.971ZM197.274 42.1992V33.3792H199.731V38.5578L203.373 33.3792H205.716V42.1992H203.259V37.0332L199.63 42.1992H197.274Z" fill="white"/>
<defs>
<filter id="filter0_iiiiii_3970_40101" x="-10.5" y="-4.75098" width="279.301" height="78.75" filterUnits="userSpaceOnUse" color-interpolation-filters="sRGB">
<feFlood flood-opacity="0" result="BackgroundImageFix"/>
<feBlend mode="normal" in="SourceGraphic" in2="BackgroundImageFix" result="shape"/>
<feColorMatrix in="SourceAlpha" type="matrix" values="0 0 0 0 0 0 0 0 0 0 0 0 0 0 0 0 0 0 127 0" result="hardAlpha"/>
<feOffset dx="13.65" dy="3.15"/>
<feGaussianBlur stdDeviation="2.1"/>
<feComposite in2="hardAlpha" operator="arithmetic" k2="-1" k3="1"/>
<feColorMatrix type="matrix" values="0 0 0 0 1 0 0 0 0 1 0 0 0 0 1 0 0 0 0.26 0"/>
<feBlend mode="normal" in2="shape" result="effect1_innerShadow_3970_40101"/>
<feColorMatrix in="SourceAlpha" type="matrix" values="0 0 0 0 0 0 0 0 0 0 0 0 0 0 0 0 0 0 127 0" result="hardAlpha"/>
<feOffset dx="-4.2" dy="-7.35"/>
<feGaussianBlur stdDeviation="2.1"/>
<feComposite in2="hardAlpha" operator="arithmetic" k2="-1" k3="1"/>
<feColorMatrix type="matrix" values="0 0 0 0 1 0 0 0 0 1 0 0 0 0 1 0 0 0 0.25 0"/>
<feBlend mode="normal" in2="effect1_innerShadow_3970_40101" result="effect2_innerShadow_3970_40101"/>
<feColorMatrix in="SourceAlpha" type="matrix" values="0 0 0 0 0 0 0 0 0 0 0 0 0 0 0 0 0 0 127 0" result="hardAlpha"/>
<feOffset dx="-10.5" dy="10.5"/>
<feGaussianBlur stdDeviation="2.1"/>
<feComposite in2="hardAlpha" operator="arithmetic" k2="-1" k3="1"/>
<feColorMatrix type="matrix" values="0 0 0 0 0.27451 0 0 0 0 0.27451 0 0 0 0 0.27451 0 0 0 1 0"/>
<feBlend mode="normal" in2="effect2_innerShadow_3970_40101" result="effect3_innerShadow_3970_40101"/>
<feColorMatrix in="SourceAlpha" type="matrix" values="0 0 0 0 0 0 0 0 0 0 0 0 0 0 0 0 0 0 127 0" result="hardAlpha"/>
<feOffset dx="10.5" dy="-10.5"/>
<feGaussianBlur stdDeviation="2.1"/>
<feComposite in2="hardAlpha" operator="arithmetic" k2="-1" k3="1"/>
<feColorMatrix type="matrix" values="0 0 0 0 0.27451 0 0 0 0 0.27451 0 0 0 0 0.27451 0 0 0 1 0"/>
<feBlend mode="normal" in2="effect3_innerShadow_3970_40101" result="effect4_innerShadow_3970_40101"/>
<feColorMatrix in="SourceAlpha" type="matrix" values="0 0 0 0 0 0 0 0 0 0 0 0 0 0 0 0 0 0 127 0" result="hardAlpha"/>
<feOffset dx="-10.5" dy="21"/>
<feGaussianBlur stdDeviation="5.25"/>
<feComposite in2="hardAlpha" operator="arithmetic" k2="-1" k3="1"/>
<feColorMatrix type="matrix" values="0 0 0 0 1 0 0 0 0 1 0 0 0 0 1 0 0 0 0.25 0"/>
<feBlend mode="normal" in2="effect4_innerShadow_3970_40101" result="effect5_innerShadow_3970_40101"/>
<feColorMatrix in="SourceAlpha" type="matrix" values="0 0 0 0 0 0 0 0 0 0 0 0 0 0 0 0 0 0 127 0" result="hardAlpha"/>
<feOffset dx="10.5" dy="-5.25"/>
<feGaussianBlur stdDeviation="12.6"/>
<feComposite in2="hardAlpha" operator="arithmetic" k2="-1" k3="1"/>
<feColorMatrix type="matrix" values="0 0 0 0 0.27451 0 0 0 0 0.27451 0 0 0 0 0.27451 0 0 0 1 0"/>
<feBlend mode="normal" in2="effect5_innerShadow_3970_40101" result="effect6_innerShadow_3970_40101"/>
</filter>
</defs>
</svg>
