<svg width="31" height="32" viewBox="0 0 31 32" fill="none" xmlns="http://www.w3.org/2000/svg">
<path fill-rule="evenodd" clip-rule="evenodd" d="M8.65853 7.19922C8.65853 5.3427 9.37144 3.56223 10.6404 2.24947C11.9094 0.936716 13.6306 0.199219 15.4252 0.199219C17.2198 0.199219 18.941 0.936716 20.21 2.24947C21.4789 3.56223 22.1919 5.3427 22.1919 7.19922C22.1919 9.05573 21.4789 10.8362 20.21 12.149C18.941 13.4617 17.2198 14.1992 15.4252 14.1992C13.6306 14.1992 11.9094 13.4617 10.6404 12.149C9.37144 10.8362 8.65853 9.05573 8.65853 7.19922ZM8.65853 17.6992C6.41524 17.6992 4.26383 18.6211 2.67758 20.262C1.09134 21.903 0.200195 24.1286 0.200195 26.4492C0.200195 27.8416 0.734881 29.177 1.68663 30.1615C2.63838 31.1461 3.92922 31.6992 5.2752 31.6992H25.5752C26.9212 31.6992 28.212 31.1461 29.1638 30.1615C30.1155 29.177 30.6502 27.8416 30.6502 26.4492C30.6502 24.1286 29.7591 21.903 28.1728 20.262C26.5866 18.6211 24.4352 17.6992 22.1919 17.6992H8.65853Z" fill="white"/>
</svg>
