<svg width="16" height="16" viewBox="0 0 16 16" fill="none" xmlns="http://www.w3.org/2000/svg">
<path d="M15.314 10.9631L11.4575 9.23485C11.2828 9.15998 11.0922 9.12988 10.9029 9.14727C10.7136 9.16466 10.5316 9.22899 10.3734 9.33444C10.3574 9.34475 10.3421 9.35621 10.3277 9.36873L8.31213 11.0831C8.29121 11.0945 8.26793 11.1009 8.24413 11.1017C8.22033 11.1026 8.19665 11.0979 8.17498 11.088C6.87942 10.4626 5.53734 9.12872 4.90956 7.85112C4.89911 7.82978 4.89367 7.80632 4.89367 7.78255C4.89367 7.75878 4.89911 7.73532 4.90956 7.71398L6.62962 5.67308C6.64196 5.65798 6.65341 5.64217 6.66391 5.62574C6.7679 5.46696 6.83072 5.28478 6.84668 5.09565C6.86264 4.90652 6.83125 4.71639 6.75534 4.54243L5.03936 0.692496C4.94191 0.465229 4.77338 0.275699 4.55907 0.152349C4.34475 0.0289999 4.09621 -0.021514 3.85075 0.00838887C2.78396 0.148636 1.80473 0.672526 1.09606 1.48216C0.387395 2.29179 -0.00222675 3.33176 9.57369e-06 4.40773C9.57369e-06 10.7998 5.20018 16 11.5922 16C12.6682 16.0021 13.708 15.6124 14.5176 14.9037C15.3272 14.1951 15.8512 13.216 15.9916 12.1492C16.0214 11.9049 15.9716 11.6575 15.8495 11.4438C15.7274 11.2301 15.5396 11.0615 15.314 10.9631ZM11.5922 15.0204C5.74061 15.0204 0.979634 10.2594 0.979634 4.40773C0.976905 3.57009 1.27924 2.76011 1.83015 2.12913C2.38106 1.49814 3.14285 1.08932 3.9732 0.979036H3.99198C4.02488 0.979651 4.05682 0.99019 4.08363 1.00927C4.11043 1.02836 4.13084 1.05509 4.14219 1.08598L5.8647 4.93183C5.87452 4.95322 5.87961 4.97647 5.87961 5C5.87961 5.02353 5.87452 5.04678 5.8647 5.06816L4.14137 7.11395C4.12852 7.12856 4.11678 7.14411 4.10627 7.16049C3.99843 7.32511 3.93493 7.51479 3.92192 7.71116C3.9089 7.90753 3.94682 8.10393 4.03198 8.28134C4.75609 9.76385 6.25002 11.2463 7.74884 11.9705C7.92729 12.0552 8.12465 12.0922 8.32166 12.0778C8.51868 12.0635 8.70862 11.9984 8.87296 11.8888C8.88847 11.8782 8.90398 11.8668 8.91868 11.8545L10.9334 10.1402C10.9533 10.1295 10.9753 10.1232 10.9979 10.1218C11.0204 10.1204 11.043 10.1239 11.0641 10.132L14.9213 11.8602C14.9528 11.8737 14.9793 11.8967 14.9971 11.926C15.0148 11.9553 15.0228 11.9894 15.0201 12.0235C14.9104 12.8543 14.502 13.6166 13.8711 14.1681C13.2403 14.7197 12.4302 15.0226 11.5922 15.0204Z" fill="white"/>
</svg>
