<svg width="22" height="22" viewBox="0 0 22 22" fill="none" xmlns="http://www.w3.org/2000/svg">
<path d="M19.9998 20.3983L15.4397 15.8381M15.4397 15.8381C16.2197 15.0581 16.8385 14.132 17.2606 13.1129C17.6828 12.0937 17.9 11.0014 17.9 9.89826C17.9 8.79513 17.6828 7.7028 17.2606 6.68364C16.8385 5.66448 16.2197 4.73845 15.4397 3.95841C14.6596 3.17838 13.7336 2.55963 12.7144 2.13748C11.6953 1.71532 10.603 1.49805 9.49983 1.49805C8.39669 1.49805 7.30436 1.71532 6.2852 2.13748C5.26604 2.55963 4.34001 3.17838 3.55998 3.95841C1.98463 5.53376 1.09961 7.67039 1.09961 9.89826C1.09961 12.1261 1.98463 14.2628 3.55998 15.8381C5.13532 17.4135 7.27195 18.2985 9.49983 18.2985C11.7277 18.2985 13.8643 17.4135 15.4397 15.8381Z" stroke="white" stroke-width="2.1" stroke-linecap="round" stroke-linejoin="round"/>
</svg>
