<svg width="24" height="24" viewBox="0 0 24 24" fill="none" xmlns="http://www.w3.org/2000/svg">
<path d="M16.4127 17.4407L16.4136 17.4367L18.3824 8.44703L17.8942 8.33906L18.3826 8.44603L18.3826 8.44613C18.4898 7.96034 18.4281 7.47379 18.088 7.15277C17.7475 6.83144 17.2799 6.81935 16.8972 6.95295L16.8972 6.95284L16.8871 6.95662L5.31983 11.2785L5.31799 11.2792C5.08765 11.3663 4.883 11.4743 4.72438 11.6093C4.56937 11.7412 4.41391 11.9389 4.39028 12.2026C4.36507 12.4841 4.50037 12.7087 4.66083 12.8548C4.81442 12.9947 5.01201 13.0869 5.21308 13.1484L5.21465 13.1489L8.17539 14.0442L8.38952 14.109L8.5805 13.9925L12.1484 11.816L9.67435 13.9816L9.51972 14.1169L9.50497 14.3219L9.2921 17.2797L9.25354 17.8156H9.79081C10.0239 17.8156 10.221 17.7643 10.3949 17.6662C10.5448 17.5817 10.6593 17.4705 10.7321 17.3998C10.7348 17.3971 10.7375 17.3945 10.7402 17.392L11.8842 16.3242L14.5509 18.2288L14.575 18.246L14.6009 18.2602C14.9329 18.4424 15.3431 18.557 15.7347 18.3853C16.1296 18.2121 16.3245 17.8279 16.4127 17.4407ZM0.503906 12C0.503906 5.86903 5.63503 0.875 12.0017 0.875C18.3684 0.875 23.4995 5.86903 23.4995 12C23.4995 18.131 18.3684 23.125 12.0017 23.125C5.63503 23.125 0.503906 18.131 0.503906 12Z" fill="white" stroke="black"/>
</svg>
