<svg width="108" height="76" viewBox="0 0 108 76" fill="none" xmlns="http://www.w3.org/2000/svg">
<g clip-path="url(#clip0_6275_1582)">
<path d="M40.5815 14.9094C39.7658 11.8834 46.3446 9.28842 48.0722 11.7253C48.3124 11.3789 49.2002 11.1684 49.6075 11.2747C50.0148 11.381 50.3574 11.6467 50.6916 11.9039C51.1512 12.2631 51.6274 12.6351 51.9094 13.1516C52.1935 13.666 52.2374 14.3674 51.8551 14.8138C51.5523 15.1688 50.6582 15.3983 50.2028 15.4918C49.8853 15.5577 49.6179 15.6109 49.3882 15.6491C49.1835 15.3452 49.079 14.969 49.1166 14.6012C48.8075 14.8095 48.5986 15.1666 48.5652 15.545C48.5589 15.6236 51.1324 25.2588 51.1324 25.2588C50.8671 25.4182 50.5391 25.567 50.1611 25.7031C49.5198 24.7189 48.9934 23.5584 48.6466 22.3447C48.5672 23.095 48.5798 23.9091 48.6759 24.7359C48.726 25.1759 48.8012 25.618 48.8973 26.0602C45.8392 26.7318 41.2395 26.5108 39.2383 23.654C39.2379 23.6422 39.2376 23.6304 39.2373 23.6185C39.223 23.084 38.5062 22.9512 38.3144 23.449C38.2659 23.5751 38.2212 23.6842 38.1813 23.7709C37.5985 21.6496 38.3526 19.1946 40.5815 14.9094Z" fill="#2F2E41"/>
<path d="M82.1568 38.9059C81.4332 39.7791 80.1509 39.8902 79.2927 39.1539C79.2096 39.0826 79.1322 39.0046 79.0614 38.9207L69.4037 42.0332L67.9009 39.5267L79.398 35.9152C80.3 35.238 81.5707 35.4331 82.2362 36.351C82.793 37.119 82.7602 38.1752 82.1568 38.9059Z" fill="#FFB6B6"/>
<path d="M47.9548 31.129C47.9548 31.129 52.2317 26.234 54.0947 28.3133C55.9576 30.3926 61.7699 39.5044 61.7699 39.5044L75.3377 36.5916L76.6498 40.2351L61.2442 45.315C60.086 45.6969 58.8168 45.3009 58.0681 44.324L47.9548 31.129Z" fill="#EC9611"/>
<path d="M57.2435 75.7505H36.0307L36.0114 75.5819L35.999 75.4696L35.8168 73.8968L35.5587 71.6569L35.4594 70.7961C35.4525 70.7526 35.4456 70.7105 35.4401 70.6669C35.3531 70.1066 35.3034 69.5435 35.2855 68.9818C35.2593 68.2094 35.2938 67.4385 35.3752 66.6773V66.6731C35.4194 66.2617 35.4759 65.8544 35.5463 65.4514C35.6346 64.9332 35.7409 64.4234 35.8637 63.9249C36.0045 63.3464 36.1646 62.7832 36.3399 62.2398C36.5413 61.6036 36.7622 60.9942 36.9899 60.4184C37.0147 60.3566 37.0395 60.2948 37.063 60.2344L37.0644 60.233C38.265 57.2545 39.6285 55.2197 39.6285 55.2197H55.0824C55.0824 55.2197 55.7972 58.4117 56.1519 61.0475C56.2085 61.4646 56.2554 61.8662 56.2899 62.2398C56.352 62.9293 56.3699 63.5219 56.3161 63.9249C56.283 64.1749 56.2223 64.3518 56.1284 64.4333C55.2783 65.1719 56.2513 66.7391 56.2513 66.7391C56.2513 66.7391 56.9799 67.8724 56.3451 68.5099C56.2195 68.6363 56.1478 68.7992 56.1133 68.9818C56.0581 69.2837 56.1064 69.6348 56.1823 69.9451C56.2582 70.2569 56.363 70.5279 56.421 70.6669C56.4472 70.7287 56.4638 70.7638 56.4638 70.7638L56.5714 71.6303L56.6763 72.4644L56.8543 73.8968L56.9082 74.1496L57.1856 75.4696L57.209 75.5819L57.2435 75.7505Z" fill="#2F2E41"/>
<path d="M46.5294 24.4316L40.0435 25.0194L38.8481 28.8048L37.5453 28.9967C35.3191 29.3247 33.9942 31.7006 34.8592 33.8135L36.0055 36.6135C36.0055 36.6135 34.3217 41.9017 36.3896 44.1237L37.2696 53.91L35.2846 60.3614L58.4878 61.1235L54.5355 53.0313L54.4183 48.0067C54.4183 48.0067 56.9439 38.925 54.6023 36.0362L53.6887 27.8198L48.929 27.0933L46.5294 24.4316Z" fill="#EC9611"/>
<path d="M50.9172 19.5763C51.5856 16.643 49.7905 13.7137 46.9078 13.0336C44.0251 12.3535 41.1463 14.1802 40.478 17.1135C39.8096 20.0469 41.6047 22.9761 44.4875 23.6562C47.3702 24.3363 50.2489 22.5097 50.9172 19.5763Z" fill="#FFB6B6"/>
<path d="M37.661 15.3342C36.8454 12.3082 43.4242 9.71323 45.1518 12.1501C45.392 11.8037 46.2798 11.5932 46.6871 11.6995C47.0944 11.8058 47.437 12.0715 47.7712 12.3287C48.2308 12.6879 48.707 13.0599 48.989 13.5764C49.2731 14.0908 49.317 14.7922 48.9347 15.2386C48.6318 15.5936 47.7378 15.8231 47.2824 15.9167C46.9649 15.9825 46.6975 16.0357 46.4678 16.0739C46.263 15.77 46.1586 15.3938 46.1962 15.026C45.8871 15.2343 45.6782 15.5914 45.6447 15.9698C45.6385 16.0484 48.212 25.6836 48.212 25.6836C47.9467 25.843 47.6187 25.9918 47.2406 26.1279C46.5994 25.1437 46.073 23.9832 45.7262 22.7695C45.6468 23.5198 45.6594 24.3339 45.7555 25.1607C45.8056 25.6007 45.8808 26.0429 45.9769 26.485C42.9187 27.1566 38.319 26.9356 36.3179 24.0788C36.3175 24.067 36.3172 24.0552 36.3169 24.0433C36.3026 23.5088 35.5858 23.376 35.394 23.8738C35.3455 23.9999 35.3008 24.109 35.2609 24.1957C34.6781 22.0744 35.4322 19.6194 37.661 15.3342Z" fill="#2F2E41"/>
<path d="M83.4667 75.5817H11.4279L0.249512 75.7221L78.6451 70.9596C81.2602 70.8007 83.4667 72.9159 83.4667 75.5817Z" fill="#3F3D56"/>
<path d="M101.107 75.4695V75.7504H0.225098V0.150391H0.501108V75.4695H101.107Z" fill="#3F3D56"/>
<path d="M90.312 17.6352H71.9501C71.5267 17.6352 71.1821 17.2859 71.1821 16.8566C71.1821 16.4273 71.5267 16.0781 71.9501 16.0781H90.312C90.7354 16.0781 91.0798 16.4273 91.0798 16.8566C91.0798 17.2859 90.7354 17.6352 90.312 17.6352Z" fill="#E9A800"/>
<path d="M81.1272 20.1466C81.0586 19.9745 80.8216 19.9746 80.753 20.1467C80.2742 21.3476 79.5926 22.6925 78.8513 23.7204C78.7326 23.8849 78.8962 24.1048 79.0849 24.0354L80.674 23.4503V33.4607H81.206V23.4503L82.7958 24.0354C82.9844 24.1049 83.148 23.885 83.0293 23.7204C82.288 22.6926 81.6063 21.3476 81.1272 20.1466Z" fill="#3F3D56"/>
<path d="M106.851 23.3574H95.5306C95.2695 23.3574 95.0571 23.1421 95.0571 22.8774C95.0571 22.6127 95.2695 22.3975 95.5306 22.3975H106.851C107.112 22.3975 107.325 22.6127 107.325 22.8774C107.325 23.1421 107.112 23.3574 106.851 23.3574Z" fill="#F2F2F2"/>
<path d="M101.186 24.9067C101.143 24.8006 100.997 24.8006 100.955 24.9068C100.66 25.6472 100.239 26.4763 99.7824 27.11C99.7092 27.2115 99.8101 27.347 99.9264 27.3042L100.906 26.9435V33.1152H101.234V26.9435L102.214 27.3043C102.331 27.3471 102.431 27.2115 102.358 27.11C101.901 26.4764 101.481 25.6472 101.186 24.9067Z" fill="#F2F2F2"/>
<path d="M101.196 39.0697C102.555 39.0697 103.656 37.949 103.656 36.5666C103.656 35.1842 102.555 34.0635 101.196 34.0635C99.8377 34.0635 98.7363 35.1842 98.7363 36.5666C98.7363 37.949 99.8377 39.0697 101.196 39.0697Z" fill="#F2F2F2"/>
<path d="M70.5565 9.17578H59.2359C58.9749 9.17578 58.7625 8.96042 58.7625 8.69575C58.7625 8.43108 58.9749 8.21582 59.2359 8.21582H70.5565C70.8176 8.21582 71.0299 8.43108 71.0299 8.69575C71.0299 8.96042 70.8176 9.17578 70.5565 9.17578Z" fill="#F2F2F2"/>
<path d="M64.8909 10.7222C64.8486 10.616 64.7024 10.6161 64.6601 10.7222C64.365 11.4626 63.9448 12.2918 63.4877 12.9254C63.4145 13.0269 63.5154 13.1625 63.6317 13.1196L64.6115 12.759V18.9306H64.9395V12.759L65.9196 13.1197C66.0359 13.1625 66.1368 13.0269 66.0636 12.9255C65.6065 12.2918 65.1862 11.4626 64.8909 10.7222Z" fill="#F2F2F2"/>
<path d="M64.8974 24.8871C66.256 24.8871 67.3573 23.7664 67.3573 22.384C67.3573 21.0015 66.256 19.8809 64.8974 19.8809C63.5388 19.8809 62.4375 21.0015 62.4375 22.384C62.4375 23.7664 63.5388 24.8871 64.8974 24.8871Z" fill="#F2F2F2"/>
<path d="M36.3763 70.8839C36.9568 69.9062 36.6484 68.6349 35.6877 68.0442C35.5946 67.987 35.4972 67.9375 35.3963 67.8961L35.1926 57.5898L32.3772 56.9463L32.7071 69.1854C32.3665 70.2721 32.956 71.434 34.0239 71.7807C34.9175 72.0708 35.89 71.7 36.3763 70.8839Z" fill="#FFB6B6"/>
<path d="M38.3358 30.2224C38.3358 30.2224 34.8857 29.3798 33.7816 31.7671C32.6776 34.1544 32.5836 44.5428 32.5836 44.5428L31.9875 65.6105L36.3639 65.4142L39.8539 39.4907L38.3358 30.2224Z" fill="#EC9611"/>
<path d="M36.7887 73.9933C36.8664 74.0924 36.9844 74.1498 37.1089 74.1492H59.5127C59.7404 74.1489 59.9247 73.9609 59.9244 73.7292C59.9244 73.7004 59.9215 73.6718 59.9157 73.6436L59.5679 71.9627C59.5386 71.8234 59.442 71.7087 59.3112 71.658C59.2646 71.6394 59.215 71.6298 59.1649 71.6299H37.4553C37.4052 71.6298 37.3556 71.6394 37.309 71.658C37.1782 71.7087 37.0816 71.8234 37.0523 71.9627L36.7046 73.6436C36.6795 73.7671 36.7104 73.8956 36.7887 73.9933Z" fill="#CCCCCC"/>
<path d="M28.2141 36.364V62.6608C28.2147 63.3585 28.7704 63.9241 29.4562 63.9246H67.7526C68.4384 63.9241 68.9942 63.3585 68.9947 62.6608V36.364C68.9931 35.6669 68.4377 35.1025 67.7526 35.1016H29.4562C28.7711 35.1025 28.2157 35.6669 28.2141 36.364Z" fill="#E6E6E6"/>
<path d="M53.3884 58.3018C53.3429 58.2863 53.2946 58.2793 53.2463 58.2793H44.287C44.0234 58.2793 43.8081 58.497 43.8081 58.7652V73.1676H53.7238V58.7652C53.7238 58.5531 53.5886 58.365 53.3884 58.3018ZM49.7948 65.385C49.792 65.9804 49.3159 66.4607 48.7308 66.4579C48.1498 66.4537 47.6805 65.9762 47.6778 65.385V63.7139C47.6833 63.1199 48.1622 62.6424 48.7459 62.648C49.3228 62.6537 49.7893 63.1283 49.7948 63.7139V65.385Z" fill="#CCCCCC"/>
</g>
<defs>
<clipPath id="clip0_6275_1582">
<rect width="107.1" height="75.6" fill="white" transform="translate(0.225098 0.150391)"/>
</clipPath>
</defs>
</svg>
