<svg width="120" height="64" viewBox="0 0 120 64" fill="none" xmlns="http://www.w3.org/2000/svg">
<g clip-path="url(#clip0_6275_1189)">
<path d="M0.932931 55.6629H119.449V55.4023H0.932931C0.859138 55.4023 0.799316 55.4607 0.799316 55.5326C0.799316 55.6046 0.859137 55.6629 0.932931 55.6629Z" fill="#3F3D56"/>
<path d="M55.0472 57.8779C55.7152 61.0044 59.5233 57.1614 59.5233 57.1614L64.0662 56.6403C64.0662 56.6403 66.9389 56.7055 68.8095 58.1385C70.6801 59.5714 71.9495 57.6825 71.9495 57.6825C74.0569 58.3674 76.6389 58.3646 78.8751 58.1453C82.0973 57.8292 84.6801 55.4044 85.1229 52.2766C87.6211 34.6326 73.8869 25.9618 73.8869 25.9618L69.8784 15.4099C69.8784 15.4099 71.1478 12.3486 71.5486 9.6129C71.9494 6.87723 69.0099 4.27183 65.4023 1.66643C63.824 0.526567 62.0155 0.608495 60.4803 1.06132C58.7582 1.5693 57.2559 2.61392 56.1459 3.9945C55.2263 5.13827 53.649 6.75814 51.9152 7.03876C51.3153 7.13516 50.7234 7.36704 50.1702 7.78912C49.5983 8.22552 49.3458 8.95373 49.3378 9.85911C49.295 13.8141 52.6448 18.5755 55.5816 19.318C59.1892 20.2299 57.2518 28.8928 57.2518 28.8928C51.3728 36.9696 55.5148 45.9582 55.5148 45.9582L54.4459 53.2533C54.4459 53.2533 54.3791 54.7514 55.0472 57.8779Z" fill="#3F3D56"/>
<path d="M74.6882 41.0728L73.2184 58.9198C73.2184 58.9198 75.2226 63.8701 68.4083 63.6095C61.5939 63.349 65.6024 53.1879 65.6024 53.1879L67.7402 39.9004" fill="#3F3D56"/>
<path d="M68.9149 63.75C68.7483 63.75 68.5777 63.7467 68.4026 63.74C66.8941 63.6823 65.7833 63.1406 65.1009 62.13C63.1497 59.2404 65.3198 53.5444 65.4721 53.1545L67.6077 39.8805C67.6192 39.8093 67.687 39.7615 67.7605 39.7719C67.8333 39.7831 67.8832 39.8498 67.8718 39.9209L65.734 53.2084C65.7324 53.2175 65.73 53.2264 65.7267 53.235C65.7033 53.2939 63.4215 59.1696 65.3242 61.987C65.9566 62.9232 66.9957 63.4255 68.413 63.4797C70.638 63.5643 72.1346 63.1015 72.8621 62.1029C73.814 60.7965 73.1009 58.986 73.0936 58.9678C73.0862 58.9494 73.0832 58.9294 73.0847 58.9097L74.5545 41.0627C74.5604 40.9911 74.6235 40.9388 74.6984 40.9432C74.772 40.9491 74.8268 41.0118 74.8209 41.0835L73.3535 58.9013C73.4506 59.1567 74.0593 60.908 73.0811 62.2523C72.3573 63.247 70.9568 63.75 68.9149 63.75Z" fill="#2F2E41"/>
<path d="M62.5292 44.7207C62.5292 44.7207 62.93 61.265 54.5123 60.8742C46.0945 60.4834 53.7106 55.2726 53.7106 55.2726L54.4455 53.2534" fill="#3F3D56"/>
<path d="M54.8034 61.0116C54.7057 61.0116 54.6074 61.0093 54.5081 61.0047C52.1046 60.8931 50.7466 60.3681 50.4719 59.4443C49.977 57.7795 53.2029 55.4682 53.601 55.1905L54.3218 53.2103C54.3465 53.1423 54.4228 53.107 54.4924 53.131C54.5619 53.1551 54.5983 53.2295 54.5736 53.2973L53.8388 55.3165C53.8295 55.342 53.8123 55.364 53.7896 55.3796C53.7543 55.4037 50.2652 57.8136 50.7286 59.3718C50.9681 60.1769 52.244 60.6387 54.5209 60.7444C56.0373 60.8155 57.3665 60.3184 58.4694 59.2686C62.605 55.3324 62.4004 44.8297 62.3978 44.7241C62.3961 44.6523 62.4544 44.5926 62.5283 44.5908C62.5981 44.5909 62.6632 44.6462 62.665 44.718C62.6756 45.1539 62.8751 55.439 58.6562 59.4548C57.5702 60.4886 56.2751 61.0116 54.8034 61.0116Z" fill="#2F2E41"/>
<path d="M49.3374 9.85941C50.2968 9.97144 51.7986 9.96622 53.0425 9.15725C54.3747 8.29096 52.9918 7.48328 51.9148 7.03906C51.3149 7.13546 50.723 7.36735 50.1698 7.78942C49.5979 8.22582 49.3454 8.95403 49.3374 9.85941Z" fill="#2F2E41"/>
<path d="M64.8397 7.51661C64.8397 7.51661 62.5082 1.67838 65.8475 1.59668C69.1868 1.51499 71.8244 6.57429 71.8244 6.57429C71.8244 6.57429 80.2058 21.4697 68.7227 20.6664C57.2396 19.8632 62.7269 13.917 62.7269 13.917C62.7269 13.917 65.346 10.7776 64.8397 7.51661Z" fill="#2F2E41"/>
<path d="M77.634 51.1448C79.1128 51.7862 80.6579 52.4407 82.2752 52.3781C83.8925 52.3155 85.5944 51.3 85.8464 49.7412C85.9765 48.9366 85.7185 48.0733 86.0345 47.3192C86.4597 46.3045 87.8312 45.9133 88.8973 46.261C89.9634 46.6087 90.7466 47.5053 91.3082 48.4548C92.3588 50.2312 92.7798 52.5628 91.6533 54.2945C90.6768 55.7957 88.8246 56.4741 87.1017 57.0559C84.8068 57.8309 82.2447 58.6001 80.0209 57.6481C77.7845 56.6907 76.5662 53.9244 77.3944 51.6841" fill="#3F3D56"/>
<path d="M72.6976 23.0162C72.6976 23.0162 75.6372 24.4492 74.1674 26.0124C72.6976 27.5756 63.6118 32.0048 60.2715 31.3535C56.9311 30.7021 56.1294 28.7481 56.1294 28.227C56.1294 27.7059 56.3814 21.4026 57.4503 21.6631C58.5192 21.9237 65.2152 27.8362 72.6976 23.0162Z" fill="#F9A826"/>
</g>
<defs>
<clipPath id="clip0_6275_1189">
<rect width="118.65" height="63" fill="white" transform="translate(0.799316 0.75)"/>
</clipPath>
</defs>
</svg>
