<svg width="90" height="69" viewBox="0 0 90 69" fill="none" xmlns="http://www.w3.org/2000/svg">
<g clip-path="url(#clip0_6275_1204)">
<path opacity="0.1" d="M15.9841 10.536C15.5065 11.1142 15.3226 11.9271 15.1169 12.6914C13.4611 18.8506 9.3807 23.8047 4.73383 27.3433C2.76597 28.8423 0.370204 30.8524 0.800727 33.5399C1.03255 34.9832 2.04959 36.0457 2.80519 37.2212C4.39046 39.6826 4.90465 43.0282 4.14905 45.9748C3.28975 49.3274 0.887878 52.4556 1.63127 55.8456C2.08968 57.9323 3.64619 59.4173 5.14257 60.6937C7.47704 62.6835 9.88588 64.5476 12.3691 66.286C14.0337 67.451 15.8046 68.5848 17.7445 68.7326C19.4527 68.863 21.126 68.2153 22.7478 67.5762C24.1649 67.0172 25.6177 66.4355 26.762 65.3156C27.5089 64.5844 28.1041 63.6411 28.9338 63.0429C30.8825 61.6379 33.3854 62.5282 35.62 63.1299C40.8926 64.5418 46.5356 64.0263 51.5528 61.6744C59.2491 58.0662 65.1152 50.4889 72.6433 46.4234C75.88 44.6749 79.4009 43.5899 82.398 41.338C84.0866 40.0558 85.5376 38.4893 86.6858 36.709C88.9517 33.2217 90.1771 28.7753 89.8233 24.4229C89.4694 20.0704 87.4867 15.8762 84.3729 13.4191C81.0393 10.789 76.8291 10.2978 73.0363 8.71888C69.1215 7.08606 65.6372 4.28122 61.7599 2.53275C58.6205 1.1202 55.2038 0.426928 51.7607 0.503809C48.3176 0.58069 44.9355 1.42578 41.8626 2.97704C37.6401 5.10719 33.3619 10.077 28.6593 10.4543C25.3092 10.7151 18.6004 7.3695 15.9841 10.536Z" fill="#EC9611"/>
<path d="M76.4068 30.6765C76.4068 30.6765 75.1379 26.3771 76.6447 23.2132C77.2856 21.8899 77.4788 20.395 77.1955 18.9529C77.0555 18.2692 76.8531 17.5999 76.5907 16.9531" stroke="#535461" stroke-width="2.1" stroke-miterlimit="10"/>
<path d="M77.5361 14.9547C77.5361 15.4816 76.5775 17.0092 76.5775 17.0092C76.5775 17.0092 75.6188 15.4816 75.6188 14.9547C75.6091 14.8235 75.6266 14.6918 75.6702 14.5676C75.7139 14.4435 75.7827 14.3297 75.8724 14.2333C75.9622 14.1369 76.0708 14.06 76.1917 14.0074C76.3126 13.9549 76.443 13.9277 76.5749 13.9277C76.7067 13.9277 76.8372 13.9549 76.958 14.0074C77.0789 14.06 77.1876 14.1369 77.2773 14.2333C77.367 14.3297 77.4359 14.4435 77.4795 14.5676C77.5231 14.6918 77.5406 14.8235 77.5309 14.9547H77.5361Z" fill="#EC9611"/>
<path d="M79.1122 17.873C78.8254 18.3155 77.187 19.0798 77.187 19.0798C77.187 19.0798 77.2166 17.2791 77.5034 16.8366C77.6492 16.6431 77.8631 16.5121 78.102 16.4698C78.3409 16.4275 78.587 16.4772 78.7906 16.6087C78.9943 16.7403 79.1403 16.944 79.1993 17.1788C79.2584 17.4136 79.226 17.6619 79.1087 17.8738L79.1122 17.873Z" fill="#EC9611"/>
<path d="M79.0428 22.8612C78.5713 23.0986 76.7769 22.9342 76.7769 22.9342C76.7769 22.9342 77.7137 21.3944 78.1852 21.1571C78.4088 21.0645 78.6591 21.0597 78.8861 21.1436C79.113 21.2276 79.2997 21.3941 79.4087 21.6097C79.5177 21.8253 79.5409 22.0741 79.4737 22.306C79.4065 22.538 79.2538 22.736 79.0463 22.8603L79.0428 22.8612Z" fill="#EC9611"/>
<path d="M78.1361 26.6258C77.7117 26.9388 75.9111 27.0805 75.9111 27.0805C75.9111 27.0805 76.5735 25.4051 76.9988 25.0912C77.2034 24.9671 77.4472 24.924 77.6822 24.9702C77.9171 25.0165 78.1262 25.1488 78.2683 25.3412C78.4104 25.5335 78.4752 25.7719 78.4499 26.0095C78.4246 26.2471 78.3111 26.4666 78.1317 26.6249L78.1361 26.6258Z" fill="#EC9611"/>
<path d="M75.1823 19.1814C75.5614 19.5483 77.3262 19.9291 77.3262 19.9291C77.3262 19.9291 76.8905 18.1807 76.5148 17.8129C76.4272 17.7149 76.3203 17.6359 76.2007 17.5809C76.0811 17.526 75.9515 17.4962 75.8198 17.4934C75.6882 17.4906 75.5574 17.5149 75.4356 17.5647C75.3138 17.6146 75.2036 17.6889 75.1118 17.7832C75.0201 17.8774 74.9488 17.9894 74.9024 18.1123C74.856 18.2353 74.8354 18.3664 74.842 18.4976C74.8486 18.6288 74.8823 18.7572 74.9408 18.8748C74.9994 18.9925 75.0816 19.0968 75.1823 19.1814Z" fill="#EC9611"/>
<path d="M74.1816 23.5936C74.653 23.831 76.4475 23.6667 76.4475 23.6667C76.4475 23.6667 75.5106 22.1269 75.0391 21.8895C74.8156 21.7969 74.5652 21.7921 74.3382 21.8761C74.1113 21.96 73.9246 22.1265 73.8156 22.3421C73.7066 22.5577 73.6834 22.8065 73.7506 23.0385C73.8179 23.2704 73.9706 23.4685 74.1781 23.5928L74.1816 23.5936Z" fill="#EC9611"/>
<path d="M73.7963 28.0168C74.2207 28.3298 76.0213 28.4715 76.0213 28.4715C76.0213 28.4715 75.3589 26.7961 74.9336 26.4822C74.8339 26.3942 74.717 26.3279 74.5902 26.2875C74.4635 26.2471 74.3296 26.2335 74.1973 26.2475C74.065 26.2615 73.937 26.3029 73.8216 26.3689C73.7061 26.435 73.6057 26.5243 73.5268 26.6312C73.4478 26.7381 73.392 26.8602 73.363 26.9897C73.3339 27.1193 73.3322 27.2535 73.358 27.3837C73.3837 27.514 73.4364 27.6375 73.5126 27.7463C73.5888 27.8552 73.6869 27.947 73.8007 28.0159L73.7963 28.0168Z" fill="#EC9611"/>
<path opacity="0.1" d="M77.5361 14.9547C77.5361 15.4816 76.5775 17.0092 76.5775 17.0092C76.5775 17.0092 75.6188 15.4816 75.6188 14.9547C75.6091 14.8235 75.6266 14.6918 75.6702 14.5676C75.7139 14.4435 75.7827 14.3297 75.8724 14.2333C75.9622 14.1369 76.0708 14.06 76.1917 14.0074C76.3126 13.9549 76.443 13.9277 76.5749 13.9277C76.7067 13.9277 76.8372 13.9549 76.958 14.0074C77.0789 14.06 77.1876 14.1369 77.2773 14.2333C77.367 14.3297 77.4359 14.4435 77.4795 14.5676C77.5231 14.6918 77.5406 14.8235 77.5309 14.9547H77.5361Z" fill="#EC9611"/>
<path opacity="0.1" d="M79.1122 17.873C78.8254 18.3155 77.187 19.0798 77.187 19.0798C77.187 19.0798 77.2166 17.2791 77.5034 16.8366C77.6492 16.6431 77.8631 16.5121 78.102 16.4698C78.3409 16.4275 78.587 16.4772 78.7906 16.6087C78.9943 16.7403 79.1403 16.944 79.1993 17.1788C79.2584 17.4136 79.226 17.6619 79.1087 17.8738L79.1122 17.873Z" fill="#EC9611"/>
<path opacity="0.1" d="M79.0428 22.8612C78.5713 23.0986 76.7769 22.9342 76.7769 22.9342C76.7769 22.9342 77.7137 21.3944 78.1852 21.1571C78.4088 21.0645 78.6591 21.0597 78.8861 21.1436C79.113 21.2276 79.2997 21.3941 79.4087 21.6097C79.5177 21.8253 79.5409 22.0741 79.4737 22.306C79.4065 22.538 79.2538 22.736 79.0463 22.8603L79.0428 22.8612Z" fill="#EC9611"/>
<path opacity="0.1" d="M78.1361 26.6258C77.7117 26.9388 75.9111 27.0805 75.9111 27.0805C75.9111 27.0805 76.5735 25.4051 76.9988 25.0912C77.2034 24.9671 77.4472 24.924 77.6822 24.9702C77.9171 25.0165 78.1262 25.1488 78.2683 25.3412C78.4104 25.5335 78.4752 25.7719 78.4499 26.0095C78.4246 26.2471 78.3111 26.4666 78.1317 26.6249L78.1361 26.6258Z" fill="#EC9611"/>
<path opacity="0.1" d="M75.1823 19.1814C75.5614 19.5483 77.3262 19.9291 77.3262 19.9291C77.3262 19.9291 76.8905 18.1807 76.5148 17.8129C76.4272 17.7149 76.3203 17.6359 76.2007 17.5809C76.0811 17.526 75.9515 17.4962 75.8198 17.4934C75.6882 17.4906 75.5574 17.5149 75.4356 17.5647C75.3138 17.6146 75.2036 17.6889 75.1118 17.7832C75.0201 17.8774 74.9488 17.9894 74.9024 18.1123C74.856 18.2353 74.8354 18.3664 74.842 18.4976C74.8486 18.6288 74.8823 18.7572 74.9408 18.8748C74.9994 18.9925 75.0816 19.0968 75.1823 19.1814Z" fill="#EC9611"/>
<path opacity="0.1" d="M74.1816 23.5936C74.653 23.831 76.4475 23.6667 76.4475 23.6667C76.4475 23.6667 75.5106 22.1269 75.0391 21.8895C74.8156 21.7969 74.5652 21.7921 74.3382 21.8761C74.1113 21.96 73.9246 22.1265 73.8156 22.3421C73.7066 22.5577 73.6834 22.8065 73.7506 23.0385C73.8179 23.2704 73.9706 23.4685 74.1781 23.5928L74.1816 23.5936Z" fill="#EC9611"/>
<path opacity="0.1" d="M73.7963 28.0168C74.2207 28.3298 76.0213 28.4715 76.0213 28.4715C76.0213 28.4715 75.3589 26.7961 74.9336 26.4822C74.8339 26.3942 74.717 26.3279 74.5902 26.2875C74.4635 26.2471 74.3296 26.2335 74.1973 26.2475C74.065 26.2615 73.937 26.3029 73.8216 26.3689C73.7061 26.435 73.6057 26.5243 73.5268 26.6312C73.4478 26.7381 73.392 26.8602 73.363 26.9897C73.3339 27.1193 73.3322 27.2535 73.358 27.3837C73.3837 27.514 73.4364 27.6375 73.5126 27.7463C73.5888 27.8552 73.6869 27.947 73.8007 28.0159L73.7963 28.0168Z" fill="#EC9611"/>
<path d="M81.7222 37.5456C81.7222 37.5456 80.4533 33.2462 81.9601 30.0823C82.601 28.7591 82.7943 27.2641 82.5109 25.822C82.371 25.1384 82.1685 24.469 81.9061 23.8223" stroke="#535461" stroke-width="2.1" stroke-miterlimit="10"/>
<path d="M82.8516 21.8239C82.8516 22.3507 81.8929 23.8784 81.8929 23.8784C81.8929 23.8784 80.9343 22.3507 80.9343 21.8239C80.9245 21.6927 80.942 21.5609 80.9857 21.4368C81.0293 21.3126 81.0981 21.1988 81.1879 21.1024C81.2776 21.006 81.3863 20.9292 81.5071 20.8766C81.628 20.824 81.7584 20.7969 81.8903 20.7969C82.0221 20.7969 82.1526 20.824 82.2734 20.8766C82.3943 20.9292 82.503 21.006 82.5927 21.1024C82.6825 21.1988 82.7513 21.3126 82.7949 21.4368C82.8386 21.5609 82.8561 21.6927 82.8463 21.8239H82.8516Z" fill="#EC9611"/>
<path d="M84.4285 24.7403C84.1418 25.1828 82.5068 25.9462 82.5068 25.9462C82.5068 25.9462 82.5365 24.1456 82.8232 23.703C82.8868 23.5881 82.9734 23.4875 83.0777 23.4075C83.1819 23.3274 83.3016 23.2696 83.4292 23.2377C83.5568 23.2058 83.6896 23.2004 83.8194 23.2219C83.9491 23.2434 84.0731 23.2913 84.1835 23.3626C84.2939 23.434 84.3885 23.5272 84.4612 23.6366C84.5339 23.746 84.5833 23.8691 84.6063 23.9983C84.6293 24.1275 84.6254 24.2601 84.5948 24.3877C84.5642 24.5154 84.5076 24.6354 84.4285 24.7403Z" fill="#EC9611"/>
<path d="M84.3582 29.7283C83.8867 29.9656 82.0923 29.8013 82.0923 29.8013C82.0923 29.8013 83.0292 28.2615 83.5006 28.0241C83.6137 27.9564 83.7395 27.9127 83.8702 27.8957C84.0009 27.8787 84.1338 27.8888 84.2604 27.9253C84.387 27.9619 84.5048 28.0241 84.6062 28.108C84.7077 28.192 84.7907 28.296 84.8501 28.4134C84.9094 28.5308 84.9439 28.6592 84.9513 28.7905C84.9586 28.9219 84.9388 29.0533 84.893 29.1766C84.8471 29.2999 84.7763 29.4125 84.6849 29.5072C84.5935 29.602 84.4834 29.677 84.3617 29.7274L84.3582 29.7283Z" fill="#EC9611"/>
<path d="M83.4559 33.4949C83.0315 33.8079 81.231 33.9497 81.231 33.9497C81.231 33.9497 81.8933 32.2742 82.3186 31.9604C82.5233 31.8363 82.7671 31.7931 83.002 31.8394C83.237 31.8856 83.4461 32.018 83.5881 32.2103C83.7302 32.4026 83.795 32.6411 83.7697 32.8786C83.7444 33.1162 83.6309 33.3358 83.4516 33.4941L83.4559 33.4949Z" fill="#EC9611"/>
<path d="M80.4982 26.0491C80.8773 26.416 82.6421 26.7968 82.6421 26.7968C82.6421 26.7968 82.2063 25.0484 81.8307 24.6806C81.6452 24.5249 81.4075 24.4451 81.1654 24.4573C80.9233 24.4694 80.6948 24.5726 80.5259 24.7461C80.357 24.9195 80.2602 25.1504 80.2551 25.3921C80.25 25.6339 80.3368 25.8687 80.4982 26.0491Z" fill="#EC9611"/>
<path d="M79.497 30.4628C79.9685 30.7001 81.7629 30.5358 81.7629 30.5358C81.7629 30.5358 80.826 28.996 80.3546 28.7586C80.131 28.6661 79.8806 28.6613 79.6537 28.7452C79.4267 28.8292 79.24 28.9957 79.131 29.2113C79.022 29.4269 78.9988 29.6756 79.0661 29.9076C79.1333 30.1396 79.286 30.3376 79.4935 30.4619L79.497 30.4628Z" fill="#EC9611"/>
<path d="M79.1117 34.8859C79.5362 35.1989 81.3367 35.3406 81.3367 35.3406C81.3367 35.3406 80.6744 33.6652 80.2491 33.3513C80.1494 33.2634 80.0324 33.1971 79.9057 33.1567C79.7789 33.1163 79.6451 33.1027 79.5127 33.1167C79.3804 33.1307 79.2524 33.172 79.137 33.2381C79.0215 33.3041 78.9212 33.3935 78.8422 33.5003C78.7633 33.6072 78.7075 33.7293 78.6784 33.8589C78.6493 33.9884 78.6476 34.1226 78.6734 34.2529C78.6992 34.3831 78.7518 34.5066 78.8281 34.6155C78.9043 34.7243 79.0024 34.8161 79.1161 34.8851L79.1117 34.8859Z" fill="#EC9611"/>
<path opacity="0.1" d="M82.8516 21.8239C82.8516 22.3507 81.8929 23.8784 81.8929 23.8784C81.8929 23.8784 80.9343 22.3507 80.9343 21.8239C80.9245 21.6927 80.942 21.5609 80.9857 21.4368C81.0293 21.3126 81.0981 21.1988 81.1879 21.1024C81.2776 21.006 81.3863 20.9292 81.5071 20.8766C81.628 20.824 81.7584 20.7969 81.8903 20.7969C82.0221 20.7969 82.1526 20.824 82.2734 20.8766C82.3943 20.9292 82.503 21.006 82.5927 21.1024C82.6825 21.1988 82.7513 21.3126 82.7949 21.4368C82.8386 21.5609 82.8561 21.6927 82.8463 21.8239H82.8516Z" fill="#EC9611"/>
<path opacity="0.1" d="M84.4285 24.7403C84.1418 25.1828 82.5068 25.9462 82.5068 25.9462C82.5068 25.9462 82.5365 24.1456 82.8232 23.703C82.8868 23.5881 82.9734 23.4875 83.0777 23.4075C83.1819 23.3274 83.3016 23.2696 83.4292 23.2377C83.5568 23.2058 83.6896 23.2004 83.8194 23.2219C83.9491 23.2434 84.0731 23.2913 84.1835 23.3626C84.2939 23.434 84.3885 23.5272 84.4612 23.6366C84.5339 23.746 84.5833 23.8691 84.6063 23.9983C84.6293 24.1275 84.6254 24.2601 84.5948 24.3877C84.5642 24.5154 84.5076 24.6354 84.4285 24.7403Z" fill="#EC9611"/>
<path opacity="0.1" d="M84.3582 29.7283C83.8867 29.9656 82.0923 29.8013 82.0923 29.8013C82.0923 29.8013 83.0292 28.2615 83.5006 28.0241C83.6137 27.9564 83.7395 27.9127 83.8702 27.8957C84.0009 27.8787 84.1338 27.8888 84.2604 27.9253C84.387 27.9619 84.5048 28.0241 84.6062 28.108C84.7077 28.192 84.7907 28.296 84.8501 28.4134C84.9094 28.5308 84.9439 28.6592 84.9513 28.7905C84.9586 28.9219 84.9388 29.0533 84.893 29.1766C84.8471 29.2999 84.7763 29.4125 84.6849 29.5072C84.5935 29.602 84.4834 29.677 84.3617 29.7274L84.3582 29.7283Z" fill="#EC9611"/>
<path opacity="0.1" d="M83.4559 33.4949C83.0315 33.8079 81.231 33.9497 81.231 33.9497C81.231 33.9497 81.8933 32.2742 82.3186 31.9604C82.5233 31.8363 82.7671 31.7931 83.002 31.8394C83.237 31.8856 83.4461 32.018 83.5881 32.2103C83.7302 32.4026 83.795 32.6411 83.7697 32.8786C83.7444 33.1162 83.6309 33.3358 83.4516 33.4941L83.4559 33.4949Z" fill="#EC9611"/>
<path opacity="0.1" d="M80.4982 26.0491C80.8773 26.416 82.6421 26.7968 82.6421 26.7968C82.6421 26.7968 82.2063 25.0484 81.8307 24.6806C81.6452 24.5249 81.4075 24.4451 81.1654 24.4573C80.9233 24.4694 80.6948 24.5726 80.5259 24.7461C80.357 24.9195 80.2602 25.1504 80.2551 25.3921C80.25 25.6339 80.3368 25.8687 80.4982 26.0491Z" fill="#EC9611"/>
<path opacity="0.1" d="M79.497 30.4628C79.9685 30.7001 81.7629 30.5358 81.7629 30.5358C81.7629 30.5358 80.826 28.996 80.3546 28.7586C80.131 28.6661 79.8806 28.6613 79.6537 28.7452C79.4267 28.8292 79.24 28.9957 79.131 29.2113C79.022 29.4269 78.9988 29.6756 79.0661 29.9076C79.1333 30.1396 79.286 30.3376 79.4935 30.4619L79.497 30.4628Z" fill="#EC9611"/>
<path opacity="0.1" d="M79.1117 34.8859C79.5362 35.1989 81.3367 35.3406 81.3367 35.3406C81.3367 35.3406 80.6744 33.6652 80.2491 33.3513C80.1494 33.2634 80.0324 33.1971 79.9057 33.1567C79.7789 33.1163 79.6451 33.1027 79.5127 33.1167C79.3804 33.1307 79.2524 33.172 79.137 33.2381C79.0215 33.3041 78.9212 33.3935 78.8422 33.5003C78.7633 33.6072 78.7075 33.7293 78.6784 33.8589C78.6493 33.9884 78.6476 34.1226 78.6734 34.2529C78.6992 34.3831 78.7518 34.5066 78.8281 34.6155C78.9043 34.7243 79.0024 34.8161 79.1161 34.8851L79.1117 34.8859Z" fill="#EC9611"/>
<path opacity="0.1" d="M47.8075 51.92C71.4791 49.617 90.3675 44.6684 89.9959 40.867C89.6243 37.0657 70.1334 35.8511 46.4618 38.1542C22.7902 40.4572 3.90182 45.4058 4.27341 49.2072C4.64501 53.0085 24.1359 54.2231 47.8075 51.92Z" fill="#EC9611"/>
<path d="M86.2663 41.4726C87.8777 38.1774 87.5448 32.8138 87.3731 30.9932C87.3356 30.595 87.306 30.3663 87.306 30.3663C87.306 30.3663 85.8854 30.1429 86.4092 28.4274C86.6654 27.5875 85.7556 27.1233 84.7621 26.8685C84.0517 26.699 83.3269 26.5968 82.5973 26.5633L68.8371 25.7156C66.9503 22.7282 63.2376 23.2081 63.2376 23.2081C63.2376 23.2081 59.9259 22.8647 57.5781 22.829C57.2218 22.5159 56.8312 22.2437 56.4138 22.0179C56.165 21.8687 55.9001 21.7483 55.6242 21.6588C55.2887 21.5622 54.9351 21.5453 54.5919 21.6095C54.2487 21.6736 53.9253 21.8171 53.6476 22.0283C53.5123 22.1254 53.402 22.2533 53.326 22.4013C53.2967 22.4686 53.2748 22.5388 53.2606 22.6108C53.2252 22.7336 53.1962 22.8581 53.1735 22.9838C53.1531 23.0443 53.1237 23.1015 53.0863 23.1534C52.9922 23.2864 52.8301 23.3864 52.8092 23.5472C52.8087 23.5565 52.8087 23.5658 52.8092 23.575C52.792 23.6058 52.7805 23.6393 52.7752 23.6742C52.7689 23.7457 52.7844 23.8175 52.8197 23.8802C52.8249 23.8906 52.831 23.9002 52.8371 23.9098C52.7212 24.0771 52.6267 24.2582 52.5556 24.4488C52.5234 24.4663 52.4922 24.4858 52.4623 24.5071L52.4362 24.5262V24.5792L52.4214 24.5906L52.3891 25.447L52.4074 25.4609C52.4338 25.8604 52.5546 26.248 52.7601 26.5919C52.9655 26.9359 53.2496 27.2264 53.5892 27.4397C53.6005 27.4945 53.611 27.5502 53.6214 27.6084C53.6693 27.8892 53.6909 28.1739 53.6859 28.4587H53.6711C53.2615 28.2848 52.5608 28.5405 51.9586 28.8387H44.1569C45.6785 26.8859 47.5401 25.3713 47.5401 25.3713V23.655C46.2102 23.5889 34.5268 29.1882 31.9654 30.4246L31.8521 30.4793L18.688 30.8862C16.3036 30.8714 14.2189 31.221 12.4132 31.7905C9.39566 32.7361 6.68405 34.4643 4.55569 36.7985C3.00093 38.5009 2.31941 39.9076 2.31941 39.9076L2.33423 40.0259L2.31941 40.0563L2.34033 40.0746L2.69503 42.8672L2.93905 44.7887C1.2431 45.8825 3.44017 46.3207 3.44017 46.3207C5.53178 48.11 8.89666 48.0361 8.89666 48.0361C9.71849 49.1551 12.1108 49.0055 12.1108 49.0055H24.6683C24.8639 47.8554 25.1258 46.7174 25.4526 45.5973C25.9886 49.4481 29.0345 52.3981 32.7105 52.3981C32.9832 52.398 33.2556 52.3814 33.5263 52.3486C33.7969 52.3814 34.0693 52.398 34.342 52.3981C38.0607 52.3981 41.1336 49.3785 41.6173 45.4634H42.2317C42.117 46.3381 41.9177 47.1997 41.6365 48.0361C52.9234 44.7548 73.9275 43.1889 73.9275 43.1889C74.0147 42.363 74.1105 41.5648 74.2142 40.7988C75.0797 42.942 77.0414 44.4383 79.3248 44.4383C79.5322 44.438 79.7394 44.4253 79.9453 44.4001C80.1511 44.4253 80.3584 44.438 80.5658 44.4383C83.277 44.4383 85.5334 42.3282 86.0423 39.5303C86.1097 40.0241 86.1481 40.5214 86.1574 41.0197C86.0606 41.4944 85.9761 41.7978 85.9648 41.8404C86.0327 41.7164 86.0972 41.5894 86.1582 41.4596C86.1582 41.51 86.1582 41.5622 86.1582 41.6144C86.1373 41.7013 86.1225 41.75 86.1181 41.7665L86.1565 41.6952C86.1565 41.7335 86.1565 41.7709 86.1565 41.8091C86.1478 41.8126 86.194 41.6874 86.2663 41.4726Z" fill="url(#paint0_linear_6275_1204)"/>
<path d="M84.9492 29.6328H59.0742V40.0462H84.9492V29.6328Z" fill="#6F7D95"/>
<path d="M52.4956 24.7558L56.1707 32.9695L63.4487 32.5295L63.7424 29.1561L63.9629 25.1957L53.6721 24.4619L52.4956 24.7558Z" fill="#4B5C7A"/>
<path d="M52.4956 24.7556C52.4956 24.7556 53.89 23.4358 55.5833 23.1419C57.2767 22.8481 62.9345 23.4349 62.9345 23.4349L63.7433 24.8261L63.5916 25.4886L52.4956 24.7556Z" fill="#FF4D52"/>
<path d="M66.3518 28.9727H40.2563V36.5995H66.3518V28.9727Z" fill="#4B5C7A"/>
<path d="M59.9293 34.1616C60.6187 31.8619 59.2443 30.3508 59.2443 30.3508L56.9662 28.765C56.9643 28.7704 56.962 28.7756 56.9592 28.7806C56.6629 28.4342 56.4509 28.0242 56.3396 27.5825C56.3326 27.5547 56.3265 27.526 56.3195 27.4956C56.5278 27.3412 56.7102 27.1549 56.8599 26.9435C57.2311 26.7165 57.3967 26.3514 57.4595 25.9871C57.6983 25.6335 57.8885 25.2495 58.0251 24.8455C58.0476 24.7801 58.0668 24.7137 58.0826 24.6464C58.1265 24.5211 58.146 24.3886 58.1401 24.256C58.1216 24.1083 58.0723 23.9662 57.9955 23.8387C57.612 23.1431 56.9218 22.6588 56.2219 22.2641C55.9773 22.1175 55.7168 21.9991 55.4454 21.9111C55.1155 21.8162 54.7679 21.7997 54.4305 21.8628C54.093 21.9259 53.775 22.0669 53.502 22.2745C53.3688 22.3701 53.2604 22.4958 53.1856 22.6414C53.1568 22.7076 53.1351 22.7767 53.1211 22.8475C53.0873 22.9683 53.0596 23.0908 53.0383 23.2144C53.0193 23.2735 52.9917 23.3294 52.9564 23.3805C52.8632 23.5109 52.7045 23.6091 52.6836 23.7682C52.6831 23.7775 52.6831 23.7868 52.6836 23.7961C52.6668 23.8263 52.6556 23.8593 52.6505 23.8934C52.6441 23.9638 52.6593 24.0345 52.6941 24.096C52.6993 24.1065 52.7054 24.116 52.7115 24.1256C52.5975 24.2902 52.5044 24.4684 52.4344 24.6559C52.4024 24.6732 52.3716 24.6923 52.342 24.7133L52.3167 24.7316V24.7838L52.3019 24.7951L52.2697 25.6376L52.2871 25.6515C52.3128 26.0444 52.4315 26.4257 52.6335 26.7641C52.8354 27.1025 53.1148 27.3883 53.4488 27.5982C53.4601 27.6521 53.4706 27.7068 53.4802 27.7642C53.5328 28.0676 53.5538 28.3756 53.5429 28.6832C53.5395 28.6567 53.5395 28.6298 53.5429 28.6032C52.9128 28.3189 51.5385 29.1049 50.9851 29.4527C50.9012 29.4924 50.8229 29.5429 50.7524 29.6031L50.7428 29.6101C50.3619 29.9178 49.6098 30.7734 49.0128 32.9722C48.1849 36.0405 48.2712 36.7361 47.6681 37.4473C47.065 38.1585 46.4663 43.1691 46.4663 43.1691L47.6803 43.4952L47.8354 42.9978C49.2787 44.3107 53.3198 44.9428 53.3198 44.9428L53.4436 44.5594C54.0632 44.7819 55.0994 44.4437 55.0994 44.4437C56.6141 43.9099 57.1815 42.5553 58.2804 40.7686C59.3794 38.9818 59.9293 34.1616 59.9293 34.1616ZM53.8201 43.4065L56.6176 34.7494C56.8712 36.0935 55.7522 38.2107 55.6528 39.5948C55.591 40.4851 54.5521 42.2545 53.8201 43.4065Z" fill="url(#paint1_linear_6275_1204)"/>
<path d="M57.3194 25.053C57.3194 25.053 57.8066 26.904 56.3607 27.2266C54.9149 27.5492 55.8675 26.3945 55.8675 26.3945L57.2619 25.0391L57.3194 25.053Z" fill="#472727"/>
<path d="M51.2737 29.4639C51.2737 29.4639 50.1983 29.8986 49.4079 32.8269C48.6174 35.7552 48.6958 36.416 48.1267 37.0968C47.5576 37.7775 46.9746 42.5543 46.9746 42.5543L48.1128 42.8603L49.1037 39.6677L51.8289 31.2341L51.2737 29.4639Z" fill="#DDE0E4"/>
<path opacity="0.05" d="M51.2737 29.4639C51.2737 29.4639 50.1983 29.8986 49.4079 32.8269C48.6174 35.7552 48.6958 36.416 48.1267 37.0968C47.5576 37.7775 46.9746 42.5543 46.9746 42.5543L48.1128 42.8603L49.1037 39.6677L51.8289 31.2341L51.2737 29.4639Z" fill="black"/>
<path d="M57.2456 29.1344C57.2456 29.1344 52.7434 31.4176 53.4023 29.9282C53.7282 29.1927 53.716 28.4302 53.621 27.8416C53.5668 27.4949 53.4717 27.1557 53.3378 26.8313C53.3378 26.8313 56.3985 24.4159 56.219 26.3879C56.176 26.8123 56.2055 27.2409 56.3061 27.6555C56.5711 28.7015 57.2456 29.1344 57.2456 29.1344Z" fill="#DB8B8B"/>
<path opacity="0.1" d="M56.3083 27.6581C56.0187 27.8901 55.6783 28.0504 55.3148 28.126C54.9512 28.2015 54.5749 28.1902 54.2166 28.0928C54.0071 28.0366 53.8062 27.9521 53.6197 27.8416C53.5654 27.4949 53.4704 27.1557 53.3364 26.8313C53.3364 26.8313 56.3972 24.4159 56.2176 26.3879C56.1755 26.8133 56.2061 27.2429 56.3083 27.6581Z" fill="black"/>
<path d="M57.1383 26.3176C57.4767 25.0638 56.7322 23.7738 55.4755 23.4362C54.2188 23.0986 52.9257 23.8413 52.5873 25.0951C52.2489 26.3489 52.9934 27.6389 54.2501 27.9765C55.5068 28.3141 56.7999 27.5714 57.1383 26.3176Z" fill="#DB8B8B"/>
<path opacity="0.1" d="M53.6823 24.5588C53.6177 24.5982 53.5457 24.6241 53.4707 24.6351C53.3958 24.646 53.3194 24.6418 53.2461 24.6225C53.1729 24.6033 53.1043 24.5695 53.0444 24.5231C52.9846 24.4767 52.9348 24.4188 52.898 24.3527C52.8656 24.2938 52.8517 24.2266 52.8579 24.1597C52.8779 24.0084 53.0278 23.9145 53.1193 23.7893C53.2614 23.5867 53.2344 23.3094 53.3372 23.0842C53.408 22.9467 53.5101 22.8276 53.6353 22.7364C53.89 22.5378 54.1882 22.4021 54.5055 22.3404C54.8228 22.2788 55.1503 22.2929 55.4611 22.3817C55.7154 22.4644 55.9593 22.5762 56.1879 22.7147C56.8433 23.0877 57.4891 23.5441 57.8438 24.2075C57.9156 24.3293 57.9613 24.4646 57.978 24.6049C57.9819 24.7564 57.9552 24.9072 57.8995 25.0483C57.7685 25.4379 57.5859 25.8084 57.3566 26.1499C57.2799 26.0549 57.1836 25.9775 57.0742 25.9229C57.019 25.8969 56.957 25.8889 56.8969 25.8999C56.8368 25.911 56.7818 25.9407 56.7396 25.9847C56.6637 26.0812 56.6176 26.2655 56.5025 26.222C56.4276 26.1942 56.4284 26.0907 56.4319 26.0108C56.4476 25.663 56.2576 25.3352 56.0023 25.1004C55.7469 24.8657 55.4306 24.7109 55.1186 24.5588C54.8946 24.4492 54.5957 24.198 54.3499 24.1536C54.0449 24.0971 53.9011 24.424 53.6823 24.5588Z" fill="black"/>
<path d="M53.715 24.4396C53.6504 24.479 53.5784 24.505 53.5035 24.516C53.4285 24.5269 53.3521 24.5226 53.2788 24.5034C53.2056 24.4841 53.137 24.4503 53.0771 24.404C53.0173 24.3576 52.9675 24.2996 52.9307 24.2336C52.8984 24.1747 52.8844 24.1074 52.8906 24.0406C52.9106 23.8893 53.0605 23.7954 53.152 23.6702C53.2941 23.4676 53.2671 23.1902 53.3699 22.9651C53.4407 22.8275 53.5428 22.7084 53.668 22.6173C53.9227 22.4186 54.2209 22.2829 54.5382 22.2213C54.8555 22.1596 55.183 22.1738 55.4938 22.2625C55.7481 22.3453 55.992 22.457 56.2206 22.5955C56.876 22.9685 57.5218 23.425 57.8765 24.0884C57.9483 24.2101 57.994 24.3454 58.0107 24.4857C58.0146 24.6373 57.9879 24.7881 57.9323 24.9291C57.8012 25.3188 57.6186 25.6892 57.3893 26.0307C57.3126 25.9357 57.2163 25.8583 57.1069 25.8038C57.0517 25.7778 56.9897 25.7697 56.9296 25.7808C56.8696 25.7919 56.8145 25.8215 56.7723 25.8655C56.6965 25.962 56.6503 26.1464 56.5352 26.1029C56.4603 26.0751 56.4611 25.9716 56.4646 25.8916C56.4803 25.5438 56.2903 25.2161 56.035 24.9813C55.7796 24.7466 55.4633 24.5918 55.1513 24.4396C54.9273 24.3301 54.6284 24.0788 54.3826 24.0345C54.0776 23.9771 53.9338 24.3049 53.715 24.4396Z" fill="#472727"/>
<path d="M54.9457 29.4448C54.9457 29.4448 56.8098 29.0805 56.8909 28.7823L59.0226 30.2839C59.0226 30.2839 60.3054 31.7176 59.6492 33.9121C59.6492 33.9121 59.115 38.5106 58.0761 40.2173C57.0373 41.924 56.4403 44.135 55.0171 44.6515C55.0171 44.6515 53.6489 43.7716 53.1974 43.782C53.1974 43.782 55.5148 40.4321 55.6141 39.1131C55.7135 37.7942 56.7724 35.7718 56.5405 34.492L53.4031 44.2211C53.4031 44.2211 48.3484 43.4386 47.8359 41.7649C47.8359 41.7649 48.2717 41.112 48.1906 40.4503C48.1096 39.7887 50.0975 34.8111 50.0975 34.8111L51.0492 29.6205C51.0492 29.6205 52.9316 28.3085 53.6811 28.6493C53.6776 28.6441 53.5417 29.2918 54.9457 29.4448Z" fill="#DDE0E4"/>
<g opacity="0.1">
<path d="M55.6256 25.4098C55.1655 24.7838 54.2879 25.2976 54.1441 25.3872L53.9184 25.3646C53.7214 25.1507 53.1174 24.5821 52.5501 25.0003L52.5257 25.0185L52.4917 25.821L52.5161 25.8401C52.68 25.9664 52.8658 26.0613 53.0643 26.1201C53.1899 26.157 53.3225 26.1635 53.4512 26.1392C53.5464 26.1173 53.6357 26.0748 53.7126 26.0147C53.7896 25.9546 53.8524 25.8784 53.8966 25.7915L54.0142 25.7993L54.1014 25.7828C54.1188 25.8752 54.1558 25.9629 54.2099 26.04C54.264 26.117 54.334 26.1817 54.4151 26.2297C54.8047 26.4496 55.3738 26.2297 55.3973 26.2253L55.4269 26.214L55.6361 25.4376L55.6256 25.4098ZM55.3302 26.1158C55.2143 26.1549 54.7768 26.2836 54.4831 26.1158C54.41 26.07 54.3483 26.0081 54.303 25.9349C54.2577 25.8616 54.2298 25.7789 54.2216 25.6932L54.2112 25.6297L54.0203 25.6689L53.8286 25.6619L53.8103 25.6984C53.7753 25.7774 53.7226 25.8473 53.6563 25.9028C53.59 25.9583 53.5118 25.9978 53.4277 26.0184C53.0991 26.0888 52.7192 25.8349 52.6198 25.7628L52.6486 25.0846C53.1418 24.7533 53.6857 25.2907 53.8425 25.4663L53.8591 25.4845L54.1772 25.5158L54.1964 25.5028C54.2051 25.4976 54.9955 24.9681 55.4461 25.3941C55.4685 25.4148 55.4891 25.4372 55.508 25.4611L55.3302 26.1158Z" fill="black"/>
<path d="M57.0515 25.8137L55.5699 25.6911L55.4479 25.6676L55.5028 25.4625C55.484 25.4386 55.4633 25.4162 55.4409 25.3955L55.6204 25.4129L56.8327 25.5311L57.0515 25.8137Z" fill="black"/>
</g>
<path d="M55.6417 25.3531C55.1816 24.7271 54.304 25.241 54.1602 25.3305L53.9345 25.3079C53.7375 25.094 53.1336 24.5254 52.5662 24.9436L52.5418 24.9619L52.5078 25.7644L52.5322 25.7835C52.6961 25.9097 52.8819 26.0046 53.0804 26.0635C53.206 26.1003 53.3387 26.1069 53.4673 26.0826C53.5626 26.0607 53.6518 26.0182 53.7287 25.9581C53.8057 25.898 53.8685 25.8218 53.9127 25.7348L54.0303 25.7426L54.1175 25.7261C54.1349 25.8186 54.1719 25.9063 54.226 25.9833C54.2801 26.0604 54.3501 26.1251 54.4312 26.173C54.8208 26.393 55.3899 26.173 55.4134 26.1687L55.443 26.1574L55.6522 25.381L55.6417 25.3531ZM55.3463 26.0591C55.2304 26.0982 54.7929 26.2269 54.4992 26.0591C54.4261 26.0134 54.3645 25.9515 54.3191 25.8782C54.2738 25.805 54.2459 25.7223 54.2377 25.6366L54.2273 25.5731L54.0364 25.6122L53.8473 25.6001L53.829 25.6366C53.7946 25.716 53.7424 25.7865 53.6764 25.8426C53.6103 25.8986 53.5323 25.9388 53.4482 25.96C53.1196 26.0304 52.7396 25.7765 52.6403 25.7044L52.669 25.0262C53.1623 24.695 53.7061 25.2323 53.863 25.4079L53.8796 25.4262L54.1977 25.4575L54.2168 25.4444C54.2255 25.4392 55.016 24.9097 55.4666 25.3357C55.4889 25.3564 55.5096 25.3788 55.5284 25.4027L55.3463 26.0591Z" fill="#472727"/>
<path d="M57.0662 25.7561L55.5899 25.6335L55.4679 25.61L55.5228 25.4048C55.504 25.3809 55.4833 25.3586 55.4609 25.3379L55.6405 25.3553L56.8527 25.4735L57.0662 25.7561Z" fill="#472727"/>
<path d="M46.9443 34.9131H21.0693V45.3265H46.9443V34.9131Z" fill="#6F7D95"/>
<path d="M32.9123 52.1465C36.9 52.1465 40.1327 48.617 40.1327 44.2632C40.1327 39.9094 36.9 36.3799 32.9123 36.3799C28.9246 36.3799 25.6919 39.9094 25.6919 44.2632C25.6919 48.617 28.9246 52.1465 32.9123 52.1465Z" fill="#4B5C7A"/>
<path opacity="0.05" d="M32.9123 52.1465C36.9 52.1465 40.1327 48.617 40.1327 44.2632C40.1327 39.9094 36.9 36.3799 32.9123 36.3799C28.9246 36.3799 25.6919 39.9094 25.6919 44.2632C25.6919 48.617 28.9246 52.1465 32.9123 52.1465Z" fill="black"/>
<path d="M34.5158 52.1465C38.5036 52.1465 41.7363 48.617 41.7363 44.2632C41.7363 39.9094 38.5036 36.3799 34.5158 36.3799C30.5281 36.3799 27.2954 39.9094 27.2954 44.2632C27.2954 48.617 30.5281 52.1465 34.5158 52.1465Z" fill="#4B5C7A"/>
<path opacity="0.05" d="M34.3559 47.5042C36.1281 47.5042 37.5647 46.0709 37.5647 44.3029C37.5647 42.5348 36.1281 41.1016 34.3559 41.1016C32.5836 41.1016 31.147 42.5348 31.147 44.3029C31.147 46.0709 32.5836 47.5042 34.3559 47.5042Z" fill="black"/>
<path d="M34.3536 45.2633C34.8855 45.2633 35.3167 44.8331 35.3167 44.3025C35.3167 43.7719 34.8855 43.3418 34.3536 43.3418C33.8218 43.3418 33.3906 43.7719 33.3906 44.3025C33.3906 44.8331 33.8218 45.2633 34.3536 45.2633Z" stroke="#6F7D95" stroke-width="2.1" stroke-miterlimit="10"/>
<path d="M34.3528 42.8618C34.4857 42.8618 34.5934 42.7543 34.5934 42.6218C34.5934 42.4893 34.4857 42.3818 34.3528 42.3818C34.22 42.3818 34.1123 42.4893 34.1123 42.6218C34.1123 42.7543 34.22 42.8618 34.3528 42.8618Z" fill="#6F7D95"/>
<path d="M35.8241 43.2691C35.9258 43.1839 35.9391 43.0325 35.8537 42.931C35.7683 42.8295 35.6166 42.8162 35.5148 42.9014C35.4131 42.9866 35.3998 43.138 35.4852 43.2395C35.5706 43.341 35.7223 43.3543 35.8241 43.2691Z" fill="#6F7D95"/>
<path d="M36.3998 44.432C36.4229 44.3015 36.3355 44.177 36.2047 44.154C36.0739 44.131 35.9491 44.2181 35.926 44.3486C35.903 44.4792 35.9903 44.6036 36.1212 44.6266C36.252 44.6496 36.3767 44.5625 36.3998 44.432Z" fill="#6F7D95"/>
<path d="M35.5948 45.8113C35.7099 45.745 35.7493 45.5983 35.6829 45.4835C35.6165 45.3687 35.4694 45.3294 35.3543 45.3956C35.2393 45.4619 35.1998 45.6087 35.2663 45.7234C35.3327 45.8382 35.4798 45.8775 35.5948 45.8113Z" fill="#6F7D95"/>
<path d="M34.3307 45.9416C34.3761 45.817 34.3118 45.6793 34.187 45.634C34.0621 45.5887 33.9241 45.6529 33.8787 45.7774C33.8332 45.902 33.8976 46.0397 34.0224 46.085C34.1472 46.1303 34.2853 46.0661 34.3307 45.9416Z" fill="#6F7D95"/>
<path d="M33.1083 45.2009C33.2332 45.1556 33.2975 45.0179 33.2521 44.8934C33.2067 44.7688 33.0686 44.7046 32.9438 44.75C32.819 44.7953 32.7546 44.933 32.8 45.0575C32.8455 45.1821 32.9835 45.2463 33.1083 45.2009Z" fill="#6F7D95"/>
<path d="M33.2176 43.7011C33.284 43.5863 33.2446 43.4396 33.1295 43.3733C33.0145 43.307 32.8674 43.3464 32.8009 43.4611C32.7345 43.5759 32.7739 43.7227 32.889 43.7889C33.004 43.8552 33.1511 43.8159 33.2176 43.7011Z" fill="#6F7D95"/>
<path d="M86.3962 38.1705C86.1496 39.8694 85.4637 41.7292 85.4637 41.7292C85.4684 41.6133 85.4713 41.4988 85.4724 41.3857C85.4724 41.2397 85.4724 41.0953 85.4724 40.951C85.3853 36.2682 82.8274 33.379 81.1777 31.9957C80.7489 31.6312 80.2877 31.3064 79.7998 31.0254H84.2837C84.2837 31.0254 86.0476 34.6188 86.4154 36.3786C86.5217 36.8724 86.4921 37.5097 86.3962 38.1705Z" fill="#FF4D52"/>
<path opacity="0.05" d="M86.3962 38.1705C86.1496 39.8694 85.4637 41.7292 85.4637 41.7292C85.4684 41.6133 85.4713 41.4988 85.4724 41.3857C85.4724 41.2397 85.4724 41.0953 85.4724 40.951C85.3853 36.2682 82.8274 33.379 81.1777 31.9957C80.7489 31.6312 80.2877 31.3064 79.7998 31.0254H84.2837C84.2837 31.0254 86.0476 34.6188 86.4154 36.3786C86.5217 36.8724 86.4921 37.5097 86.3962 38.1705Z" fill="black"/>
<path d="M78.7531 44.3186C81.7859 44.3186 84.2444 41.6342 84.2444 38.3229C84.2444 35.0115 81.7859 32.3271 78.7531 32.3271C75.7203 32.3271 73.2617 35.0115 73.2617 38.3229C73.2617 41.6342 75.7203 44.3186 78.7531 44.3186Z" fill="#4B5C7A"/>
<path opacity="0.05" d="M78.7531 44.3186C81.7859 44.3186 84.2444 41.6342 84.2444 38.3229C84.2444 35.0115 81.7859 32.3271 78.7531 32.3271C75.7203 32.3271 73.2617 35.0115 73.2617 38.3229C73.2617 41.6342 75.7203 44.3186 78.7531 44.3186Z" fill="black"/>
<path d="M79.9713 44.3186C83.0041 44.3186 85.4627 41.6342 85.4627 38.3229C85.4627 35.0115 83.0041 32.3271 79.9713 32.3271C76.9385 32.3271 74.48 35.0115 74.48 38.3229C74.48 41.6342 76.9385 44.3186 79.9713 44.3186Z" fill="#4B5C7A"/>
<path opacity="0.05" d="M79.8484 40.7879C81.1961 40.7879 82.2886 39.6979 82.2886 38.3534C82.2886 37.0089 81.1961 35.9189 79.8484 35.9189C78.5007 35.9189 77.4082 37.0089 77.4082 38.3534C77.4082 39.6979 78.5007 40.7879 79.8484 40.7879Z" fill="black"/>
<path d="M79.8507 39.0837C80.255 39.0837 80.5828 38.7567 80.5828 38.3534C80.5828 37.95 80.255 37.623 79.8507 37.623C79.4464 37.623 79.1187 37.95 79.1187 38.3534C79.1187 38.7567 79.4464 39.0837 79.8507 39.0837Z" stroke="#6F7D95" stroke-width="2.1" stroke-miterlimit="10"/>
<path d="M79.8515 37.2577C79.9525 37.2577 80.0345 37.176 80.0345 37.0752C80.0345 36.9743 79.9525 36.8926 79.8515 36.8926C79.7504 36.8926 79.6685 36.9743 79.6685 37.0752C79.6685 37.176 79.7504 37.2577 79.8515 37.2577Z" fill="#6F7D95"/>
<path d="M80.9707 37.5676C81.0481 37.5028 81.0582 37.3877 80.9933 37.3104C80.9283 37.2332 80.8128 37.2231 80.7354 37.2879C80.658 37.3527 80.6479 37.4679 80.7129 37.5451C80.7778 37.6224 80.8933 37.6325 80.9707 37.5676Z" fill="#6F7D95"/>
<path d="M81.4059 38.452C81.4235 38.3527 81.357 38.258 81.2575 38.2404C81.1579 38.2229 81.063 38.2892 81.0455 38.3886C81.0279 38.4879 81.0944 38.5826 81.1939 38.6001C81.2934 38.6176 81.3884 38.5513 81.4059 38.452Z" fill="#6F7D95"/>
<path d="M80.7932 39.5013C80.8807 39.4509 80.9107 39.3392 80.8602 39.2519C80.8096 39.1646 80.6977 39.1347 80.6102 39.1851C80.5226 39.2355 80.4926 39.3472 80.5432 39.4345C80.5937 39.5218 80.7056 39.5517 80.7932 39.5013Z" fill="#6F7D95"/>
<path d="M79.8289 39.5998C79.8635 39.5051 79.8145 39.4003 79.7195 39.3658C79.6246 39.3313 79.5195 39.3802 79.485 39.4749C79.4504 39.5697 79.4994 39.6744 79.5943 39.7089C79.6893 39.7434 79.7943 39.6946 79.8289 39.5998Z" fill="#6F7D95"/>
<path d="M78.8992 39.0346C78.9942 39.0001 79.0432 38.8953 79.0086 38.8006C78.974 38.7058 78.869 38.657 78.774 38.6915C78.679 38.7259 78.6301 38.8307 78.6646 38.9255C78.6992 39.0202 78.8042 39.0691 78.8992 39.0346Z" fill="#6F7D95"/>
<path d="M78.9856 37.8956C79.0362 37.8082 79.0062 37.6966 78.9187 37.6461C78.8311 37.5957 78.7192 37.6256 78.6687 37.713C78.6181 37.8003 78.6481 37.912 78.7356 37.9624C78.8232 38.0128 78.9351 37.9829 78.9856 37.8956Z" fill="#6F7D95"/>
<path d="M3.68655 45.0694L3.02246 39.8623H10.8878L14.9307 43.4557L12.9463 48.076C12.9463 48.076 4.93977 46.7562 3.68655 45.0694Z" fill="#FF4D52"/>
<path opacity="0.05" d="M14.9329 43.4558L12.9485 48.0761C12.9485 48.0761 4.93932 46.7563 3.6861 45.0695L3.65734 44.8426L3.04728 40.0276L3.04118 39.9798L3.02637 39.8633H10.8917L14.9329 43.4558Z" fill="black"/>
<path d="M47.4954 23.8766V25.5633C47.4954 25.5633 43.4307 28.8672 42.4633 31.9842C42.2945 32.4903 42.2307 33.0255 42.2759 33.557C42.6437 37.0035 31.6924 30.7696 31.6924 30.7696L32.1796 30.5331C34.6973 29.3219 46.1873 23.8105 47.4954 23.8766Z" fill="#7597CE"/>
<path d="M56.7572 32.0163C56.7572 32.0163 60.5639 30.1504 61.1748 28.7698C61.2568 28.5846 61.3343 28.3976 61.425 28.2159C61.8023 27.4586 62.5954 25.6823 62.1962 24.8294C61.6821 23.7296 63.446 24.9763 63.446 24.9763L62.4167 30.1817L59.9173 31.5729L56.6831 32.0163" fill="#FF4D52"/>
<path opacity="0.05" d="M56.7572 32.0163C56.7572 32.0163 60.5639 30.1504 61.1748 28.7698C61.2568 28.5846 61.3343 28.3976 61.425 28.2159C61.8023 27.4586 62.5954 25.6823 62.1962 24.8294C61.6821 23.7296 63.446 24.9763 63.446 24.9763L62.4167 30.1817L59.9173 31.5729L56.6831 32.0163" fill="black"/>
<path opacity="0.05" d="M14.9316 43.456L12.9472 48.0762C12.9472 48.0762 4.93803 46.7564 3.68481 45.0696L3.65605 44.8427C3.68829 44.821 3.72228 44.7984 3.75801 44.7766C3.75801 44.7766 6.18341 46.6833 11.6974 47.1242C11.6974 47.1242 15.0091 44.4836 9.63893 41.551C9.63893 41.551 4.96766 41.6971 3.04338 40.0286L3.02246 40.0112L3.03728 39.9808C3.05006 39.9558 3.07068 39.917 3.09915 39.8643H10.8878L14.9316 43.456Z" fill="black"/>
<path opacity="0.05" d="M42.2759 33.5553C42.6437 37.0027 31.6924 30.7687 31.6924 30.7687L32.1796 30.5322C32.502 30.8748 33.7892 32.0303 36.3628 31.9051C38.0186 31.8242 40.5329 31.8981 42.4677 31.9825C42.2973 32.4883 42.2321 33.0235 42.2759 33.5553Z" fill="black"/>
<path opacity="0.05" d="M46.9443 34.9131V45.3265H42.1371C42.4543 42.9042 42.2713 39.3734 39.1879 37.3493C38.0379 36.5994 36.7026 36.1809 35.3293 36.1401C33.956 36.0993 32.5981 36.4377 31.4054 37.118C29.3844 38.2692 27.1246 40.6097 25.6883 45.3265H21.0693V34.9131H46.9443Z" fill="black"/>
<path opacity="0.05" d="M86.3962 38.1705C86.215 39.3199 85.9239 40.4363 85.4733 41.3875C85.4152 41.5156 85.3519 41.6405 85.2833 41.7622C85.2946 41.7196 85.3774 41.4223 85.4733 40.9545C85.9404 38.6765 86.7396 32.373 81.3851 32.0131C81.3154 32.0087 81.2465 32.0044 81.1777 32.0018C80.7491 31.6351 80.2879 31.3083 79.7998 31.0254H84.2837C84.2837 31.0254 86.0476 34.6188 86.4154 36.3786C86.5217 36.8724 86.4921 37.5097 86.3962 38.1705Z" fill="black"/>
<path d="M85.4305 41.6907C85.5002 41.4394 87.984 32.3763 81.5323 31.9424C74.9899 31.5025 74.1811 36.4157 73.4464 43.0896C73.4464 43.0896 52.7918 44.6294 41.6905 47.8568C41.6905 47.8568 44.3556 40.5708 39.3375 37.2756C38.1874 36.5257 36.8521 36.1072 35.4788 36.0664C34.1055 36.0256 32.7476 36.364 31.5549 37.0443C29.0798 38.4546 26.2448 41.6524 25.0047 48.8097H12.6537C12.6537 48.8097 10.3006 48.9567 9.49276 47.8533C9.49276 47.8533 6.18104 47.9264 4.12691 46.1666C4.12691 46.1666 1.922 45.7266 3.68592 44.6268C3.68592 44.6268 6.1854 46.5335 11.6985 46.9743C11.6985 46.9743 15.0103 44.3338 9.64005 41.4011C9.64005 41.4011 4.93392 41.5481 3.02445 39.8613C3.02445 39.8613 3.69464 38.4781 5.22413 36.8044C7.3161 34.5086 9.98166 32.8083 12.9483 31.8772C14.9472 31.2607 17.0308 30.9608 19.1229 30.9886L32.097 30.5852C32.097 30.5852 33.3502 32.1989 36.3604 32.052C39.3706 31.905 45.255 32.2719 45.255 32.2719H45.3134L57.4203 31.725C57.768 31.6761 58.1119 31.6035 58.4496 31.5077C60.2048 31.0321 63.5339 29.5897 62.9335 25.5615L81.9724 26.7353C82.6899 26.7682 83.4028 26.8686 84.1014 27.0352C85.0793 27.2856 85.9735 27.743 85.7216 28.5689C85.2074 30.2557 86.6035 30.4756 86.6035 30.4756C86.6035 30.4756 86.6332 30.7008 86.6698 31.0921C86.8441 32.9371 87.1866 38.4841 85.4305 41.6907Z" fill="#FF4D52"/>
<path opacity="0.05" d="M27.2071 33.6289C27.2071 33.6289 19.2677 33.7019 14.0474 38.3239H16.9878C16.9878 38.3239 25.2209 36.1973 27.2054 34.5105L27.2071 33.6289Z" fill="black"/>
<path d="M27.1334 33.5557C27.1334 33.5557 19.194 33.6287 13.9736 38.2507H16.9141C16.9141 38.2507 25.1472 36.124 27.1316 34.4373L27.1334 33.5557Z" fill="#FFEC9F"/>
<path opacity="0.05" d="M13.0221 31.9521V33.9232L6.33418 37.0036L5.29883 36.8793C7.39056 34.5837 10.0558 32.8834 13.0221 31.9521Z" fill="black"/>
<path d="M12.9449 31.8779V33.849L6.25605 36.9286L5.2207 36.8042C7.31278 34.5088 9.97833 32.8088 12.9449 31.8779Z" fill="#FFEC9F"/>
<path opacity="0.05" d="M64.9919 40.9634L46.3199 43.1631C46.3199 43.1631 45.085 35.3206 45.3133 32.2697L57.4203 31.7229C57.7676 31.6747 58.1112 31.603 58.4486 31.5081V32.2358L67.5637 30.0361C67.5637 30.0361 69.108 32.3089 64.9919 40.9634Z" fill="black"/>
<path d="M62.9341 23.4351C62.9341 23.4351 66.9038 22.9222 68.6677 26.2956L62.9907 26.0774L62.9341 23.4351Z" fill="#FF4D52"/>
<path opacity="0.05" d="M68.3895 27.4774C68.2335 27.9652 68.3512 28.5016 69.2549 28.8729C70.007 29.1824 70.889 28.8242 71.1461 28.0547C71.296 27.6061 71.1932 27.0983 70.3827 26.6853C69.5722 26.2723 68.6623 26.6253 68.3895 27.4774Z" fill="black"/>
<path d="M3.16211 40.9619C3.16211 40.9619 7.87347 43.3964 11.2549 42.4748" stroke="#FF4D52" stroke-width="1.05" stroke-miterlimit="10"/>
<path d="M3.33008 42.2764C3.33008 42.2764 6.37425 44.6187 12.5271 44.0744" stroke="#FF4D52" stroke-width="1.05" stroke-miterlimit="10"/>
<path d="M3.46973 43.3799C3.46973 43.3799 6.48949 45.9943 12.6946 45.1657" stroke="#FF4D52" stroke-width="1.05" stroke-miterlimit="10"/>
<path opacity="0.05" d="M68.4396 25.9023C68.4396 25.9023 65.9837 28.0177 63.7422 28.9741C63.7422 28.9741 67.1463 29.5784 68.4396 25.9023Z" fill="black"/>
<path opacity="0.1" d="M42.4219 32.1284C42.4219 32.1284 54.0756 33.2265 58.4855 32.1996C58.4855 32.1996 58.7208 32.3553 57.3168 31.7275L42.4219 32.1284Z" fill="black"/>
<path opacity="0.05" d="M86.6704 31.0929C85.9444 30.6173 84.7932 29.6305 84.95 28.5323C85.0285 27.982 84.638 27.4673 84.1021 27.0352C85.0799 27.2856 85.974 27.7429 85.7222 28.5689C85.208 30.2556 86.6041 30.4756 86.6041 30.4756C86.6041 30.4756 86.6329 30.7016 86.6704 31.0929Z" fill="black"/>
<path opacity="0.02" d="M25.7211 36.1739L24.7407 39.2787L24.7171 39.3396C24.5856 39.3691 21.8072 40.0064 21.2076 40.2021H21.1475L22.6996 36.1026L22.7441 35.9844L23.2487 36.0165L25.7211 36.1739Z" fill="black"/>
<path opacity="0.1" d="M25.2446 27.6025C25.2446 27.6025 26.2861 30.7882 26.2164 31.2725C26.1466 31.7568 26.0081 37.0891 26.0081 37.0891L25.7998 37.0195L25.8695 31.2029L25.2446 27.6025Z" fill="black"/>
<path d="M69.0907 36.6104C69.0907 36.6104 70.6158 39.5969 69.3731 41.2306C68.1303 42.8643 69.4864 47.3167 69.4864 47.3167" stroke="#6C63FF" stroke-width="1.05" stroke-miterlimit="10"/>
<path d="M69.5439 35.681C69.5439 36.2566 69.1203 36.7244 69.1203 36.7244C69.1203 36.7244 68.6968 36.2575 68.6968 35.681C68.6968 35.1046 69.1203 34.6377 69.1203 34.6377C69.1203 34.6377 69.5439 35.1055 69.5439 35.681Z" fill="#EC9611"/>
<path d="M69.8808 36.6104C69.8808 36.6104 68.3556 39.5969 69.5984 41.2306C70.8412 42.8643 69.4851 47.3167 69.4851 47.3167" stroke="#6C63FF" stroke-width="1.05" stroke-miterlimit="10"/>
<path d="M69.4307 35.681C69.4307 36.2566 69.8542 36.7244 69.8542 36.7244C69.8542 36.7244 70.2778 36.2575 70.2778 35.681C70.2778 35.1046 69.8542 34.6377 69.8542 34.6377C69.8542 34.6377 69.4307 35.1055 69.4307 35.681Z" fill="#EC9611"/>
<path opacity="0.1" d="M69.4307 35.681C69.4307 36.2566 69.8542 36.7244 69.8542 36.7244C69.8542 36.7244 70.2778 36.2575 70.2778 35.681C70.2778 35.1046 69.8542 34.6377 69.8542 34.6377C69.8542 34.6377 69.4307 35.1055 69.4307 35.681Z" fill="black"/>
<path d="M70.5013 36.6104C70.5013 36.6104 72.0265 39.5969 70.7837 41.2306C69.5409 42.8643 70.897 47.3167 70.897 47.3167" stroke="#6C63FF" stroke-width="1.05" stroke-miterlimit="10"/>
<path d="M70.9545 35.681C70.9545 36.2566 70.531 36.7244 70.531 36.7244C70.531 36.7244 70.1074 36.2575 70.1074 35.681C70.1074 35.1046 70.531 34.6377 70.531 34.6377C70.531 34.6377 70.9545 35.1055 70.9545 35.681Z" fill="#EC9611"/>
<path d="M70.7152 38.0726C70.3152 38.4874 69.6851 38.5308 69.6851 38.5308C69.6851 38.5308 69.7042 37.9014 70.1043 37.4875C70.5043 37.0736 71.1344 37.0293 71.1344 37.0293C71.1344 37.0293 71.1152 37.6579 70.7152 38.0726Z" fill="#EC9611"/>
<path d="M70.7562 40.134C70.3562 40.5488 69.7261 40.5923 69.7261 40.5923C69.7261 40.5923 69.7452 39.9628 70.1453 39.5489C70.5453 39.1351 71.1719 39.0898 71.1719 39.0898C71.1719 39.0898 71.1562 39.7185 70.7562 40.134Z" fill="#EC9611"/>
<path d="M68.586 41.2672C68.9642 41.7019 68.9511 42.3314 68.9511 42.3314C68.9511 42.3314 68.3245 42.2558 67.9463 41.821C67.568 41.3863 67.5811 40.7568 67.5811 40.7568C67.5811 40.7568 68.2077 40.8325 68.586 41.2672Z" fill="#EC9611"/>
<path d="M68.9405 36.8735C69.4216 37.1918 69.5776 37.8021 69.5776 37.8021C69.5776 37.8021 68.9527 37.896 68.4725 37.5813C67.9923 37.2665 67.8354 36.6527 67.8354 36.6527C67.8354 36.6527 68.4594 36.5553 68.9405 36.8735Z" fill="#EC9611"/>
<path opacity="0.1" d="M68.9405 36.8735C69.4216 37.1918 69.5776 37.8021 69.5776 37.8021C69.5776 37.8021 68.9527 37.896 68.4725 37.5813C67.9923 37.2665 67.8354 36.6527 67.8354 36.6527C67.8354 36.6527 68.4594 36.5553 68.9405 36.8735Z" fill="black"/>
<path d="M71.2919 36.6104C71.2919 36.6104 69.7668 39.5969 71.0095 41.2306C72.2523 42.8643 70.8962 47.3167 70.8962 47.3167" stroke="#6C63FF" stroke-width="1.05" stroke-miterlimit="10"/>
<path d="M70.8418 35.681C70.8418 36.2566 71.2653 36.7244 71.2653 36.7244C71.2653 36.7244 71.6889 36.2575 71.6889 35.681C71.6889 35.1046 71.2653 34.6377 71.2653 34.6377C71.2653 34.6377 70.8418 35.1055 70.8418 35.681Z" fill="#EC9611"/>
<path opacity="0.1" d="M70.8418 35.681C70.8418 36.2566 71.2653 36.7244 71.2653 36.7244C71.2653 36.7244 71.6889 36.2575 71.6889 35.681C71.6889 35.1046 71.2653 34.6377 71.2653 34.6377C71.2653 34.6377 70.8418 35.1055 70.8418 35.681Z" fill="black"/>
<path d="M70.966 38.1179C70.5608 38.5283 70.5303 39.1612 70.5303 39.1612C70.5303 39.1612 71.1604 39.1256 71.5656 38.7152C71.9709 38.3048 72.0014 37.6719 72.0014 37.6719C72.0014 37.6719 71.3704 37.7075 70.966 38.1179Z" fill="#EC9611"/>
<path opacity="0.1" d="M70.966 38.1179C70.5608 38.5283 70.5303 39.1612 70.5303 39.1612C70.5303 39.1612 71.1604 39.1256 71.5656 38.7152C71.9709 38.3048 72.0014 37.6719 72.0014 37.6719C72.0014 37.6719 71.3704 37.7075 70.966 38.1179Z" fill="black"/>
<path d="M71.7575 40.9724C71.3523 41.3828 71.3218 42.0157 71.3218 42.0157C71.3218 42.0157 71.9519 41.9801 72.3571 41.5697C72.7624 41.1593 72.7929 40.5264 72.7929 40.5264C72.7929 40.5264 72.1628 40.5603 71.7575 40.9724Z" fill="#EC9611"/>
<path d="M70.5874 40.3433C70.5874 40.3433 71.5051 38.9 72.7941 38.8652" stroke="#6C63FF" stroke-width="1.05" stroke-miterlimit="10"/>
<path d="M69.8736 39.4712C69.8736 39.4712 68.9559 38.0279 67.667 37.9932" stroke="#6C63FF" stroke-width="1.05" stroke-miterlimit="10"/>
<path d="M69.7549 41.5318C69.7549 41.5318 70.6726 40.0885 71.9615 40.0537" stroke="#6C63FF" stroke-width="1.05" stroke-miterlimit="10"/>
<path d="M72.7531 39.0948C72.8845 39.0948 72.991 38.9886 72.991 38.8575C72.991 38.7264 72.8845 38.6201 72.7531 38.6201C72.6217 38.6201 72.5151 38.7264 72.5151 38.8575C72.5151 38.9886 72.6217 39.0948 72.7531 39.0948Z" fill="#EC9611"/>
<path d="M67.6876 38.2423C67.819 38.2423 67.9256 38.136 67.9256 38.0049C67.9256 37.8738 67.819 37.7676 67.6876 37.7676C67.5562 37.7676 67.4497 37.8738 67.4497 38.0049C67.4497 38.136 67.5562 38.2423 67.6876 38.2423Z" fill="#EC9611"/>
<path d="M70.4317 42.0074C70.4317 42.0074 69.5141 40.5641 68.2251 40.5293" stroke="#6C63FF" stroke-width="1.05" stroke-miterlimit="10"/>
<path d="M68.2457 40.7794C68.3771 40.7794 68.4837 40.6731 68.4837 40.542C68.4837 40.411 68.3771 40.3047 68.2457 40.3047C68.1143 40.3047 68.0078 40.411 68.0078 40.542C68.0078 40.6731 68.1143 40.7794 68.2457 40.7794Z" fill="#EC9611"/>
<path d="M71.9782 40.3038C72.1096 40.3038 72.2161 40.1976 72.2161 40.0665C72.2161 39.9354 72.1096 39.8291 71.9782 39.8291C71.8468 39.8291 71.7402 39.9354 71.7402 40.0665C71.7402 40.1976 71.8468 40.3038 71.9782 40.3038Z" fill="#EC9611"/>
<path d="M75.5039 45.581C75.5039 45.581 73.292 45.1393 72.702 44.5507C72.112 43.9621 69.4574 42.9353 69.1629 43.6682C68.8683 44.4012 65.1809 46.9078 67.6857 47.3486C70.1904 47.7894 73.5849 47.9372 74.3222 47.6425C75.0595 47.3477 75.5039 45.581 75.5039 45.581Z" fill="#A8A8A8"/>
<path opacity="0.2" d="M67.6863 47.075C70.1936 47.5167 73.5855 47.6636 74.3228 47.3689C74.8841 47.1446 75.2745 46.0647 75.4287 45.5674L75.5028 45.583C75.5028 45.583 75.0601 47.3489 74.3228 47.6428C73.5855 47.9366 70.1936 47.7897 67.6863 47.3489C66.9629 47.2211 66.7555 46.922 66.834 46.5438C66.8976 46.7898 67.1494 46.9802 67.6863 47.075Z" fill="black"/>
<path opacity="0.1" d="M6.76974 52.9404C6.7061 53.0326 6.65592 53.1333 6.62071 53.2395C5.34134 54.7384 4.6607 56.1374 5.88952 56.173C7.03468 56.2061 8.40817 58.2484 8.7376 58.7649C8.72673 58.8047 8.71364 58.8439 8.69838 58.8822C8.69838 58.8822 7.08784 56.2104 5.7771 56.173C4.46635 56.1357 5.32827 54.5472 6.76974 52.9404Z" fill="black"/>
<path opacity="0.2" d="M12.3986 61.2606C10.0935 61.2789 7.04232 60.9024 6.42791 60.5294C5.95991 60.2451 5.77341 59.2253 5.71153 58.7549H5.64355C5.64355 58.7549 5.77254 60.3981 6.38695 60.7711C7.00136 61.1441 10.0525 61.5215 12.3576 61.5023C13.0235 61.4971 13.2527 61.2606 13.2405 60.9111C13.1472 61.125 12.8936 61.2563 12.3986 61.2606Z" fill="black"/>
</g>
<defs>
<linearGradient id="paint0_linear_6275_1204" x1="44.9099" y1="52.4016" x2="44.9099" y2="21.5727" gradientUnits="userSpaceOnUse">
<stop stop-color="#808080" stop-opacity="0.25"/>
<stop offset="0.54" stop-color="#808080" stop-opacity="0.12"/>
<stop offset="1" stop-color="#808080" stop-opacity="0.1"/>
</linearGradient>
<linearGradient id="paint1_linear_6275_1204" x1="51.5583" y1="44.5844" x2="57.4998" y2="22.4662" gradientUnits="userSpaceOnUse">
<stop stop-color="#808080" stop-opacity="0.25"/>
<stop offset="0.54" stop-color="#808080" stop-opacity="0.12"/>
<stop offset="1" stop-color="#808080" stop-opacity="0.1"/>
</linearGradient>
<clipPath id="clip0_6275_1204">
<rect width="89.25" height="68.25" fill="white" transform="translate(0.75 0.5)"/>
</clipPath>
</defs>
</svg>
