<svg width="81" height="70" viewBox="0 0 81 70" fill="none" xmlns="http://www.w3.org/2000/svg">
<g clip-path="url(#clip0_6275_748)">
<path opacity="0.1" d="M43.0007 69.7496C57.7601 69.7496 69.725 67.8349 69.725 65.4729C69.725 63.111 57.7601 61.1963 43.0007 61.1963C28.2413 61.1963 16.2764 63.111 16.2764 65.4729C16.2764 67.8349 28.2413 69.7496 43.0007 69.7496Z" fill="black"/>
<path opacity="0.1" d="M40.1157 55.499C45.6978 52.4276 52.0743 51.447 58.3056 52.7646C67.1364 54.6308 78.2337 53.899 80.3803 39.5018C84.0513 14.9123 68.6668 8.42213 68.6668 8.42213C68.6668 8.42213 58.436 7.57025 52.3863 4.3269C43.7928 -0.279791 33.9704 -0.868156 25.3334 3.03095C19.8104 5.52178 15.2625 8.99235 14.4847 13.7537C12.312 27.0744 15.8804 34.413 9.20498 38.7613C2.52955 43.1097 8.23422 55.0481 13.354 54.6351C18.4738 54.2221 30.036 49.688 34.5422 54.9392C36.144 56.7993 38.1689 56.5704 40.1157 55.499Z" fill="black"/>
<path opacity="0.1" d="M74.3074 63.9424C76.4673 63.9424 78.2182 63.3235 78.2182 62.5601C78.2182 61.7966 76.4673 61.1777 74.3074 61.1777C72.1474 61.1777 70.3965 61.7966 70.3965 62.5601C70.3965 63.3235 72.1474 63.9424 74.3074 63.9424Z" fill="black"/>
<path d="M74.1493 62.7568C74.1493 62.7568 75.1922 59.2283 73.9529 56.6312C73.4251 55.5452 73.2659 54.3183 73.4992 53.1347C73.6144 52.5736 73.7811 52.0241 73.9972 51.4932" stroke="#535461" stroke-width="2.1" stroke-miterlimit="10"/>
<path d="M73.2274 49.8525C73.2274 50.2845 74.0148 51.539 74.0148 51.539C74.0148 51.539 74.8022 50.2854 74.8022 49.8525C74.8022 49.6448 74.7192 49.4456 74.5715 49.2987C74.4237 49.1519 74.2233 49.0693 74.0144 49.0693C73.8054 49.0693 73.6051 49.1519 73.4573 49.2987C73.3096 49.4456 73.2266 49.6448 73.2266 49.8525H73.2274Z" fill="#EC9611"/>
<path d="M71.9249 52.2483C72.1613 52.6112 73.5084 53.2385 73.5084 53.2385C73.5084 53.2385 73.4841 51.7602 73.2477 51.3973C73.1342 51.2231 72.9557 51.1008 72.7514 51.0574C72.5472 51.0139 72.334 51.0529 72.1587 51.1658C71.9834 51.2786 71.8604 51.4561 71.8167 51.6591C71.7731 51.8621 71.8123 52.0741 71.9258 52.2483H71.9249Z" fill="#EC9611"/>
<path d="M71.9817 56.3402C72.3702 56.5346 73.8511 56.4006 73.8511 56.4006C73.8511 56.4006 73.0793 55.1366 72.6909 54.9423C72.5985 54.896 72.4979 54.8682 72.3948 54.8606C72.2917 54.8529 72.1881 54.8655 72.0898 54.8977C71.9916 54.9299 71.9008 54.981 71.8224 55.0481C71.744 55.1151 71.6797 55.1969 71.6332 55.2887C71.5866 55.3805 71.5587 55.4805 71.551 55.583C71.5433 55.6855 71.556 55.7886 71.5884 55.8862C71.6207 55.9838 71.6721 56.0742 71.7396 56.1521C71.8071 56.23 71.8894 56.2939 71.9817 56.3402Z" fill="#EC9611"/>
<path d="M72.7254 59.4287C73.073 59.6879 74.5574 59.802 74.5574 59.802C74.5574 59.802 74.0116 58.4274 73.6623 58.1682C73.5791 58.107 73.4847 58.0628 73.3843 58.0379C73.284 58.013 73.1797 58.0081 73.0774 58.0233C72.9751 58.0385 72.8768 58.0735 72.7882 58.1265C72.6995 58.1795 72.6222 58.2493 72.5607 58.3319C72.4992 58.4146 72.4546 58.5085 72.4296 58.6082C72.4046 58.708 72.3996 58.8117 72.4149 58.9134C72.4302 59.015 72.4655 59.1128 72.5188 59.2009C72.572 59.289 72.6423 59.3658 72.7254 59.427V59.4287Z" fill="#EC9611"/>
<path d="M75.1605 53.3211C74.8485 53.6226 73.3945 53.9345 73.3945 53.9345C73.3945 53.9345 73.7509 52.4995 74.0629 52.198C74.2127 52.0533 74.4142 51.9736 74.6231 51.9766C74.8319 51.9796 75.031 52.065 75.1766 52.2139C75.3221 52.3629 75.4022 52.5632 75.3992 52.7708C75.3962 52.9785 75.3103 53.1764 75.1605 53.3211Z" fill="#EC9611"/>
<path d="M75.9817 56.9427C75.5932 57.1371 74.1123 57.0032 74.1123 57.0032C74.1123 57.0032 74.8841 55.7392 75.2725 55.5448C75.459 55.4513 75.6752 55.4353 75.8735 55.5003C76.0719 55.5652 76.2362 55.7059 76.3302 55.8912C76.4243 56.0766 76.4404 56.2915 76.375 56.4887C76.3097 56.6859 76.1682 56.8492 75.9817 56.9427Z" fill="#EC9611"/>
<path d="M76.3013 60.5725C75.9536 60.8317 74.4692 60.9457 74.4692 60.9457C74.4692 60.9457 75.015 59.5703 75.3644 59.3137C75.5323 59.1902 75.7427 59.1381 75.9493 59.1688C76.1559 59.1995 76.3417 59.3105 76.466 59.4774C76.5902 59.6444 76.6426 59.8535 76.6118 60.0589C76.5809 60.2642 76.4692 60.449 76.3013 60.5725Z" fill="#EC9611"/>
<path opacity="0.1" d="M5.65111 62.2149C7.81103 62.2149 9.56199 61.596 9.56199 60.8325C9.56199 60.0691 7.81103 59.4502 5.65111 59.4502C3.49119 59.4502 1.74023 60.0691 1.74023 60.8325C1.74023 61.596 3.49119 62.2149 5.65111 62.2149Z" fill="black"/>
<path d="M5.65312 60.8454C5.65312 60.8454 7.88406 53.3142 5.2351 47.7718C4.12267 45.4451 3.75765 42.8342 4.26781 40.3097C4.51213 39.1113 4.86646 37.9378 5.32635 36.8037" stroke="#535461" stroke-width="2.1" stroke-miterlimit="10"/>
<path d="M3.68066 33.3008C3.68066 34.2235 5.36147 36.9001 5.36147 36.9001C5.36147 36.9001 7.04228 34.2218 7.04228 33.3008C7.04228 32.8576 6.8652 32.4326 6.54998 32.1193C6.23477 31.8059 5.80725 31.6299 5.36147 31.6299C4.91569 31.6299 4.48817 31.8059 4.17296 32.1193C3.85775 32.4326 3.68066 32.8576 3.68066 33.3008Z" fill="#EC9611"/>
<path d="M0.903804 38.4119C1.40874 39.1895 4.2828 40.5252 4.2828 40.5252C4.2828 40.5252 4.23066 37.37 3.72572 36.5959C3.60852 36.406 3.45432 36.2413 3.27218 36.1116C3.09004 35.9818 2.88364 35.8896 2.66511 35.8403C2.44659 35.791 2.22035 35.7856 1.99971 35.8245C1.77907 35.8634 1.56848 35.9457 1.38032 36.0667C1.19216 36.1877 1.03023 36.3448 0.904062 36.5289C0.777892 36.713 0.690024 36.9203 0.645626 37.1387C0.601228 37.357 0.601197 37.582 0.645535 37.8004C0.689872 38.0187 0.777684 38.2261 0.903804 38.4102V38.4119Z" fill="#EC9611"/>
<path d="M1.02363 47.1493C1.85013 47.5649 5.01359 47.2815 5.01359 47.2815C5.01359 47.2815 3.36233 44.5842 2.53757 44.1712C2.34047 44.0724 2.12572 44.0131 1.90558 43.9968C1.68544 43.9805 1.46422 44.0074 1.25456 44.0761C0.831126 44.2148 0.480455 44.515 0.279694 44.9108C0.0789326 45.3065 0.044525 45.7653 0.18404 46.1862C0.323555 46.6072 0.625565 46.9558 1.02363 47.1554V47.1493Z" fill="#EC9611"/>
<path d="M2.61451 53.739C3.36106 54.2877 6.52539 54.5356 6.52539 54.5356C6.52539 54.5356 5.36082 51.5981 4.61341 51.0521C4.25498 50.7886 3.80595 50.6774 3.36507 50.743C2.9242 50.8087 2.5276 51.0457 2.26253 51.402C1.99746 51.7583 1.88563 52.2047 1.95164 52.643C2.01765 53.0813 2.25609 53.4755 2.61451 53.739Z" fill="#EC9611"/>
<path d="M7.81376 40.7053C7.14804 41.3481 4.04541 42.0142 4.04541 42.0142C4.04541 42.0142 4.80499 38.9506 5.47071 38.3078C5.62906 38.1546 5.81621 38.0339 6.02148 37.9527C6.22674 37.8714 6.4461 37.8311 6.66702 37.8341C6.88794 37.8371 7.1061 37.8834 7.30905 37.9702C7.51199 38.057 7.69575 38.1828 7.84983 38.3402C8.0039 38.4976 8.12528 38.6836 8.20702 38.8877C8.28877 39.0918 8.32929 39.3098 8.32626 39.5294C8.32323 39.7491 8.27672 39.9659 8.18939 40.1677C8.10205 40.3694 7.97559 40.5521 7.81723 40.7053H7.81376Z" fill="#EC9611"/>
<path d="M9.57346 48.434C8.74435 48.8496 5.5835 48.5628 5.5835 48.5628C5.5835 48.5628 7.23476 45.8654 8.05952 45.4525C8.45758 45.2529 8.91909 45.2187 9.34253 45.3574C9.76596 45.4961 10.1166 45.7963 10.3174 46.192C10.5182 46.5877 10.5526 47.0465 10.4131 47.4675C10.2735 47.8884 9.97152 48.237 9.57346 48.4366V48.434Z" fill="#EC9611"/>
<path d="M10.2449 56.1805C9.49832 56.7291 6.33398 56.977 6.33398 56.977C6.33398 56.977 7.49856 54.0395 8.24597 53.4935C8.60439 53.23 9.05343 53.1188 9.4943 53.1844C9.93518 53.2501 10.3318 53.4871 10.5968 53.8434C10.8619 54.1997 10.9737 54.6461 10.9077 55.0844C10.8417 55.5227 10.6033 55.9169 10.2449 56.1805Z" fill="#EC9611"/>
<path d="M70.3483 32.4692C70.561 32.367 70.7392 32.2055 70.8611 32.0044C70.5646 31.9129 70.2763 31.7973 69.9989 31.6588L70.2484 30.5788C70.2707 30.478 70.2727 30.3738 70.2541 30.2722C70.2356 30.1707 70.1968 30.0738 70.1402 29.9873C70.0836 29.9007 70.0102 29.8263 69.9243 29.7682C69.8384 29.7102 69.7418 29.6697 69.64 29.6492L69.3445 29.5844C69.1395 29.5383 68.9245 29.574 68.7457 29.6839C68.5669 29.7938 68.4387 29.969 68.3885 30.1719L68.3338 30.4086C67.9266 29.9724 67.5932 29.4735 67.3465 28.9313C67.2596 28.7681 67.2146 28.5862 67.2153 28.4016C67.2318 28.1813 67.363 27.9878 67.4699 27.7969C67.8351 27.1343 67.9544 26.3652 67.8071 25.624C67.6724 24.9604 67.3309 24.3565 67.1118 23.7155C66.679 22.4461 66.7285 21.0632 67.2509 19.8276C67.5525 19.1209 68.0157 18.3891 67.821 17.6478C67.6046 16.821 66.6912 16.4011 65.909 16.0062C65.1269 15.6114 64.2986 14.9194 64.4611 14.0805C64.5124 13.8161 64.6628 13.5569 64.6019 13.2951C64.5202 12.9495 64.1161 12.7767 63.7641 12.6696C62.8229 12.3724 61.8678 12.0726 60.8788 12.0268C60.0671 11.9896 59.2188 12.1452 58.5427 12.565C58.3422 12.6743 58.1555 12.8068 57.9865 12.9599C57.8324 13.119 57.6678 13.2676 57.4937 13.4048C57.1374 13.5837 56.7115 13.5603 56.3091 13.5984C55.8453 13.6408 55.3976 13.7886 55.0003 14.0303C54.7564 14.1585 54.5362 14.3271 54.3494 14.5289C53.8931 15.03 53.6923 15.7643 53.9148 16.3959C53.9602 16.5209 54.0225 16.6392 54.0999 16.7475C53.755 17.3099 53.5728 17.9559 53.5733 18.6146C53.5733 20.4877 55.022 22.0316 56.8914 22.2519C57.0009 22.6692 57.107 23.1064 57.1895 23.5116C57.1673 23.5315 57.1437 23.5499 57.1191 23.5669C56.9653 23.6403 56.7897 23.6869 56.629 23.75C56.5103 23.7964 56.3965 23.8543 56.2891 23.9228C55.4939 24.3488 55.0863 25.2715 54.7578 26.1147C54.9838 26.0741 55.208 26.0283 55.4305 25.9739C55.4192 26.0015 55.4105 26.0283 55.4027 26.0534C55.1741 26.8309 53.9139 31.1629 53.9139 31.1629L54.1816 30.5909C54.1924 30.6725 54.1788 30.7555 54.1425 30.8294C54.0313 31.0445 54.2442 30.8881 54.5823 30.578C54.5823 30.5961 54.5866 30.6065 54.5996 30.6074C53.8053 31.8964 51.3041 35.9216 50.0596 37.5545C48.5135 37.761 47.3871 37.9381 47.3871 37.9381C47.1424 37.9403 46.9016 37.9995 46.684 38.1109C46.3788 38.2668 46.1214 38.5015 45.9388 38.7903C45.7562 39.0791 45.6552 39.4115 45.6463 39.7525L45.5594 42.4887C45.5594 42.4887 44.8972 45.7795 44.9102 47.6535C44.9001 47.9701 44.9257 48.2869 44.9867 48.5978C45.0907 49.0673 45.1418 49.5469 45.1388 50.0277C45.1343 50.591 45.0834 51.153 44.9867 51.7081C44.9911 51.7124 44.9989 51.7168 45.0041 51.7211C44.9937 51.7842 44.9867 51.8187 44.9867 51.8187C45.1127 51.9405 45.4986 52.0295 45.9914 52.0935C45.8523 52.8624 45.3413 53.6486 43.8421 53.7065C41.652 53.7886 41.1975 54.1704 41.1106 54.3666C41.0916 54.4027 41.0861 54.4443 41.095 54.4841C41.2097 55.9278 44.4722 55.761 45.4456 55.8172C45.5891 55.8207 45.7326 55.8077 45.8732 55.7783C45.9601 55.7627 46.047 55.7429 46.14 55.7195C46.3738 55.6608 46.6362 55.5778 46.91 55.4794C47.2385 55.361 47.5844 55.2202 47.9199 55.0672C48.0876 54.9912 48.2519 54.9126 48.4109 54.8331C48.5169 54.7795 48.6195 54.726 48.7186 54.6724C49.2148 54.4046 49.6172 54.1367 49.7953 53.9285C49.8118 53.9095 49.8269 53.8892 49.8405 53.868C49.8449 53.8603 49.8492 53.8525 49.8536 53.8447C49.8579 53.8369 49.8692 53.8171 49.8762 53.8024C49.8831 53.7877 49.8849 53.7825 49.8883 53.7721C49.8918 53.7618 49.8979 53.7462 49.9022 53.7333C49.9066 53.7203 49.9092 53.7099 49.9127 53.6978C49.9162 53.6858 49.9179 53.6737 49.9205 53.6616C49.9231 53.6495 49.9257 53.6348 49.9275 53.621C49.9292 53.6071 49.9275 53.6011 49.9275 53.5907C49.9726 53.125 49.6207 52.4917 49.3347 52.0649V50.261C49.3347 50.261 49.7397 46.0128 49.7319 44.138C49.7438 43.8455 49.7257 43.5525 49.678 43.2637C49.6546 43.174 49.64 43.0823 49.6346 42.9898C49.635 42.8458 49.6849 42.7064 49.7762 42.5946C49.8674 42.4828 49.9944 42.4055 50.136 42.3755C51.1546 41.8485 53.7862 42.0636 55.7538 42.3263C54.0443 42.5855 50.2203 43.033 50.2203 43.5427V44.7523C50.2237 45.0458 50.3372 45.3275 50.5387 45.5422C50.7401 45.7568 51.015 45.8889 51.3093 45.9126V66.5339H52.6703V45.9186H64.7653V66.5339H66.1263V45.6819C66.4527 45.5154 66.7269 45.263 66.9189 44.9522C67.1109 44.6414 67.2134 44.2841 67.2153 43.9194V43.6196L69.7486 32.7336C69.9603 32.6747 70.1623 32.5857 70.3483 32.4692ZM65.2989 43.4581C65.219 43.1125 64.6541 42.8058 63.7537 42.5673C65.2816 41.8226 65.604 40.3452 65.5927 39.1978C65.5954 38.8087 65.5631 38.4201 65.4962 38.0366C65.5929 37.9556 65.6668 37.8509 65.7105 37.7329C65.7543 37.6149 65.7664 37.4877 65.7456 37.3636C65.7652 37.1354 65.7152 36.9066 65.6022 36.707C64.6984 34.8926 64.5593 33.8559 64.5402 32.4459C64.7199 32.6127 64.9272 32.7474 65.1529 32.8442C65.6865 33.0731 66.2827 33.1137 66.8676 33.1086C67.1501 33.1086 67.4325 33.0921 67.715 33.0705L65.2989 43.4581ZM55.9824 32.6005C56.0554 32.737 56.0997 32.8234 56.0997 32.8234L56.3491 32.604C57.5424 32.6446 57.7979 33.2183 57.8344 33.5993C57.8311 33.6371 57.8253 33.6746 57.817 33.7116L56.7863 36.7104C54.9968 36.4366 54.2146 36.9135 53.9939 37.0915C53.442 37.1433 52.8806 37.2038 52.3279 37.2643C53.4377 35.8283 54.9673 33.8896 55.9824 32.6005Z" fill="url(#paint0_linear_6275_748)"/>
<path d="M53.0968 28.833C53.0968 28.833 49.0434 35.6264 48.0935 36.5284C48.0935 36.5284 44.0401 40.71 46.1007 40.4163C46.2519 40.3947 49.2181 37.9021 49.3911 37.4943C49.564 37.0865 55.1731 29.843 55.1731 29.843L54.3735 29.1112L53.0968 28.833Z" fill="#F8BDC5"/>
<path d="M64.2796 65.4805H65.5649V45.1391H64.2796V65.4805Z" fill="#40414D"/>
<path d="M51.4295 65.4805H52.7148V45.1391H51.4295V65.4805Z" fill="#40414D"/>
<path d="M50.3975 43.2211C50.3975 43.9987 55.7397 44.6268 59.0066 44.6268C62.2735 44.6268 64.7921 43.9987 64.7921 43.2211C64.7921 42.4435 62.2717 41.8154 59.0057 41.8154C55.7397 41.8154 50.3975 42.4435 50.3975 43.2211Z" fill="#F6C6CD"/>
<path d="M65.0299 45.5225H51.3123C51.1921 45.523 51.0729 45.5 50.9617 45.4546C50.8505 45.4093 50.7494 45.3426 50.6642 45.2583C50.579 45.174 50.5114 45.0738 50.4653 44.9634C50.4191 44.8531 50.3954 44.7348 50.3954 44.6153V43.2217H66.5942V43.9673C66.5942 44.3798 66.4294 44.7753 66.136 45.067C65.8427 45.3586 65.4448 45.5225 65.0299 45.5225Z" fill="#40414D"/>
<path d="M65.0179 45.2811L64.3347 45.1277L67.7397 30.1315C67.7753 29.9751 67.8718 29.839 68.0083 29.7534C68.1447 29.6677 68.3097 29.6394 68.4671 29.6747L69.0393 29.8032C69.1967 29.8385 69.3336 29.9345 69.4197 30.0701C69.5059 30.2057 69.5343 30.3698 69.4988 30.5263L66.336 44.4555C66.2718 44.7385 66.0971 44.9845 65.8504 45.1394C65.6037 45.2943 65.3051 45.3455 65.0205 45.2816L65.0179 45.2811Z" fill="#40414D"/>
<path d="M49.39 51.0161C49.39 51.0161 50.6876 52.6292 50.147 53.2746C49.6064 53.9199 46.907 55.1537 46.0371 55.1027C45.1176 55.0492 42.0393 55.2099 41.9272 53.8128C41.9272 53.8128 41.7108 53.1674 44.5231 53.0603C47.3355 52.9532 46.4664 50.0459 46.4664 50.0459L49.39 51.0161Z" fill="#594C76"/>
<path opacity="0.1" d="M64.8561 37.4676C64.8561 37.4676 66.1536 41.8739 62.2601 42.629L58.0416 42.4138C58.0416 42.4138 52.0927 41.2311 50.4701 42.0916C50.4701 42.0916 49.8209 42.1987 50.0356 43.0592C50.2503 43.9198 49.7114 49.7256 49.7114 49.7256V51.6609C49.7114 51.6609 46.0335 51.6609 45.6015 51.2289C45.6015 51.2289 45.9257 49.5088 45.6015 48.1109C45.2774 46.713 46.1421 42.3041 46.1421 42.3041L46.229 39.6552C46.2354 39.3272 46.3296 39.0069 46.5019 38.7272C46.6742 38.4475 46.9184 38.2185 47.2093 38.0638C47.414 37.956 47.6417 37.8985 47.8733 37.8961C47.8733 37.8961 55.2284 36.7134 57.8243 36.9285C60.4203 37.1436 64.8561 37.4676 64.8561 37.4676Z" fill="black"/>
<path d="M64.8552 37.3597C64.8552 37.3597 66.1527 41.766 62.2593 42.5211L58.0407 42.306C58.0407 42.306 52.0918 41.1232 50.4693 41.9837C50.4693 41.9837 49.8201 42.0908 50.0347 42.9514C50.2494 43.8119 49.7114 49.6143 49.7114 49.6143V51.5496C49.7114 51.5496 46.0335 51.5496 45.6015 51.1176C45.6015 51.1176 45.9257 49.3975 45.6015 47.9995C45.2774 46.6016 46.1421 42.1928 46.1421 42.1928L46.229 39.5439C46.2354 39.2159 46.3296 38.8956 46.5019 38.6159C46.6742 38.3362 46.9184 38.1072 47.2093 37.9524C47.414 37.8446 47.6417 37.7871 47.8733 37.7848C47.8733 37.7848 55.2284 36.602 57.8243 36.8172C60.4203 37.0323 64.8552 37.3597 64.8552 37.3597Z" fill="#8B9CD1"/>
<path d="M57.6092 23.2744C57.6092 23.2744 55.6625 25.5328 55.4461 26.2854C55.2296 27.0379 52.8501 28.9732 52.8501 28.9732C52.8501 28.9732 54.5804 30.2613 54.2589 30.9085C53.9373 31.5556 56.5272 28.758 56.5272 28.758L59.556 24.3518L57.6092 23.2744Z" fill="#EC9611"/>
<path opacity="0.1" d="M57.6092 23.2744C57.6092 23.2744 55.6625 25.5328 55.4461 26.2854C55.2296 27.0379 52.8501 28.9732 52.8501 28.9732C52.8501 28.9732 54.5804 30.2613 54.2589 30.9085C53.9373 31.5556 56.5272 28.758 56.5272 28.758L59.556 24.3518L57.6092 23.2744Z" fill="black"/>
<path d="M56.3076 20.6941C56.3076 20.6941 57.281 23.8122 57.281 24.995C57.281 26.1778 61.3909 24.6727 61.2788 24.0273C61.1667 23.382 58.8992 21.0164 58.7906 20.0531C58.682 19.0898 56.3076 20.6941 56.3076 20.6941Z" fill="#F8BDC5"/>
<path opacity="0.1" d="M59.5565 22.8442C59.5565 22.8442 63.3422 21.8765 63.8828 27.3601C64.4234 32.8438 63.4482 33.4892 65.0726 36.8224C66.6969 40.1556 54.0396 37.2543 54.0396 37.2543C54.0396 37.2543 54.6888 36.5018 56.7433 36.8224L57.7166 33.9194C57.7166 33.9194 58.0408 32.6295 56.2027 32.6295C54.3646 32.6295 55.2293 28.866 55.2293 28.866C55.2293 28.866 56.2027 25.64 56.7433 25.3177C57.2838 24.9955 58.2529 23.0593 59.5565 22.8442Z" fill="black"/>
<path d="M59.5565 22.6293C59.5565 22.6293 63.3422 21.6617 63.8828 27.1453C64.4234 32.6289 63.4482 33.2743 65.0726 36.6075C66.6969 39.9407 54.0396 37.0395 54.0396 37.0395C54.0396 37.0395 54.6888 36.287 56.7433 36.6075L57.7166 33.7046C57.7166 33.7046 58.0408 32.4147 56.2027 32.4147C54.3646 32.4147 55.2293 28.6512 55.2293 28.6512C55.2293 28.6512 56.2027 25.4251 56.7433 25.1029C57.2838 24.7806 58.2529 22.8445 59.5565 22.6293Z" fill="#EC9611"/>
<path d="M54.922 30.3008C54.922 30.3008 50.8686 37.0942 49.9187 37.9962C49.9187 37.9962 45.8653 42.1778 47.9259 41.884C48.0771 41.8624 51.0433 39.3699 51.2163 38.9621C51.3892 38.5543 56.9983 31.3108 56.9983 31.3108L56.1987 30.579L54.922 30.3008Z" fill="#F8BDC5"/>
<path opacity="0.1" d="M61.8273 27.6824L56.0914 32.8438C56.0914 32.8438 55.0128 30.6933 54.6887 30.6933C54.3645 30.6933 58.5822 24.3492 58.5822 24.3492C58.5822 24.3492 59.6642 23.0593 60.3125 23.7038C60.9608 24.3483 62.9085 23.9189 61.8273 27.6824Z" fill="black"/>
<path d="M61.9333 27.4666L56.1974 32.6279C56.1974 32.6279 55.1154 30.4775 54.7912 30.4775C54.467 30.4775 58.689 24.1334 58.689 24.1334C58.689 24.1334 59.771 22.8435 60.4194 23.488C61.0677 24.1325 63.0153 23.7031 61.9333 27.4666Z" fill="#EC9611"/>
<path d="M57.2808 22.6289C59.252 22.6289 60.8501 21.0402 60.8501 19.0806C60.8501 17.1209 59.252 15.5322 57.2808 15.5322C55.3095 15.5322 53.7114 17.1209 53.7114 19.0806C53.7114 21.0402 55.3095 22.6289 57.2808 22.6289Z" fill="#F8BDC5"/>
<path opacity="0.1" d="M55.548 17.9146C54.9022 18.001 54.2513 17.5448 54.0375 16.9331C53.8237 16.3214 54.0132 15.6104 54.4442 15.1257C54.8753 14.641 55.5167 14.3697 56.165 14.3066C56.5587 14.2686 56.9785 14.2963 57.3218 14.101C57.5382 13.9783 57.699 13.7796 57.8806 13.6103C58.5611 12.9727 59.5475 12.7411 60.4818 12.7843C61.416 12.8275 62.3181 13.1187 63.2081 13.4064C63.5401 13.5135 63.9225 13.6734 63.9989 14.0112C64.0572 14.2652 63.912 14.5166 63.866 14.7715C63.713 15.5827 64.4995 16.2497 65.2339 16.6359C65.9683 17.0221 66.8339 17.4282 67.0381 18.2291C67.2215 18.947 66.7844 19.6546 66.4993 20.3389C66.0062 21.5372 65.9597 22.8712 66.3681 24.1006C66.5767 24.721 66.8999 25.3102 67.0268 25.9487C67.1662 26.6654 67.054 27.4081 66.7087 28.0524C66.6071 28.2408 66.4828 28.4283 66.468 28.6408C66.4669 28.8192 66.5093 28.9953 66.5914 29.154C66.9046 29.853 67.3618 30.4789 67.9335 30.9913C68.5052 31.5037 69.1787 31.8912 69.9105 32.1286C69.6784 32.5468 69.1717 32.7213 68.7042 32.831C67.9063 33.0173 67.0902 33.1153 66.2707 33.1231C65.7197 33.1283 65.154 33.0894 64.6508 32.8639C64.1476 32.6384 63.7104 32.2073 63.6157 31.6673C63.5609 31.3545 63.6218 31.0314 63.5827 30.7169C63.4957 30.0085 62.923 29.4529 62.7136 28.7704C62.5128 28.1181 62.3964 28.0187 62.4737 27.3405C62.5511 26.6623 62.5363 25.9089 62.0913 25.3897C61.6255 24.8454 60.8068 24.7244 60.1046 24.8791C59.4024 25.0337 59.0391 24.8151 58.3977 25.1383C57.2755 25.7058 56.0773 26.1108 54.8397 26.3409C55.1751 25.4579 55.5966 24.4842 56.4762 24.1274C56.7282 24.0255 57.0202 23.971 57.1914 23.7611C57.4643 23.4259 57.2783 22.8885 57.5138 22.5273C57.7494 22.1662 58.3099 22.1498 58.6324 21.8491C58.9061 21.5899 58.9565 21.1657 58.8505 20.808C58.7445 20.4503 58.5107 20.1454 58.2743 19.8577C58.0651 19.599 57.851 19.3445 57.632 19.0939C57.428 18.8836 57.2574 18.6435 57.1262 18.382C57.0524 18.2092 57.0663 17.8826 56.9455 17.7453C56.6395 17.3971 55.9208 17.8653 55.548 17.9146Z" fill="black"/>
<path d="M55.6793 17.8355C55.0336 17.9219 54.3827 17.4657 54.1689 16.854C53.9551 16.2423 54.1445 15.5313 54.5756 15.0466C55.0067 14.5619 55.648 14.2906 56.2964 14.2275C56.6901 14.1895 57.1098 14.2172 57.4531 14.0219C57.6695 13.8992 57.8303 13.7005 58.0119 13.5312C58.6924 12.8936 59.6788 12.662 60.6131 12.7052C61.5474 12.7484 62.4495 13.0396 63.3394 13.3273C63.6714 13.4344 64.0538 13.5943 64.1303 13.9321C64.1885 14.1861 64.0434 14.4375 63.9973 14.6924C63.8444 15.5036 64.6309 16.1706 65.3653 16.5568C66.0996 16.943 66.9652 17.3491 67.1695 18.15C67.3529 18.8679 66.9157 19.5755 66.6307 20.2598C66.1375 21.4581 66.091 22.7921 66.4994 24.0215C66.708 24.6419 67.0313 25.2311 67.1582 25.8696C67.2976 26.5863 67.1853 27.329 66.8401 27.9733C66.7384 28.1617 66.6141 28.3492 66.5994 28.5617C66.5983 28.7401 66.6406 28.9162 66.7228 29.0749C67.036 29.7739 67.4932 30.3998 68.0649 30.9122C68.6366 31.4246 69.3101 31.8121 70.0418 32.0495C69.8098 32.4677 69.3031 32.6422 68.8355 32.7519C68.0377 32.9382 67.2216 33.0362 66.4021 33.044C65.8511 33.0492 65.2853 33.0103 64.7821 32.7848C64.2789 32.5593 63.8418 32.1282 63.747 31.5882C63.6923 31.2754 63.7531 30.9523 63.714 30.6378C63.6271 29.9294 63.0544 29.3738 62.8449 28.6913C62.6442 28.039 62.5277 27.9396 62.6051 27.2614C62.6824 26.5832 62.6676 25.8298 62.2227 25.3106C61.7568 24.7663 60.9382 24.6453 60.2359 24.8C59.5337 24.9546 59.1704 24.736 58.5291 25.0592C57.4068 25.6267 56.2087 26.0317 54.971 26.2618C55.3065 25.3788 55.728 24.4051 56.6075 24.0483C56.8595 23.9464 57.1516 23.8919 57.3228 23.682C57.5957 23.3468 57.4097 22.8094 57.6452 22.4482C57.8807 22.0871 58.4413 22.0707 58.7637 21.77C59.0375 21.5108 59.0879 21.0866 58.9818 20.7289C58.8758 20.3712 58.642 20.0663 58.4056 19.7786C58.1965 19.5199 57.9824 19.2654 57.7634 19.0148C57.5619 18.8042 57.3937 18.5645 57.2645 18.3038C57.1907 18.131 57.2046 17.8044 57.0838 17.667C56.7709 17.318 56.0522 17.7871 55.6793 17.8355Z" fill="#EB6475"/>
<g opacity="0.1">
<path d="M46.5873 50.8965C46.5791 50.6105 46.5377 50.3264 46.4639 50.0498L46.5186 50.0679C46.5724 50.3407 46.5954 50.6186 46.5873 50.8965Z" fill="white"/>
<path d="M46.0331 54.8861C46.9021 54.937 49.6024 53.7033 50.143 53.0579C50.2138 52.9706 50.2573 52.8646 50.2681 52.7529C50.2837 52.8433 50.2807 52.9358 50.2592 53.0249C50.2377 53.1141 50.1981 53.1979 50.143 53.2713C49.6024 53.9167 46.903 55.1504 46.0331 55.0995C45.1136 55.0459 42.0353 55.2066 41.9232 53.8096C41.9151 53.7713 41.9203 53.7314 41.9379 53.6964C42.1856 54.9872 45.137 54.836 46.0331 54.8861Z" fill="white"/>
</g>
<path d="M22.9406 55.57C23.4621 55.3972 24.2443 55.2002 24.8604 55.2702C25.4462 55.0576 26.8246 54.503 27.7658 53.6813C27.7384 52.8676 27.759 52.0529 27.8275 51.2415C28.309 45.7985 27.2261 42.2139 27.2261 42.2139C27.2261 42.2139 26.3761 39.4777 26.4691 37.2071C26.4144 37.31 26.3822 37.3713 26.3822 37.3713C26.3075 35.4127 25.6365 33.3858 25.1342 32.1235C25.1149 32.118 25.096 32.111 25.0777 32.1028L24.5067 30.7792C24.462 30.7021 24.4264 30.62 24.4007 30.5347L24.3138 30.3247L24.3407 30.3135C24.332 30.279 24.3225 30.2427 24.3138 30.2055C23.9549 28.6962 23.6811 25.1167 23.6811 25.1167C22.719 21.3498 25.0038 19.0188 25.0038 19.0188L28.8808 15.6986C28.8616 15.7417 28.8487 15.7874 28.8426 15.8342L28.8747 15.8066C28.9295 15.6511 28.9895 15.461 29.0486 15.2502C28.9102 15.1529 28.7805 15.0439 28.661 14.9245C28.2201 14.5104 27.9168 13.9723 27.7919 13.3823C27.698 12.9235 27.7163 12.4509 27.7354 11.9835L27.7997 10.3834C27.8026 10.0701 27.8346 9.75777 27.8953 9.45034C28.1882 8.17684 29.497 7.29041 30.8102 7.23425C31.2282 7.21697 31.6454 7.26967 32.0617 7.30078C32.3999 7.32835 32.7394 7.33556 33.0785 7.32238C33.1171 7.32453 33.1554 7.31456 33.188 7.29387C33.2178 7.2646 33.235 7.22492 33.2358 7.18328C33.2425 7.10904 33.2339 7.03423 33.2106 6.96339C33.1873 6.89255 33.1497 6.82715 33.1002 6.77116C33.0495 6.72676 32.9904 6.69271 32.9264 6.67094L33.0203 6.69341C32.9741 6.65748 32.9221 6.62971 32.8664 6.61133C33.2019 6.68995 33.5452 6.77203 33.8337 6.95692C33.9163 7.01088 33.9922 7.0744 34.0597 7.14613C34.2384 7.30199 34.3544 7.51676 34.3865 7.75091C34.5368 7.6049 34.6811 7.4442 34.7341 7.24376C34.7541 7.16317 34.7541 7.07897 34.7341 6.99839C34.7567 7.02661 34.7787 7.05541 34.8002 7.08478C34.8002 7.07614 34.8002 7.0675 34.7941 7.05887C35.0392 7.36195 35.2119 7.71647 35.299 8.09563C35.3319 8.05381 35.3561 8.00594 35.3702 7.95479C35.3844 7.90364 35.3882 7.8502 35.3816 7.79756C35.4007 7.85631 35.4189 7.91593 35.4355 7.9764C35.4433 7.93716 35.4453 7.897 35.4415 7.85718C35.592 8.3149 35.66 8.79545 35.6423 9.27668C35.6423 9.75705 35.4285 10.5044 34.9105 10.6729C34.8845 10.6815 34.8567 10.6884 34.8288 10.6945C35.1197 11.1434 35.2938 11.6572 35.3358 12.1896C35.3777 12.7219 35.2861 13.2564 35.0691 13.7449C34.8521 14.2334 34.5166 14.6607 34.0926 14.9886C33.6685 15.3165 33.1693 15.5346 32.6396 15.6234C32.6315 15.681 32.6234 15.7424 32.6153 15.8074H32.5944C32.5805 15.937 32.5692 16.0735 32.5605 16.2161C32.6908 16.3433 32.8335 16.4573 32.9864 16.5565C33.4205 16.8118 33.9049 16.9712 34.4065 17.0239C35.0053 17.0696 35.5875 17.2416 36.1142 17.5285C36.733 17.8741 37.4178 18.3743 37.6308 18.9834C37.9888 20.0003 39.9564 21.5753 41.2809 21.7714L41.7502 21.7446L41.7841 21.7343V21.7429L41.8988 21.736H41.9058H41.9362V21.7429L42.0553 21.736C42.0553 21.736 42.0674 21.7904 42.0831 21.8872C42.7479 21.6608 44.1585 21.0301 45.994 19.3748C48.0398 17.5302 50.8009 17.8931 51.8655 18.1255C51.9017 18.1334 51.9346 18.1522 51.9599 18.1792C51.9851 18.2062 52.0015 18.2403 52.0068 18.2768C52.012 18.3133 52.006 18.3505 51.9895 18.3835C51.9729 18.4165 51.9467 18.4438 51.9142 18.4616C51.4848 18.6966 50.8174 19.0378 50.5045 19.0758C50.5045 19.0758 51.1494 19.7394 50.4645 20.0936C50.3825 20.1337 50.2908 20.1504 50.1998 20.1417C50.1088 20.133 50.022 20.0993 49.9492 20.0444C49.6198 19.805 48.7038 20.3476 47.3775 20.6301C47.3775 20.6301 43.6335 24.4817 41.7763 25.0779C41.7335 25.1621 41.6862 25.244 41.6346 25.3232L41.5199 25.3137L41.5138 25.3232H41.4982L41.4843 25.4442C41.4843 25.4442 38.5946 25.293 37.6603 24.2502C37.5935 24.1909 37.5321 24.1259 37.4769 24.0558L38.4816 36.6248H38.472L38.4816 36.7441H37.7429C37.6785 38.2913 37.7448 39.8413 37.941 41.3775V49.568C37.941 49.568 37.9793 50.2894 36.4731 51.3391C34.8934 52.4321 33.3711 53.6049 31.9122 54.8529L31.7297 55.0101C32.0069 57.5156 32.5866 62.188 33.0698 62.3625L32.7717 62.4144C33.2853 63.058 34.7324 64.824 35.1747 64.8732C35.7162 64.9328 36.0768 65.77 35.1747 65.9497C34.3422 66.1156 32.1781 66.3316 29.8168 65.4244C29.6462 65.3585 29.5027 65.2375 29.4094 65.0808C29.3161 64.9242 29.2784 64.7409 29.3023 64.5605L29.4762 63.2403C29.443 63.2587 29.4163 63.2868 29.3997 63.3207C29.2797 63.6792 29.3997 62.842 29.3997 62.842C28.9051 61.2612 28.5166 59.6496 28.2368 58.0176L26.4474 59.5494C26.4474 59.5494 26.4109 59.5054 26.3492 59.4259C25.9146 60.4143 25.1325 62.4334 25.3063 63.9142C25.547 65.9471 23.2613 64.1535 23.5021 62.9578C23.6967 61.9902 22.8285 57.8915 22.4896 56.3622C22.4533 56.1981 22.4793 56.0265 22.5626 55.8803C22.6458 55.7341 22.7805 55.6236 22.9406 55.57Z" fill="url(#paint1_linear_6275_748)"/>
<path d="M41.6139 22.3988C41.6139 22.3988 43.3173 22.1068 45.842 19.8303C47.8409 18.0289 50.5351 18.384 51.578 18.6103C51.6149 18.6158 51.6491 18.633 51.6754 18.6593C51.7017 18.6856 51.7189 18.7197 51.7242 18.7564C51.7296 18.7931 51.7229 18.8306 51.7052 18.8633C51.6874 18.8959 51.6596 18.9221 51.6258 18.9378C51.206 19.1667 50.5542 19.5002 50.2491 19.5382C50.2491 19.5382 50.8784 20.1862 50.21 20.5327C50.1299 20.5718 50.0404 20.588 49.9515 20.5794C49.8627 20.5709 49.778 20.5379 49.7068 20.4843C49.3853 20.251 48.4901 20.7806 47.1961 21.0562C47.1961 21.0562 42.1458 26.2522 40.9717 25.3761L41.6139 22.3988Z" fill="#FEC3BE"/>
<path d="M32.9223 15.338C32.9223 15.338 32.4521 17.3251 32.9223 18.7239L30.8078 19.0159L28.9297 18.0785V16.856C28.9297 16.856 29.8109 14.9881 29.5754 12.8281L32.9223 15.338Z" fill="#FEC3BE"/>
<path d="M26.9334 58.3645C26.9334 58.3645 25.4047 61.3417 25.6419 63.3263C25.8792 65.3108 23.643 63.5595 23.8803 62.3923C24.0706 61.448 23.2224 57.4452 22.8921 55.9523C22.8558 55.7909 22.8812 55.6218 22.9635 55.478C23.0458 55.3343 23.179 55.2261 23.3371 55.1747C24.0437 54.944 25.2248 54.6563 25.8192 55.0935C26.6987 55.7371 26.9334 58.3645 26.9334 58.3645Z" fill="#5A5773"/>
<path d="M32.744 61.6334C32.744 61.6334 34.7429 64.202 35.2695 64.2607C35.7962 64.3195 36.1508 65.1368 35.2695 65.3113C34.4569 65.4729 32.3433 65.6846 30.0377 64.7981C29.8708 64.7336 29.7305 64.6153 29.6394 64.462C29.5483 64.3088 29.5117 64.1296 29.5353 63.9532L29.8664 61.458L32.744 61.6334Z" fill="#5A5773"/>
<path d="M36.0359 34.3701L37.9479 34.6241C37.9479 34.6241 37.5012 37.8139 37.9705 41.3173V49.3151C37.9705 49.3151 38.0079 50.0192 36.5374 51.043C34.995 52.1102 33.5086 53.2553 32.0842 54.4739L26.755 59.0633C26.755 59.0633 24.6405 56.4947 24.9342 54.9767C24.9342 54.9767 28.4575 53.8674 28.9277 52.0573C29.1971 51.0206 30.5633 50.1566 31.6818 49.608C33.1228 48.9004 33.9084 47.2925 33.5138 45.7443C33.4487 45.4817 33.3478 45.2291 33.214 44.9935C32.2745 43.3589 30.924 39.6809 30.924 39.6809L33.5078 34.777L36.0359 34.3701Z" fill="#605D82"/>
<path opacity="0.05" d="M36.0447 34.3701L37.9566 34.6241C37.9566 34.6241 37.5099 37.8139 37.9792 41.3173V49.3151C37.9792 49.3151 38.0166 50.0192 36.5461 51.043C35.0049 52.1109 33.5197 53.2566 32.0964 54.4756L26.7672 59.065C26.7672 59.065 24.6527 56.4964 24.9465 54.9784C24.9465 54.9784 28.4697 53.8691 28.9399 52.0591C29.2093 51.0223 30.5755 50.1583 31.694 49.6097C33.135 48.9021 33.9206 47.2943 33.526 45.746C33.4609 45.4834 33.36 45.2308 33.2262 44.9952C32.2867 43.3606 30.9362 39.6827 30.9362 39.6827L33.52 34.7788L36.0447 34.3701Z" fill="black"/>
<path d="M33.2153 61.8082C33.2153 61.8082 29.7485 62.3923 29.6329 62.7465C29.5173 63.1007 29.6329 62.2791 29.6329 62.2791C29.6329 62.2791 27.634 56.2659 28.1059 50.9533C28.5778 45.6408 27.5184 42.1408 27.5184 42.1408C27.5184 42.1408 26.2852 38.1709 26.99 35.8943C27.6949 33.6177 35.0942 34.6096 35.0942 34.6096C35.0942 34.6096 32.5104 40.6168 32.5695 43.48C32.5695 43.48 32.2758 52.1197 31.7474 53.1124C31.7474 53.1098 32.5695 61.575 33.2153 61.8082Z" fill="#605D82"/>
<path d="M32.8058 16.8574C32.8058 16.8574 32.4538 19.0173 28.9297 18.0834L31.2762 35.8302C31.2762 35.8302 38.0881 36.0635 38.0299 35.2462L36.6228 24.5053L32.8058 16.8574Z" fill="white"/>
<path opacity="0.1" d="M32.7162 16.7402C32.7162 16.7402 33.3837 17.4521 34.4126 17.5411C34.9972 17.586 35.5655 17.7542 36.0796 18.0345C36.6879 18.3705 37.351 18.8596 37.557 19.4557C37.9681 20.6229 40.5519 22.5496 41.7286 22.1409L41.3175 25.6435C41.3175 25.6435 37.9707 25.4707 37.3832 24.1842L38.3818 36.6772H37.5022C37.5022 36.6772 37.0321 33.2913 36.6801 32.5906C36.3281 31.89 35.6233 28.0375 35.5642 27.1027C35.5051 26.1679 34.6247 20.7957 33.8608 19.8635L32.7153 17.0901L32.7162 16.7402Z" fill="black"/>
<path opacity="0.1" d="M32.7162 16.916C32.7162 16.916 33.4984 17.57 34.53 17.6582C35.1146 17.703 35.6828 17.8712 36.1969 18.1515C36.8052 18.4876 37.4684 18.9766 37.6743 19.5727C38.0854 20.74 40.6692 22.6666 41.8459 22.2579L41.4348 25.7605C41.4348 25.7605 38.088 25.5877 37.5005 24.3012L38.5 36.7934H37.6196C37.6196 36.7934 37.1494 33.4075 36.7974 32.7068C36.4454 32.0061 35.7406 28.1537 35.6815 27.2189C35.6224 26.2841 34.742 20.9119 33.9781 19.9797L32.7153 17.2651L32.7162 16.916Z" fill="black"/>
<path d="M32.7162 16.7988C32.7162 16.7988 33.4984 17.4529 34.53 17.541C35.1146 17.5859 35.6828 17.754 36.1969 18.0343C36.8052 18.3704 37.4684 18.8594 37.6743 19.4555C38.0854 20.6228 40.6692 22.5494 41.8459 22.1408L41.4348 25.6433C41.4348 25.6433 38.088 25.4705 37.5005 24.1841L38.4991 36.6771H37.6196C37.6196 36.6771 37.1494 33.2912 36.7974 32.5905C36.4454 31.8898 35.7406 28.0374 35.6815 27.1025C35.6224 26.1677 34.742 20.7956 33.9781 19.8633L32.7153 17.1487L32.7162 16.7988Z" fill="#67647E"/>
<path opacity="0.1" d="M29.7206 14.5513C29.7971 13.9983 29.6441 13.6527 29.5737 13.0039L32.9206 15.5146C32.9206 15.5146 32.8406 15.8541 32.7798 16.3501C32.6128 16.3769 32.444 16.3905 32.2748 16.3907C31.1068 16.3907 30.269 15.4878 29.7206 14.5513Z" fill="black"/>
<path d="M32.2772 16.2154C34.0287 16.2154 35.4485 14.8039 35.4485 13.0628C35.4485 11.3216 34.0287 9.91016 32.2772 9.91016C30.5258 9.91016 29.106 11.3216 29.106 13.0628C29.106 14.8039 30.5258 16.2154 32.2772 16.2154Z" fill="#FEC3BE"/>
<path opacity="0.1" d="M35.7376 9.97311C35.7563 9.44091 35.6676 8.91038 35.4769 8.41277C35.5284 8.49075 35.5499 8.58453 35.5376 8.67699C35.5254 8.76946 35.48 8.85445 35.41 8.91647C35.3085 8.37454 35.0295 7.88122 34.6165 7.51338C34.8425 7.54967 34.958 7.82873 34.9033 8.04991C34.8485 8.27108 34.6765 8.44128 34.5113 8.59853C34.5305 8.26417 34.3088 7.95314 34.0273 7.76912C33.7457 7.58509 33.4102 7.50992 33.0826 7.42871C33.1965 7.46892 33.2938 7.54548 33.3593 7.64644C33.4249 7.7474 33.455 7.86708 33.445 7.98684C33.4442 8.02755 33.4273 8.06633 33.398 8.09483C33.3663 8.11527 33.3289 8.12524 33.2911 8.12334C32.9602 8.13632 32.6288 8.12939 32.2986 8.10261C31.893 8.05719 31.485 8.03556 31.0767 8.03781C29.7939 8.09138 28.5164 8.95794 28.2305 10.1977C28.1713 10.4978 28.1402 10.8026 28.1375 11.1084L28.0749 12.6704C28.0567 13.1266 28.0384 13.5888 28.1305 14.0364C28.2183 14.454 28.3979 14.8472 28.6565 15.1878C28.9151 15.5283 29.2462 15.8078 29.6262 16.0062C30.0868 15.3427 30.1277 14.4899 30.2876 13.6994C30.3124 13.5162 30.3806 13.3415 30.4866 13.1897C30.6022 13.0463 30.8056 12.9555 30.9776 13.0238C31.1497 13.092 31.2245 13.3538 31.0811 13.4705C31.2045 13.6199 31.4478 13.5085 31.5895 13.3754C31.9926 12.9956 32.2702 12.503 32.3856 11.9628C32.4429 11.6907 32.5003 11.3581 32.7645 11.2639C32.857 11.2386 32.9536 11.2321 33.0487 11.2449C33.6075 11.2829 34.4818 11.5127 35.0241 11.3365C35.529 11.168 35.7376 10.4414 35.7376 9.97311Z" fill="black"/>
<path d="M35.6805 9.91429C35.6992 9.38209 35.6105 8.85156 35.4198 8.35395C35.4712 8.43193 35.4928 8.52571 35.4805 8.61817C35.4682 8.71064 35.4229 8.79563 35.3528 8.85765C35.2517 8.3151 34.9727 7.82112 34.5594 7.45283C34.7853 7.48912 34.9009 7.76818 34.8462 7.98936C34.7914 8.21054 34.6193 8.38074 34.4542 8.53798C34.4733 8.20362 34.2517 7.89259 33.9701 7.70857C33.6885 7.52454 33.3531 7.44938 33.0254 7.36816C33.1393 7.40838 33.2367 7.48493 33.3022 7.58589C33.3678 7.68685 33.3979 7.80654 33.3878 7.92629C33.387 7.96701 33.3702 8.00578 33.3409 8.03429C33.3092 8.05472 33.2718 8.0647 33.234 8.0628C32.9031 8.07577 32.5716 8.06885 32.2415 8.04206C31.8358 7.99665 31.4278 7.97501 31.0196 7.97726C29.7368 8.03083 28.4593 8.89739 28.1733 10.1372C28.1142 10.4372 28.0831 10.7421 28.0803 11.0478L28.0178 12.6099C27.9995 13.0661 27.9813 13.5283 28.0734 13.9758C28.1619 14.3925 28.3418 14.7847 28.6004 15.1243C28.8589 15.4639 29.1897 15.7426 29.5691 15.9405C30.0297 15.277 30.0705 14.4242 30.2305 13.6337C30.2553 13.4505 30.3235 13.2758 30.4295 13.1239C30.5451 12.9805 30.7484 12.8898 30.9205 12.9581C31.0926 13.0263 31.1673 13.2881 31.0239 13.4047C31.1473 13.5542 31.3907 13.4427 31.5323 13.3097C31.9355 12.9298 32.2131 12.4372 32.3284 11.8971C32.3858 11.6249 32.4431 11.2923 32.7073 11.1981C32.7998 11.1729 32.8965 11.1664 32.9915 11.1791C33.5504 11.2172 34.4247 11.447 34.967 11.2707C35.471 11.1135 35.6805 10.3834 35.6805 9.91429Z" fill="#916168"/>
<path opacity="0.1" d="M41.9968 22.1396C41.9968 22.1396 42.467 24.2996 41.5858 25.6422L41.0869 25.6016L41.3589 22.1759L41.9968 22.1396Z" fill="black"/>
<path d="M41.8777 22.1396C41.8777 22.1396 42.3479 24.2996 41.4666 25.6422L40.9678 25.6016L41.2398 22.1759L41.8777 22.1396Z" fill="#FD6F8D"/>
<path opacity="0.1" d="M29.2536 16.2441L25.4662 19.484C25.4662 19.484 23.2326 21.7606 24.1738 25.4385C24.1738 25.4385 24.5849 30.809 25.0551 31.0431C25.0551 31.0431 26.6994 34.3124 26.8167 37.4063C26.8167 37.4063 29.019 33 30.0176 35.6844C31.0161 38.3687 33.3357 38.7489 33.3357 38.7489L32.0434 22.8699C32.0434 22.8699 28.7843 17.236 29.2536 16.2441Z" fill="black"/>
<path d="M29.1339 16.2441L25.3464 19.484C25.3464 19.484 23.1146 21.7606 24.0541 25.4385C24.0541 25.4385 24.4651 30.809 24.9353 31.0431C24.9353 31.0431 26.5796 34.3124 26.697 37.4063C26.697 37.4063 29.0165 32.765 30.0151 35.4502C31.0137 38.1354 33.216 38.7489 33.216 38.7489L31.921 22.8699C31.921 22.8699 28.6637 17.236 29.1339 16.2441Z" fill="#67647E"/>
<path d="M27.401 29.9342C27.401 29.9342 26.4616 29.2923 24.9346 31.0435L28.6925 37.8153L29.9553 35.9146C29.9553 35.9146 27.2837 30.6936 27.401 29.9342Z" fill="#FEC3BE"/>
<path opacity="0.1" d="M28.3121 30.314C28.3121 30.314 26.2341 32.6346 25.4233 32.2622L24.6724 30.5213L27.4891 29.3213L28.3121 30.314Z" fill="black"/>
<path d="M28.3121 30.1968C28.3121 30.1968 26.2341 32.5174 25.4233 32.1451L24.6724 30.4076L27.4891 29.2041L28.3121 30.1968Z" fill="#FD6F8D"/>
<path opacity="0.1" d="M29.828 35.4785C29.828 35.4785 28.8389 37.4942 28.3105 37.6117L29.0736 38.4877L30.1895 36.3857L29.828 35.4785Z" fill="black"/>
<path d="M29.8895 35.5361C29.8895 35.5361 28.9005 37.5518 28.3721 37.6693L29.1351 38.5453L30.251 36.4433L29.8895 35.5361Z" fill="#4D4981"/>
<path opacity="0.1" d="M28.0199 23.0742C28.0199 23.0742 27.9025 27.2774 28.3719 28.8533Z" fill="black"/>
<path opacity="0.1" d="M37.5339 23.8915C37.5339 23.8915 36.8291 23.6583 36.8291 23.0742Z" fill="black"/>
<path d="M51.7297 19.5843L46.8042 18.793L46.7474 19.1427L51.6729 19.934L51.7297 19.5843Z" fill="#40414D"/>
<path d="M53.3459 20.0182C53.3459 20.0182 52.8358 20.3637 52.3456 20.426C52.256 20.4387 52.165 20.4387 52.0753 20.426C51.626 20.3542 51.3931 20.1357 51.3505 19.8791C51.3338 19.7608 51.3535 19.6404 51.407 19.5335C51.5287 19.3028 51.819 19.1689 52.2683 19.2415C52.4054 19.2674 52.5364 19.319 52.6541 19.3935C52.9181 19.5621 53.1519 19.7732 53.3459 20.0182Z" fill="#40414D"/>
<path d="M53.3469 20.0183C53.3469 20.0183 52.8368 20.3639 52.3466 20.4261C52.3314 20.3723 52.3351 20.315 52.3571 20.2636C52.4046 20.1905 52.4599 20.1227 52.5222 20.0615C52.5735 19.9906 52.5874 19.8731 52.5118 19.8299C52.4938 19.8224 52.4766 19.8131 52.4605 19.8023C52.4153 19.7617 52.4605 19.6891 52.4987 19.6459C52.5717 19.5725 52.6552 19.4852 52.6543 19.3867C52.9191 19.5573 53.1532 19.7707 53.3469 20.0183Z" fill="#F8BDC5"/>
</g>
<defs>
<linearGradient id="paint0_linear_6275_748" x1="55.9798" y1="66.5339" x2="55.9798" y2="12.0173" gradientUnits="userSpaceOnUse">
<stop stop-color="#808080" stop-opacity="0.25"/>
<stop offset="0.54" stop-color="#808080" stop-opacity="0.12"/>
<stop offset="1" stop-color="#808080" stop-opacity="0.1"/>
</linearGradient>
<linearGradient id="paint1_linear_6275_748" x1="37.2371" y1="66.0975" x2="37.2371" y2="6.61133" gradientUnits="userSpaceOnUse">
<stop stop-color="#808080" stop-opacity="0.25"/>
<stop offset="0.54" stop-color="#808080" stop-opacity="0.12"/>
<stop offset="1" stop-color="#808080" stop-opacity="0.1"/>
</linearGradient>
<clipPath id="clip0_6275_748">
<rect width="80.85" height="69.3" fill="white" transform="translate(0.0996094 0.450195)"/>
</clipPath>
</defs>
</svg>
