<svg width="113" height="70" viewBox="0 0 113 70" fill="none" xmlns="http://www.w3.org/2000/svg">
<g clip-path="url(#clip0_6275_925)">
<path opacity="0.1" d="M112.452 45.0596C112.453 46.9372 112.227 48.808 111.777 50.6306C111.626 51.2447 111.45 51.8461 111.25 52.4347C111.005 53.1612 110.72 53.8739 110.399 54.5697C110.237 54.9217 110.065 55.2667 109.885 55.6047C109.888 57.5301 109.492 59.4352 108.724 61.1996C107.334 64.3653 104.857 66.925 101.743 68.4121C99.7963 69.3436 97.6687 69.8335 95.5115 69.847H21.4293C18.1333 69.854 14.8941 68.9857 12.0412 67.3303L11.9974 67.3054C11.591 67.0669 11.1948 66.8143 10.8088 66.5478C9.94033 65.9461 9.12438 65.2715 8.36976 64.5314C7.34838 63.5304 6.44837 62.4121 5.6884 61.1996C3.90349 58.3575 2.95794 55.0665 2.96125 51.7077C1.15365 48.5271 0.0996094 44.7171 0.0996094 40.6231C0.0996094 35.4576 1.77462 30.7456 4.52657 27.1786C5.1003 26.4334 5.72875 25.7322 6.40667 25.0809C7.07556 24.4363 7.79451 23.8462 8.55672 23.316C9.16653 22.8913 9.80386 22.5079 10.4645 22.1681C10.7401 22.0275 11.0168 21.8945 11.2982 21.7712C11.5452 21.6611 11.7951 21.5588 12.0479 21.4622C12.3513 21.3468 12.6584 21.2406 12.9694 21.1436C13.2803 21.0467 13.5872 20.9619 13.8899 20.8892C14.335 20.7802 14.7878 20.6915 15.2482 20.6233C15.6297 20.5668 16.0113 20.5276 16.3928 20.498C16.6962 20.475 17.0024 20.4626 17.3105 20.4588H17.4774C17.817 20.4588 18.1547 20.4721 18.4895 20.4951C18.5248 20.4243 18.5629 20.3526 18.5982 20.2827C18.7318 20.0273 18.8701 19.7729 19.0093 19.5242C19.009 19.522 19.009 19.5197 19.0093 19.5175C19.0332 19.4735 19.057 19.4304 19.0818 19.3884C19.1944 19.1846 19.3117 18.9828 19.4319 18.7829C19.4872 18.6872 19.5416 18.5973 19.5979 18.5074C19.6098 18.485 19.6228 18.4633 19.637 18.4423C19.6942 18.3467 19.7524 18.251 19.8116 18.1554C20.106 17.6834 20.4122 17.2198 20.7301 16.7645L20.8112 16.6478C20.8608 16.577 20.9066 16.5082 20.9619 16.4374C21.0936 16.2528 21.229 16.0672 21.3654 15.8854C21.4608 15.7553 21.5562 15.6262 21.6592 15.5028C21.9072 15.184 22.1616 14.8651 22.4223 14.5462C22.6831 14.2274 22.954 13.9127 23.235 13.6021C23.2732 13.5591 23.3113 13.517 23.3514 13.4749L23.7587 13.0291C23.7787 13.0081 23.7959 12.989 23.815 12.9698C23.8636 12.9172 23.9104 12.8646 23.9628 12.8139C24.1813 12.5815 24.4054 12.3538 24.6306 12.1271C25.7762 10.9828 26.9967 9.91643 28.2839 8.93506C28.3345 8.89488 28.386 8.85662 28.4365 8.81836C28.6788 8.63565 28.9249 8.45486 29.171 8.27694C30.5247 7.30311 31.9397 6.41805 33.4072 5.62727C33.5083 5.56892 33.6113 5.5144 33.7153 5.46083C35.031 4.76284 36.384 4.13821 37.7684 3.5898C38.5229 3.29039 39.2946 3.00916 40.071 2.75185C40.588 2.58158 41.1069 2.41992 41.6325 2.26783C42.4541 2.0306 43.2815 1.81793 44.1145 1.6298C46.5688 1.07756 49.0656 0.736427 51.5777 0.610107C52.3408 0.571207 53.1125 0.551119 53.8928 0.549844C57.6577 0.544845 61.408 1.02057 65.0532 1.96555C65.0909 2.02267 65.1424 2.06923 65.203 2.10086C65.2636 2.13249 65.3312 2.14814 65.3994 2.14634H65.7199C65.8592 2.18461 65.9975 2.22287 66.1368 2.26304C66.9145 2.48752 67.6811 2.73272 68.4366 2.99864L68.6274 3.06751C70.492 3.73241 72.3062 4.53163 74.0559 5.45892C75.6331 6.2928 77.1517 7.23369 78.6011 8.27503C78.8243 8.43573 79.0444 8.59771 79.2612 8.76097C79.5245 8.59197 79.7922 8.42999 80.0644 8.27503C81.1155 7.67473 82.2318 7.19747 83.3915 6.85262C85.8161 6.13312 88.3815 6.0325 90.8547 6.55992C94.0263 7.23429 96.8975 8.90827 99.2164 11.2892C100.161 12.2633 101.001 13.3334 101.724 14.4822C101.777 14.5644 101.829 14.6476 101.88 14.7318C102.501 15.7485 103.035 16.8164 103.476 17.9239C103.493 17.965 103.509 18.0033 103.523 18.0434C103.93 19.0805 104.259 20.1469 104.506 21.2336C104.517 21.289 104.53 21.3436 104.542 21.3991C104.773 22.4507 104.93 23.5174 105.011 24.5911C105.011 24.6294 105.011 24.6686 105.019 24.7088C105.059 25.2642 105.079 25.8254 105.08 26.3923C105.08 26.8993 105.063 27.4024 105.031 27.9018C105.031 27.9563 105.024 28.0127 105.019 28.0692C105.01 28.2136 104.998 28.3561 104.985 28.5015C105.714 29.0908 106.396 29.7359 107.025 30.4309C107.303 30.7351 107.572 31.0508 107.832 31.3779C108.624 32.3736 109.32 33.4424 109.911 34.5699C111.524 37.6233 112.452 41.2152 112.452 45.0596Z" fill="#F9A826"/>
<path opacity="0.1" d="M101.669 68.0586C101.669 68.7119 99.4249 69.3241 95.5083 69.8502H21.4261C18.1301 69.8572 14.8909 68.9889 12.038 67.3335L11.9941 67.3086C13.1197 66.8973 15.1515 66.5137 17.9168 66.1674L18.0408 66.1521C19.2808 66 20.6668 65.8556 22.1816 65.7188C22.2197 65.7188 22.2589 65.7131 22.297 65.7083C23.4989 65.6012 24.7774 65.5007 26.1326 65.407C26.1755 65.407 26.2175 65.3993 26.2604 65.3974C26.7831 65.3598 27.3166 65.3241 27.861 65.2903L28.0708 65.2769C32.0342 65.0301 36.5394 64.833 41.4252 64.7029H41.4309C42.1151 64.6838 42.8067 64.6669 43.5056 64.6523C44.2827 64.6338 45.0693 64.6175 45.8655 64.6035C46.4731 64.5901 47.0884 64.5805 47.7055 64.5709H47.7198C50.5042 64.5289 53.3811 64.5078 56.3229 64.5078C63.5972 64.5078 70.4728 64.6408 76.5652 64.8799H76.5824C77.5191 64.9163 78.4386 64.9564 79.3353 64.9976L80.0984 65.0339C81.1101 65.0824 82.0958 65.1344 83.0554 65.1898C94.3398 65.8336 101.669 66.8791 101.669 68.0586Z" fill="#F9A826"/>
<g opacity="0.2">
<path d="M64.9862 64.0684C64.9831 64.1716 64.9713 64.2743 64.9509 64.3755C64.287 64.2696 63.6193 64.174 62.9478 64.0885C62.9478 64.0618 62.9478 64.034 62.9478 64.0063C62.954 63.7194 63.0363 63.4394 63.1862 63.1951C63.3827 62.8833 63.6813 62.6881 64.0104 62.6986C64.3395 62.7092 64.6247 62.9225 64.8011 63.2448C64.9346 63.498 64.9985 63.7823 64.9862 64.0684Z" fill="#3F3D56"/>
<path d="M65.0425 62.4342C65.0658 61.6944 64.6279 61.0802 64.0645 61.0624C63.5011 61.0445 63.0255 61.6297 63.0022 62.3695C62.9789 63.1093 63.4167 63.7235 63.9801 63.7413C64.5435 63.7592 65.0191 63.1739 65.0425 62.4342Z" fill="#3F3D56"/>
<path d="M65.0962 60.7955C65.1195 60.0557 64.6816 59.4415 64.1182 59.4237C63.5548 59.4058 63.0792 59.9911 63.0559 60.7308C63.0326 61.4706 63.4704 62.0848 64.0338 62.1026C64.5972 62.1205 65.0729 61.5353 65.0962 60.7955Z" fill="#3F3D56"/>
<path d="M65.145 59.1588C65.1683 58.419 64.7305 57.8048 64.1671 57.787C63.6037 57.7691 63.128 58.3544 63.1047 59.0941C63.0814 59.8339 63.5192 60.4481 64.0826 60.4659C64.6461 60.4838 65.1217 59.8986 65.145 59.1588Z" fill="#3F3D56"/>
<path d="M65.1987 57.5211C65.222 56.7813 64.7842 56.1671 64.2208 56.1493C63.6574 56.1314 63.1817 56.7167 63.1584 57.4564C63.1351 58.1962 63.5729 58.8104 64.1363 58.8282C64.6998 58.8461 65.1754 58.2609 65.1987 57.5211Z" fill="#3F3D56"/>
<path d="M60.7054 46.1579C60.5711 45.9755 60.45 45.7837 60.3429 45.584L63.0386 45.2272L60.1369 45.1574C59.878 44.5414 59.747 43.879 59.7521 43.2106C59.7572 42.5422 59.8982 41.8818 60.1665 41.2699L63.9934 43.4174L60.4879 40.6587C60.8416 40.0851 61.3093 39.5908 61.862 39.2067C62.4147 38.8225 63.0404 38.5568 63.7001 38.4261C64.3598 38.2953 65.0393 38.3024 65.6962 38.4469C66.353 38.5913 66.9731 38.87 67.5177 39.2656C68.0623 39.6611 68.5198 40.1651 68.8615 40.7459C69.2031 41.3267 69.4217 41.9719 69.5036 42.6412C69.5854 43.3106 69.5288 43.9896 69.3371 44.636C69.1455 45.2824 68.8231 45.8822 68.3899 46.398C68.5988 46.6817 68.7763 46.9874 68.9193 47.3096L65.3813 49.0123L69.133 47.8807C69.3692 48.6625 69.4073 49.491 69.2437 50.2912C69.0802 51.0914 68.7201 51.8381 68.1962 52.4636C68.7409 53.2047 69.0666 54.0845 69.1362 55.0025C69.2057 55.9205 69.0162 56.8395 68.5893 57.6546C68.1625 58.4696 67.5155 59.1478 66.7224 59.6115C65.9293 60.0752 65.0221 60.3057 64.1045 60.2767C63.187 60.2477 62.296 59.9603 61.5336 59.4474C60.7713 58.9346 60.1682 58.2169 59.7934 57.3765C59.4186 56.5361 59.2872 55.6069 59.4143 54.6951C59.5413 53.7833 59.9216 52.9258 60.5118 52.2206C59.861 51.335 59.5261 50.2557 59.5607 49.1562C59.5953 48.0566 59.9974 47.0007 60.7026 46.1579H60.7054Z" fill="#F9A826"/>
<path opacity="0.1" d="M69.3409 49.4653C69.3075 50.5655 68.9041 51.622 68.1962 52.4632C68.7409 53.2043 69.0666 54.0841 69.1362 55.0021C69.2057 55.9201 69.0162 56.8391 68.5893 57.6542C68.1625 58.4693 67.5155 59.1474 66.7224 59.6111C65.9293 60.0748 65.0221 60.3053 64.1045 60.2763C63.187 60.2473 62.296 59.9599 61.5336 59.447C60.7713 58.9342 60.1682 58.2165 59.7934 57.3761C59.4186 56.5357 59.2872 55.6065 59.4143 54.6947C59.5413 53.7829 59.9216 52.9254 60.5118 52.2202C59.8851 51.366 69.3581 48.9153 69.3409 49.4653Z" fill="black"/>
</g>
<g opacity="0.2">
<path d="M50.4872 64.0684C50.4841 64.1716 50.4723 64.2743 50.4519 64.3755C49.788 64.2696 49.1203 64.174 48.4487 64.0885C48.4487 64.0618 48.4487 64.034 48.4487 64.0063C48.4549 63.7194 48.5373 63.4394 48.6872 63.1951C48.8837 62.8833 49.1823 62.6881 49.5114 62.6986C49.8404 62.7092 50.1257 62.9225 50.3021 63.2448C50.4356 63.498 50.4995 63.7823 50.4872 64.0684Z" fill="#3F3D56"/>
<path d="M50.5434 62.4342C50.5667 61.6944 50.1289 61.0802 49.5655 61.0624C49.0021 61.0445 48.5265 61.6297 48.5031 62.3695C48.4798 63.1093 48.9177 63.7235 49.4811 63.7413C50.0445 63.7592 50.5201 63.1739 50.5434 62.4342Z" fill="#3F3D56"/>
<path d="M50.5971 60.7955C50.6205 60.0557 50.1826 59.4415 49.6192 59.4237C49.0558 59.4058 48.5802 59.9911 48.5569 60.7308C48.5335 61.4706 48.9714 62.0848 49.5348 62.1026C50.0982 62.1205 50.5738 61.5353 50.5971 60.7955Z" fill="#3F3D56"/>
<path d="M50.646 59.1598C50.6693 58.42 50.2315 57.8058 49.668 57.788C49.1046 57.7701 48.629 58.3553 48.6057 59.0951C48.5824 59.8349 49.0202 60.449 49.5836 60.4669C50.147 60.4848 50.6227 59.8995 50.646 59.1598Z" fill="#3F3D56"/>
<path d="M50.6953 57.5211C50.7186 56.7813 50.2808 56.1671 49.7174 56.1493C49.1539 56.1314 48.6783 56.7167 48.655 57.4564C48.6317 58.1962 49.0695 58.8104 49.6329 58.8282C50.1963 58.8461 50.672 58.2609 50.6953 57.5211Z" fill="#3F3D56"/>
<path d="M46.2064 46.1579C46.0721 45.9755 45.9509 45.7837 45.8439 45.584L48.5396 45.2272L45.6379 45.1574C45.3789 44.5414 45.248 43.879 45.2531 43.2106C45.2582 42.5422 45.3992 41.8818 45.6675 41.2699L49.4944 43.4174L45.9889 40.6587C46.3425 40.0851 46.8103 39.5908 47.363 39.2067C47.9157 38.8225 48.5414 38.5568 49.2011 38.4261C49.8608 38.2953 50.5403 38.3024 51.1972 38.4469C51.854 38.5913 52.4741 38.87 53.0187 39.2656C53.5633 39.6611 54.0208 40.1651 54.3624 40.7459C54.7041 41.3267 54.9227 41.9719 55.0045 42.6412C55.0864 43.3106 55.0297 43.9896 54.8381 44.636C54.6465 45.2824 54.324 45.8822 53.8909 46.398C54.0998 46.6817 54.2773 46.9874 54.4203 47.3096L50.8823 49.0123L54.6339 47.8807C54.8702 48.6625 54.9083 49.491 54.7447 50.2912C54.5811 51.0914 54.2211 51.8381 53.6972 52.4636C54.2419 53.2047 54.5676 54.0845 54.6371 55.0025C54.7066 55.9205 54.5171 56.8395 54.0903 57.6546C53.6634 58.4696 53.0165 59.1478 52.2234 59.6115C51.4303 60.0752 50.5231 60.3057 49.6055 60.2767C48.6879 60.2477 47.797 59.9603 47.0346 59.4474C46.2722 58.9346 45.6692 58.2169 45.2944 57.3765C44.9196 56.5361 44.7882 55.6069 44.9152 54.6951C45.0423 53.7833 45.4226 52.9258 46.0128 52.2206C45.362 51.335 45.0271 50.2557 45.0617 49.1562C45.0963 48.0566 45.4984 47.0007 46.2035 46.1579H46.2064Z" fill="#F9A826"/>
<path opacity="0.1" d="M54.8419 49.4653C54.8085 50.5655 54.4051 51.622 53.6972 52.4632C54.2419 53.2043 54.5676 54.0841 54.6371 55.0021C54.7066 55.9201 54.5171 56.8391 54.0903 57.6542C53.6634 58.4693 53.0165 59.1474 52.2234 59.6111C51.4303 60.0748 50.5231 60.3053 49.6055 60.2763C48.6879 60.2473 47.797 59.9599 47.0346 59.447C46.2722 58.9342 45.6692 58.2165 45.2944 57.3761C44.9196 56.5357 44.7882 55.6065 44.9152 54.6947C45.0423 53.7829 45.4226 52.9254 46.0128 52.2202C45.3861 51.366 54.859 48.9153 54.8419 49.4653Z" fill="black"/>
</g>
<g opacity="0.2">
<path d="M90.0945 65.1163C90.0872 65.3118 90.0639 65.5063 90.0249 65.6979C88.7467 65.4932 87.4592 65.3102 86.1626 65.1488C86.1626 65.0972 86.1626 65.0446 86.1626 64.991C86.1747 64.4386 86.3334 63.8994 86.6224 63.4289C87.0039 62.8292 87.5763 62.4532 88.2087 62.4724C88.8411 62.4915 89.3915 62.9038 89.7349 63.5246C89.9938 64.0136 90.118 64.5631 90.0945 65.1163Z" fill="#3F3D56"/>
<path d="M90.1987 61.9669C90.2436 60.5423 89.4003 59.3595 88.315 59.3251C87.2298 59.2907 86.3137 60.4177 86.2688 61.8424C86.2239 63.267 87.0672 64.4498 88.1525 64.4841C89.2377 64.5185 90.1538 63.3915 90.1987 61.9669Z" fill="#3F3D56"/>
<path d="M90.2969 58.8136C90.3418 57.389 89.4984 56.2062 88.4132 56.1718C87.328 56.1374 86.4118 57.2644 86.3669 58.689C86.322 60.1137 87.1654 61.2964 88.2506 61.3308C89.3358 61.3652 90.252 60.2382 90.2969 58.8136Z" fill="#3F3D56"/>
<path d="M90.3994 55.6612C90.4443 54.2366 89.6009 53.0538 88.5157 53.0194C87.4305 52.9851 86.5144 54.1121 86.4695 55.5367C86.4246 56.9613 87.2679 58.1441 88.3531 58.1785C89.4384 58.2129 90.3545 57.0859 90.3994 55.6612Z" fill="#3F3D56"/>
<path d="M90.3851 52.3646C90.4277 50.9393 89.5821 49.7574 88.4963 49.7247C87.4106 49.692 86.4958 50.821 86.4532 52.2463C86.4105 53.6717 87.2562 54.8536 88.3419 54.8863C89.4277 54.919 90.3424 53.79 90.3851 52.3646Z" fill="#3F3D56"/>
<path d="M81.8494 30.6359C81.592 30.2848 81.359 29.9163 81.1521 29.533L86.3412 28.8462L80.7563 28.7113C80.2574 27.5257 80.005 26.2504 80.0145 24.9635C80.024 23.6767 80.2952 22.4053 80.8116 21.2272L88.1803 25.3605L81.4326 20.0497C82.1148 18.9481 83.016 17.9992 84.08 17.2622C85.144 16.5252 86.348 16.0159 87.6168 15.7659C88.8857 15.516 90.1923 15.5308 91.4553 15.8094C92.7182 16.0881 93.9103 16.6246 94.9574 17.3855C96.0045 18.1464 96.8842 19.1154 97.5414 20.2322C98.1987 21.3489 98.6196 22.5895 98.7778 23.8765C98.9361 25.1635 98.8283 26.4694 98.4612 27.7128C98.0941 28.9562 97.4755 30.1105 96.6441 31.1037C97.046 31.6503 97.3878 32.2388 97.6638 32.859L90.8521 36.139L98.074 33.9581C98.5291 35.4612 98.6032 37.0545 98.2896 38.5936C97.976 40.1328 97.2845 41.5692 96.2778 42.7728C97.3262 44.1995 97.953 45.8932 98.0867 47.6604C98.2204 49.4275 97.8555 51.1967 97.0337 52.7657C96.212 54.3347 94.9665 55.6401 93.4398 56.5327C91.913 57.4253 90.1666 57.869 88.4002 57.8132C86.6339 57.7573 84.9188 57.2041 83.4512 56.2169C81.9835 55.2296 80.8226 53.8481 80.101 52.2303C79.3794 50.6126 79.1264 48.8238 79.3708 47.0686C79.6152 45.3135 80.3472 43.6627 81.4831 42.305C80.2311 40.6001 79.5865 38.5228 79.6529 36.4064C79.7194 34.2901 80.4929 32.2576 81.8494 30.635V30.6359Z" fill="#F9A826"/>
<path opacity="0.1" d="M98.4756 37.0029C98.4131 39.1196 97.6401 41.1533 96.2817 42.7748C97.3301 44.2015 97.957 45.8952 98.0906 47.6624C98.2243 49.4295 97.8594 51.1987 97.0376 52.7677C96.2159 54.3367 94.9704 55.6421 93.4437 56.5347C91.9169 57.4272 90.1705 57.871 88.4042 57.8151C86.6378 57.7593 84.9227 57.2061 83.4551 56.2188C81.9874 55.2316 80.8265 53.8501 80.1049 52.2323C79.3833 50.6146 79.1303 48.8258 79.3747 47.0706C79.6191 45.3154 80.3511 43.6647 81.487 42.307C80.2718 40.6608 98.509 35.944 98.4756 37.0029Z" fill="black"/>
</g>
<path d="M15.1523 65.2835L16.153 65.2806H17.5638L19.3475 36.2222L37.0124 6.66161L36.2446 5.83514V3.74219L17.1402 35.5373L15.1523 65.2835Z" fill="#F1C0C0"/>
<path opacity="0.1" d="M16.2598 65.2805H17.5637L19.3475 36.222L37.0124 6.66143L36.2445 5.83496L18.0235 35.7792L16.2598 65.2805Z" fill="black"/>
<path d="M12.2036 65.5249L57.9756 69.0374L58.0147 69.0403L102.312 66.3083L102.345 66.3064V64.4306L53.5353 63.5324L12.8131 63.4932H12.5155L12.4831 63.7036L12.2036 65.5249Z" fill="#F1C0C0"/>
<path opacity="0.1" d="M12.2036 65.5249L57.9756 69.0374L58.0147 69.0403L102.312 66.3083L102.345 66.272V64.4698H102.306L57.9756 65.9544L12.8131 63.4932H12.8065L12.7263 63.5458L12.4831 63.7036L12.2036 65.5249Z" fill="black"/>
<path opacity="0.1" d="M12.2036 65.525L57.9756 69.0375V65.9545L12.7263 63.5459L12.4831 63.7037L12.2036 65.525Z" fill="black"/>
<path d="M36.2388 5.79541L56.4181 27.5151L55.7943 65.7201L57.5084 65.9277L57.537 65.9315H59.2511L59.4562 29.1556L97.2423 41.8128L97.8795 64.3494L99.2588 64.5044L99.7262 64.557L98.6445 40.2498L59.1443 26.3433L37.4855 3.76367H36.2388V5.79541Z" fill="#F1C0C0"/>
<path opacity="0.1" d="M59.3018 28.4531L59.4572 29.1562L97.2433 41.8134L97.8805 64.35L99.2598 64.505L98.1781 41.3447L59.3018 28.4531Z" fill="black"/>
<path opacity="0.1" d="M36.2388 5.79541L56.4181 27.5151L55.7943 65.7201L57.5084 65.9277L57.9758 26.2649L36.2388 3.76367V5.79541Z" fill="black"/>
<path d="M59.3755 43.785L73.2344 46.5218L73.2392 46.5227L97.5126 51.318L98.6239 50.8712L98.6201 50.7928L98.5476 49.2384L59.3898 41.3037L59.3755 43.785Z" fill="#F1C0C0"/>
<path opacity="0.1" d="M73.2388 46.5234L97.5122 51.3187L98.6234 50.872L98.6196 50.7935L73.2388 46.5234Z" fill="black"/>
<path d="M74.1655 34.083L74.5404 54.7773L74.734 65.3941L76.4405 65.3367L77.5146 65.3004L77.1807 34.3824L76.4405 34.1356L76.2784 34.083H74.1655Z" fill="#F1C0C0"/>
<path opacity="0.1" d="M74.1821 34.0781V34.0829L74.5417 54.7772L74.7354 65.394L76.4419 65.3366V34.0781H74.1821Z" fill="black"/>
<path d="M47.435 39.3682C47.5352 39.4228 47.6308 39.4851 47.7212 39.5547C47.8281 39.6485 47.9241 39.7541 48.0074 39.8694C48.4166 40.4003 48.7943 41.0173 48.7543 41.6869C48.7551 41.7843 48.7368 41.881 48.7003 41.9712C48.6638 42.0615 48.6098 42.1437 48.5415 42.213C48.3727 42.3575 48.1304 42.3642 47.9091 42.3642C47.6687 42.3642 47.416 42.3642 47.208 42.2398C47.0001 42.1155 46.8265 41.8734 46.5804 41.8792C46.5456 41.8849 46.5102 41.8849 46.4754 41.8792C46.3905 41.8514 46.3734 41.7395 46.3181 41.6687C46.2227 41.5415 46.0214 41.5731 45.8716 41.6286C45.7219 41.684 45.5559 41.7673 45.408 41.7032C45.3222 41.6578 45.2521 41.5874 45.2068 41.5013C44.8529 40.9274 44.7775 40.2377 44.7108 39.571C44.6697 39.1654 44.3569 37.7822 45.2201 38.0969C45.6017 38.2347 45.9584 38.5102 46.3056 38.712L47.435 39.3682Z" fill="#3F3D56"/>
<path d="M46.5857 39.5044C46.6628 39.56 46.7563 39.5882 46.8512 39.5843C46.9461 39.5805 47.037 39.545 47.1094 39.4834C47.2514 39.3546 47.342 39.1785 47.3641 38.9879C47.4595 38.9582 47.5081 39.0835 47.5692 39.16C47.676 39.2901 47.8935 39.2882 47.9908 39.4269C48.0585 39.5226 48.0432 39.6555 48.0909 39.7636C48.1529 39.9033 48.3065 39.976 48.4114 40.0889C48.5105 40.2122 48.5821 40.3554 48.6213 40.5088L48.7777 40.9794C48.8526 41.1751 48.9007 41.3801 48.9208 41.5887C48.9307 41.693 48.9197 41.7983 48.8886 41.8983C48.8575 41.9983 48.8068 42.0911 48.7396 42.1713C48.5297 42.398 48.1854 42.4219 47.8811 42.4152C47.7795 42.4174 47.678 42.4055 47.5797 42.3798C47.3097 42.2956 47.1371 42.023 47.0655 41.7485C46.994 41.474 47.0016 41.186 46.9596 40.9048C46.9143 40.6286 46.8342 40.3592 46.7212 40.1032C46.6372 39.9042 46.4064 39.6077 46.4102 39.3963C46.4789 39.3963 46.5285 39.4594 46.5857 39.5044Z" fill="#3F3D56"/>
<path d="M46.9281 38.5357C46.8835 38.3999 46.8575 38.2587 46.8509 38.1158C46.8509 37.8288 46.9816 37.5591 47.1132 37.3027L46.0229 37.451C45.8913 37.4692 45.7444 37.496 45.67 37.606C45.6417 37.6605 45.627 37.721 45.627 37.7824C45.627 37.8439 45.6417 37.9044 45.67 37.9589C45.7246 38.0681 45.7681 38.1825 45.7997 38.3004C45.8022 38.4036 45.814 38.5064 45.835 38.6075C45.8689 38.6817 45.9165 38.7489 45.9752 38.8055C46.2871 39.1518 46.5208 39.5602 46.7536 39.9648C46.7469 39.9534 47.4108 39.4378 47.3841 39.2694C47.3688 39.1738 47.1771 39.059 47.116 38.9672C47.0317 38.8339 46.9683 38.6884 46.9281 38.5357Z" fill="#BE6F72"/>
<path d="M56.2757 34.7979V35.7401L40.1866 38.8872L39.3519 39.3941H36.4722V38.8632L52.2799 35.0332L56.2757 34.7979Z" fill="#F1C0C0"/>
<path opacity="0.1" d="M56.2757 35.7412L40.1866 38.8883L39.3519 39.3953H36.4722L52.3972 35.9775L56.2757 35.7412Z" fill="black"/>
<path d="M43.3558 61.546C43.1766 61.3283 42.9291 61.1778 42.6537 61.1191C42.3783 61.0604 42.0912 61.0969 41.8392 61.2227C41.7852 61.2481 41.7376 61.2854 41.6999 61.3317C41.6045 61.4656 41.6656 61.6503 41.6741 61.8157C41.6961 62.2194 41.3756 62.5475 41.0875 62.8297C40.933 62.9808 40.7756 63.1425 40.706 63.3482C40.6363 63.5538 40.6878 63.815 40.8748 63.9221C40.9564 63.9631 41.0452 63.9878 41.1362 63.9948C41.4411 64.0544 41.7537 64.0632 42.0614 64.0206C42.3657 63.9623 42.6643 63.7891 42.7959 63.5079C42.8213 63.4316 42.8633 63.362 42.919 63.3041C43.0868 63.1712 43.3444 63.3271 43.5352 63.2324C43.6926 63.154 43.6992 63.0306 43.7011 62.868C43.7069 62.4184 43.6401 61.9095 43.3558 61.546Z" fill="#F9A826"/>
<path d="M45.6451 61.5285C45.7624 61.8384 45.7787 62.1761 45.7939 62.507C45.8025 62.6983 45.8082 62.9031 45.7052 63.0647C45.6022 63.2264 45.4009 63.3115 45.2082 63.3517C44.8105 63.4339 44.3497 63.3565 44.0931 63.0398C43.8966 62.7978 43.8556 62.4659 43.8919 62.1522C43.9224 61.8948 43.9873 61.5935 43.8032 61.4108C43.7555 61.362 43.6935 61.3276 43.6496 61.275C43.5542 61.1583 43.5695 60.9823 43.621 60.8388C43.6881 60.7016 43.7383 60.5567 43.7707 60.4074C43.7784 60.3366 45.0623 60.4571 45.1806 60.5155C45.3418 60.5949 45.317 60.7278 45.3656 60.8885C45.4333 61.1124 45.5631 61.3142 45.6451 61.5285Z" fill="#F9A826"/>
<path d="M45.8831 47.7869C46.1349 47.9505 46.2322 48.2719 46.2713 48.5703C46.3791 49.3882 46.1902 50.2146 46.1759 51.0402C46.1626 52.1966 46.4964 53.3742 46.2112 54.4943C46.0405 55.1639 46.1855 55.9291 46.0252 56.6054C45.9775 56.8063 45.8898 56.9957 45.844 57.1966C45.7486 57.6318 45.8488 58.0871 45.9833 58.5128C46.0262 58.6275 46.0535 58.7476 46.0643 58.8696C46.0579 59.0575 46.0103 59.2417 45.9251 59.4091L45.3527 60.7665C45.2888 60.9186 45.037 60.9434 44.8758 60.9635C44.5725 60.9999 44.2338 61.0257 43.9925 60.8373C43.7512 60.6488 43.693 60.3331 43.6558 60.0385C43.5844 59.4729 43.5526 58.903 43.5604 58.333C43.5709 58.1842 43.5577 58.0347 43.5213 57.8901C43.4688 57.7265 43.3534 57.585 43.3219 57.4118C43.2819 57.188 43.3954 56.968 43.4373 56.7422C43.4661 56.536 43.4629 56.3266 43.4278 56.1214C43.3906 55.8153 43.3477 55.5092 43.299 55.205C43.2304 54.7794 43.3286 54.3594 43.3944 53.9328C43.4564 53.532 43.3773 53.1236 43.299 52.7256C43.3058 53.0486 43.2656 53.3708 43.1798 53.6822C43.1292 53.8343 43.0568 53.9797 43.0129 54.1346C42.8173 54.8301 43.2342 55.5599 43.175 56.2802C43.1474 56.6169 43.0157 56.9498 43.0529 57.2817C43.0787 57.5247 43.1912 57.7476 43.2685 57.9791C43.3458 58.2105 43.3858 58.4755 43.2685 58.6917C42.9585 59.279 43.1903 60.0777 43.4679 60.6804C43.5242 60.7873 43.5733 60.8978 43.6148 61.0114C43.6968 61.283 43.6281 61.5748 43.6501 61.8579C43.5702 61.871 43.4884 61.8657 43.4108 61.8423C43.3333 61.8189 43.2621 61.7782 43.2027 61.723C43.1607 61.679 43.1264 61.6274 43.0854 61.5815C42.9708 61.4719 42.8351 61.387 42.6866 61.3318C42.5995 61.2829 42.5002 61.26 42.4005 61.2658C42.2957 61.2952 42.2013 61.3539 42.1286 61.4351C42.0343 61.5183 41.9342 61.5947 41.8291 61.6637C41.7843 61.6982 41.732 61.7215 41.6765 61.7316C41.6486 61.736 41.62 61.7314 41.5948 61.7185C41.5696 61.7056 41.5492 61.6851 41.5363 61.6599C41.5303 61.6439 41.5268 61.6272 41.5258 61.6102C41.4903 61.3213 41.4716 61.0307 41.4695 60.7397C41.4695 60.2394 40.8724 59.895 40.797 59.4005C40.7369 59.0016 40.8485 58.5951 40.8113 58.1933C40.7932 57.9867 40.736 57.7839 40.7398 57.5773C40.7398 57.4434 40.7703 57.3123 40.7808 57.1794C40.7895 57.0318 40.7873 56.8837 40.7741 56.7365L40.7445 56.2745C40.7159 55.8182 40.6845 55.3523 40.5051 54.9353C40.2925 54.4483 40.1666 53.9277 40.1331 53.3971C40.114 53.0623 40.1264 52.7275 40.0883 52.3918C40.0539 52.0885 39.9776 51.7872 39.9996 51.483C40.0177 51.2477 40.095 51.0201 40.1131 50.7848C40.1503 50.3323 39.9786 49.8923 39.8441 49.459C39.7096 49.0256 39.6104 48.5454 39.7868 48.1274C39.8121 48.0588 39.854 47.9976 39.9089 47.9495C39.9766 47.9046 40.0536 47.8758 40.1341 47.8653C41.7707 47.5206 43.4482 47.4133 45.1152 47.5468C45.387 47.5623 45.6507 47.6447 45.8831 47.7869Z" fill="#3F3D56"/>
<path d="M40.4656 37.6273C41.3096 37.6273 41.9937 36.9412 41.9937 36.0949C41.9937 35.2486 41.3096 34.5625 40.4656 34.5625C39.6217 34.5625 38.9375 35.2486 38.9375 36.0949C38.9375 36.9412 39.6217 37.6273 40.4656 37.6273Z" fill="#BE6F72"/>
<path d="M40.1706 38.0096C40.1925 38.0972 40.1925 38.1889 40.1706 38.2765C40.1465 38.3377 40.1127 38.3946 40.0704 38.4448C39.9225 38.6362 39.7588 38.8147 39.5811 38.9786C39.6716 39.1814 39.8346 39.3428 40.038 39.4311C40.2399 39.5172 40.4517 39.578 40.6685 39.6119C40.7767 39.6404 40.8893 39.6482 41.0004 39.6348C41.1028 39.609 41.1998 39.5649 41.2866 39.5047L42.1355 38.9949C42.2636 38.9253 42.3823 38.8394 42.4885 38.7395C42.6442 38.579 42.7323 38.3646 42.7346 38.1407C42.7385 38.1006 42.7277 38.0604 42.7041 38.0278C42.6715 37.9994 42.6307 37.9823 42.5877 37.979C42.2891 37.913 42.0535 37.67 41.92 37.3945C41.7992 37.1121 41.7211 36.8133 41.6882 36.5078L40.7829 36.9861C40.6484 37.0578 40.5149 37.1296 40.3756 37.1918C40.2869 37.2319 40.1076 37.2654 40.0446 37.3467C39.9245 37.4969 40.1391 37.8288 40.1706 38.0096Z" fill="#BE6F72"/>
<path d="M39.587 38.7C39.4581 38.8059 39.3575 38.9423 39.2942 39.0969C39.235 39.2882 39.2942 39.4901 39.3476 39.6795C39.5979 40.4867 39.7892 41.3113 39.9199 42.1464C40 42.7204 40.0296 43.3029 40.0687 43.8836C40.1489 45.0678 40.2652 46.956 40.4207 48.1326C40.993 48.1584 41.5511 47.991 42.1186 47.9298C43.1793 47.8169 44.2715 48.0752 45.3103 47.8342C45.0585 46.8365 44.8067 45.1328 44.5548 44.1361C44.4434 43.7434 44.3662 43.3417 44.324 42.9356C44.302 42.6439 44.3154 42.3511 44.3192 42.0575C44.3278 41.4835 44.2963 40.9096 44.2648 40.3357C44.2286 39.6661 44.1924 38.9965 44.034 38.3412C44.023 38.2578 43.984 38.1805 43.9234 38.1222C43.828 38.0524 43.704 38.0772 43.5905 38.0925C43.2429 38.1368 42.8911 38.0532 42.6003 37.8572C42.4744 37.7711 42.3056 37.6659 42.1882 37.7616C42.1382 37.8193 42.1051 37.8898 42.0929 37.9653C42.0409 38.1006 41.9608 38.2233 41.8578 38.3251C41.7549 38.4269 41.6314 38.5054 41.4957 38.5555C41.2239 38.6542 40.9392 38.7129 40.6506 38.7296C40.5623 38.7486 40.4702 38.7382 40.3883 38.7C40.2528 38.6167 40.2433 38.3173 40.0725 38.2972C39.9228 38.28 39.6881 38.6033 39.587 38.7Z" fill="#3F3D56"/>
<path d="M41.8429 41.035C41.491 40.6973 41.3364 40.2075 41.0798 39.7914C40.9051 39.5116 40.6819 39.2654 40.4207 39.0644C40.2894 38.9775 40.169 38.875 40.062 38.7593C39.9714 38.6474 39.9027 38.4982 39.7654 38.4551C39.7086 38.4427 39.6497 38.4443 39.5937 38.4598C39.5377 38.4753 39.4863 38.5042 39.4439 38.5441C39.3598 38.6244 39.2802 38.7094 39.2055 38.7985C38.801 39.2184 38.0904 39.2768 37.7699 39.7627C37.6834 39.8658 37.6246 39.9892 37.5991 40.1214C37.5068 40.8287 37.6892 41.5445 38.1085 42.1206C38.1897 42.2542 38.3143 42.3556 38.4614 42.4076C38.4415 42.586 38.465 42.7665 38.5301 42.9337C38.7067 43.5391 38.9237 44.1319 39.1797 44.7081C39.1185 44.9335 39.0758 45.1636 39.0519 45.3959C38.9851 45.9804 39.0471 46.5734 38.9842 47.1589C38.9326 47.6371 38.7934 48.103 38.7886 48.5822C38.7886 48.6587 38.7953 48.7496 38.8611 48.7888C38.8961 48.8069 38.9353 48.8151 38.9746 48.8128L40.1479 48.8481C40.829 48.8682 41.5167 48.8883 42.1873 48.7621C42.2766 48.7488 42.3632 48.7214 42.4439 48.6807C42.6709 48.5535 42.7463 48.2666 42.7825 48.0112C42.8298 47.6799 42.8487 47.3451 42.8388 47.0106C42.9809 47.4611 43.1498 47.927 43.579 48.1221C43.806 48.2254 44.0655 48.2178 44.3144 48.2111C44.851 48.1871 45.3858 48.1319 45.916 48.0456C45.9487 48.0497 45.9818 48.046 46.0129 48.0349C46.0439 48.0238 46.0718 48.0056 46.0946 47.9817C46.1173 47.9578 46.1341 47.9289 46.1437 47.8973C46.1533 47.8657 46.1553 47.8323 46.1497 47.7998L46.1554 47.2775C46.1669 46.2166 45.9046 45.2027 45.8025 44.1466C45.7701 43.8138 45.7729 43.4771 45.6918 43.1509C45.6585 43.0141 45.6098 42.8802 45.5802 42.7424C45.5548 42.6076 45.5388 42.4711 45.5325 42.334L45.4581 41.2817C45.4228 40.7949 45.3723 40.3252 45.3351 39.8393C45.3146 39.3661 45.2463 38.8962 45.131 38.4369C45.048 38.15 44.8753 37.8247 44.5768 37.7893C44.4175 37.7712 44.2629 37.841 44.1113 37.8898C43.7385 38.0075 43.3384 38.0058 42.9666 37.885C42.8517 37.8395 42.732 37.8074 42.6099 37.7893C42.5484 37.7809 42.4857 37.7891 42.4284 37.813C42.3711 37.8368 42.3211 37.8756 42.2836 37.9252C42.2466 37.9999 42.2292 38.0829 42.2331 38.1662C42.1882 39.1218 42.1053 40.1061 41.8429 41.035Z" fill="#F9A826"/>
<path d="M40.3091 41.0644C39.8693 40.5995 39.4181 40.126 38.8515 39.8304C38.6283 39.7137 38.3746 39.6257 38.1275 39.6697C37.8805 39.7137 37.6506 39.929 37.662 40.1805C37.6697 40.3365 37.7641 40.4742 37.7937 40.6273C37.828 40.7994 37.7784 40.9831 37.8318 41.1495C37.8752 41.2592 37.9401 41.3591 38.0226 41.4432L38.6979 42.2458C38.9841 42.5806 39.2703 42.9201 39.6385 43.1516C40.0067 43.3831 40.4836 43.4912 40.8881 43.3267C41.1758 43.1925 41.4151 42.9723 41.5729 42.6963C41.7408 42.4285 41.8591 42.1357 42.0165 41.8593C42.2615 41.4176 42.5847 41.0244 42.9704 40.699C42.772 40.6473 42.523 40.5746 42.398 40.412C42.3625 40.3603 42.3321 40.3052 42.3074 40.2475L42.1529 39.9127C42.1003 39.91 42.0478 39.9181 41.9985 39.9367C41.9493 39.9553 41.9044 39.984 41.8667 40.0208C41.8005 40.0976 41.7294 40.1701 41.654 40.2379C41.5195 40.3393 41.3373 40.3671 41.2152 40.4828C41.168 40.5325 41.1252 40.5863 41.0874 40.6435C40.9951 40.7652 40.8779 40.8658 40.7436 40.9383C40.6094 41.0109 40.4612 41.0539 40.3091 41.0644Z" fill="#3F3D56"/>
<path d="M43.004 39.064C43.335 38.4585 43.3198 37.7325 43.4142 37.0485C43.4244 36.8674 43.4878 36.6934 43.5964 36.5483C43.7872 36.3321 44.1239 36.3292 44.412 36.3569C44.4969 36.3665 44.6027 36.4067 44.598 36.4918C44.5913 36.5223 44.5764 36.5504 44.555 36.5731C44.2758 36.9345 44.1116 37.3718 44.0838 37.8281C44.2336 37.9324 44.4654 37.7181 44.6094 37.8281C44.7048 37.9085 44.6609 38.0673 44.6037 38.1821C44.4708 38.448 44.3337 38.712 44.1926 38.9741C44.0799 39.2051 43.9329 39.4177 43.7567 39.6045C43.6355 39.7212 43.4934 39.813 43.3703 39.9278C43.0842 40.1966 42.9115 40.5763 42.6158 40.8384C42.5908 40.8656 42.557 40.8829 42.5204 40.8872C42.4828 40.8845 42.4473 40.8686 42.4203 40.8423C42.2725 40.7218 42.15 40.5732 42.0597 40.4051C41.9471 40.1966 41.9643 40.1354 42.1417 39.9881C42.4737 39.725 42.797 39.4428 43.004 39.064Z" fill="#BE6F72"/>
<path d="M39.7581 40.6523C39.8153 40.6877 39.8859 40.7279 39.9489 40.6982C39.9746 40.6826 39.9965 40.6613 40.0128 40.636C40.1219 40.4901 40.2128 40.3314 40.2837 40.1635C40.2959 40.1398 40.3027 40.1136 40.3037 40.087C40.3037 40.0257 40.2494 39.9808 40.1988 39.9454C39.9279 39.7723 39.6367 39.6335 39.3317 39.5322C39.0799 39.4365 38.8166 39.3533 38.5495 39.3772C38.4492 39.384 38.3512 39.411 38.2616 39.4567C38.1719 39.5024 38.0924 39.5658 38.0278 39.6431C37.837 39.889 38.1566 39.9636 38.3569 40.0525C38.8205 40.2639 39.3222 40.3864 39.7581 40.6523Z" fill="#F9A826"/>
<path opacity="0.1" d="M39.4556 42.279C39.4524 42.3008 39.4543 42.3231 39.4613 42.3441C39.4683 42.365 39.48 42.384 39.4957 42.3995C39.5233 42.2637 39.4871 42.1202 39.5157 41.9834C39.5577 41.7778 39.757 41.6228 39.7742 41.4162C39.4089 41.3444 39.4585 42.0571 39.4556 42.279Z" fill="black"/>
<path opacity="0.2" d="M56.2756 34.7979V35.7401L52.3971 35.9763L52.2798 35.0332L56.2756 34.7979Z" fill="black"/>
<path d="M39.0916 36.3228C39.3338 36.1248 39.1936 35.7096 39.3577 35.4437C39.4531 35.2983 39.6143 35.2218 39.7726 35.1567C39.9637 35.0671 40.1685 35.0101 40.3784 34.9884C40.4835 34.9782 40.5895 34.992 40.6886 35.0286C40.7876 35.0652 40.8772 35.1237 40.9507 35.1998C41.0127 35.2706 41.0546 35.3566 41.1128 35.4303C41.1849 35.5162 41.2788 35.581 41.3846 35.6177C41.4904 35.6544 41.6042 35.6617 41.7138 35.6388C41.8406 35.6101 41.9723 35.5135 41.9637 35.3834C41.9494 35.3043 41.9091 35.2323 41.8492 35.1787L41.5764 34.8755C41.2664 34.5311 40.9221 34.1657 40.4671 34.0796C40.1504 34.0194 39.8261 34.1045 39.5208 34.2069C39.3978 34.248 39.2594 34.3092 39.2251 34.4345C39.2022 34.5206 39.2366 34.6144 39.2165 34.7014C39.1774 34.8745 38.9561 34.9329 38.8531 35.0783C38.7501 35.2237 38.7816 35.3959 38.752 35.5566C38.7224 35.7173 38.6366 35.8741 38.6261 36.0406C38.6194 36.141 38.6699 36.3276 38.7825 36.3639C38.8951 36.4003 39.0219 36.2032 39.0916 36.3228Z" fill="#3F3D56"/>
<path d="M41.8703 35.2459C41.7899 34.825 41.6165 34.4276 41.3628 34.0827C41.1373 33.7605 40.8236 33.5107 40.4595 33.3634C40.2775 33.2921 40.0818 33.263 39.887 33.2784C39.6922 33.2938 39.5035 33.3533 39.3349 33.4523C39.0846 33.6315 38.8899 33.8778 38.7731 34.1631C38.526 34.6968 38.4344 35.3492 38.7215 35.8619C38.836 35.7223 39.0325 35.7854 39.2061 35.7347C39.4236 35.6725 39.6077 35.5271 39.8147 35.4362C40.4395 35.1598 41.2026 35.3836 41.8703 35.2459Z" fill="#FED253"/>
<path opacity="0.1" d="M38.8695 35.2148C38.8475 35.0426 38.8332 34.8427 38.9553 34.7203C38.9614 34.7128 38.9691 34.7068 38.9779 34.7028C38.9867 34.6988 38.9963 34.6969 39.0059 34.6973C39.0144 34.7001 39.0223 34.7046 39.029 34.7105C39.0357 34.7164 39.0412 34.7236 39.045 34.7317C39.1155 34.8433 39.1755 34.9611 39.2243 35.0838C39.1532 35.0673 39.0789 35.0727 39.0108 35.0991C38.9428 35.1256 38.8843 35.1719 38.8428 35.232" fill="black"/>
<path opacity="0.1" d="M41.0985 34.7304L41.0642 34.3889C41.0587 34.3607 41.061 34.3316 41.0709 34.3047C41.0853 34.2822 41.1075 34.2658 41.1332 34.2587C41.1589 34.2517 41.1863 34.2544 41.2101 34.2664C41.2571 34.2925 41.2957 34.3313 41.3218 34.3784C41.4012 34.5006 41.467 34.6311 41.5183 34.7677C41.3646 34.738 41.2066 34.7399 41.0537 34.7734" fill="black"/>
<path opacity="0.1" d="M41.952 48.5898V49.3704L41.2948 49.4144H37.8379V48.5898H41.952Z" fill="black"/>
<path d="M41.9514 48.5896V49.4142H37.8373L26.9077 35.6847V35.0361H29.1989L41.9514 48.5896Z" fill="#F1C0C0"/>
<path opacity="0.1" d="M41.9514 48.5896V49.4142H37.8373L26.9077 35.6847V35.0361H29.1989L41.9514 48.5896Z" fill="black"/>
<path opacity="0.1" d="M41.9514 48.5896V49.4142H37.8373L26.9077 35.6847V35.0361L37.8964 48.5896H41.9514Z" fill="black"/>
<path d="M28.3383 62.3504C28.3455 62.3892 28.3447 62.4291 28.3358 62.4675C28.3269 62.506 28.3102 62.5422 28.2868 62.5739C28.2633 62.6056 28.2336 62.6321 28.1995 62.6517C28.1653 62.6714 28.1275 62.6838 28.0884 62.6881C27.8232 62.778 27.5418 62.867 27.3539 63.0707C27.166 63.2745 27.1288 63.6523 27.3539 63.8178C27.469 63.8874 27.6011 63.9235 27.7355 63.9221C28.1676 63.9517 28.6178 63.946 29.0099 63.7623C29.2903 63.6322 29.5545 63.4103 29.8626 63.4304C30.0219 63.4399 30.1917 63.5146 30.3339 63.4419C30.476 63.3692 30.516 63.1664 30.517 62.9971C30.5206 62.6436 30.4675 62.2919 30.3596 61.9554C30.3453 61.9094 29.7386 61.8741 29.6661 61.8597L28.9307 61.7641C28.7914 61.7459 28.491 61.6407 28.3813 61.7574C28.2716 61.8741 28.3383 62.2117 28.3383 62.3504Z" fill="#F9A826"/>
<path d="M32.7286 59.9625C32.7598 60.1347 32.8103 60.3029 32.8793 60.4637C32.9814 60.7239 33.1121 61.0004 33.362 61.1266C33.589 61.2404 33.8676 61.1993 34.0984 61.0912C34.1947 61.0512 34.2792 60.987 34.3435 60.9047C34.418 60.7745 34.4513 60.6247 34.4389 60.4752C34.4389 60.105 34.417 59.7224 34.2482 59.3933C34.1032 59.1064 33.8504 58.8596 33.8466 58.542L32.9776 58.7103C32.9311 58.7148 32.8868 58.7324 32.8498 58.761C32.8222 58.7901 32.8031 58.8262 32.7944 58.8653C32.7017 59.2233 32.6793 59.5959 32.7286 59.9625Z" fill="#F9A826"/>
<path d="M22.3508 50.8757C22.3145 51.1837 22.3298 51.5137 22.49 51.7796C22.6503 52.0456 22.9879 52.2216 23.2798 52.1154C23.2948 52.1116 23.3088 52.1048 23.3211 52.0954C23.3334 52.086 23.3437 52.0743 23.3514 52.0609C23.3591 52.0285 23.3547 51.9945 23.339 51.9652C23.2101 51.6203 23.2207 51.2386 23.3685 50.9015C23.3876 50.8575 23.4286 50.8059 23.4735 50.8231C23.4922 50.8326 23.5073 50.8481 23.5164 50.8671C23.5626 50.9472 23.5857 51.0386 23.5832 51.1311C23.5697 51.2149 23.5671 51.3001 23.5755 51.3846C23.5937 51.4668 23.6814 51.5443 23.7577 51.5089C23.7798 51.4953 23.7989 51.4774 23.8138 51.4562C23.8287 51.435 23.8392 51.4109 23.8445 51.3855C24.0572 50.7686 23.9609 50.0942 23.8636 49.4485C23.8644 49.4337 23.862 49.4188 23.8564 49.4051C23.8509 49.3913 23.8424 49.3789 23.8316 49.3688C23.8208 49.3587 23.8079 49.351 23.7938 49.3465C23.7797 49.3419 23.7648 49.3405 23.7501 49.3423C23.2999 49.2974 23.0538 49.1893 22.7962 49.6092C22.5749 49.9631 22.3508 50.45 22.3508 50.8757Z" fill="#F9A826"/>
<path d="M27.615 49.3059C27.4815 49.8627 27.347 50.4261 27.3384 50.9981C27.3407 51.3544 27.3675 51.7101 27.4185 52.0627L27.5187 52.8911C27.553 53.1704 27.5864 53.4488 27.635 53.7252C27.6661 53.8677 27.683 54.0128 27.6856 54.1586C27.6762 54.3023 27.6536 54.4448 27.6179 54.5842C27.5579 54.8772 27.5244 55.1749 27.5177 55.4738C27.5072 55.9521 27.5664 56.4304 27.6036 56.9087C27.6778 57.8618 27.6667 58.8196 27.5702 59.7707C27.5317 60.0274 27.5872 60.2895 27.7266 60.5082C27.7832 60.5772 27.8297 60.6539 27.8649 60.7359C27.9365 60.9549 27.7695 61.174 27.7266 61.3988C27.6992 61.5741 27.7422 61.7531 27.8463 61.8966C27.9504 62.0401 28.107 62.1363 28.2818 62.164C29.0449 62.2549 29.829 62.2138 30.5167 62.5639C30.5892 62.3515 30.4309 62.1105 30.5034 61.8943C30.5491 61.7604 30.6751 61.6733 30.7609 61.5604C30.8762 61.3885 30.9337 61.184 30.925 60.9769C30.9283 60.7067 30.8804 60.4382 30.7838 60.1859C30.7027 59.9754 30.5863 59.7678 30.593 59.5421C30.593 59.4311 30.6321 59.3144 30.5873 59.2121C30.5566 59.1533 30.5148 59.101 30.4642 59.0581C30.1792 58.7449 30.004 58.3468 29.9654 57.9246C29.9282 57.5055 29.9416 57.0835 30.0054 56.6676C30.0522 56.2716 30.1151 55.8536 30.366 55.5446C30.2497 54.6078 30.318 53.6571 30.5673 52.7467C30.5921 52.6625 30.6312 52.5649 30.717 52.5449C30.7511 52.5413 30.7856 52.5461 30.8175 52.5588C30.8493 52.5714 30.8777 52.5916 30.9002 52.6176C31.0499 52.7582 31.1215 52.9619 31.1863 53.157C31.2579 53.3684 31.3304 53.5942 31.276 53.8104C31.2531 53.906 31.2073 53.9902 31.1806 54.082C31.1226 54.2666 31.1327 54.4659 31.2092 54.6435C31.2465 54.7085 31.2699 54.7805 31.2779 54.8549C31.2691 54.9189 31.2497 54.981 31.2207 55.0386C31.1853 55.1518 31.1741 55.2712 31.1877 55.389C31.2013 55.5069 31.2395 55.6205 31.2998 55.7225C31.4214 55.9257 31.5714 56.1103 31.7453 56.2707C31.6622 56.6378 31.6837 57.021 31.8073 57.3764C31.8162 57.3925 31.8219 57.4101 31.824 57.4283C31.8262 57.4465 31.8247 57.465 31.8197 57.4826C31.8025 57.519 31.7587 57.5324 31.7243 57.5582C31.6289 57.6366 31.6881 57.7849 31.752 57.8872C31.9271 58.1682 32.1206 58.4372 32.331 58.6927C32.5218 58.9213 32.5046 59.3623 32.7889 59.4445C32.9083 59.4704 33.0319 59.4704 33.1513 59.4445C33.4318 59.4015 33.7446 59.3202 33.882 59.0715C33.9383 58.9691 33.9612 58.8448 34.0489 58.7682C34.1367 58.6917 34.2502 58.6783 34.2988 58.5865C34.3475 58.4947 34.2931 58.3741 34.3093 58.268C34.3256 58.1618 34.4181 58.0766 34.4477 57.9647C34.5182 57.7065 34.2178 57.4941 34.1768 57.2301C34.1176 56.8475 34.5984 56.5605 34.5783 56.1779C34.5364 55.3466 34.5097 54.5115 34.4667 53.6803C34.4129 52.9357 34.4052 52.1884 34.4438 51.4429C34.4772 50.979 34.5392 50.493 34.3694 50.0616C34.1252 49.4532 33.4518 49.1118 32.8003 49.0467C32.1488 48.9817 31.4992 49.1366 30.8534 49.238C29.7817 49.4037 28.6927 49.4265 27.615 49.3059Z" fill="#3F3D56"/>
<path d="M29.5511 40.1635C30.395 40.1635 31.0792 39.4774 31.0792 38.631C31.0792 37.7847 30.395 37.0986 29.5511 37.0986C28.7071 37.0986 28.0229 37.7847 28.0229 38.631C28.0229 39.4774 28.7071 40.1635 29.5511 40.1635Z" fill="#FBBEBE"/>
<path d="M28.9296 40.4496C28.8777 40.5708 28.7904 40.6734 28.6793 40.7439C28.5681 40.8144 28.4382 40.8495 28.3068 40.8446C28.2514 41.0742 28.384 41.3057 28.5357 41.4865C28.8506 41.854 29.2576 42.1306 29.7147 42.2878C30.1718 42.445 30.6624 42.4772 31.136 42.3809C31.3203 42.3478 31.4951 42.2746 31.6482 42.1666C31.8546 41.9938 31.9932 41.7531 32.0393 41.4874C32.0832 41.2236 32.0957 40.9555 32.0765 40.6887C32.0819 40.636 32.0668 40.5833 32.0345 40.5414C31.9964 40.5118 31.9492 40.4962 31.901 40.4974C31.5786 40.4687 31.2419 40.4563 30.9586 40.2975C30.6752 40.1387 30.474 39.78 30.6104 39.4854C30.5884 39.5313 30.0314 39.5533 29.9579 39.5628C29.728 39.5954 29.4982 39.6317 29.2692 39.6738C29.1592 39.6798 29.0505 39.7004 28.9459 39.735C28.8076 39.8068 28.8591 39.7714 28.8915 39.9015C28.9401 40.1004 29.0117 40.2429 28.9296 40.4496Z" fill="#FBBEBE"/>
<path d="M30.0936 41.381C29.8878 41.3834 29.6825 41.3605 29.4822 41.3131C29.2799 41.2657 29.1017 41.1464 28.9804 40.9773C28.9098 40.8702 28.8641 40.7353 28.7515 40.675C28.5674 40.5794 28.3575 40.741 28.2106 40.8893C28.0769 41.0355 27.9219 41.1606 27.7509 41.2604C27.5467 41.3685 27.3083 41.4068 27.1156 41.534C26.9651 41.6481 26.8359 41.788 26.734 41.9473L25.3824 43.7934C24.8396 44.5357 24.3675 45.3325 23.8838 46.116C23.4651 46.7942 23.2457 47.5747 22.93 48.3065C22.905 48.3513 22.8946 48.4028 22.9004 48.4538C22.9118 48.5035 22.9719 48.5437 23.0139 48.515C22.8718 48.6566 22.9967 48.8976 22.9634 49.0966C22.9254 49.2358 22.8462 49.3602 22.7363 49.4534C22.9463 49.4259 23.1594 49.436 23.3659 49.483C23.5793 49.5437 23.7806 49.6408 23.9611 49.77C24.0765 49.7518 24.066 49.5462 24.1519 49.4697C24.2034 49.4247 24.2797 49.4304 24.3474 49.417C24.6021 49.3673 24.7032 49.0602 24.8988 48.8871C25.0619 48.7427 25.2927 48.6958 25.4654 48.56C25.7458 48.339 25.8059 47.9459 25.9528 47.6197C26.0778 47.3432 26.2743 47.1022 26.384 46.819C26.4555 46.6354 26.4898 46.4364 26.5919 46.2671C26.755 45.9935 27.0622 45.8481 27.355 45.7171C27.5401 45.6338 27.7366 45.5478 27.9359 45.5611C27.9254 46.0059 27.8692 46.4441 27.9655 46.8783C27.9989 47.0314 28.0456 47.1806 28.0857 47.3327C28.2679 48.0176 28.3108 48.7312 28.3194 49.4371C28.7577 49.3366 29.2053 49.2827 29.6548 49.2764C30.0087 49.2659 30.3617 49.3118 30.7155 49.3051C31.1352 49.2975 31.5502 49.2162 31.9699 49.1875C32.3896 49.1588 32.8284 49.1875 33.1994 49.3788C33.1693 48.7726 33.1862 48.1649 33.25 47.5613L33.3511 46.6105C33.3739 46.3342 33.4163 46.06 33.478 45.7898C33.5333 45.5717 33.6134 45.3612 33.6745 45.1441C33.8891 44.3788 33.85 43.5619 33.809 42.7651C33.788 42.3557 33.6306 41.953 33.4455 41.5886C33.3786 41.4532 33.3021 41.3228 33.2166 41.1983C32.993 40.8893 32.695 40.6422 32.3504 40.4799C32.0058 40.3177 31.6258 40.2456 31.2459 40.2704C31.1974 40.2719 31.1495 40.2823 31.1047 40.301C31.0242 40.3527 30.9613 40.4278 30.9244 40.5162C30.7271 40.872 30.4407 41.17 30.0936 41.381Z" fill="#3F3D56"/>
<path d="M28.208 39.1383C28.2509 39.0427 28.3663 39.0073 28.4369 38.9308C28.5724 38.7854 28.5113 38.5529 28.5323 38.3568C28.5667 38.0698 28.8042 37.8298 29.076 37.7274C29.3533 37.6382 29.6483 37.6194 29.9345 37.6729C30.0723 37.683 30.2054 37.7273 30.3218 37.802C30.3714 37.8384 30.4172 37.8852 30.4639 37.9187C30.5491 37.9704 30.6511 37.9866 30.748 37.9639C30.845 37.9412 30.9292 37.8814 30.9828 37.7972C30.6452 37.3897 30.2712 36.9593 29.7581 36.834C29.582 36.7979 29.4026 36.7809 29.2229 36.7833C28.9854 36.7785 28.7403 36.7747 28.5209 36.8655C28.2223 36.9889 28.0124 37.273 27.9047 37.5791C27.8104 37.8894 27.76 38.2114 27.7549 38.5357C27.7353 38.7521 27.7353 38.9698 27.7549 39.1862C27.7918 39.4817 27.9012 39.7633 28.0735 40.0059C28.0968 40.0436 28.1297 40.0743 28.1689 40.0949C28.6039 40.2862 28.1727 39.2177 28.208 39.1383Z" fill="#3F3D56"/>
<path d="M30.9313 37.5612C30.8788 37.1107 30.5583 36.7386 30.2178 36.4392C29.9433 36.1796 29.6163 35.9822 29.2591 35.8605C28.8995 35.7543 28.4855 35.7773 28.1774 35.9925C27.9294 36.1656 27.772 36.4411 27.6509 36.7185C27.4917 37.0459 27.4129 37.4066 27.421 37.7707C27.4448 38.1323 27.6203 38.4987 27.9332 38.6814C28.0458 38.5149 28.2413 38.4288 28.4292 38.3609C29.2482 38.0493 30.0835 37.7824 30.9313 37.5612Z" fill="#FED253"/>
<path opacity="0.1" d="M28.0408 37.3741C28.0713 37.3741 28.0913 37.4056 28.1066 37.4315C28.1842 37.5528 28.251 37.6809 28.3059 37.8141C28.1943 37.838 28.0026 37.8648 27.9473 37.7663C27.9177 37.7165 27.953 37.3693 28.0408 37.3741Z" fill="black"/>
<path opacity="0.1" d="M30.2138 37.1569C30.1909 37.1789 30.1642 37.134 30.1642 37.1014V36.7303C30.1635 36.72 30.1659 36.7097 30.1708 36.7006C30.1748 36.6961 30.1796 36.6924 30.185 36.6898C30.1904 36.6871 30.1963 36.6856 30.2023 36.6853C30.2796 36.6767 30.3435 36.7427 30.3931 36.8059C30.4684 36.9082 30.5338 37.0174 30.5886 37.132L30.1851 37.1196" fill="black"/>
<path d="M35.2502 43.3036C35.3379 43.22 35.4317 43.143 35.5306 43.0731C35.7948 42.8961 36.1144 42.8263 36.411 42.7134C36.7077 42.6005 37.0091 42.4178 37.1245 42.1213C37.1823 41.9359 37.2012 41.7404 37.1799 41.5473C37.1826 41.4665 37.1683 41.386 37.1379 41.3111C37.1016 41.2449 37.0499 41.1884 36.9872 41.1465C36.5846 40.8481 36.0448 40.8242 35.5449 40.8548C34.4429 40.9233 33.3628 41.1937 32.358 41.6526C32.3049 41.6702 32.2583 41.7035 32.2245 41.7482C32.2049 41.7897 32.196 41.8354 32.1987 41.8812C32.1809 42.1633 32.2175 42.4461 32.3065 42.7143C32.4381 43.0549 32.709 43.3294 32.8225 43.6766C32.8741 43.8326 32.8912 43.9981 32.9361 44.1549C32.9728 44.3169 33.0684 44.4595 33.2041 44.5548C33.5809 44.7805 33.9367 44.4773 34.198 44.242L35.2502 43.3036Z" fill="#3F3D56"/>
<path d="M30.3132 44.6289L29.8296 43.5709C29.7587 43.4243 29.6975 43.2732 29.6465 43.1185C29.5911 42.9339 29.5644 42.7425 29.5129 42.557C29.3431 41.939 28.9148 41.4244 28.7059 40.8189C28.6927 40.7642 28.6658 40.7138 28.6277 40.6725C28.5972 40.6509 28.5624 40.6363 28.5256 40.6297C28.4888 40.6231 28.4511 40.6246 28.415 40.6343C28.1231 40.685 27.8951 40.9079 27.628 41.0341C27.504 41.0915 27.3705 41.1298 27.2465 41.1958C27.1845 41.2252 27.1296 41.2677 27.0855 41.3204C27.0414 41.373 27.0091 41.4346 26.9909 41.5009C26.9613 41.6473 27.0338 41.7879 27.0948 41.9304C27.3543 42.5177 27.4134 43.174 27.4249 43.8168C27.4335 44.2491 27.4115 44.7131 27.1568 45.0603C26.6675 45.7299 26.9804 46.7132 27.1635 47.5234C27.1854 47.6191 27.2112 47.7224 27.2265 47.8238C27.2426 47.9507 27.2499 48.0785 27.2484 48.2064C27.2484 48.6359 27.2246 49.0788 27.0452 49.4681C27.2223 49.5626 27.4174 49.618 27.6176 49.6307C28.1714 49.7015 28.7276 49.7513 29.2859 49.78C29.4608 49.7965 29.6372 49.7874 29.8096 49.7532C30.0143 49.6977 30.1947 49.5754 30.3223 49.4057C30.45 49.2359 30.5176 49.0283 30.5145 48.8158C30.545 49.0807 30.6013 49.3686 30.793 49.5523C30.9848 49.736 31.2642 49.7637 31.5246 49.7781C32.2596 49.8171 32.9965 49.7963 33.7281 49.7159C33.7748 49.7138 33.8207 49.7031 33.8636 49.6843C34.0047 49.6135 34.0124 49.4184 34.0009 49.2615C33.9799 48.9678 33.958 48.6742 33.9227 48.3824C33.8928 48.1964 33.8775 48.0084 33.8769 47.82C33.8915 47.6262 33.9234 47.4341 33.9723 47.246C34.1001 46.6491 34.2012 46.0398 34.1583 45.4286C34.1414 45.2797 34.1353 45.1297 34.1402 44.9799C34.165 44.6423 34.3424 44.3209 34.309 43.9851C34.2136 42.9979 34.1364 41.9849 33.8617 41.0322C33.8121 40.8619 33.7491 40.6792 33.6012 40.5817C33.4105 40.4535 33.1424 40.5205 32.924 40.4391C32.8215 40.3913 32.724 40.3333 32.6331 40.266C32.4354 40.142 32.2088 40.0721 31.9758 40.0632C31.8003 40.0565 31.6048 40.0957 31.4989 40.2373C31.4499 40.317 31.4174 40.4058 31.4035 40.4984C31.2652 41.082 31.103 41.6588 30.9409 42.2356L30.7854 42.7885L30.3685 44.273C30.3275 44.4309 30.3552 44.4797 30.3132 44.6289Z" fill="#F9A826"/>
<path d="M32.7521 38.8359L41.979 48.5594V49.3839H37.8649L30.9312 40.309" fill="#F1C0C0"/>
<path opacity="0.1" d="M32.7521 38.8359L41.979 48.5594V49.3839H37.8649L30.9312 40.309" fill="black"/>
<path opacity="0.1" d="M31.0781 40.1816L31.1076 40.1922L37.9241 48.5602H41.979V49.3847H37.8649L30.9312 40.3098L31.0781 40.1816Z" fill="black"/>
<path d="M32.1408 40.3861C31.8069 40.5324 31.4359 40.7199 31.3357 41.0719C31.3159 41.1337 31.3117 41.1994 31.3233 41.2632C31.3477 41.3383 31.3942 41.4042 31.4567 41.4522C31.5192 41.5001 31.5948 41.528 31.6734 41.532C31.8305 41.5359 31.9866 41.5072 32.1322 41.4479L34.102 40.7955C34.1554 40.7783 34.2164 40.7524 34.2298 40.6998C34.2332 40.6667 34.2266 40.6334 34.2107 40.6042C34.1496 40.4549 34.0896 40.1498 33.9617 40.0455C33.8568 39.9614 33.6489 39.991 33.522 39.9929C33.0336 39.9968 32.5748 40.1948 32.1408 40.3861Z" fill="#F9A826"/>
<path d="M33.8987 40.8723C34.2305 40.8713 34.5605 40.9226 34.8764 41.0244C35.1938 41.1277 35.4749 41.3203 35.6863 41.5792C35.7478 41.6515 35.7916 41.7374 35.8141 41.8298C35.8332 41.9255 36.1441 41.9828 36.0754 42.0479C36.2843 42.0144 36.2347 42.1129 36.4465 42.111C36.6583 42.1091 36.8872 42.0546 37.0141 41.8853C37.1022 41.7462 37.1415 41.5816 37.1257 41.4175C37.1284 41.304 37.107 41.1911 37.0627 41.0865C36.9673 40.8857 36.7479 40.7776 36.5457 40.6848L34.8421 39.9033C34.7432 39.8506 34.6372 39.8128 34.5273 39.7914C34.4348 39.7826 34.3417 39.7849 34.2497 39.7981L33.478 39.887C33.6468 39.9965 33.7842 40.1483 33.8767 40.3272C33.9692 40.5062 34.0136 40.7063 34.0055 40.9077" fill="#3F3D56"/>
</g>
<defs>
<clipPath id="clip0_6275_925">
<rect width="112.35" height="69.3" fill="white" transform="translate(0.0996094 0.549805)"/>
</clipPath>
</defs>
</svg>
