<svg width="90" height="73" viewBox="0 0 90 73" fill="none" xmlns="http://www.w3.org/2000/svg">
<g clip-path="url(#clip0_6275_864)">
<path d="M71.9512 13.5966C71.4875 18.7093 70.1667 24.1005 68.0952 29.3022C65.5335 35.7348 62.0337 41.4006 57.9738 45.6871L57.7485 45.4905C61.7887 41.2246 65.2727 35.5838 67.8236 29.1778C70.1291 23.3888 71.5003 17.3645 71.791 11.7588L72.0789 11.807C72.0483 12.3991 72.0057 12.9956 71.9512 13.5966Z" fill="#F2F2F2"/>
<path d="M73.799 43.2911C68.0967 52.371 61.1786 58.8585 54.3189 61.5586L54.1802 61.304C60.9923 58.6226 67.8699 52.1682 73.5462 43.1299L73.799 43.2911Z" fill="#F2F2F2"/>
<path d="M71.8115 19.9628C71.3479 25.0756 70.027 30.4667 67.9555 35.6684C65.3939 42.101 61.894 47.7669 57.8342 52.0533L57.6089 51.8567C61.6491 47.5909 65.133 41.95 67.684 35.544C69.9894 29.755 71.3607 23.7307 71.6513 18.125L71.9392 18.1732C71.9087 18.7653 71.8661 19.3618 71.8115 19.9628Z" fill="#F2F2F2"/>
<path d="M7.79538 33.0881H4.05399C3.97405 33.0883 3.89512 33.0703 3.8231 33.0356C3.75109 33.0009 3.68786 32.9503 3.63817 32.8876C3.58908 32.8266 3.55444 32.7552 3.53686 32.6788C3.51928 32.6024 3.51922 32.523 3.53667 32.4466C3.893 30.873 3.87061 29.2371 3.47136 27.6738C3.4461 27.5709 3.45221 27.4627 3.48889 27.3633C3.52557 27.2639 3.59114 27.1777 3.67717 27.1159C5.601 25.731 7.11607 25.7712 8.18035 27.2355C8.22833 27.3023 8.2602 27.3792 8.27346 27.4604C8.55783 29.1714 8.57356 30.9164 8.32011 32.6323C8.30249 32.7589 8.23962 32.8749 8.14315 32.9587C8.04667 33.0425 7.92312 33.0885 7.79538 33.0881Z" fill="#E6E6E6"/>
<path d="M6.63547 29.3379H5.34843C5.27726 29.3379 5.209 29.3096 5.15867 29.2593C5.10835 29.2089 5.08008 29.1406 5.08008 29.0694C5.08008 28.9981 5.10835 28.9298 5.15867 28.8794C5.209 28.8291 5.27726 28.8008 5.34843 28.8008H6.63547C6.70654 28.8009 6.77465 28.8293 6.82486 28.8796C6.87506 28.93 6.90326 28.9982 6.90326 29.0694C6.90326 29.1405 6.87506 29.2087 6.82486 29.2591C6.77465 29.3094 6.70654 29.3378 6.63547 29.3379Z" fill="white"/>
<path d="M6.63547 30.2803H5.34843C5.27726 30.2803 5.209 30.252 5.15867 30.2017C5.10835 30.1513 5.08008 30.083 5.08008 30.0117C5.08008 29.9405 5.10835 29.8722 5.15867 29.8218C5.209 29.7715 5.27726 29.7432 5.34843 29.7432H6.63547C6.70654 29.7433 6.77465 29.7717 6.82486 29.822C6.87506 29.8724 6.90326 29.9406 6.90326 30.0117C6.90326 30.0829 6.87506 30.1511 6.82486 30.2015C6.77465 30.2518 6.70654 30.2802 6.63547 30.2803Z" fill="white"/>
<path d="M6.63547 31.2217H5.34843C5.27726 31.2217 5.209 31.1934 5.15867 31.1431C5.10835 31.0927 5.08008 31.0244 5.08008 30.9532C5.08008 30.8819 5.10835 30.8136 5.15867 30.7632C5.209 30.7129 5.27726 30.6846 5.34843 30.6846H6.63547C6.70654 30.6847 6.77465 30.7131 6.82486 30.7634C6.87506 30.8138 6.90326 30.882 6.90326 30.9532C6.90326 31.0243 6.87506 31.0925 6.82486 31.1429C6.77465 31.1932 6.70654 31.2216 6.63547 31.2217Z" fill="white"/>
<path d="M75.791 49.8078H72.0496C71.9697 49.808 71.8907 49.7901 71.8187 49.7553C71.7467 49.7206 71.6835 49.67 71.6338 49.6074C71.5847 49.5463 71.55 49.4749 71.5325 49.3985C71.5149 49.3221 71.5148 49.2428 71.5323 49.1663C71.8886 47.5927 71.8662 45.9568 71.467 44.3935C71.4417 44.2906 71.4478 44.1825 71.4845 44.083C71.5212 43.9836 71.5868 43.8974 71.6728 43.8356C73.5966 42.4508 75.1117 42.491 76.176 43.9553C76.2239 44.022 76.2558 44.099 76.2691 44.1801C76.5534 45.8911 76.5692 47.6361 76.3157 49.352C76.2981 49.4786 76.2352 49.5946 76.1388 49.6784C76.0423 49.7622 75.9187 49.8082 75.791 49.8078Z" fill="#E6E6E6"/>
<path d="M74.6305 46.0587H73.3435C73.2724 46.0585 73.2043 46.0301 73.1541 45.9798C73.1039 45.9294 73.0757 45.8612 73.0757 45.7901C73.0757 45.7189 73.1039 45.6507 73.1541 45.6003C73.2043 45.55 73.2724 45.5216 73.3435 45.5215H74.6305C74.7017 45.5215 74.7699 45.5498 74.8203 45.6002C74.8706 45.6505 74.8989 45.7188 74.8989 45.7901C74.8989 45.8613 74.8706 45.9296 74.8203 45.98C74.7699 46.0304 74.7017 46.0587 74.6305 46.0587Z" fill="white"/>
<path d="M74.6305 47.0001H73.3435C73.2724 46.9999 73.2043 46.9715 73.1541 46.9212C73.1039 46.8708 73.0757 46.8026 73.0757 46.7315C73.0757 46.6603 73.1039 46.5921 73.1541 46.5418C73.2043 46.4914 73.2724 46.463 73.3435 46.4629H74.6305C74.7017 46.4629 74.7699 46.4912 74.8203 46.5416C74.8706 46.5919 74.8989 46.6602 74.8989 46.7315C74.8989 46.8027 74.8706 46.871 74.8203 46.9214C74.7699 46.9718 74.7017 47.0001 74.6305 47.0001Z" fill="white"/>
<path d="M74.6305 47.9424H73.3435C73.2724 47.9423 73.2043 47.9139 73.1541 47.8636C73.1039 47.8132 73.0757 47.745 73.0757 47.6739C73.0757 47.6027 73.1039 47.5345 73.1541 47.4841C73.2043 47.4338 73.2724 47.4054 73.3435 47.4053H74.6305C74.7017 47.4053 74.7699 47.4336 74.8203 47.4839C74.8706 47.5343 74.8989 47.6026 74.8989 47.6739C74.8989 47.7451 74.8706 47.8134 74.8203 47.8638C74.7699 47.9141 74.7017 47.9424 74.6305 47.9424Z" fill="white"/>
<path d="M89.9497 72.7104C89.9497 72.7288 89.9462 72.7471 89.9391 72.7641C89.9321 72.7811 89.9218 72.7966 89.9088 72.8096C89.8958 72.8226 89.8803 72.833 89.8633 72.84C89.8463 72.847 89.8281 72.8506 89.8097 72.8505H0.839699C0.802571 72.8505 0.766965 72.8358 0.740711 72.8095C0.714458 72.7832 0.699707 72.7476 0.699707 72.7104C0.699707 72.6733 0.714458 72.6376 0.740711 72.6113C0.766965 72.5851 0.802571 72.5703 0.839699 72.5703H89.8097C89.8281 72.5703 89.8463 72.5738 89.8633 72.5809C89.8803 72.5879 89.8958 72.5982 89.9088 72.6112C89.9218 72.6242 89.9321 72.6397 89.9391 72.6567C89.9462 72.6738 89.9497 72.692 89.9497 72.7104Z" fill="#CCCCCC"/>
<path d="M24.1672 64.1317L23.9339 60.8833C22.4053 60.1186 20.7134 59.7388 19.0049 59.777C21.4085 61.6365 21.2159 65.353 22.8805 67.8965C23.4058 68.6858 24.1018 69.3467 24.9169 69.8302C25.732 70.3137 26.6454 70.6074 27.5894 70.6895L29.5898 71.8414C29.8186 70.3277 29.7168 68.7823 29.2915 67.3117C28.8661 65.8412 28.1273 64.4804 27.1259 63.3232C26.5577 62.6795 25.9107 62.1101 25.2004 61.6282C24.7631 62.8847 24.1672 64.1317 24.1672 64.1317Z" fill="#F2F2F2"/>
<path d="M66.4811 64.6024L66.7144 61.354C68.243 60.5893 69.935 60.2095 71.6434 60.2477C69.2398 62.1072 69.4324 65.8237 67.7678 68.3672C67.2425 69.1565 66.5465 69.8174 65.7314 70.3009C64.9163 70.7844 64.0029 71.0781 63.0589 71.1602L61.0585 72.3121C60.8297 70.7984 60.9315 69.253 61.3568 67.7825C61.7822 66.3119 62.521 64.9511 63.5224 63.7939C64.0906 63.1502 64.7376 62.5808 65.4479 62.0989C65.8852 63.3554 66.4811 64.6024 66.4811 64.6024Z" fill="#F2F2F2"/>
<path d="M44.2664 27.9449C45.5009 27.9449 46.5016 26.9433 46.5016 25.7078C46.5016 24.4723 45.5009 23.4707 44.2664 23.4707C43.032 23.4707 42.0312 24.4723 42.0312 25.7078C42.0312 26.9433 43.032 27.9449 44.2664 27.9449Z" fill="#EC9611"/>
<path d="M45.4135 24.7756C45.3799 24.7435 45.3352 24.7256 45.2887 24.7256C45.2423 24.7256 45.1976 24.7435 45.164 24.7756C44.6897 25.1542 44.2637 25.5897 43.8956 26.0723C43.8052 25.8973 43.7148 25.7223 43.6245 25.5472C43.5202 25.3452 43.2155 25.5237 43.3198 25.7255C43.4519 25.9815 43.5841 26.2375 43.7163 26.4935C43.7322 26.5196 43.7546 26.5412 43.7813 26.5562C43.808 26.5712 43.8381 26.579 43.8687 26.579C43.8993 26.579 43.9293 26.5712 43.956 26.5562C43.9827 26.5412 44.0051 26.5196 44.021 26.4935C44.4133 25.9405 44.8822 25.4462 45.4135 25.0254C45.4464 24.9921 45.4648 24.9472 45.4648 24.9005C45.4648 24.8537 45.4464 24.8089 45.4135 24.7756Z" fill="white"/>
<path d="M34.2661 32.0521L30.8955 26.7542L34.7985 24.6621L35.823 28.7042L43.0408 32.6079C43.3258 32.5053 43.6344 32.4878 43.9291 32.5577C44.2238 32.6276 44.4918 32.7818 44.7005 33.0015C44.9091 33.2212 45.0494 33.4969 45.1042 33.795C45.159 34.0932 45.1259 34.4008 45.009 34.6804C44.8921 34.9601 44.6965 35.1996 44.4459 35.3699C44.1954 35.5402 43.9007 35.6338 43.5979 35.6394C43.2951 35.6449 42.9973 35.5622 42.7406 35.4012C42.484 35.2403 42.2797 35.0081 42.1526 34.7329L34.2661 32.0521Z" fill="#A0616A"/>
<path d="M28.4296 20.3998C27.3705 21.956 31.1341 27.613 31.1341 27.613C31.3175 27.2174 33.0701 31.6593 33.3637 31.3969C34.198 30.6512 35.504 28.5739 36.23 28.4813C36.6452 28.4283 35.2671 25.4814 35.2671 25.4814C35.2671 25.4814 34.6373 23.7412 33.7827 21.5183C33.5528 20.8854 33.1665 20.321 32.66 19.8776C32.1535 19.4343 31.5431 19.1264 30.8857 18.9827C30.8857 18.9827 29.4886 18.8435 28.4296 20.3998Z" fill="#3F3D56"/>
<path d="M28.4842 71.1037L30.085 71.1035L30.8465 64.9238L28.4839 64.9239L28.4842 71.1037Z" fill="#A0616A"/>
<path d="M28.0737 70.5803L28.5243 70.5803L30.2834 69.8643L31.2262 70.5801H31.2263C31.7591 70.5802 32.2701 70.792 32.6468 71.1691C33.0236 71.5462 33.2353 72.0576 33.2353 72.5909V72.6562L28.0738 72.6564L28.0737 70.5803Z" fill="#2F2E41"/>
<path d="M35.9202 71.1037L37.5209 71.1035L38.2825 64.9238L35.9199 64.9239L35.9202 71.1037Z" fill="#A0616A"/>
<path d="M35.5137 70.5803L35.9642 70.5803L37.7233 69.8643L38.6661 70.5801H38.6663C39.1991 70.5802 39.71 70.792 40.0868 71.1691C40.4635 71.5462 40.6752 72.0576 40.6753 72.5909V72.6562L35.5138 72.6564L35.5137 70.5803Z" fill="#2F2E41"/>
<path d="M36.6129 37.3184L26.2009 37.5789C24.2234 38.6539 24.1934 40.9805 24.8413 43.743C24.8413 43.743 24.6226 45.3849 25.06 45.8227C25.4975 46.2605 25.7162 46.2606 25.4975 47.0268C25.2788 47.793 26.4344 49.0445 26.2941 49.1849C26.1537 49.3254 25.8256 50.0916 25.8256 50.0916L26.9192 56.3309C26.9192 56.3309 27.6848 67.1674 27.9035 67.3863C28.1223 67.6052 28.341 67.3863 28.1223 67.9336C27.9035 68.4809 27.6848 68.262 27.9035 68.4809C28.0973 68.69 28.2798 68.9092 28.4504 69.1377H31.0945C31.0945 69.1377 31.2938 68.0431 31.2938 67.9336C31.2938 67.8241 31.5126 67.1674 31.5126 67.0579C31.5126 66.9485 31.3192 66.755 31.3192 66.755C31.2524 66.5325 31.2073 66.304 31.1845 66.0728C31.1845 65.8539 30.5283 57.4255 30.5283 57.4255L31.8407 46.4795L35.0122 57.2065C35.0122 57.2065 35.0122 66.6201 35.231 66.839C35.4497 67.0579 35.4497 66.9485 35.3403 67.3863C35.231 67.8242 34.7935 67.7147 35.1216 68.0431C35.4497 68.3714 35.5591 67.8242 35.4497 68.3715L35.3403 68.9188L38.6213 68.9657C38.6213 68.9657 39.0587 68.0431 38.84 67.7147C38.6213 67.3863 38.6344 67.4759 38.9012 66.9386C39.1681 66.4012 39.2775 66.2917 39.1681 66.1823C39.0587 66.0728 39.0587 65.4906 39.0587 65.4906L38.5119 55.0173C38.5119 55.0173 38.4025 43.9619 38.4025 43.6335C38.3943 43.4645 38.4254 43.296 38.4934 43.1411V42.6953L38.0744 41.1159L36.6129 37.3184Z" fill="#2F2E41"/>
<path d="M30.3571 15.6486C32.1438 15.6486 33.5922 14.199 33.5922 12.4107C33.5922 10.6225 32.1438 9.17285 30.3571 9.17285C28.5705 9.17285 27.1221 10.6225 27.1221 12.4107C27.1221 14.199 28.5705 15.6486 30.3571 15.6486Z" fill="#A0616A"/>
<path d="M31.9742 17.7895C32.6711 18.2042 33.088 18.9662 33.3274 19.7415C33.7705 21.177 34.0372 22.6612 34.1216 24.1612L34.3744 28.6521L37.5051 38.2144C34.7918 40.5122 24.593 38.7366 24.593 38.7366C24.593 38.7366 24.2799 38.6322 24.593 38.3188C24.9061 38.0055 25.2108 38.2831 24.8978 37.9698C24.5847 37.6564 24.8005 38.0055 24.9049 37.6922C25.0092 37.3788 24.9049 37.5877 24.8005 37.4833C24.6962 37.3788 25.6084 36.4388 25.6084 36.4388L24.7735 30.9499L23.73 19.8785C24.9823 18.3118 27.5008 17.3882 27.5008 17.3882L28.1515 16.2158L31.4053 16.4763L31.9742 17.7895Z" fill="#3F3D56"/>
<path d="M33.024 10.6912C33.2755 10.8789 33.4617 11.1408 33.5566 11.4401C33.5931 10.9511 33.5954 10.4601 33.5636 9.97078C33.5254 9.62693 33.2836 9.54959 33.0035 9.45997C32.7506 9.379 32.4645 9.28753 32.3876 8.95373C31.3707 7.96359 29.6004 8.01352 28.3889 8.3589C27.7223 8.54895 27.3387 8.79313 27.3044 8.93618L27.2973 8.96563L27.2702 8.97918C26.7563 9.23633 26.6563 10.0484 26.6629 10.6843C26.6754 11.8824 27.0887 13.2432 27.3216 13.3537C27.3339 13.3596 27.337 13.3573 27.3424 13.3529C27.693 13.0724 28.1207 13.3742 28.3087 13.5382C28.4196 12.7935 28.7766 12.1075 29.3227 11.5898C29.8688 11.072 30.5725 10.7523 31.3214 10.6818C31.566 10.6582 31.8086 10.6174 32.0475 10.56C32.1687 10.5286 32.2933 10.5122 32.4185 10.5112C32.6339 10.508 32.8453 10.5708 33.024 10.6912Z" fill="#2F2E41"/>
<path d="M53.109 39.8979L59.3321 33.573L60.9717 28.5144L58.3332 27.4463C57.0262 28.7658 55.6808 32.8053 55.6808 32.8053L51.4333 38.5109C51.3994 38.5235 51.3656 38.5369 51.3322 38.5526C51.1367 38.6451 50.9683 38.7864 50.8432 38.963C50.7182 39.1396 50.6408 39.3455 50.6185 39.5608C50.5962 39.7761 50.6298 39.9935 50.716 40.192C50.8022 40.3905 50.9381 40.5634 51.1105 40.694C51.283 40.8246 51.4862 40.9084 51.7005 40.9374C51.9148 40.9664 52.133 40.9396 52.3339 40.8596C52.5348 40.7796 52.7117 40.649 52.8475 40.4805C52.9833 40.3121 53.0734 40.1114 53.109 39.8979Z" fill="#FFB8B8"/>
<path d="M57.6128 28.0252L60.9494 28.9913L60.9619 28.9889C62.1883 28.7505 63.1585 26.7105 63.7564 25.0412C63.9531 24.4905 63.9336 23.8857 63.7018 23.349C63.4699 22.8122 63.0432 22.3836 62.5077 22.1497C62.1115 21.9798 61.6758 21.9243 61.2497 21.9893C60.8236 22.0543 60.4242 22.2374 60.0966 22.5177L58.433 23.9514L57.6128 28.0252Z" fill="#EC9611"/>
<path d="M54.757 70.9148L52.9625 70.9147L52.1089 63.9873L54.7572 63.9874L54.757 70.9148Z" fill="#FFB8B8"/>
<path d="M55.2163 70.329L54.7112 70.329L52.7393 69.5264L51.6824 70.3289H51.6823C51.085 70.3289 50.5122 70.5664 50.0898 70.9891C49.6675 71.4118 49.4302 71.9851 49.4302 72.5829V72.6561L55.2162 72.6563L55.2163 70.329Z" fill="#2F2E41"/>
<path d="M62.7218 70.9148L60.9273 70.9147L60.0737 63.9873L62.7222 63.9874L62.7218 70.9148Z" fill="#FFB8B8"/>
<path d="M63.1777 70.329L62.6726 70.329L60.7007 69.5264L59.6438 70.3289H59.6437C59.0464 70.3289 58.4736 70.5664 58.0513 70.9891C57.6289 71.4118 57.3916 71.9851 57.3916 72.5829V72.6561L63.1776 72.6563L63.1777 70.329Z" fill="#2F2E41"/>
<path d="M65.4554 41.0758C65.4554 41.0758 65.665 43.5924 65.1412 46.0041C64.6173 48.4158 64.6173 55.208 64.6173 55.208L63.4649 68.4436L60.0076 68.1291L59.0647 46.0041L55.7122 53.449L56.0265 54.4976L55.6078 54.7597C55.6078 54.7597 55.9217 56.8044 55.7122 56.8044C55.5026 56.8044 54.9788 57.119 54.9788 57.119L55.3979 67.9193L51.8358 67.8145L50.5786 52.6101L51.9406 43.907L52.0453 42.2292L52.5168 42.2486L52.7568 41.5477L53.1978 40.3418L65.4554 41.0758Z" fill="#2F2E41"/>
<path d="M65.6375 41.6049L65.6561 41.5787C66.6534 40.1814 65.1535 36.8236 64.9273 36.3368L65.8801 36.0274L65.6655 34.202L65.5639 33.3883L66.2921 32.6594L66.2941 32.6413L66.7132 28.9712L67.3225 26.5337C67.5521 25.6122 67.5325 24.6461 67.2658 23.7347C66.9991 22.8233 66.4949 21.9993 65.8049 21.3474L64.3965 20.0183L62.6848 17.4834H59.9246L58.9781 19.2726C58.0606 19.4849 57.2465 20.0126 56.6776 20.7638C56.1088 21.5151 55.8214 22.4422 55.8653 23.3838L56.0798 28.0764L55.2401 33.9192L55.2396 34.9765L54.2946 36.0277L54.501 37.0603L53.7818 37.3688L53.4642 38.852C53.3328 39.0255 52.4653 40.1832 52.4653 40.4996C52.4653 40.5472 52.5004 40.5931 52.5756 40.644C53.1667 41.0447 56.4341 41.8615 57.8802 41.2823C59.4206 40.6658 65.5439 41.5906 65.6056 41.6L65.6375 41.6049Z" fill="#EC9611"/>
<path d="M60.9486 16.6652C62.9675 16.6652 64.6042 15.0271 64.6042 13.0064C64.6042 10.9857 62.9675 9.34766 60.9486 9.34766C58.9296 9.34766 57.293 10.9857 57.293 13.0064C57.293 15.0271 58.9296 16.6652 60.9486 16.6652Z" fill="#FFB8B8"/>
<path d="M60.5989 16.7245C61.165 16.7187 61.7296 16.6646 62.2866 16.5626C62.8379 16.4355 64.0544 15.494 64.3859 14.9378C64.6322 14.5246 64.7801 13.8854 64.8608 13.422C64.9697 12.8087 64.9487 12.1793 64.7991 11.5747C64.6496 10.97 64.3748 10.4035 63.9926 9.91191C63.8453 9.70596 63.6451 9.54368 63.4132 9.44226C63.3927 9.43483 63.3716 9.42833 63.3503 9.42285C63.0142 9.34355 62.7094 9.1655 62.4751 8.91157C62.4296 8.86015 62.3804 8.81209 62.328 8.76774C62.0652 8.5571 61.7562 8.41171 61.4265 8.34345C60.8938 8.2154 60.1317 8.37586 59.1615 8.82079C58.6741 9.04433 58.1331 8.98197 57.7162 8.90266C57.6928 8.89876 57.6688 8.90106 57.6466 8.90933C57.6244 8.91759 57.6047 8.93153 57.5896 8.94976C57.4174 9.12008 57.1873 9.21888 56.9453 9.22629C56.7973 9.23663 56.6471 9.44604 56.466 9.71873C56.425 9.78063 56.377 9.85288 56.3422 9.89696L56.3353 9.81417L56.2538 9.90883C56.1258 10.0576 56.0375 10.2364 55.9971 10.4286C55.9567 10.6207 55.9655 10.82 56.0228 11.0078C56.08 11.1956 56.1838 11.3659 56.3245 11.5027C56.4652 11.6395 56.6382 11.7385 56.8275 11.7904C56.9776 11.8263 57.1309 11.8467 57.2852 11.8514C57.3787 11.8574 57.4754 11.8635 57.5683 11.8772C57.8667 11.9304 58.1463 12.0601 58.3796 12.2537C58.613 12.4472 58.7922 12.6981 58.8998 12.9817C58.9252 13.0472 58.9653 13.106 59.0171 13.1536C59.0688 13.2011 59.1307 13.2362 59.1981 13.2559C59.2655 13.2757 59.3366 13.2798 59.4058 13.2677C59.475 13.2557 59.5405 13.2279 59.5972 13.1865C59.6916 13.1089 59.8034 13.0553 59.9229 13.0303C60.0425 13.0053 60.1663 13.0096 60.2839 13.0429C60.3861 13.0964 60.4668 13.1834 60.5125 13.2894C60.5678 13.4073 60.657 13.5061 60.7686 13.5732C61.1492 13.7573 61.1972 14.6152 61.0808 15.3345C60.9685 16.0278 60.7244 16.5336 60.487 16.5644C60.3043 16.5881 60.2837 16.6016 60.2712 16.6344L60.2601 16.6638L60.2814 16.6904C60.3836 16.7245 60.4918 16.7361 60.5989 16.7245Z" fill="#2F2E41"/>
<path d="M57.5652 28.4166L55.8081 26.1758C54.0182 26.6691 50.8424 29.5023 50.8424 29.5023L44.3202 32.3351C44.1025 32.2985 43.8791 32.3199 43.6723 32.3973C43.4655 32.4746 43.2827 32.605 43.1423 32.7755C43.0019 32.946 42.9089 33.1505 42.8726 33.3685C42.8363 33.5864 42.858 33.81 42.9355 34.0169C43.0129 34.2238 43.1435 34.4065 43.314 34.5468C43.4845 34.6872 43.689 34.78 43.9068 34.8161C44.1245 34.8522 44.348 34.8302 44.5546 34.7524C44.7612 34.6746 44.9436 34.5437 45.0836 34.3729L53.6274 31.9872L57.5652 28.4166Z" fill="#FFB8B8"/>
<path d="M57.1428 28.9287L59.9153 25.8353L60.0693 23.6434C60.0979 23.213 60.0057 22.7832 59.8031 22.4024C59.6005 22.0217 59.2955 21.7053 58.9226 21.489C58.4152 21.1991 57.8167 21.1129 57.2482 21.2478C56.6797 21.3827 56.1836 21.7286 55.8602 22.2156C54.8805 23.6933 53.8266 25.6913 54.3689 26.8177L54.3744 26.8292L57.1428 28.9287Z" fill="#EC9611"/>
<path d="M31.5883 40.5561L24.3823 36.8624C23.8698 36.5997 23.7 35.9028 24.0039 35.3089L28.7023 26.1269C29.0062 25.5331 29.6704 25.2637 30.183 25.5265L37.3889 29.2202C37.9015 29.4829 38.0713 30.1798 37.7674 30.7737L33.069 39.9556C32.7651 40.5495 32.1009 40.8189 31.5883 40.5561Z" fill="#E6E6E6"/>
<path d="M30.3603 38.8587L25.4645 36.3492C24.9845 36.1031 24.8254 35.4504 25.11 34.8943L29.0134 27.266C29.298 26.7098 29.9201 26.4576 30.4001 26.7037L36.3133 29.7347C36.7933 29.9808 36.9523 30.6334 36.6677 31.1896L34.5472 35.3337C33.2796 37.811 32.4986 39.9548 30.3603 38.8587Z" fill="white"/>
<path d="M32.7778 34.6919L28.4415 32.4691C28.3884 32.4313 28.3508 32.3756 28.3354 32.3123C28.3199 32.249 28.3278 32.1823 28.3575 32.1243C28.3871 32.0663 28.4367 32.0209 28.497 31.9964C28.5573 31.972 28.6245 31.97 28.6861 31.991L33.0225 34.2138C33.0755 34.2516 33.1132 34.3072 33.1286 34.3706C33.144 34.4339 33.1362 34.5006 33.1065 34.5586C33.0768 34.6166 33.0273 34.662 32.9669 34.6864C32.9066 34.7109 32.8395 34.7128 32.7778 34.6919Z" fill="#EC9611"/>
<path d="M28.9472 33.9207L27.9576 33.4134C27.9046 33.3756 27.8669 33.32 27.8515 33.2567C27.836 33.1934 27.8439 33.1266 27.8736 33.0686C27.9032 33.0106 27.9528 32.9652 28.0131 32.9408C28.0735 32.9163 28.1406 32.9144 28.2022 32.9353L29.1918 33.4426C29.2449 33.4804 29.2825 33.536 29.2979 33.5994C29.3134 33.6627 29.3055 33.7294 29.2758 33.7874C29.2462 33.8454 29.1966 33.8908 29.1363 33.9153C29.076 33.9397 29.0088 33.9417 28.9472 33.9207Z" fill="#EC9611"/>
<path d="M30.2199 35.7635L27.4776 34.3578C27.4246 34.32 27.3869 34.2643 27.3715 34.201C27.3561 34.1377 27.3639 34.071 27.3936 34.013C27.4233 33.955 27.4728 33.9096 27.5331 33.8851C27.5935 33.8606 27.6606 33.8587 27.7222 33.8797L30.4646 35.2854C30.5176 35.3232 30.5553 35.3788 30.5707 35.4421C30.5861 35.5054 30.5783 35.5722 30.5486 35.6302C30.5189 35.6882 30.4694 35.7336 30.409 35.758C30.3487 35.7825 30.2816 35.7844 30.2199 35.7635Z" fill="#EC9611"/>
<path d="M34.4966 31.3393L30.1602 29.1165C30.1072 29.0787 30.0695 29.0231 30.0541 28.9598C30.0387 28.8965 30.0465 28.8297 30.0762 28.7717C30.1059 28.7137 30.1554 28.6684 30.2158 28.6439C30.2761 28.6194 30.3432 28.6175 30.4049 28.6385L34.7412 30.8613C34.7943 30.8991 34.8319 30.9547 34.8473 31.018C34.8628 31.0813 34.8549 31.1481 34.8252 31.2061C34.7956 31.2641 34.746 31.3094 34.6857 31.3339C34.6254 31.3584 34.5582 31.3603 34.4966 31.3393Z" fill="#EC9611"/>
<path d="M30.6659 30.5682L29.6763 30.0609C29.6233 30.0231 29.5856 29.9674 29.5702 29.9041C29.5548 29.8408 29.5626 29.7741 29.5923 29.7161C29.622 29.6581 29.6715 29.6127 29.7319 29.5882C29.7922 29.5638 29.8593 29.5618 29.921 29.5828L30.9106 30.0901C30.9636 30.1279 31.0013 30.1835 31.0167 30.2468C31.0321 30.3101 31.0243 30.3769 30.9946 30.4349C30.9649 30.4929 30.9154 30.5382 30.855 30.5627C30.7947 30.5872 30.7276 30.5891 30.6659 30.5682Z" fill="#EC9611"/>
<path d="M31.9348 32.4109L29.1924 31.0052C29.1394 30.9674 29.1018 30.9118 29.0863 30.8485C29.0709 30.7852 29.0788 30.7184 29.1084 30.6604C29.1381 30.6024 29.1876 30.557 29.248 30.5326C29.3083 30.5081 29.3754 30.5062 29.4371 30.5271L32.1794 31.9328C32.2324 31.9706 32.2701 32.0263 32.2855 32.0896C32.3009 32.1529 32.2931 32.2196 32.2634 32.2776C32.2337 32.3356 32.1842 32.381 32.1239 32.4055C32.0635 32.43 31.9964 32.4319 31.9348 32.4109Z" fill="#EC9611"/>
<path d="M25.6162 32.5619L23.9883 26.4961L28.3385 25.6719L28.1046 29.8354L33.8205 35.726C34.1231 35.7136 34.4227 35.7896 34.6829 35.9447C34.9431 36.0998 35.1526 36.3274 35.2858 36.5996C35.419 36.8718 35.4702 37.177 35.4331 37.4778C35.3961 37.7787 35.2724 38.0622 35.0771 38.2939C34.8818 38.5256 34.6234 38.6954 34.3333 38.7826C34.0433 38.8698 33.7341 38.8707 33.4436 38.7851C33.1531 38.6995 32.8937 38.5312 32.6971 38.3006C32.5005 38.0701 32.3752 37.7872 32.3364 37.4866L25.6162 32.5619Z" fill="#A0616A"/>
<path d="M23.5463 19.6953C22.0697 20.8621 23.965 27.3883 23.965 27.3883C24.2584 27.066 24.5994 31.8295 24.958 31.6673C25.9774 31.2064 27.8458 29.6167 28.5661 29.7463C28.978 29.8204 28.5464 26.5955 28.5464 26.5955C28.5464 26.5955 28.467 24.7464 28.3179 22.3693C28.2881 21.6964 28.0888 21.0421 27.7385 20.4671C27.3881 19.8921 26.8981 19.4152 26.314 19.0808C26.314 19.0808 25.023 18.5286 23.5463 19.6953Z" fill="#3F3D56"/>
<path d="M48.1143 46.0257L44.182 44.1672C44.0979 44.1277 44.0239 44.0696 43.9654 43.9973C43.9069 43.9251 43.8655 43.8405 43.8444 43.7499C43.8231 43.6614 43.8221 43.5691 43.8415 43.4801C43.8609 43.3911 43.9002 43.3076 43.9564 43.236C45.0955 41.779 45.8776 40.0751 46.2401 38.261C46.2675 38.1221 46.3422 37.9969 46.4514 37.907C46.5607 37.817 46.6977 37.7677 46.8392 37.7676C48.8447 37.7744 50.3436 38.5073 51.294 39.9457C51.3441 40.0205 51.3773 40.1054 51.3913 40.1944C51.4053 40.2834 51.3997 40.3743 51.375 40.4609C50.8246 42.3594 49.9872 44.1624 48.8918 45.8072C48.8105 45.9315 48.6869 46.0222 48.544 46.0624C48.401 46.1025 48.2484 46.0895 48.1143 46.0257Z" fill="#E6E6E6"/>
<path d="M49.2728 43.4188L46.2661 41.9978C46.1913 41.9624 46.1336 41.8988 46.1057 41.8208C46.0778 41.7429 46.0819 41.6571 46.1173 41.5822C46.1526 41.5073 46.2162 41.4496 46.294 41.4216C46.3719 41.3937 46.4577 41.3979 46.5325 41.4332L49.5391 42.8542C49.5762 42.8717 49.6094 42.8964 49.6369 42.9267C49.6645 42.9571 49.6857 42.9926 49.6996 43.0311C49.7134 43.0697 49.7195 43.1107 49.7175 43.1516C49.7155 43.1926 49.7055 43.2327 49.688 43.2698C49.6705 43.3069 49.6459 43.3401 49.6156 43.3677C49.5852 43.3952 49.5498 43.4165 49.5112 43.4304C49.4727 43.4442 49.4318 43.4503 49.3908 43.4483C49.3499 43.4463 49.3098 43.4363 49.2728 43.4188Z" fill="white"/>
<path d="M49.7405 42.4295L46.7339 41.0085C46.6591 40.9732 46.6014 40.9095 46.5735 40.8316C46.5456 40.7536 46.5497 40.6678 46.585 40.5929C46.6204 40.5181 46.6839 40.4603 46.7618 40.4324C46.8397 40.4044 46.9255 40.4086 47.0003 40.444L50.0069 41.865C50.0817 41.9003 50.1394 41.964 50.1673 42.0419C50.1953 42.1198 50.1911 42.2057 50.1558 42.2805C50.1204 42.3554 50.0569 42.4132 49.979 42.4411C49.9011 42.469 49.8154 42.4649 49.7405 42.4295Z" fill="white"/>
<path d="M45.7201 11.3522L45.4401 11.3829C44.1923 6.47488 41.7735 3.07466 38.4451 1.54976C34.2138 -0.388661 28.9817 0.913023 23.7125 5.21508C18.4166 9.5391 13.7283 16.3692 10.5113 24.4475L10.2397 24.3231C13.4708 16.2095 18.1832 9.34642 23.5089 4.99837C28.8612 0.628335 34.2001 -0.682893 38.542 1.30628C41.9659 2.87487 44.448 6.34871 45.7201 11.3522Z" fill="#F2F2F2"/>
<path d="M14.8459 17.7442C14.114 19.2874 13.4179 20.8862 12.7768 22.4961C9.08751 31.7603 7.21795 41.2216 7.37073 49.8575L7.08239 49.8267C6.92946 41.1587 8.80439 31.6648 12.5052 22.3717C13.1481 20.7573 13.8463 19.154 14.5803 17.6064L14.8459 17.7442Z" fill="#F2F2F2"/>
<path d="M14.7063 24.1095C13.9744 25.6527 13.2782 27.2515 12.6371 28.8613C8.94786 38.1256 7.0783 47.5868 7.23108 56.2227L6.94274 56.1919C6.78981 47.5239 8.66475 38.0301 12.3655 28.7369C13.0085 27.1225 13.7066 25.5192 14.4407 23.9717L14.7063 24.1095Z" fill="#F2F2F2"/>
<path d="M6.95695 26.4245C7.27569 25.9449 7.08703 25.2586 6.53557 24.8913C5.98411 24.5241 5.27868 24.6152 4.95994 25.0947C4.6412 25.5742 4.82986 26.2606 5.38132 26.6278C5.93278 26.995 6.63821 26.904 6.95695 26.4245Z" fill="#CCCCCC"/>
<path d="M74.8256 43.7399C75.1443 43.2604 74.9557 42.574 74.4042 42.2068C73.8528 41.8396 73.1473 41.9306 72.8286 42.4101C72.5099 42.8896 72.6985 43.576 73.25 43.9432C73.8014 44.3104 74.5069 44.2194 74.8256 43.7399Z" fill="#CCCCCC"/>
</g>
<defs>
<clipPath id="clip0_6275_864">
<rect width="89.25" height="72.45" fill="white" transform="translate(0.699707 0.400391)"/>
</clipPath>
</defs>
</svg>
