<svg width="17" height="14" viewBox="0 0 17 14" fill="#ffffff" xmlns="http://www.w3.org/2000/svg">
<path fill-rule="evenodd" clip-rule="evenodd" d="M6.33874 13.581C6.189 13.7057 5.99588 13.7658 5.80182 13.7482C5.60776 13.7305 5.42865 13.6365 5.30386 13.4869L0.404346 7.60689C0.285081 7.45658 0.229325 7.26559 0.248989 7.07472C0.268653 6.88385 0.362178 6.70824 0.509584 6.5854C0.656989 6.46256 0.846587 6.40224 1.03787 6.41731C1.22916 6.43239 1.40697 6.52167 1.53331 6.66609L6.43282 12.5461C6.55752 12.6958 6.61766 12.8889 6.60002 13.083C6.58238 13.2771 6.4884 13.4562 6.33874 13.581Z" fill="white"/>
<path fill-rule="evenodd" clip-rule="evenodd" d="M6.33874 0.692685C6.4884 0.817475 6.58238 0.996587 6.60002 1.19065C6.61766 1.38471 6.55752 1.57783 6.43282 1.72756L1.53331 7.60756C1.40697 7.75198 1.22916 7.84126 1.03787 7.85634C0.846587 7.87142 0.656989 7.81109 0.509584 7.68826C0.362178 7.56542 0.268653 7.3898 0.248989 7.19894C0.229325 7.00807 0.285081 6.81708 0.404346 6.66676L5.30386 0.786764C5.42865 0.637104 5.60776 0.543123 5.80182 0.525481C5.99588 0.50784 6.189 0.567981 6.33874 0.692685Z" fill="white"/>
<path fill-rule="evenodd" clip-rule="evenodd" d="M0.969238 7.13637C0.969238 6.94143 1.04668 6.75448 1.18451 6.61664C1.32235 6.4788 1.5093 6.40137 1.70424 6.40137H15.6692C15.8642 6.40137 16.0511 6.4788 16.189 6.61664C16.3268 6.75448 16.4042 6.94143 16.4042 7.13637C16.4042 7.3313 16.3268 7.51825 16.189 7.65609C16.0511 7.79393 15.8642 7.87137 15.6692 7.87137H1.70424C1.5093 7.87137 1.32235 7.79393 1.18451 7.65609C1.04668 7.51825 0.969238 7.3313 0.969238 7.13637Z" fill="white"/>
</svg>
