<svg width="89" height="70" viewBox="0 0 89 70" fill="none" xmlns="http://www.w3.org/2000/svg">
<g clip-path="url(#clip0_6275_1143)">
<path d="M21.2 38.0228C20.4961 34.2648 21.6043 29.9895 24.6846 27.7148C24.5101 31.8686 25.814 35.95 28.3659 39.2371C29.3546 40.5012 30.5863 41.8045 30.548 43.4074C30.5242 44.4047 29.9835 45.3339 29.2709 46.0338C28.5582 46.7338 27.6804 47.2385 26.8131 47.7353L26.6781 47.9448C24.1356 45.0842 21.9039 41.7807 21.2 38.0228Z" fill="#F0F0F0"/>
<path d="M24.7408 27.7736C23.4467 30.6626 23.0981 33.885 23.7445 36.9829C23.8717 37.6523 24.104 38.2975 24.4327 38.8947C24.7718 39.4662 25.258 39.9367 25.841 40.2573C26.3785 40.5671 26.9644 40.8219 27.417 41.2567C27.6455 41.4827 27.8234 41.7543 27.9392 42.0537C28.055 42.3531 28.106 42.6735 28.089 42.9939C28.0673 43.7935 27.7589 44.5376 27.432 45.2548C27.0689 46.0512 26.6792 46.8726 26.7028 47.7679C26.7056 47.8764 26.5367 47.8744 26.5339 47.7661C26.4929 46.2084 27.6219 44.9575 27.8735 43.4628C27.9909 42.7654 27.8982 42.0284 27.4067 41.4878C26.9768 41.0151 26.373 40.7518 25.826 40.4428C25.2526 40.1383 24.7628 39.6985 24.3992 39.1617C24.0411 38.5831 23.7843 37.9479 23.6398 37.2833C23.2906 35.7923 23.1786 34.2559 23.3079 32.7302C23.4458 30.9882 23.8814 29.2825 24.5959 27.687C24.6402 27.5883 24.7848 27.6755 24.7408 27.7736Z" fill="white"/>
<path d="M23.4758 35.9977C22.94 36.0353 22.4083 35.8817 21.9755 35.5643C21.5428 35.247 21.2372 34.7865 21.1134 34.2651C21.0887 34.1596 21.252 34.1163 21.2767 34.222C21.3911 34.7077 21.6758 35.1366 22.0794 35.4313C22.483 35.7261 22.9789 35.8671 23.4776 35.8292C23.586 35.821 23.5836 35.9896 23.4758 35.9977Z" fill="white"/>
<path d="M25.5464 40.1358C26.2737 39.3153 26.6644 38.2516 26.6404 37.1566C26.6379 37.0481 26.8068 37.05 26.8093 37.1584C26.8321 38.2979 26.4234 39.4041 25.6646 40.2562C25.5922 40.3374 25.4744 40.2165 25.5464 40.1358Z" fill="white"/>
<path d="M23.6449 31.0925C23.8553 31.121 24.0694 31.097 24.2682 31.0225C24.4669 30.9481 24.644 30.8256 24.7836 30.666C24.8549 30.584 24.9726 30.7049 24.9018 30.7864C24.7467 30.962 24.551 31.0971 24.3316 31.1798C24.1122 31.2625 23.8758 31.2904 23.6431 31.2609C23.621 31.26 23.6 31.2507 23.5845 31.2349C23.569 31.2191 23.56 31.1979 23.5596 31.1758C23.5599 31.1535 23.5691 31.1322 23.5851 31.1166C23.601 31.101 23.6226 31.0923 23.6449 31.0925Z" fill="white"/>
<path d="M37.2792 30.8244C37.2361 30.8769 37.193 30.9294 37.1503 30.9832C36.575 31.692 36.0583 32.4461 35.6054 33.2383C35.5694 33.299 35.5338 33.3611 35.4997 33.4227C34.4289 35.3428 33.7248 37.4446 33.4233 39.6212C33.3041 40.4874 33.2511 41.3614 33.2648 42.2356C33.2839 43.443 33.4008 44.7505 33.0298 45.8609C32.9924 45.9772 32.9478 46.0911 32.8963 46.2019L26.9426 48.094C26.9269 48.0915 26.9116 48.0904 26.8958 48.0879L26.6616 48.1743C26.6577 48.1293 26.6547 48.0825 26.6508 48.0375C26.6485 48.0114 26.6474 47.9848 26.6451 47.9587C26.6439 47.9411 26.6429 47.9236 26.6408 47.9078C26.6404 47.902 26.6401 47.8961 26.6401 47.8916C26.638 47.8759 26.6378 47.861 26.6362 47.8466C26.6185 47.5851 26.6021 47.3231 26.5885 47.0603C26.5881 47.0589 26.5881 47.0589 26.589 47.0572C26.4868 45.0554 26.5513 43.0275 26.9222 41.0739C26.9334 41.0151 26.9441 40.955 26.958 40.8953C27.1301 40.0156 27.374 39.1515 27.6873 38.3114C27.8603 37.852 28.0565 37.4016 28.2752 36.9619C28.8424 35.827 29.585 34.7882 30.4759 33.8835C32.252 32.0803 34.5865 30.8637 37.088 30.8254C37.152 30.8245 37.2148 30.8239 37.2792 30.8244Z" fill="#F0F0F0"/>
<path d="M37.2917 30.904C34.5146 32.4336 32.2913 34.797 30.9375 37.6588C30.6351 38.2697 30.4311 38.9243 30.3331 39.5986C30.2589 40.2585 30.3632 40.9262 30.6351 41.5323C30.8773 42.1025 31.1913 42.6578 31.2903 43.2768C31.3362 43.5944 31.3144 43.9181 31.2261 44.2267C31.1379 44.5353 30.9852 44.8218 30.7782 45.0674C30.2783 45.6928 29.5829 46.1017 28.889 46.478C28.1185 46.8958 27.3115 47.3176 26.79 48.0466C26.7268 48.1349 26.5931 48.032 26.6562 47.9438C27.5636 46.6755 29.2201 46.3546 30.3232 45.3123C30.8378 44.826 31.2087 44.1819 31.1425 43.4551C31.0846 42.8195 30.7614 42.2466 30.5112 41.6713C30.2372 41.084 30.1115 40.4386 30.1452 39.7916C30.2085 39.1145 30.3869 38.4531 30.6726 37.8358C31.2938 36.4356 32.1317 35.1416 33.1558 34.0011C34.3174 32.6929 35.6947 31.5927 37.2282 30.7478C37.3231 30.6956 37.386 30.8521 37.2917 30.904Z" fill="white"/>
<path d="M31.3175 36.7112C30.867 36.4195 30.5351 35.9775 30.3812 35.4642C30.2272 34.9509 30.2612 34.3997 30.477 33.9091C30.521 33.81 30.6775 33.8735 30.6334 33.9728C30.4316 34.4293 30.4 34.9427 30.5444 35.4204C30.6887 35.8981 30.9995 36.3086 31.4206 36.5778C31.5121 36.6364 31.4085 36.7695 31.3175 36.7112Z" fill="white"/>
<path d="M30.4746 41.2583C31.5506 41.04 32.5045 40.4253 33.1463 39.5366C33.2098 39.4485 33.3435 39.5514 33.2801 39.6394C32.6105 40.563 31.6165 41.2007 30.4963 41.4254C30.3895 41.4467 30.3684 41.2795 30.4746 41.2583Z" fill="white"/>
<path d="M34.4118 32.8943C34.5625 33.0434 34.748 33.1529 34.9516 33.2128C35.1552 33.2727 35.3706 33.2813 35.5783 33.2377C35.6848 33.215 35.7058 33.3822 35.6 33.4047C35.3703 33.4519 35.1325 33.4421 34.9074 33.3764C34.6823 33.3107 34.4767 33.191 34.3087 33.0278C34.2915 33.0137 34.2804 32.9937 34.2776 32.9717C34.2747 32.9498 34.2804 32.9276 34.2933 32.9096C34.3071 32.892 34.3272 32.8805 34.3494 32.8777C34.3716 32.8748 34.394 32.8808 34.4118 32.8943Z" fill="white"/>
<path d="M46.634 10.2739C46.654 10.3613 46.667 10.4502 46.6729 10.5397L53.6534 14.5566L55.3501 13.5823L57.1588 15.9443L54.3232 17.9603C54.0941 18.1232 53.8183 18.2075 53.537 18.2007C53.2558 18.1939 52.9844 18.0962 52.7635 17.9224L45.5655 12.2581C45.2406 12.378 44.8869 12.3965 44.5513 12.311C44.2156 12.2255 43.9141 12.0401 43.6867 11.7795C43.4593 11.5188 43.3168 11.1953 43.2782 10.8519C43.2396 10.5086 43.3067 10.1616 43.4707 9.85724C43.6346 9.55286 43.8875 9.30546 44.1958 9.14797C44.5041 8.99048 44.8532 8.93035 45.1966 8.97558C45.54 9.02081 45.8615 9.16926 46.1183 9.40118C46.375 9.63309 46.5549 9.93748 46.634 10.2739Z" fill="#FFB6B6"/>
<path d="M53.7509 14.1135C53.7731 14.0111 53.8171 13.9146 53.88 13.8306C53.943 13.7467 54.0233 13.6773 54.1156 13.6272L57.3384 11.8756C57.7675 11.5525 58.3076 11.4124 58.8402 11.4859C59.3729 11.5595 59.8545 11.8407 60.1795 12.268C60.5045 12.6952 60.6464 13.2336 60.5741 13.7651C60.5017 14.2965 60.2211 14.7777 59.7936 15.103L57.2106 17.7204C57.1369 17.7951 57.0479 17.8531 56.9497 17.8904C56.8515 17.9276 56.7464 17.9434 56.6415 17.9365C56.5367 17.9296 56.4345 17.9003 56.3421 17.8505C56.2496 17.8007 56.169 17.7316 56.1057 17.6479L53.8819 14.7068C53.8185 14.6231 53.7741 14.5268 53.7515 14.4244C53.7289 14.322 53.7287 14.216 53.7509 14.1135Z" fill="#3F3D56"/>
<path d="M59.5077 3.93075C59.9714 2.4567 61.0259 1.10475 62.4841 0.606444C63.9425 0.108135 66.0779 0.867222 67.1743 1.95713C69.1797 3.95079 69.6691 10.7997 68.2913 12.9641C68.0172 12.9496 67.0716 12.9389 66.7942 12.9285L66.4018 11.624V12.9157C64.2368 12.8489 61.9829 12.8907 59.7277 12.9339C59.5256 11.4016 59.044 5.40481 59.5077 3.93075Z" fill="#2F2E41"/>
<path d="M58.8881 65.8036H56.9135L55.9741 58.2061L58.8885 58.2062L58.8881 65.8036Z" fill="#FFB6B6"/>
<path d="M76.1737 64.5784L74.2629 65.0751L71.4326 57.9596L74.2528 57.2266L76.1737 64.5784Z" fill="#FFB6B6"/>
<path d="M65.2914 19.1408L65.7389 20.3012L65.6493 21.4616L56.8926 24.487L57.3271 19.4086L58.3114 18.248L65.2914 19.1408Z" fill="#FFB6B6"/>
<path d="M62.5221 8.69749C64.2494 8.69749 65.6497 7.30073 65.6497 5.57775C65.6497 3.85476 64.2494 2.45801 62.5221 2.45801C60.7948 2.45801 59.3945 3.85476 59.3945 5.57775C59.3945 7.30073 60.7948 8.69749 62.5221 8.69749Z" fill="#FFB7B7"/>
<path d="M60.3739 1.5151C60.9748 1.14966 61.6632 0.951978 62.3669 0.942723C63.0707 0.933469 63.764 1.11298 64.3744 1.46249C64.9848 1.812 65.4898 2.31867 65.8367 2.92953C66.1836 3.54038 66.3596 4.23298 66.3463 4.9349C64.6415 5.36955 62.8247 5.55135 60.8994 5.03958L60.4593 3.96519L60.1999 5.04038C59.6109 5.45367 59.0424 5.45292 58.4944 5.03815C58.4712 4.3382 58.6325 3.64443 58.9623 3.02619C59.2921 2.40795 59.7789 1.88689 60.3739 1.5151Z" fill="#2F2E41"/>
<path d="M59.7704 69.5431H58.3692L58.1191 68.2235L57.4785 69.5431H53.7622C53.5841 69.5431 53.4106 69.4863 53.2671 69.381C53.1236 69.2757 53.0176 69.1274 52.9646 68.9578C52.9116 68.7881 52.9143 68.606 52.9724 68.4381C53.0305 68.2701 53.1409 68.125 53.2875 68.0241L56.2553 65.9796V64.6455L59.3768 64.8314L59.7704 69.5431Z" fill="#2F2E41"/>
<path d="M78.1453 67.9311L76.7894 68.2836L76.2137 67.0696L75.9275 68.5077L72.3313 69.4427C72.1589 69.4876 71.9767 69.4763 71.8112 69.4105C71.6458 69.3447 71.5057 69.2278 71.4115 69.077C71.3173 68.9262 71.2739 68.7493 71.2876 68.5721C71.3014 68.395 71.3715 68.2268 71.4879 68.0923L73.8427 65.3672L73.5053 64.0763L76.5729 63.4707L78.1453 67.9311Z" fill="#2F2E41"/>
<path d="M75.9291 59.8007L70.1409 47.934L68.3238 33.4908C69.5767 31.17 67.25 26.4476 67.25 26.4476V24.4648L58.2371 26.1609C56.3937 31.1762 55.4998 36.4893 55.6008 41.8301L55.9639 61.0292H55.85C55.661 61.0292 55.4797 61.1041 55.346 61.2374C55.2123 61.3708 55.1372 61.5516 55.1372 61.7402C55.1372 61.9288 55.2123 62.1096 55.346 62.243C55.4797 62.3763 55.661 62.4512 55.85 62.4512H59.4141C59.6031 62.4512 59.7844 62.3763 59.9181 62.243C60.0518 62.1096 60.1269 61.9288 60.1269 61.7402C60.1269 61.5516 60.0518 61.3708 59.9181 61.2374C59.7844 61.1041 59.6031 61.0292 59.4141 61.0292H59.3222L61.8808 36.6046L64.8558 48.6575L72.0451 59.7551C71.8618 59.7693 71.691 59.8539 71.5689 59.9911C71.4467 60.1282 71.3826 60.3073 71.3899 60.4906C71.3973 60.674 71.4756 60.8473 71.6084 60.9742C71.7413 61.1012 71.9182 61.1718 72.1022 61.1714H75.6662C75.832 61.1716 75.9926 61.114 76.1204 61.0087C76.2482 60.9034 76.3352 60.757 76.3664 60.5946C76.3975 60.4322 76.3709 60.264 76.2911 60.1191C76.2112 59.9742 76.0832 59.8616 75.9291 59.8007Z" fill="#2F2E41"/>
<path d="M68.0673 27.6632C68.0376 27.5472 67.972 27.4435 67.8796 27.367C67.7873 27.2905 67.6731 27.2451 67.5533 27.2373C67.4345 25.8825 66.6495 17.1936 66.6197 16.9387L66.6185 16.9279L66.3912 12.0847C66.383 11.9088 66.31 11.7421 66.1864 11.6165C66.0627 11.4908 65.897 11.415 65.7208 11.4035L64.5203 11.3252C64.5039 11.3247 64.4882 11.3178 64.4768 11.3059C64.4653 11.2941 64.4589 11.2783 64.4589 11.2619C64.4589 11.1297 64.4328 10.9987 64.3821 10.8765C64.3314 10.7544 64.257 10.6433 64.1633 10.5498C64.0695 10.4563 63.9582 10.3821 63.8357 10.3315C63.7132 10.2809 63.582 10.2549 63.4494 10.2549H59.8952C59.6649 10.255 59.4427 10.3389 59.2701 10.4908C59.0975 10.6428 58.9864 10.8524 58.9577 11.0802C58.9561 11.0959 58.9487 11.1104 58.9368 11.1209C58.925 11.1313 58.9096 11.1369 58.8938 11.1365L58.8934 11.1365C58.4896 11.1282 58.0961 11.2646 57.7844 11.521C57.4728 11.7773 57.2635 12.1366 57.1947 12.5336C56.7088 15.3537 55.735 21.7542 56.2165 25.3124C56.3841 26.5512 56.3079 28.4142 56.2445 29.4506C56.2382 29.5507 56.2518 29.6512 56.2845 29.7461C56.3171 29.841 56.3683 29.9285 56.4349 30.0037C56.2932 30.0445 56.1728 30.1385 56.0993 30.2661C56.0257 30.3936 56.0047 30.5447 56.0405 30.6874C56.0775 30.8337 56.1712 30.9593 56.3011 31.0367C56.4309 31.114 56.5862 31.1368 56.7329 31.0999L67.6537 28.3538C67.8003 28.3169 67.9263 28.2235 68.0039 28.0939C68.0814 27.9644 68.1042 27.8095 68.0673 27.6632Z" fill="#3F3D56"/>
<path d="M50.0162 48.0251C50.0142 47.707 49.8993 47.4 49.692 47.1584C49.4847 46.9168 49.1982 46.7562 48.8835 46.7052L29.5214 43.5337C29.3358 43.503 29.1457 43.5115 28.9635 43.5584L24.4259 44.7288L21.8224 45.4011L17.0176 46.64C16.7276 46.7151 16.4707 46.8842 16.2874 47.1206C16.104 47.357 16.0045 47.6475 16.0044 47.9464V68.1842C16.0058 68.4927 16.1127 68.7915 16.3074 69.0313C16.5021 69.271 16.7729 69.4374 17.0751 69.5029L36.7967 69.2801C36.8893 69.3 36.9838 69.3098 37.0785 69.3094C37.2165 69.3096 37.3537 69.2888 37.4854 69.2475L49.2025 69.5384C49.479 69.4523 49.7203 69.2796 49.8907 69.0459C50.061 68.8122 50.1513 68.5299 50.1481 68.241L50.0162 48.0251Z" fill="white"/>
<path d="M50.0162 48.0251C50.0142 47.707 49.8993 47.4 49.692 47.1584C49.4847 46.9168 49.1982 46.7562 48.8835 46.7052L29.5214 43.5337C29.3358 43.503 29.1457 43.5115 28.9635 43.5584L24.4259 44.7288L21.8224 45.4011L17.0176 46.64C16.7276 46.7151 16.4707 46.8842 16.2874 47.1206C16.104 47.357 16.0045 47.6475 16.0044 47.9464V68.1842C16.0058 68.4927 16.1127 68.7915 16.3074 69.0313C16.5021 69.271 16.7729 69.4374 17.0751 69.5029L36.7967 69.2801C36.8893 69.3 36.9838 69.3098 37.0785 69.3094C37.2165 69.3096 37.3537 69.2888 37.4854 69.2475L49.2025 69.5384C49.479 69.4523 49.7203 69.2796 49.8907 69.0459C50.061 68.8122 50.1513 68.5299 50.1481 68.241L50.0162 48.0251ZM49.1011 69.2168L37.3839 69.4948C37.2168 69.5468 37.0391 69.5553 36.8677 69.5196L17.145 69.1735C16.9184 69.1242 16.7154 68.9994 16.5695 68.8195C16.4236 68.6396 16.3435 68.4155 16.3425 68.1842V47.9464C16.3427 47.7392 16.4065 47.537 16.5254 47.3672C16.6443 47.1973 16.8126 47.0679 17.0075 46.9964C17.0385 46.9848 17.0701 46.975 17.1022 46.9671L22.1853 45.6563L25.1912 44.8805L29.0481 43.8856C29.1308 43.8636 29.2161 43.8526 29.3017 43.853C29.3568 43.853 29.4118 43.8575 29.4662 43.8665L48.8283 47.038C48.9841 47.0635 49.1318 47.1248 49.2598 47.2171C49.3877 47.3094 49.4923 47.4301 49.5654 47.5698C49.6385 47.7113 49.6772 47.8681 49.6781 48.0273L49.81 68.2432C49.8124 68.46 49.7448 68.6717 49.6171 68.8471C49.4894 69.0225 49.3084 69.1521 49.1011 69.2168Z" fill="#CCCCCC"/>
<path d="M49.5641 47.5691C49.551 47.5777 49.5365 47.5842 49.5213 47.5882L43.8262 49.124L42.0533 49.6018L37.0107 50.961C36.9963 50.9645 36.9816 50.9664 36.9668 50.9666C36.9566 50.9664 36.9464 50.9657 36.9363 50.9643L16.6038 47.2667L16.5362 47.2543C16.4922 47.2461 16.4532 47.2207 16.4278 47.1839C16.4024 47.1471 16.3927 47.1017 16.4007 47.0577C16.4087 47.0137 16.4339 46.9747 16.4707 46.9492C16.5075 46.9237 16.5529 46.9137 16.5971 46.9215L17.0062 46.9957L36.96 50.6248L41.306 49.4534L43.7371 48.7979L49.3443 47.2858L49.4334 47.2622C49.4719 47.2521 49.5127 47.2557 49.5488 47.2726C49.5848 47.2894 49.6138 47.3184 49.6306 47.3544C49.635 47.363 49.6384 47.372 49.6408 47.3814C49.65 47.4167 49.6476 47.4541 49.6338 47.488C49.62 47.5218 49.5955 47.5503 49.5641 47.5691Z" fill="#CCCCCC"/>
<path d="M37.1374 69.3486C37.0448 69.3486 36.9693 69.2742 36.9684 69.7504L36.7993 51.3689C36.7984 50.707 36.8735 50.6308 36.9668 50.6299H36.9684C37.0611 50.6299 37.1366 50.7043 37.1374 51.3658L37.3065 69.7473C37.3074 69.2716 37.2323 69.3478 37.139 69.3486H37.1374Z" fill="#CCCCCC"/>
<path d="M43.8772 69.5618L42.0564 69.581L41.3091 49.4537L22.2424 45.6695C22.2237 45.6662 22.2052 45.6617 22.1871 45.656C22.0407 45.6144 21.9127 45.5244 21.8242 45.4008L24.4278 44.7285L25.1931 44.8803L43.2849 48.47C43.3801 48.4888 43.47 48.5278 43.5486 48.5845C43.6272 48.6411 43.6926 48.7141 43.7403 48.7983C43.7966 48.8961 43.8761 69.4449 43.8772 69.5618Z" fill="#CCCCCC"/>
<path d="M58.4622 11.1857C58.4607 10.946 58.3741 10.7146 58.2179 10.5325C58.0616 10.3504 57.8457 10.2294 57.6086 10.1909L43.0163 7.80073C42.8763 7.77762 42.7331 7.78397 42.5958 7.81937L39.176 8.7014L37.2138 9.20808L33.5927 10.1418C33.3741 10.1984 33.1806 10.3258 33.0424 10.504C32.9042 10.6822 32.8292 10.9011 32.8291 11.1264V23.0563C32.8302 23.2888 32.9107 23.514 33.0575 23.6947C33.2042 23.8754 33.4083 24.0008 33.6361 24.0501L48.4993 27.2046C48.5691 27.2196 48.6403 27.227 48.7117 27.2267C48.8157 27.2268 48.9191 27.2111 49.0183 27.1801L57.849 24.3984C58.0574 24.3335 58.2392 24.2034 58.3676 24.0272C58.496 23.8511 58.564 23.6384 58.5616 23.4206L58.4622 11.1857Z" fill="white"/>
<path d="M42.8488 8.67578C42.8381 8.67577 42.8275 8.67713 42.8172 8.67984L33.8141 11.0023C33.7868 11.0093 33.7626 11.0252 33.7454 11.0475C33.7281 11.0697 33.7188 11.097 33.7188 11.1252V23.0549C33.7189 23.0839 33.7289 23.1121 33.7472 23.1347C33.7655 23.1573 33.791 23.1729 33.8195 23.1791L48.6828 26.3335C48.7043 26.338 48.7266 26.337 48.7476 26.3304L57.5784 23.5488C57.6044 23.5407 57.6271 23.5244 57.6432 23.5024C57.6592 23.4804 57.6676 23.4538 57.6673 23.4267L57.5683 11.1918C57.5681 11.1618 57.5573 11.1329 57.5377 11.1102C57.5182 11.0875 57.4912 11.0724 57.4616 11.0676L42.8694 8.67743C42.8626 8.67635 42.8557 8.6758 42.8488 8.67578Z" fill="#F9A826"/>
<path d="M58.4622 11.1857C58.4607 10.946 58.3741 10.7146 58.2179 10.5325C58.0616 10.3504 57.8457 10.2294 57.6086 10.1909L43.0163 7.80073C42.8763 7.77762 42.7331 7.78397 42.5958 7.81937L39.176 8.7014L37.2138 9.20808L33.5927 10.1418C33.3741 10.1984 33.1806 10.3258 33.0424 10.504C32.9042 10.6822 32.8292 10.9011 32.8291 11.1264V23.0563C32.8302 23.2888 32.9107 23.514 33.0575 23.6947C33.2042 23.8754 33.4083 24.0008 33.6361 24.0501L48.4993 27.2046C48.5691 27.2196 48.6403 27.227 48.7117 27.2267C48.8157 27.2268 48.9191 27.2111 49.0183 27.1801L57.849 24.3984C58.0574 24.3335 58.2392 24.2034 58.3676 24.0272C58.496 23.8511 58.564 23.6384 58.5616 23.4206L58.4622 11.1857ZM57.7725 24.1561L48.9419 26.9377C48.8159 26.9769 48.682 26.9833 48.5528 26.9564L33.6887 23.8019C33.5179 23.7647 33.3649 23.6706 33.255 23.5351C33.145 23.3995 33.0847 23.2306 33.0839 23.0563V11.1264C33.084 10.9702 33.1321 10.8179 33.2218 10.6899C33.3114 10.5618 33.4382 10.4643 33.5851 10.4104C33.6084 10.4017 33.6322 10.3943 33.6564 10.3884L37.4874 9.40043L39.7528 8.81579L42.6595 8.06594C42.7218 8.04934 42.7861 8.04108 42.8506 8.04136C42.8922 8.04134 42.9337 8.04474 42.9746 8.05153L57.5669 10.4418C57.6844 10.461 57.7957 10.5072 57.8921 10.5767C57.9885 10.6463 58.0674 10.7373 58.1225 10.8425C58.1776 10.9492 58.2067 11.0674 58.2074 11.1874L58.3068 23.4223C58.3086 23.5857 58.2577 23.7452 58.1614 23.8774C58.0652 24.0096 57.9288 24.1073 57.7725 24.1561Z" fill="#3F3D56"/>
<path d="M58.1199 10.8416C58.11 10.8481 58.0991 10.8529 58.0876 10.856L53.7955 12.0134L52.4593 12.3735L48.659 13.3979C48.6482 13.4005 48.6371 13.4019 48.6259 13.4021C48.6182 13.402 48.6106 13.4014 48.6029 13.4004L33.2793 10.6136L33.2283 10.6043C33.1951 10.5981 33.1657 10.5791 33.1465 10.5513C33.1274 10.5235 33.12 10.4893 33.1261 10.4562C33.1322 10.423 33.1512 10.3936 33.1789 10.3743C33.2067 10.3551 33.2409 10.3476 33.2742 10.3535L33.5825 10.4095L48.6208 13.1445L51.8962 12.2616L53.7284 11.7677L57.9543 10.6281L58.0214 10.6103C58.0504 10.6026 58.0812 10.6054 58.1083 10.6181C58.1355 10.6308 58.1573 10.6526 58.17 10.6797C58.1733 10.6862 58.1759 10.693 58.1777 10.7001C58.1847 10.7267 58.1828 10.7549 58.1724 10.7804C58.162 10.8059 58.1436 10.8274 58.1199 10.8416Z" fill="#3F3D56"/>
<path d="M48.7558 27.2559C48.7222 27.2559 48.69 27.2427 48.6661 27.2191C48.6423 27.1955 48.6287 27.1635 48.6284 27.13L48.501 13.2767C48.5007 13.243 48.5138 13.2105 48.5375 13.1865C48.5612 13.1624 48.5934 13.1488 48.6272 13.1484H48.6284C48.662 13.1484 48.6942 13.1617 48.7181 13.1853C48.7419 13.2088 48.7555 13.2409 48.7558 13.2744L48.8832 27.1276C48.8835 27.1614 48.8704 27.1938 48.8467 27.2178C48.823 27.2419 48.7908 27.2556 48.757 27.2559H48.7558Z" fill="#3F3D56"/>
<path d="M53.7976 25.5698L52.4614 25.9299L51.8983 12.2614L37.5285 9.40938C37.5145 9.40689 37.5005 9.40349 37.4869 9.39921C37.3765 9.36785 37.2801 9.30004 37.2134 9.20687L39.1756 8.7002L39.7523 8.81458L53.3873 11.52C53.459 11.5341 53.5268 11.5635 53.586 11.6062C53.6453 11.6489 53.6945 11.7039 53.7305 11.7674C53.773 11.8411 53.7967 25.4817 53.7976 25.5698Z" fill="#3F3D56"/>
<path d="M53.1974 17.7773C53.2657 17.8356 53.3293 17.8992 53.3877 17.9675L61.392 17.035L62.1705 15.2432L65.035 16.0616L63.966 19.3673C63.8796 19.6344 63.7087 19.8663 63.479 20.0282C63.2492 20.1901 62.973 20.2734 62.6918 20.2654L53.5272 20.0055C53.3383 20.2951 53.0655 20.5205 52.745 20.6517C52.4246 20.7829 52.0717 20.8137 51.7333 20.74C51.3949 20.6662 51.087 20.4914 50.8506 20.2389C50.6142 19.9864 50.4605 19.668 50.4099 19.3262C50.3593 18.9844 50.4142 18.6353 50.5674 18.3254C50.7205 18.0155 50.9647 17.7594 51.2673 17.5913C51.5699 17.4231 51.9166 17.3509 52.2614 17.3841C52.6062 17.4173 52.9327 17.5545 53.1974 17.7773Z" fill="#FFB6B6"/>
<path d="M61.2034 16.6212C61.1598 16.5258 61.1374 16.4222 61.1377 16.3173C61.138 16.2125 61.1609 16.109 61.205 16.0138L62.7429 12.6899C62.894 12.1752 63.2435 11.7413 63.7148 11.4832C64.1862 11.2252 64.7409 11.1642 65.2573 11.3135C65.7737 11.4628 66.2096 11.8103 66.4696 12.2798C66.7295 12.7492 66.7922 13.3024 66.6439 13.8179L66.1374 17.4557C66.1229 17.5595 66.0862 17.659 66.0297 17.7474C65.9732 17.8358 65.8983 17.911 65.8101 17.9679C65.7218 18.0248 65.6223 18.062 65.5183 18.0771C65.4143 18.0922 65.3083 18.0847 65.2075 18.0553L61.6634 17.0192C61.5625 16.9898 61.4692 16.939 61.3898 16.8703C61.3104 16.8016 61.2468 16.7166 61.2034 16.6212Z" fill="#3F3D56"/>
<path d="M88.0542 69.7088H0.193668C0.148734 69.7086 0.105683 69.6907 0.0739551 69.659C0.0422275 69.6272 0.0244141 69.5843 0.0244141 69.5394C0.0244141 69.4946 0.0422275 69.4516 0.0739551 69.4199C0.105683 69.3881 0.148734 69.3702 0.193668 69.3701H88.0542C88.0992 69.3701 88.1424 69.388 88.1742 69.4197C88.206 69.4515 88.2239 69.4945 88.2239 69.5394C88.2239 69.5843 88.206 69.6274 88.1742 69.6592C88.1424 69.6909 88.0992 69.7088 88.0542 69.7088Z" fill="#CACACA"/>
<path d="M17.1473 51.7182C19.9669 51.7182 22.2526 49.4382 22.2526 46.6257C22.2526 43.8132 19.9669 41.5332 17.1473 41.5332C14.3277 41.5332 12.042 43.8132 12.042 46.6257C12.042 49.4382 14.3277 51.7182 17.1473 51.7182Z" fill="#F9A826"/>
<path d="M16.4514 49.276C16.3632 49.276 16.2763 49.2555 16.1974 49.2162C16.1186 49.1769 16.05 49.1197 15.9971 49.0494L14.6043 47.1969C14.5139 47.0767 14.4751 46.9257 14.4964 46.7769C14.5177 46.6282 14.5974 46.494 14.7179 46.4039C14.8384 46.3138 14.9898 46.2751 15.1389 46.2963C15.288 46.3176 15.4226 46.397 15.5129 46.5172L16.4241 47.729L18.7645 44.2274C18.8058 44.1652 18.8589 44.1118 18.9209 44.0702C18.9829 44.0285 19.0525 43.9995 19.1258 43.9848C19.199 43.9701 19.2745 43.9699 19.3478 43.9843C19.4211 43.9987 19.4909 44.0274 19.553 44.0688C19.6152 44.1101 19.6686 44.1633 19.7101 44.2253C19.7517 44.2872 19.7805 44.3568 19.7951 44.4299C19.8096 44.503 19.8095 44.5783 19.7949 44.6513C19.7802 44.7244 19.7512 44.7939 19.7095 44.8558L16.9239 49.0237C16.8736 49.0991 16.8058 49.1614 16.7263 49.2052C16.6468 49.2491 16.558 49.2733 16.4672 49.2758C16.4619 49.2759 16.4566 49.276 16.4514 49.276Z" fill="white"/>
<path d="M38.8851 19.5764C38.8692 19.5764 38.8534 19.5746 38.8379 19.5711L34.4185 18.5757C34.3632 18.5631 34.3152 18.5293 34.285 18.4815C34.2547 18.4337 34.2447 18.3758 34.2572 18.3207C34.2697 18.2655 34.3036 18.2176 34.3515 18.1874C34.3993 18.1571 34.4573 18.1471 34.5126 18.1595L38.932 19.1549C38.9833 19.1665 39.0286 19.1965 39.0591 19.2392C39.0896 19.2819 39.1033 19.3344 39.0975 19.3866C39.0917 19.4387 39.0668 19.4869 39.0276 19.5219C38.9885 19.5569 38.9377 19.5763 38.8851 19.5764Z" fill="white"/>
<path d="M21.8785 59.6409C21.863 59.6441 21.8471 59.6456 21.8313 59.6453L17.3012 59.5692C17.2445 59.5681 17.1906 59.5447 17.1513 59.5041C17.112 59.4634 17.0904 59.4089 17.0913 59.3524C17.0923 59.2959 17.1157 59.242 17.1563 59.2027C17.197 59.1634 17.2516 59.1418 17.3083 59.1426L21.8384 59.2187C21.8909 59.2196 21.9414 59.2398 21.98 59.2754C22.0186 59.311 22.0427 59.3596 22.0477 59.4119C22.0526 59.4641 22.0381 59.5163 22.0069 59.5586C21.9757 59.6008 21.93 59.6301 21.8785 59.6409Z" fill="#E6E6E6"/>
<path d="M23.4454 62.0588C23.4299 62.062 23.414 62.0635 23.3981 62.0633L18.8681 61.9872C18.8114 61.9861 18.7575 61.9627 18.7182 61.922C18.6789 61.8814 18.6573 61.8268 18.6582 61.7703C18.6592 61.7138 18.6825 61.66 18.7232 61.6207C18.7639 61.5814 18.8185 61.5597 18.8752 61.5606L23.4052 61.6367C23.4578 61.6376 23.5083 61.6577 23.5469 61.6934C23.5855 61.729 23.6096 61.7776 23.6145 61.8298C23.6195 61.8821 23.605 61.9343 23.5738 61.9765C23.5426 62.0188 23.4969 62.0481 23.4454 62.0588Z" fill="#E6E6E6"/>
</g>
<defs>
<clipPath id="clip0_6275_1143">
<rect width="88.2" height="69.3" fill="white" transform="translate(0.0244141 0.450195)"/>
</clipPath>
</defs>
</svg>
