<svg width="95" height="68" viewBox="0 0 95 68" fill="none" xmlns="http://www.w3.org/2000/svg">
<g clip-path="url(#clip0_6275_827)">
<path d="M60.4452 50.9277V67.1269H19.0762C14.3627 67.1269 10.5278 63.4933 10.5278 59.0273C10.5278 54.5613 14.3627 50.9277 19.0762 50.9277H60.4452Z" fill="#F2F2F2"/>
<path d="M61.4603 67.0021C61.4602 67.1673 61.3933 67.3258 61.2742 67.4426C61.1551 67.5594 60.9936 67.6251 60.8252 67.6252H18.3383C16.0308 67.6252 13.8177 66.7259 12.186 65.1251C10.5544 63.5244 9.6377 61.3533 9.6377 59.0894C9.6377 56.8256 10.5544 54.6545 12.186 53.0538C13.8177 51.453 16.0308 50.5537 18.3383 50.5537H60.8252C60.9936 50.5537 61.1552 50.6194 61.2743 50.7362C61.3934 50.853 61.4603 51.0115 61.4603 51.1768C61.4603 51.342 61.3934 51.5005 61.2743 51.6173C61.1552 51.7342 60.9936 51.7998 60.8252 51.7998H18.3383C16.3676 51.7998 14.4777 52.5678 13.0842 53.9349C11.6907 55.302 10.9079 57.1561 10.9079 59.0894C10.9079 61.0228 11.6907 62.8769 13.0842 64.244C14.4777 65.6111 16.3676 66.3791 18.3383 66.3791H60.8252C60.9936 66.3791 61.1551 66.4448 61.2742 66.5616C61.3933 66.6785 61.4602 66.8369 61.4603 67.0021Z" fill="#EC9611"/>
<path d="M60.4469 54.6662H15.9913C15.9576 54.6662 15.9253 54.6531 15.9015 54.6297C15.8776 54.6063 15.8643 54.5746 15.8643 54.5416C15.8643 54.5086 15.8776 54.4769 15.9015 54.4535C15.9253 54.4301 15.9576 54.417 15.9913 54.417H60.4469C60.4806 54.417 60.5129 54.4301 60.5367 54.4535C60.5605 54.4769 60.5739 54.5086 60.5739 54.5416C60.5739 54.5746 60.5605 54.6063 60.5367 54.6297C60.5129 54.6531 60.4806 54.6662 60.4469 54.6662Z" fill="#CCCCCC"/>
<path d="M60.4469 57.6574H15.9913C15.9576 57.6574 15.9253 57.6443 15.9015 57.6209C15.8776 57.5976 15.8643 57.5659 15.8643 57.5328C15.8643 57.4998 15.8776 57.4681 15.9015 57.4447C15.9253 57.4213 15.9576 57.4082 15.9913 57.4082H60.4469C60.4806 57.4082 60.5129 57.4213 60.5367 57.4447C60.5605 57.4681 60.5739 57.4998 60.5739 57.5328C60.5739 57.5659 60.5605 57.5976 60.5367 57.6209C60.5129 57.6443 60.4806 57.6574 60.4469 57.6574Z" fill="#CCCCCC"/>
<path d="M60.4469 60.6467H15.9913C15.9576 60.6467 15.9253 60.6335 15.9015 60.6102C15.8776 60.5868 15.8643 60.5551 15.8643 60.5221C15.8643 60.489 15.8776 60.4573 15.9015 60.434C15.9253 60.4106 15.9576 60.3975 15.9913 60.3975H60.4469C60.4806 60.3975 60.5129 60.4106 60.5367 60.434C60.5605 60.4573 60.5739 60.489 60.5739 60.5221C60.5739 60.5551 60.5605 60.5868 60.5367 60.6102C60.5129 60.6335 60.4806 60.6467 60.4469 60.6467Z" fill="#CCCCCC"/>
<path d="M60.4469 63.6379H15.9913C15.9576 63.6379 15.9253 63.6248 15.9015 63.6014C15.8776 63.578 15.8643 63.5463 15.8643 63.5133C15.8643 63.4802 15.8776 63.4485 15.9015 63.4252C15.9253 63.4018 15.9576 63.3887 15.9913 63.3887H60.4469C60.4806 63.3887 60.5129 63.4018 60.5367 63.4252C60.5605 63.4485 60.5739 63.4802 60.5739 63.5133C60.5739 63.5463 60.5605 63.578 60.5367 63.6014C60.5129 63.6248 60.4806 63.6379 60.4469 63.6379Z" fill="#CCCCCC"/>
<path d="M92.4171 53.9774L82.057 66.5913L49.8438 41.1274C46.1736 38.2262 45.5112 33.0363 48.3674 29.5587C51.2236 26.0811 56.5336 25.6122 60.2039 28.5134L92.4171 53.9774Z" fill="#F2F2F2"/>
<path d="M82.9293 67.119C82.8236 67.2477 82.6702 67.3298 82.5027 67.3475C82.3353 67.3652 82.1675 67.3169 82.0363 67.2133L48.9526 41.0613C47.1558 39.6409 46.0077 37.5784 45.7609 35.3276C45.5141 33.0768 46.1888 30.822 47.6366 29.0592C49.0844 27.2964 51.1867 26.17 53.481 25.9279C55.7753 25.6858 58.0737 26.3477 59.8705 27.7681L92.9542 53.9201C93.0192 53.9714 93.0733 54.0348 93.1133 54.1066C93.1533 54.1784 93.1785 54.2573 93.1875 54.3386C93.1964 54.42 93.1889 54.5023 93.1654 54.5809C93.1419 54.6594 93.1029 54.7326 93.0506 54.7964C92.9982 54.8601 92.9336 54.9131 92.8604 54.9523C92.7871 54.9915 92.7067 55.0162 92.6238 55.025C92.5408 55.0337 92.4569 55.0263 92.3769 55.0032C92.2968 54.9801 92.2222 54.9418 92.1573 54.8904L59.0736 28.7384C58.3138 28.1373 57.4408 27.689 56.5044 27.419C55.5679 27.149 54.5865 27.0627 53.616 27.1649C52.6456 27.2671 51.7052 27.5559 50.8485 28.0148C49.9919 28.4736 49.2357 29.0936 48.6234 29.8392C48.011 30.5848 47.5543 31.4415 47.2795 32.3603C47.0047 33.279 46.917 34.242 47.0216 35.194C47.1262 36.146 47.421 37.0685 47.889 37.9087C48.3571 38.7489 48.9893 39.4905 49.7496 40.091L82.8333 66.243C82.9644 66.3467 83.0481 66.4972 83.0661 66.6615C83.0841 66.8258 83.0349 66.9903 82.9293 67.119Z" fill="#CCCCCC"/>
<path d="M90.0264 56.8882L55.4096 29.5244C55.3966 29.5141 55.3858 29.5014 55.3778 29.4871C55.3699 29.4727 55.3648 29.4569 55.363 29.4407C55.3612 29.4244 55.3628 29.4079 55.3675 29.3922C55.3721 29.3765 55.3799 29.3619 55.3904 29.3492C55.4009 29.3364 55.4138 29.3258 55.4284 29.318C55.4431 29.3101 55.4592 29.3052 55.4757 29.3034C55.4923 29.3017 55.5091 29.3032 55.5251 29.3078C55.5411 29.3124 55.556 29.32 55.569 29.3303L90.1857 56.6942C90.1988 56.7044 90.2096 56.7171 90.2176 56.7315C90.2256 56.7458 90.2307 56.7616 90.2324 56.7779C90.2342 56.7942 90.2328 56.8106 90.2281 56.8264C90.2234 56.8421 90.2155 56.8567 90.2051 56.8695C90.1946 56.8822 90.1817 56.8928 90.167 56.9007C90.1524 56.9085 90.1363 56.9135 90.1197 56.9152C90.1031 56.9169 90.0863 56.9154 90.0703 56.9108C90.0543 56.9062 90.0393 56.8985 90.0264 56.8882Z" fill="#CCCCCC"/>
<path d="M88.1146 59.2172L53.4979 31.8534C53.4717 31.8326 53.455 31.8025 53.4514 31.7697C53.4478 31.7369 53.4577 31.704 53.4788 31.6783C53.4999 31.6525 53.5306 31.6361 53.564 31.6326C53.5975 31.629 53.631 31.6386 53.6573 31.6593L88.274 59.0232C88.287 59.0334 88.2978 59.0461 88.3058 59.0605C88.3139 59.0748 88.3189 59.0906 88.3207 59.1069C88.3225 59.1232 88.321 59.1396 88.3163 59.1554C88.3116 59.1711 88.3038 59.1857 88.2933 59.1985C88.2829 59.2112 88.2699 59.2218 88.2553 59.2297C88.2406 59.2375 88.2245 59.2425 88.2079 59.2442C88.1913 59.2459 88.1746 59.2444 88.1585 59.2398C88.1425 59.2352 88.1276 59.2275 88.1146 59.2172Z" fill="#CCCCCC"/>
<path d="M86.1992 61.5455L51.5825 34.1816C51.5563 34.1609 51.5395 34.1308 51.5359 34.0979C51.5323 34.065 51.5421 34.0321 51.5633 34.0064C51.5844 33.9807 51.6151 33.9642 51.6486 33.9607C51.6821 33.9571 51.7156 33.9668 51.7419 33.9875L86.3586 61.3514C86.3716 61.3617 86.3824 61.3743 86.3904 61.3887C86.3984 61.4031 86.4034 61.4188 86.4052 61.4351C86.407 61.4514 86.4055 61.4678 86.4008 61.4835C86.3961 61.4992 86.3883 61.5139 86.3778 61.5266C86.3673 61.5393 86.3544 61.5499 86.3398 61.5578C86.3251 61.5656 86.3091 61.5706 86.2925 61.5723C86.2759 61.5741 86.2591 61.5726 86.2431 61.568C86.2271 61.5634 86.2122 61.5557 86.1992 61.5455Z" fill="#CCCCCC"/>
<path d="M84.2881 63.8745L49.6714 36.5107C49.6584 36.5004 49.6476 36.4878 49.6396 36.4734C49.6316 36.459 49.6265 36.4433 49.6248 36.427C49.623 36.4107 49.6245 36.3943 49.6292 36.3786C49.6339 36.3629 49.6417 36.3482 49.6521 36.3355C49.6626 36.3227 49.6755 36.3122 49.6902 36.3043C49.7048 36.2965 49.7209 36.2915 49.7375 36.2898C49.754 36.288 49.7708 36.2895 49.7868 36.2941C49.8028 36.2987 49.8177 36.3064 49.8307 36.3166L84.4475 63.6805C84.4605 63.6907 84.4713 63.7034 84.4793 63.7178C84.4873 63.7321 84.4924 63.7479 84.4942 63.7642C84.496 63.7805 84.4945 63.797 84.4898 63.8127C84.4851 63.8284 84.4773 63.843 84.4668 63.8558C84.4563 63.8685 84.4434 63.8791 84.4287 63.887C84.4141 63.8948 84.398 63.8998 84.3814 63.9015C84.3648 63.9033 84.348 63.9018 84.332 63.8971C84.316 63.8925 84.3011 63.8848 84.2881 63.8745Z" fill="#CCCCCC"/>
<path d="M94.5976 67.7502H0.351625C0.317939 67.7502 0.285632 67.7371 0.261811 67.7137C0.237991 67.6903 0.224609 67.6586 0.224609 67.6256C0.224609 67.5925 0.237991 67.5608 0.261811 67.5375C0.285632 67.5141 0.317939 67.501 0.351625 67.501H94.5976C94.6313 67.501 94.6636 67.5141 94.6874 67.5375C94.7112 67.5608 94.7246 67.5925 94.7246 67.6256C94.7246 67.6586 94.7112 67.6903 94.6874 67.7137C94.6636 67.7371 94.6313 67.7502 94.5976 67.7502Z" fill="#CCCCCC"/>
<path d="M43.1656 49.2254L41.7135 49.2252L41.0229 43.7305L43.1661 43.7307L43.1656 49.2254Z" fill="#FFB8B8"/>
<path d="M40.6783 48.8184H43.4787V50.5482H38.915C38.915 50.321 38.9606 50.0961 39.0493 49.8862C39.1379 49.6763 39.2677 49.4856 39.4315 49.325C39.5952 49.1644 39.7896 49.037 40.0035 48.95C40.2174 48.8631 40.4467 48.8184 40.6783 48.8184Z" fill="#2F2E41"/>
<path d="M28.3301 49.2254L26.8781 49.2252L26.1875 43.7305L28.3306 43.7307L28.3301 49.2254Z" fill="#FFB8B8"/>
<path d="M25.8428 48.8184H28.6432V50.5482H24.0796C24.0796 50.321 24.1252 50.0961 24.2138 49.8862C24.3024 49.6763 24.4323 49.4856 24.596 49.325C24.7598 49.1644 24.9541 49.037 25.1681 48.95C25.382 48.8631 25.6113 48.8184 25.8428 48.8184Z" fill="#2F2E41"/>
<path d="M33.1807 8.4669V7.84384C33.1807 6.77803 33.6122 5.75587 34.3804 5.00223C35.1486 4.24859 36.1905 3.8252 37.2769 3.8252C38.3633 3.8252 39.4052 4.24859 40.1734 5.00223C40.9416 5.75587 41.3732 6.77803 41.3732 7.84384V8.4669C41.3732 9.23527 41.0621 9.97218 40.5083 10.5155C39.9544 11.0588 39.2033 11.3641 38.4201 11.3641H36.1338C35.746 11.3641 35.362 11.2891 35.0037 11.1435C34.6454 10.9979 34.3198 10.7845 34.0456 10.5155C33.7714 10.2465 33.5539 9.92709 33.4055 9.57559C33.257 9.22409 33.1807 8.84736 33.1807 8.4669Z" fill="#2F2E41"/>
<path d="M37.2769 11.5781C38.9998 11.5781 40.3965 10.2078 40.3965 8.51756C40.3965 6.82728 38.9998 5.45703 37.2769 5.45703C35.5539 5.45703 34.1572 6.82728 34.1572 8.51756C34.1572 10.2078 35.5539 11.5781 37.2769 11.5781Z" fill="#FFB8B8"/>
<path d="M20.3097 19.0367C20.4363 18.9194 20.5876 18.8308 20.7529 18.7771C20.9181 18.7233 21.0934 18.7058 21.2664 18.7258C21.4393 18.7457 21.6057 18.8026 21.7538 18.8924C21.9019 18.9822 22.0281 19.1028 22.1235 19.2457L24.7978 18.7494L25.5016 20.2702L21.715 20.919C21.4597 21.0604 21.1604 21.105 20.8738 21.0444C20.5873 20.9838 20.3333 20.8222 20.1601 20.5902C19.9869 20.3582 19.9064 20.0719 19.934 19.7855C19.9616 19.4992 20.0953 19.2328 20.3097 19.0367Z" fill="#FFB8B8"/>
<path d="M34.8819 13.5568L30.4966 16.391L23.0968 18.7091C22.9988 18.7401 22.9146 18.8034 22.8588 18.8883C22.8029 18.9732 22.7788 19.0745 22.7905 19.175L22.9519 20.539C22.9591 20.5994 22.979 20.6576 23.0105 20.71C23.0419 20.7624 23.0841 20.8077 23.1345 20.8431C23.1848 20.8785 23.2422 20.9032 23.3028 20.9156C23.3635 20.928 23.4261 20.9279 23.4867 20.9151L30.4509 19.4506C30.788 19.3802 31.1067 19.2425 31.3872 19.0462L36.3139 15.6074C36.4925 15.482 36.635 15.3135 36.7276 15.1181C36.8201 14.9228 36.8596 14.7072 36.8421 14.4925C36.824 14.2774 36.7492 14.0707 36.625 13.8926C36.5008 13.7145 36.3315 13.5712 36.1337 13.4768C35.9359 13.3824 35.7165 13.3402 35.497 13.3542C35.2775 13.3682 35.0656 13.4381 34.8819 13.5568Z" fill="#CCCCCC"/>
<path d="M41.7414 47.6656C41.6299 47.6656 41.5209 47.6338 41.4275 47.574C41.3342 47.5143 41.2606 47.4291 41.2158 47.329L34.5589 31.192C34.5434 31.157 34.5173 31.1275 34.4841 31.1075C34.451 31.0875 34.4124 31.0779 34.3736 31.0801C34.3347 31.0822 34.2974 31.096 34.2668 31.1195C34.2362 31.1431 34.2136 31.1752 34.2022 31.2117L28.7712 46.9217C28.7483 46.9948 28.7103 47.0625 28.6597 47.1207C28.6091 47.1789 28.5469 47.2263 28.477 47.2601C28.407 47.2938 28.3307 47.3132 28.2529 47.3169C28.175 47.3207 28.0971 47.3088 28.0241 47.2819L26.2029 46.6119C26.1041 46.5759 26.0173 46.5137 25.9524 46.4322C25.8874 46.3507 25.8468 46.2531 25.835 46.1503C25.0156 39.1482 32.1604 21.474 32.2327 21.2963L32.2527 21.2471L38.7657 22.6605L38.7792 22.675C41.3777 25.456 43.5135 42.9965 43.9153 46.4845C43.9303 46.6105 43.9011 46.7377 43.8325 46.8452C43.7639 46.9528 43.66 47.0341 43.538 47.076L41.9304 47.6337C41.8697 47.6548 41.8058 47.6656 41.7414 47.6656Z" fill="#2F2E41"/>
<path d="M36.1275 23.2298C34.5495 23.2298 32.7903 22.9212 32.2487 21.6472L32.2363 21.6179L32.2531 21.5908C32.6806 20.9028 33.2455 19.7291 32.9418 19.5088C32.3437 19.0749 32.0534 18.3611 32.0792 17.3873C32.1352 15.2732 33.6035 13.3962 35.7329 12.7166C36.3273 12.53 36.9322 12.3772 37.5446 12.259C37.991 12.1706 38.4518 12.1803 38.894 12.2875C39.3361 12.3946 39.7486 12.5964 40.1018 12.8785C40.4594 13.1624 40.7484 13.5206 40.9482 13.9271C41.148 14.3337 41.2534 14.7786 41.2571 15.23C41.2794 17.4892 40.9249 20.6359 39.109 22.7963C39.0239 22.8965 38.9054 22.9641 38.7745 22.9871C37.9009 23.1421 37.0153 23.2233 36.1275 23.2298Z" fill="#CCCCCC"/>
<path d="M35.5436 23.1449C35.6294 22.8427 35.8334 22.5859 36.1112 22.4304C36.3889 22.2749 36.718 22.2332 37.0269 22.3145C37.09 22.3318 37.1515 22.3541 37.2108 22.3813L39.2414 20.5684L40.6535 21.5017L37.7497 24.0227C37.6186 24.2546 37.4122 24.4369 37.1633 24.5404C36.9144 24.644 36.6374 24.6629 36.3763 24.5942C36.2242 24.5534 36.0818 24.4834 35.9575 24.3882C35.8331 24.2931 35.7292 24.1747 35.6518 24.0399C35.5744 23.9052 35.5249 23.7567 35.5064 23.603C35.4878 23.4494 35.5004 23.2937 35.5436 23.1449Z" fill="#FFB8B8"/>
<path d="M38.917 23.168C38.7852 23.168 38.6575 23.1233 38.5556 23.0415L37.7548 22.3995C37.6881 22.346 37.6345 22.2783 37.5982 22.2016C37.5618 22.1249 37.5437 22.0412 37.545 21.9566C37.5463 21.8721 37.5671 21.7889 37.6059 21.7133C37.6446 21.6378 37.7003 21.5718 37.7687 21.5203L41.1272 18.9933C41.167 18.9632 41.1931 18.9189 41.1998 18.87C41.2066 18.8212 41.1934 18.7717 41.1632 18.7323L39.0902 16.0437C38.8494 15.7324 38.7286 15.3475 38.7492 14.9572C38.7699 14.5669 38.9306 14.1963 39.203 13.9111C39.4898 13.6072 39.8826 13.4201 40.3035 13.3871C40.7244 13.3541 41.1425 13.4775 41.475 13.7328L41.4881 13.7464L43.6527 16.7871C43.8868 16.9672 44.0753 17.1979 44.2034 17.4612C44.3316 17.7245 44.396 18.0134 44.3915 18.3051C44.3871 18.5969 44.314 18.8837 44.1779 19.1432C44.0418 19.4027 43.8464 19.6278 43.607 19.8009L39.2572 23.058C39.1587 23.1294 39.0395 23.168 38.917 23.168Z" fill="#CCCCCC"/>
<path d="M34.5137 7.65639V6.13789L37.277 4.9541L39.9119 6.13789V7.65639C39.9119 7.72249 39.8851 7.78588 39.8375 7.83262C39.7898 7.87936 39.7252 7.90561 39.6578 7.90561H34.7677C34.7003 7.90561 34.6357 7.87936 34.5881 7.83262C34.5404 7.78588 34.5137 7.72249 34.5137 7.65639Z" fill="#2F2E41"/>
<path d="M37.151 4.02635C36.7447 2.75054 37.598 1.2884 38.8595 0.783398C40.121 0.278398 41.6302 0.631409 42.6946 1.46574C43.759 2.30008 44.4194 3.54976 44.7693 4.84155C45.1193 6.13335 45.1857 7.48038 45.2503 8.81551C46.8002 9.09481 47.8545 10.8983 47.3176 12.3517C46.7807 13.8052 44.7934 14.5272 43.421 13.7676C42.0486 13.0079 41.6511 10.9658 42.6416 9.7634C43.1103 9.19447 43.3721 8.4884 43.3855 7.75702C43.399 7.02563 43.1634 6.31074 42.7159 5.72557C42.2685 5.14041 41.6348 4.71842 40.9154 4.52643C40.1959 4.33445 39.4316 4.38345 38.7437 4.66568C37.9799 4.97906 37.0214 4.16483 37.151 4.02635Z" fill="#2F2E41"/>
<path d="M19.7382 13.1458C17.8826 13.1338 16.0501 12.7401 14.3593 11.99C14.2586 11.946 14.1732 11.8742 14.1134 11.7834C14.0536 11.6926 14.022 11.5867 14.0225 11.4786V6.94062C14.0226 6.79196 14.0829 6.64943 14.1901 6.5443C14.2972 6.43918 14.4425 6.38005 14.594 6.37988H24.8823C25.0339 6.38005 25.1792 6.43918 25.2863 6.54431C25.3935 6.64943 25.4537 6.79196 25.4539 6.94062V11.4786C25.4544 11.5867 25.4228 11.6926 25.363 11.7834C25.3032 11.8742 25.2177 11.946 25.1171 11.99C23.4262 12.7401 21.5938 13.1338 19.7382 13.1458Z" fill="#EC9611"/>
<path d="M19.7339 9.47015C19.6576 9.47021 19.5821 9.45532 19.5118 9.42634L11.3533 6.04948C11.2481 6.00594 11.1586 5.93248 11.0963 5.83857C11.0341 5.74466 11.0019 5.6346 11.004 5.5226C11.0061 5.41059 11.0423 5.30177 11.1081 5.21016C11.1738 5.11855 11.266 5.04835 11.3727 5.00862L19.5313 1.97218C19.6627 1.92305 19.808 1.92335 19.9392 1.97303L27.9885 5.00946C28.0947 5.04952 28.1862 5.11973 28.2515 5.21112C28.3167 5.30251 28.3527 5.41093 28.3548 5.52249C28.3569 5.63406 28.325 5.7437 28.2633 5.83739C28.2015 5.93109 28.1126 6.00457 28.0081 6.04844L19.9587 9.42525C19.8876 9.45494 19.8111 9.47022 19.7339 9.47015Z" fill="#EC9611"/>
<path d="M14.973 12.299C15.3939 12.299 15.7351 11.9643 15.7351 11.5514C15.7351 11.1384 15.3939 10.8037 14.973 10.8037C14.5521 10.8037 14.2109 11.1384 14.2109 11.5514C14.2109 11.9643 14.5521 12.299 14.973 12.299Z" fill="#3F3D56"/>
<path opacity="0.2" d="M28.0385 5.56885L19.9891 8.94566C19.9264 8.97198 19.8588 8.98563 19.7906 8.9858C19.7223 8.98596 19.6548 8.97263 19.5919 8.9466L11.4334 5.56984C11.3309 5.52844 11.2454 5.45473 11.1904 5.36036C11.1545 5.42156 11.1322 5.48956 11.1251 5.55986C11.1179 5.63016 11.1261 5.70114 11.1491 5.7681C11.1721 5.83505 11.2093 5.89644 11.2583 5.9482C11.3073 5.99995 11.367 6.04088 11.4334 6.06828L19.5919 9.44504C19.6548 9.47106 19.7223 9.48439 19.7906 9.48423C19.8588 9.48407 19.9264 9.47042 19.9891 9.44409L28.0385 6.06729C28.1045 6.03965 28.1639 5.99859 28.2125 5.94681C28.2612 5.89503 28.2981 5.83372 28.3209 5.76691C28.3436 5.7001 28.3517 5.62932 28.3445 5.55924C28.3373 5.48916 28.315 5.42137 28.2791 5.36035C28.2245 5.45397 28.1399 5.52727 28.0385 5.56885Z" fill="black"/>
<path d="M15.0352 11.5484C15.0689 11.5484 15.1012 11.5353 15.125 11.5119C15.1489 11.4886 15.1622 11.4569 15.1622 11.4238V7.25423L19.3514 5.75703C19.3851 5.75752 19.4176 5.74487 19.4417 5.72185C19.4659 5.69883 19.4798 5.66733 19.4803 5.63428C19.4808 5.60123 19.4679 5.56934 19.4444 5.54562C19.421 5.5219 19.3889 5.5083 19.3552 5.50781L15.166 7.00501C15.1323 7.00425 15.0988 7.01021 15.0675 7.02253C15.0362 7.03485 15.0078 7.05327 14.984 7.07668C14.9599 7.09981 14.9408 7.12744 14.9278 7.15793C14.9148 7.18843 14.9081 7.22117 14.9082 7.25423V11.4238C14.9082 11.4569 14.9216 11.4886 14.9454 11.5119C14.9692 11.5353 15.0015 11.5484 15.0352 11.5484Z" fill="#3F3D56"/>
</g>
<defs>
<clipPath id="clip0_6275_827">
<rect width="94.5" height="67.2" fill="white" transform="translate(0.224609 0.549805)"/>
</clipPath>
</defs>
</svg>
