<svg width="77" height="62" viewBox="0 0 77 62" fill="none" xmlns="http://www.w3.org/2000/svg">
<g clip-path="url(#clip0_6275_554)">
<path d="M56.1604 50.9863C56.7606 51.1934 57.405 51.2452 58.0316 51.1369C58.6582 51.0286 59.2458 50.7638 59.7378 50.368C60.9908 49.336 61.3836 47.6359 61.7033 46.0616L62.6488 41.4053L60.6693 42.7427C59.2458 43.7045 57.7903 44.6971 56.8047 46.0902C55.8191 47.4833 55.3888 49.385 56.1807 50.8924" fill="#E6E6E6"/>
<path d="M56.3277 56.6231C56.1274 55.1912 55.9214 53.7408 56.0619 52.2935C56.1867 51.0081 56.5863 49.7527 57.3999 48.7233C57.8318 48.178 58.3573 47.7107 58.9528 47.3425C59.1081 47.2463 59.251 47.4878 59.0964 47.5836C58.066 48.2226 57.269 49.1662 56.8204 50.2783C56.3249 51.515 56.2453 52.8631 56.3307 54.1769C56.3823 54.9714 56.4918 55.7606 56.6021 56.5489C56.6108 56.5846 56.6053 56.6221 56.5869 56.654C56.5684 56.6859 56.5384 56.7097 56.5027 56.7206C56.4663 56.7302 56.4276 56.7254 56.3948 56.7071C56.362 56.6889 56.3379 56.6587 56.3277 56.6231Z" fill="#F2F2F2"/>
<path d="M58.2593 54.0896C58.5167 54.4735 58.8705 54.7859 59.2867 54.9967C59.7029 55.2075 60.1674 55.3095 60.6354 55.293C61.8383 55.237 62.8411 54.4132 63.7438 53.6311L66.4138 51.3179L64.6467 51.2349C63.3759 51.1752 62.0723 51.1196 60.8619 51.5041C59.6515 51.8887 58.5352 52.8141 58.3139 54.0435" fill="#E6E6E6"/>
<path d="M55.7634 57.4459C56.7276 55.7716 57.8461 53.9108 59.8447 53.3161C60.4004 53.1513 60.9831 53.0923 61.5614 53.1422C61.7436 53.1576 61.6981 53.4333 61.5162 53.4179C60.5468 53.3389 59.5794 53.5901 58.7766 54.1291C58.0042 54.645 57.4028 55.3623 56.8937 56.1229C56.5819 56.5889 56.3026 57.0745 56.0233 57.5596C55.934 57.7146 55.673 57.6027 55.7634 57.4459Z" fill="#F2F2F2"/>
<path d="M31.9957 45.6847C30.8127 46.0927 29.5426 46.1949 28.3077 45.9815C27.0728 45.768 25.9148 45.2461 24.9451 44.466C22.4756 42.4321 21.7014 39.0814 21.0714 35.9787C20.4503 32.9197 19.8291 29.8607 19.208 26.8018L23.1092 29.4376C25.9147 31.3331 28.7834 33.2894 30.7259 36.035C32.6684 38.7806 33.5163 42.5286 31.9555 45.4995" fill="#E6E6E6"/>
<path d="M31.662 56.7945C32.0569 53.9723 32.4629 51.1138 32.1859 48.2614C31.94 45.7281 31.1523 43.2538 29.5488 41.2251C28.6977 40.1502 27.662 39.2293 26.4883 38.5037C26.1823 38.3142 25.9006 38.7901 26.2053 38.9788C28.2361 40.2382 29.8068 42.0979 30.691 44.2897C31.6676 46.7271 31.8244 49.3841 31.6561 51.9733C31.5544 53.5391 31.3387 55.0947 31.1213 56.6482C31.1042 56.7185 31.1149 56.7925 31.1512 56.8553C31.1876 56.9181 31.2469 56.9651 31.3172 56.9866C31.3888 57.0056 31.4653 56.996 31.5298 56.9601C31.5944 56.9241 31.6419 56.8646 31.662 56.7945Z" fill="#F2F2F2"/>
<path d="M27.8599 51.8008C27.3525 52.5575 26.6552 53.1732 25.8349 53.5886C25.0147 54.004 24.0993 54.2051 23.1768 54.1726C20.8062 54.0621 18.8299 52.4386 17.0508 50.8972L11.7886 46.3382L15.2713 46.1747C17.7758 46.057 20.345 45.9473 22.7305 46.7052C25.116 47.4631 27.316 49.2871 27.7522 51.71" fill="#E6E6E6"/>
<path d="M32.7793 58.4172C30.8789 55.1174 28.6745 51.4501 24.7356 50.278C23.6404 49.9532 22.492 49.8369 21.3523 49.9352C20.9931 49.9656 21.0828 50.509 21.4414 50.4786C23.3518 50.323 25.2585 50.818 26.8406 51.8803C28.363 52.8971 29.5483 54.3108 30.5516 55.8099C31.1661 56.7281 31.7166 57.6853 32.2671 58.6413C32.4431 58.9467 32.9573 58.7262 32.7793 58.4172Z" fill="#F2F2F2"/>
<path d="M18.1099 13.7442L1.74673 10.3803L1.53409 10.3366C1.42579 10.3142 1.31324 10.3223 1.20939 10.3598C1.10554 10.3974 1.01459 10.4629 0.947018 10.5489C0.879443 10.6349 0.837982 10.7379 0.827401 10.846C0.816819 10.9541 0.837549 11.063 0.887206 11.16L7.45397 24.0519C7.49647 24.1347 7.55862 24.2063 7.6352 24.2606C7.71178 24.315 7.80054 24.3505 7.89401 24.3641C7.98777 24.3779 8.08355 24.369 8.17304 24.3383C8.26254 24.3076 8.34307 24.256 8.40769 24.1879L12.8862 19.4987C12.9181 19.4645 12.9568 19.4372 13 19.4184C13.0431 19.3996 13.0898 19.3898 13.137 19.3895C13.2012 19.3883 13.2645 19.4042 13.3201 19.4355C13.3758 19.4668 13.4217 19.5124 13.453 19.5674L14.3863 21.2375C14.4459 21.3488 14.5418 21.4374 14.6586 21.4892C14.7755 21.5409 14.9066 21.5528 15.0311 21.5229L15.0357 21.5219C15.1618 21.4949 15.275 21.4271 15.357 21.3294C15.4391 21.2317 15.4853 21.1098 15.4882 20.9832L15.6497 17.1146C15.6516 17.0663 15.6636 17.019 15.685 16.9754C15.7079 16.9324 15.7391 16.894 15.777 16.8626L18.3643 14.7532C18.4493 14.6839 18.5127 14.5924 18.5473 14.4894C18.5818 14.3863 18.586 14.2758 18.5594 14.1705C18.5329 14.0651 18.4766 13.9693 18.3971 13.8939C18.3176 13.8185 18.218 13.7666 18.1099 13.7442ZM18.2147 14.5761L15.6274 16.6855C15.5937 16.7124 15.5632 16.7431 15.5364 16.7767L1.71928 10.7247C1.70709 10.7192 1.69438 10.7149 1.68134 10.7119C1.62811 10.6987 1.57187 10.7043 1.52236 10.7275C1.47285 10.7508 1.43317 10.7903 1.41019 10.8392C1.38721 10.8881 1.38237 10.9433 1.39651 10.9954C1.41066 11.0474 1.44289 11.093 1.48763 11.1242L12.8673 19.225C12.81 19.2547 12.7583 19.2938 12.7146 19.3407L8.23608 24.0299C8.19722 24.0705 8.14894 24.1013 8.09535 24.1197C8.04176 24.138 7.98444 24.1435 7.92826 24.1354C7.87208 24.1274 7.8187 24.1062 7.77266 24.0736C7.72662 24.0411 7.68928 23.998 7.6638 23.9483L1.09705 11.0564C1.06769 10.9982 1.05559 10.933 1.06214 10.8683C1.06868 10.8037 1.09361 10.7421 1.13407 10.6906C1.17454 10.6392 1.22891 10.5999 1.29101 10.5773C1.3531 10.5547 1.42041 10.5497 1.48528 10.5628L1.70297 10.6077L18.061 13.9704C18.126 13.9838 18.1857 14.0149 18.2335 14.0601C18.2813 14.1053 18.3152 14.1628 18.3312 14.226C18.3472 14.2892 18.3448 14.3555 18.3242 14.4174C18.3036 14.4793 18.2657 14.5343 18.2147 14.5761Z" fill="#CCCCCC"/>
<path d="M18.1099 13.7442L1.74673 10.3803L1.53409 10.3366C1.42579 10.3142 1.31324 10.3223 1.20939 10.3598C1.10554 10.3974 1.01459 10.4629 0.947018 10.5489C0.879443 10.6349 0.837982 10.7379 0.827401 10.846C0.816819 10.9541 0.837549 11.063 0.887206 11.16L7.45397 24.0519C7.49647 24.1347 7.55862 24.2063 7.6352 24.2606C7.71178 24.315 7.80054 24.3505 7.89401 24.3641C7.98777 24.3779 8.08355 24.369 8.17304 24.3383C8.26254 24.3076 8.34307 24.256 8.40769 24.1879L12.8862 19.4987C12.9181 19.4645 12.9568 19.4372 13 19.4184C13.0431 19.3996 13.0898 19.3898 13.137 19.3895C13.2012 19.3883 13.2645 19.4042 13.3201 19.4355C13.3758 19.4668 13.4217 19.5124 13.453 19.5674L14.3863 21.2375C14.4459 21.3488 14.5418 21.4374 14.6586 21.4892C14.7755 21.5409 14.9066 21.5528 15.0311 21.5229L15.0357 21.5219C15.1618 21.4949 15.275 21.4271 15.357 21.3294C15.4391 21.2317 15.4853 21.1098 15.4882 20.9832L15.6497 17.1146C15.6516 17.0663 15.6636 17.019 15.685 16.9754C15.7079 16.9324 15.7391 16.894 15.777 16.8626L18.3643 14.7532C18.4493 14.6839 18.5127 14.5924 18.5473 14.4894C18.5818 14.3863 18.586 14.2758 18.5594 14.1705C18.5329 14.0651 18.4766 13.9693 18.3971 13.8939C18.3176 13.8185 18.218 13.7666 18.1099 13.7442ZM18.2147 14.5761L15.6274 16.6855C15.5937 16.7124 15.5632 16.7431 15.5364 16.7767C15.5123 16.8067 15.4915 16.8391 15.4744 16.8734C15.4565 16.9085 15.4424 16.9453 15.4325 16.9833L15.4327 16.9844C15.4222 17.024 15.4162 17.0646 15.4149 17.1055L15.2535 20.9741C15.2524 21.0501 15.225 21.1236 15.1757 21.1823C15.1264 21.241 15.0583 21.2815 14.9824 21.2972L14.9801 21.2977C14.9054 21.3164 14.8264 21.3097 14.756 21.2789C14.6856 21.248 14.6279 21.1947 14.5923 21.1276L13.6588 19.4564C13.6107 19.3704 13.541 19.298 13.4563 19.2459C13.3717 19.1938 13.2748 19.1637 13.175 19.1587L13.1739 19.1589C13.1605 19.1584 13.1471 19.1578 13.134 19.1584C13.0409 19.1589 12.9494 19.1818 12.8673 19.225C12.81 19.2547 12.7583 19.2938 12.7146 19.3407L8.23608 24.0299C8.19722 24.0705 8.14894 24.1013 8.09535 24.1197C8.04176 24.138 7.98444 24.1435 7.92826 24.1354C7.87208 24.1274 7.8187 24.1062 7.77266 24.0736C7.72662 24.041 7.68928 23.998 7.6638 23.9483L1.09705 11.0564C1.06769 10.9982 1.05559 10.933 1.06214 10.8683C1.06868 10.8037 1.09361 10.7421 1.13407 10.6906C1.17454 10.6392 1.22891 10.5999 1.29101 10.5773C1.3531 10.5547 1.42041 10.5497 1.48528 10.5628L1.70297 10.6077L18.061 13.9704C18.126 13.9838 18.1857 14.0149 18.2335 14.0601C18.2813 14.1053 18.3152 14.1628 18.3312 14.226C18.3472 14.2892 18.3448 14.3555 18.3242 14.4174C18.3036 14.4793 18.2657 14.5343 18.2147 14.5761Z" fill="#3F3D56"/>
<path d="M15.5913 16.7996L15.4954 17.0102L15.4353 16.9846L15.435 16.9835L1.6288 10.9373L13.1765 19.1591L13.1776 19.1588L13.2082 19.1816L13.0707 19.3684L12.8699 19.2252L1.49018 11.1244C1.44543 11.0932 1.4132 11.0476 1.39906 10.9956C1.38492 10.9435 1.38975 10.8883 1.41274 10.8394C1.43572 10.7904 1.47539 10.7509 1.52491 10.7277C1.57442 10.7045 1.63066 10.6989 1.6839 10.712C1.69694 10.7151 1.70965 10.7194 1.72183 10.7249L15.539 16.7769L15.5913 16.7996Z" fill="#3F3D56"/>
<path d="M51.1143 32.917L51.7114 38.646L51.7232 38.7636L51.9006 40.4626L53.3582 54.4511V54.4534L53.6415 57.1674C53.5309 57.3133 53.433 57.468 53.3488 57.6299C53.092 58.1272 52.9665 58.6797 52.9838 59.2369C53.001 59.7941 53.1605 60.3381 53.4475 60.8191C54.1586 60.6438 54.86 60.4439 55.5516 60.2193C56.9822 59.7576 58.3774 59.1964 59.7267 58.54C59.5864 57.7823 59.1831 57.0956 58.5854 56.5965L57.1219 39.3426L56.9938 37.8294L56.5766 32.917H51.1143Z" fill="#FFB8B8"/>
<path d="M55.3018 17.3134C58.3198 14.3519 58.3198 9.55041 55.3018 6.58892C52.2837 3.62743 47.3905 3.62743 44.3724 6.58892C41.3543 9.55041 41.3543 14.3519 44.3724 17.3134C47.3905 20.2749 52.2837 20.2749 55.3018 17.3134Z" fill="#FFB8B8"/>
<path d="M35.4289 43.2505C35.4301 43.2655 35.4313 43.2805 35.4325 43.2943C35.4581 43.5902 35.5796 43.8702 35.779 44.0935C35.9784 44.3168 36.2454 44.4716 36.5409 44.5354L48.0743 47.0071C48.1743 47.0286 48.2764 47.0394 48.3788 47.0394C48.6881 47.0393 48.9889 46.9396 49.235 46.7557C49.4811 46.5717 49.6589 46.3136 49.7411 46.021C49.7658 45.931 49.7928 45.8387 49.8222 45.743V45.7419C50.2113 44.4454 50.906 42.6807 51.8992 40.4627C52.1237 39.961 52.3639 39.4354 52.6197 38.886C52.6668 38.7845 52.715 38.6818 52.762 38.5792C53.2898 37.4546 53.8786 36.2374 54.5287 34.9275C54.8467 34.2872 55.087 33.6124 55.2445 32.9171C55.6632 31.0815 55.4979 29.1639 54.7708 27.4234C54.6227 27.0691 54.452 26.7243 54.2595 26.3911C53.5004 25.078 52.4248 23.9675 51.1268 23.1569C49.8288 22.3463 48.3481 21.8604 46.8143 21.7417C46.5709 21.7221 46.3288 21.7129 46.0855 21.7129C43.6518 21.7234 41.3158 22.6537 39.563 24.3104C38.5286 25.2945 37.7433 26.5024 37.2697 27.8375C37.2391 27.9217 37.2109 28.007 37.1827 28.0924C36.7484 29.4433 36.3998 30.8192 36.1389 32.2124C35.9826 33.0394 35.8556 33.8548 35.7533 34.6495C35.3949 37.5021 35.2863 40.3797 35.4289 43.2505Z" fill="#EC9611"/>
<path d="M30.3521 57.7418C37.359 61.6498 45.6331 62.7522 53.4483 60.8191C54.1595 60.6438 54.8608 60.4439 55.5524 60.2193C54.9388 58.2563 54.2064 56.3309 53.359 54.4534V54.4511C51.9461 51.3427 50.6485 49.4407 50.016 48.601C49.9121 48.462 49.8436 48.3005 49.8164 48.1301C49.7892 47.9597 49.8041 47.7854 49.8597 47.6218L50.056 47.0439C50.1307 46.8253 50.1487 46.5918 50.1082 46.3646C50.0678 46.1374 49.9703 45.9237 49.8244 45.7429V45.7417C49.8115 45.7256 49.7974 45.7094 49.7833 45.6933C44.6454 39.9493 35.6886 43.0831 35.5981 43.1154L35.5534 43.1316L35.5252 43.1696C35.4946 43.2112 35.4641 43.2515 35.4347 43.2942C33.0062 46.6333 31.3923 51.766 30.3521 57.7418Z" fill="#2F2E41"/>
<path d="M19.7916 20.7597C19.8302 20.9263 19.8554 21.0957 19.8669 21.2661L33.3836 28.9177L36.6691 27.0618L40.1715 31.5611L34.6807 35.4013C34.2371 35.7115 33.7029 35.8722 33.1584 35.8591C32.6138 35.8461 32.0883 35.6601 31.6606 35.3291L17.7225 24.5393C17.0935 24.7678 16.4085 24.8029 15.7586 24.6401C15.1087 24.4772 14.5248 24.1241 14.0844 23.6276C13.6441 23.1312 13.3682 22.5149 13.2935 21.8609C13.2188 21.2068 13.3488 20.5459 13.6662 19.9661C13.9836 19.3863 14.4734 18.9151 15.0704 18.6151C15.6674 18.3151 16.3433 18.2005 17.0083 18.2867C17.6732 18.3728 18.2957 18.6556 18.7929 19.0974C19.2901 19.5391 19.6384 20.119 19.7916 20.7597Z" fill="#FFB8B8"/>
<path d="M33.5892 28.8007V28.8018C33.6382 28.9755 33.7213 29.1381 33.8337 29.2805L36.1399 32.2125L37.239 33.6116L38.2028 34.8365C38.3271 34.9946 38.4846 35.1245 38.6647 35.2174C38.8447 35.3104 39.043 35.3642 39.2462 35.3751C39.4493 35.3861 39.6525 35.3539 39.8418 35.2809C40.0311 35.2078 40.2022 35.0956 40.3433 34.9518L43.8438 31.3855L45.2884 29.9126C46.1092 29.2841 46.6425 28.3619 46.7714 27.3482C46.9003 26.3344 46.6143 25.3119 45.976 24.5048C45.3377 23.6977 44.3993 23.1719 43.3665 23.0427C42.3338 22.9135 41.2909 23.1915 40.4667 23.8157L39.564 24.3105L34.2639 27.2194C33.9878 27.3713 33.7714 27.6095 33.6491 27.8961C33.5269 28.1826 33.5058 28.501 33.5892 28.8007Z" fill="#EC9611"/>
<path d="M48.8801 30.6391L49.1011 37.5653L49.1022 37.6092C49.1085 37.8088 49.1585 38.0048 49.249 38.1837C49.3394 38.3626 49.4682 38.5203 49.6264 38.646C49.7846 38.7717 49.9686 38.8624 50.1658 38.912C50.3629 38.9616 50.5687 38.9688 50.769 38.9333L51.7258 38.7637L51.9703 38.7199H51.9715L52.7661 38.5792L56.9965 37.8295L57.8064 37.6864C58.0065 37.6507 58.1965 37.5732 58.3633 37.459C58.5302 37.3449 58.6701 37.1968 58.7735 37.0249C58.8768 36.853 58.9413 36.6613 58.9624 36.4628C58.9836 36.2643 58.9609 36.0636 58.896 35.8744L56.6145 29.2458C56.4237 28.2417 55.8349 27.3528 54.9773 26.774C54.1196 26.1952 53.0631 25.9737 52.0393 26.1582C51.0155 26.3426 50.108 26.9179 49.5158 27.7579C48.9235 28.5978 48.695 29.634 48.8801 30.6391Z" fill="#EC9611"/>
<path d="M48.6121 10.2065C46.6258 11.5405 44.0177 12.9118 41.989 11.4912C40.6569 10.5584 40.2372 8.83111 40.7774 7.3153C41.7488 4.58942 44.4178 3.38936 46.97 2.4695C50.2878 1.27367 53.9005 0.322332 57.3256 1.17873C60.7507 2.03512 63.7778 5.28917 63.1595 8.70402C62.6622 11.4502 60.0224 13.7352 60.3971 16.5C60.7743 19.2825 63.9633 20.7472 66.7788 21.2445C69.5942 21.7418 72.7447 21.9016 74.7681 23.886C77.3492 26.4174 76.7047 30.9421 74.2759 33.6147C71.8472 36.2874 68.1821 37.4989 64.6306 38.3225C59.9251 39.4137 54.8357 39.9872 50.3666 38.1762C45.8976 36.3653 42.4198 31.4903 43.7145 26.9191C44.2613 24.9882 45.5495 23.3563 46.7945 21.7676C48.0394 20.1789 49.3001 18.5177 49.775 16.5685C50.1707 14.9442 49.8778 13.0584 48.7801 11.84C48.5804 11.6267 48.4548 11.3568 48.4212 11.0691C48.3876 10.7814 48.4478 10.4907 48.5931 10.2386L48.6121 10.2065Z" fill="#2F2E41"/>
</g>
<defs>
<clipPath id="clip0_6275_554">
<rect width="75.6" height="60.9" fill="white" transform="translate(0.824707 0.849609)"/>
</clipPath>
</defs>
</svg>
