<svg width="82" height="65" viewBox="0 0 82 65" fill="none" xmlns="http://www.w3.org/2000/svg">
<g clip-path="url(#clip0_6275_1068)">
<path d="M51.5873 59.1751L50.3651 59.175L49.7837 54.4502L51.5876 54.4503L51.5873 59.1751Z" fill="#9E616A"/>
<path d="M51.8994 60.3628L47.9585 60.3627V60.3127C47.9585 59.905 48.1201 59.514 48.4078 59.2257C48.6955 58.9374 49.0856 58.7754 49.4924 58.7754H49.4925L51.8994 58.7755L51.8994 60.3628Z" fill="#2F2E41"/>
<path d="M47.2031 59.1751L45.9809 59.175L45.3994 54.4502L47.2032 54.4503L47.2031 59.1751Z" fill="#9E616A"/>
<path d="M47.5151 60.3628L43.5742 60.3627V60.3127C43.5742 59.905 43.7359 59.514 44.0235 59.2257C44.3112 58.9374 44.7013 58.7754 45.1081 58.7754H45.1082L47.5152 58.7755L47.5151 60.3628Z" fill="#2F2E41"/>
<path d="M32.9689 26.0682C33.0666 26.2029 33.1925 26.3144 33.3378 26.395C33.4832 26.4755 33.6444 26.5232 33.8101 26.5346C33.9758 26.546 34.142 26.5208 34.2969 26.4608C34.4519 26.4009 34.5918 26.3076 34.7069 26.1876L37.1253 27.1341L38.0576 25.8015L34.6237 24.5129C34.4097 24.3325 34.1371 24.237 33.8576 24.2446C33.578 24.2521 33.311 24.3622 33.107 24.5539C32.903 24.7456 32.7763 25.0057 32.7508 25.2848C32.7254 25.5639 32.803 25.8426 32.9689 26.0682Z" fill="#9E616A"/>
<path d="M47.1846 34.1426L44.0005 35.1835L45.0641 57.7839L47.5216 57.8448L48.7792 41.9067L49.0647 57.7819L52.1033 57.9497L53.2234 34.1426H47.1846Z" fill="#2F2E41"/>
<path d="M45.0362 20.8206L53.2083 19.041L54.1171 26.0935L53.3604 29.4632L53.6635 34.5843C53.6635 34.5843 47.2017 37.8077 44.0005 35.1841C44.0005 35.1841 46.5734 28.4109 45.082 25.2402L45.0362 20.8206Z" fill="#E4E4E4"/>
<path d="M46.4542 21.8173L45.0389 20.8198C45.0389 20.8198 44.9553 20.7037 43.7759 22.0856C42.5965 23.4675 40.2039 25.6657 40.2039 25.6657L36.2162 24.1669L35.4897 26.8571L40.1242 29.0217L46.6855 24.6299L46.4542 21.8173Z" fill="#E4E4E4"/>
<path d="M53.6681 37.2275C53.8183 37.1564 53.9511 37.0532 54.0571 36.9251C54.1632 36.797 54.2399 36.6471 54.282 36.4861C54.324 36.325 54.3303 36.1567 54.3004 35.993C54.2705 35.8292 54.2051 35.674 54.1089 35.5384L55.4873 33.3333L54.3546 32.167L52.4517 35.3083C52.235 35.4854 52.0906 35.7361 52.0459 36.0127C52.0013 36.2894 52.0594 36.5729 52.2093 36.8094C52.3593 37.046 52.5906 37.2192 52.8595 37.2963C53.1283 37.3734 53.416 37.3489 53.6681 37.2275Z" fill="#9E616A"/>
<path d="M51.937 20.4308L53.2116 19.0415C53.2116 19.0415 54.6319 18.5458 55.7922 21.1073C56.9526 23.6687 58.2486 28.8643 58.2486 28.8643L55.2185 34.714L52.8652 33.6602L55.2185 28.823L52.7283 25.2408L51.937 20.4308Z" fill="#E4E4E4"/>
<path d="M49.7752 18.4617C51.0608 17.7574 51.5332 16.142 50.8305 14.8536C50.1278 13.5652 48.516 13.0917 47.2305 13.796C45.9449 14.5003 45.4725 16.1157 46.1752 17.4041C46.8779 18.6925 48.4897 19.166 49.7752 18.4617Z" fill="#9E616A"/>
<path d="M50.7399 13.7523C50.6144 13.2244 50.1752 12.8077 49.67 12.6123C49.1649 12.4169 48.6023 12.4187 48.0685 12.5097C47.1823 12.6606 46.3549 13.0436 45.5396 13.4227L46.168 13.724L45.3008 13.7739L45.9709 14.1212C45.7919 14.2577 45.6558 14.4428 45.5787 14.6545C45.5015 14.8662 45.4866 15.0956 45.5356 15.3156C45.5701 15.4595 45.6623 15.6181 45.8099 15.6231C45.9883 15.6291 46.0815 15.4207 46.2064 15.2928C46.3726 15.1227 46.635 15.085 46.8704 15.117C47.1058 15.1491 47.329 15.2398 47.5612 15.29C47.8548 15.3513 48.1582 15.348 48.4504 15.2801C48.7426 15.2123 49.0165 15.0816 49.2533 14.8971L50.0889 16.9138C50.081 16.8377 50.0908 16.7609 50.1175 16.6892C50.1441 16.6176 50.1869 16.5531 50.2426 16.5008C50.2982 16.4484 50.3651 16.4097 50.4382 16.3876C50.5112 16.3655 50.5884 16.3606 50.6636 16.3733C50.7388 16.386 50.8101 16.416 50.8719 16.4609C50.9336 16.5058 50.9842 16.5644 51.0196 16.6321C51.0551 16.6998 51.0744 16.7748 51.0762 16.8512C51.0779 16.9277 51.062 17.0035 51.0296 17.0727C51.3914 16.5259 51.6824 15.9046 51.6924 15.2486C51.7024 14.5926 51.3777 13.9015 50.7835 13.6262" fill="#2F2E41"/>
<path d="M19.9966 54.4893L18.8666 56.2698L19.5248 53.9519C18.1351 52.4987 16.2113 51.4355 16.2113 51.4355C16.2113 51.4355 13.8425 55.3375 14.48 57.7378C15.1176 60.138 16.7639 60.5962 18.5202 60.1276C20.2764 59.659 21.4775 58.441 20.8399 56.0408C20.698 55.5066 20.3897 54.9821 19.9966 54.4893Z" fill="#F2F2F2"/>
<path d="M18.5024 56.4483L18.5338 56.5666C18.8921 57.9437 18.9457 59.0785 18.6924 59.9552C18.6889 59.968 18.6847 59.9804 18.6812 59.9933L18.6221 59.9758L18.5655 59.9583C18.8525 59.008 18.7244 57.8072 18.4122 56.606C18.4026 56.5672 18.3927 56.5278 18.3817 56.4887C18.2451 55.9813 18.0777 55.4759 17.8954 54.9902C17.8817 54.9524 17.8671 54.9143 17.8526 54.8761C17.6088 54.2362 17.3424 53.6337 17.0955 53.1144C17.0782 53.0776 17.0604 53.0409 17.0427 53.0049C16.6213 52.1276 16.264 51.506 16.1838 51.3687C16.1743 51.3518 16.1687 51.3427 16.1675 51.3405L16.2188 51.3098L16.2192 51.3091L16.2711 51.2783C16.2723 51.2805 16.2911 51.3112 16.324 51.369C16.4481 51.5842 16.7778 52.1705 17.158 52.9584C17.175 52.9941 17.1928 53.0307 17.2101 53.0675C17.4109 53.4887 17.6237 53.9625 17.8262 54.4655C17.8772 54.5917 17.926 54.7167 17.9727 54.8404C17.9878 54.8784 18.0023 54.9165 18.016 54.9542C18.2131 55.4793 18.3752 55.9773 18.5024 56.4483Z" fill="white"/>
<path d="M17.1551 52.9578C17.1173 52.9735 17.079 52.9894 17.0397 53.0042C16.9332 53.0447 16.8247 53.0798 16.7147 53.1091C16.2457 53.235 15.7545 53.2537 15.2774 53.164C15.261 53.2016 15.2448 53.2392 15.228 53.2775C15.7312 53.3766 16.2504 53.359 16.7458 53.2263C16.8633 53.1949 16.9791 53.1573 17.0926 53.1137C17.1312 53.099 17.1696 53.0831 17.2072 53.0668C17.518 52.9341 17.807 52.7549 18.0641 52.5352C18.0305 52.5097 17.9975 52.4846 17.9653 52.46C17.7212 52.665 17.4481 52.8327 17.1551 52.9578Z" fill="white"/>
<path d="M17.9728 54.8401C17.9331 54.8532 17.8931 54.8651 17.8528 54.8759C17.8407 54.8797 17.8278 54.8832 17.8155 54.8864C17.3072 55.0221 16.7737 55.0325 16.2604 54.9169C15.7472 54.8012 15.2695 54.5628 14.868 54.2222C14.8538 54.263 14.8396 54.3038 14.8262 54.345C15.2412 54.6873 15.7317 54.9256 16.257 55.0402C16.7823 55.1547 17.3272 55.1422 17.8467 55.0036C17.863 54.9992 17.8794 54.9948 17.8956 54.9899C17.9364 54.9784 17.9764 54.9665 18.0162 54.9539C18.6317 54.7554 19.177 54.3834 19.5871 53.8825C19.5593 53.8529 19.5314 53.8234 19.5029 53.7939C19.1053 54.2844 18.5736 54.648 17.9728 54.8401Z" fill="white"/>
<path d="M18.4994 56.448C18.4594 56.4624 18.4192 56.4757 18.3787 56.4883C18.3354 56.5018 18.2918 56.5147 18.248 56.5263C17.5647 56.7078 16.8412 56.6626 16.1857 56.3974C15.5302 56.1323 14.978 55.6614 14.6119 55.0554C14.5982 55.1099 14.5843 55.1638 14.5718 55.2179C14.9618 55.8159 15.53 56.2755 16.1955 56.5314C16.861 56.7873 17.5901 56.8266 18.2791 56.6435C18.323 56.6318 18.3666 56.6195 18.4093 56.6056C18.4504 56.5934 18.4907 56.5801 18.5308 56.5663C19.3399 56.281 20.0106 55.6983 20.407 54.9361C20.3833 54.896 20.3579 54.857 20.3323 54.8174C19.9562 55.5791 19.2987 56.164 18.4994 56.448Z" fill="white"/>
<path d="M64.0721 54.6764L62.9585 56.431L63.6071 54.1468C62.2377 52.7147 60.3418 51.667 60.3418 51.667C60.3418 51.667 58.0074 55.5123 58.6357 57.8776C59.264 60.243 60.8864 60.6946 62.6171 60.2328C64.3479 59.771 65.5315 58.5707 64.9032 56.2053C64.7633 55.6789 64.4595 55.162 64.0721 54.6764Z" fill="#F2F2F2"/>
<path d="M62.5969 56.6046L62.6279 56.7212C62.981 58.0783 63.0338 59.1966 62.7841 60.0606C62.7807 60.0732 62.7765 60.0855 62.7731 60.0981L62.7149 60.0809L62.6591 60.0636C62.942 59.1271 62.8157 57.9438 62.508 56.76C62.4985 56.7218 62.4888 56.6829 62.478 56.6444C62.3433 56.1444 62.1783 55.6464 61.9987 55.1677C61.9852 55.1305 61.9709 55.0929 61.9566 55.0553C61.7163 54.4247 61.4537 53.8309 61.2105 53.3191C61.1934 53.2829 61.1758 53.2468 61.1584 53.2113C60.7431 52.3467 60.391 51.7342 60.3119 51.5989C60.3026 51.5822 60.2971 51.5732 60.2959 51.571L60.3465 51.5408L60.3469 51.5401L60.398 51.5098C60.3992 51.5119 60.4178 51.5422 60.4501 51.5991C60.5725 51.8112 60.8974 52.389 61.272 53.1655C61.2887 53.2006 61.3063 53.2367 61.3234 53.2729C61.5212 53.688 61.731 54.155 61.9305 54.6506C61.9808 54.775 62.0289 54.8982 62.0749 55.0201C62.0897 55.0575 62.104 55.0951 62.1176 55.1323C62.3118 55.6497 62.4716 56.1405 62.5969 56.6046Z" fill="white"/>
<path d="M61.2721 53.1664C61.2349 53.1818 61.1971 53.1975 61.1584 53.2121C61.0535 53.2521 60.9466 53.2866 60.8381 53.3155C60.3759 53.4395 59.8919 53.458 59.4217 53.3696C59.4056 53.4066 59.3895 53.4437 59.373 53.4815C59.8689 53.5791 60.3805 53.5618 60.8687 53.431C60.9845 53.4 61.0986 53.363 61.2105 53.32C61.2486 53.3055 61.2864 53.2899 61.3235 53.2738C61.6298 53.143 61.9145 52.9664 62.168 52.7499C62.1348 52.7248 62.1023 52.7001 62.0706 52.6758C61.83 52.8778 61.5609 53.0431 61.2721 53.1664Z" fill="white"/>
<path d="M62.0765 55.0212C62.0374 55.0341 61.998 55.0458 61.9582 55.0564C61.9463 55.0602 61.9336 55.0636 61.9215 55.0669C61.4206 55.2005 60.8948 55.2108 60.389 55.0968C59.8832 54.9828 59.4125 54.748 59.0168 54.4122C59.0028 54.4524 58.9888 54.4926 58.9756 54.5333C59.3846 54.8706 59.868 55.1055 60.3856 55.2184C60.9033 55.3312 61.4403 55.3189 61.9522 55.1823C61.9683 55.178 61.9845 55.1737 62.0004 55.1688C62.0406 55.1575 62.08 55.1457 62.1193 55.1334C62.7258 54.9377 63.2632 54.5712 63.6674 54.0775C63.6399 54.0484 63.6124 54.0192 63.5844 53.9902C63.1926 54.4736 62.6685 54.8319 62.0765 55.0212Z" fill="white"/>
<path d="M62.6001 56.605C62.5607 56.6192 62.521 56.6322 62.4811 56.6447C62.4384 56.658 62.3955 56.6707 62.3523 56.6822C61.679 56.861 60.9659 56.8165 60.3199 56.5551C59.674 56.2938 59.1298 55.8298 58.769 55.2327C58.7555 55.2863 58.7418 55.3394 58.7295 55.3928C59.1139 55.9821 59.6738 56.435 60.3296 56.6872C60.9855 56.9394 61.704 56.978 62.383 56.7976C62.4262 56.7861 62.4692 56.774 62.5112 56.7603C62.5518 56.7483 62.5915 56.7352 62.631 56.7215C63.4283 56.4404 64.0893 55.8662 64.48 55.115C64.4565 55.0755 64.4315 55.0371 64.4064 54.998C64.0357 55.7487 63.3877 56.3251 62.6001 56.605Z" fill="white"/>
<path d="M41.0256 11.0838C41.0256 6.88673 38.1061 3.48438 34.5047 3.48438C30.9034 3.48438 27.9839 6.88673 27.9839 11.0838C27.9839 14.8903 30.3854 18.043 33.519 18.5968V19.3129C33.519 19.4482 33.5726 19.578 33.6681 19.6736C33.7635 19.7693 33.893 19.823 34.028 19.823H34.9815C35.1165 19.823 35.2459 19.7693 35.3414 19.6736C35.4368 19.578 35.4904 19.4482 35.4904 19.3129V18.5968C38.624 18.043 41.0256 14.8903 41.0256 11.0838Z" fill="#F9A826"/>
<path d="M33.3618 19.2099C33.5658 19.0179 33.8089 18.8724 34.0744 18.7834C34.3398 18.6944 34.6213 18.664 34.8996 18.6944C35.18 18.7269 35.449 18.8243 35.6855 18.9789C35.922 19.1334 36.1194 19.3409 36.2622 19.585C36.4051 19.8218 36.4948 20.0869 36.5252 20.3619C36.5556 20.637 36.5259 20.9154 36.4383 21.1778C36.2669 21.7011 35.9025 22.1366 35.529 22.5291C35.1371 22.9409 34.711 23.3207 34.3426 23.7547C33.7351 24.4746 33.3109 25.3314 33.1064 26.2517C32.9019 27.1719 32.9231 28.1282 33.1684 29.0384C33.4916 30.1922 34.159 31.2193 35.0811 31.9821C35.1981 32.078 35.3187 32.1693 35.4428 32.2561C35.5864 32.3568 35.7223 32.1208 35.5799 32.021C34.5788 31.3112 33.839 30.2905 33.4748 29.1169C33.1987 28.2024 33.1633 27.2318 33.3722 26.2995C33.5811 25.3672 34.0272 24.505 34.667 23.7966C35.0556 23.3666 35.4907 22.9816 35.8791 22.5515C36.2513 22.1394 36.5906 21.6745 36.7359 21.1301C36.8095 20.8533 36.8278 20.5647 36.7896 20.2808C36.7514 19.9969 36.6576 19.7234 36.5136 19.476C36.3702 19.2231 36.1762 19.0026 35.9439 18.8283C35.7115 18.654 35.4457 18.5298 35.1631 18.4632C34.5947 18.3394 34.0005 18.4425 33.5067 18.7507C33.3857 18.828 33.2728 18.9173 33.1697 19.0173C33.0435 19.1391 33.2358 19.3316 33.3618 19.2099Z" fill="#3F3D56"/>
<path d="M15.8975 7.90152C13.9023 3.30452 9.08712 0.972026 5.14254 2.69177C1.19796 4.41151 -0.382294 9.53225 1.61293 14.1293C3.4225 18.2985 7.55167 20.605 11.2472 19.7151L11.5876 20.4995C11.6519 20.6477 11.7724 20.7642 11.9224 20.8234C12.0724 20.8826 12.2397 20.8797 12.3876 20.8152L13.432 20.3599C13.5798 20.2954 13.6961 20.1747 13.7551 20.0244C13.8142 19.874 13.8112 19.7063 13.7469 19.5581L13.4065 18.7737C16.5755 16.6708 17.7071 12.0708 15.8975 7.90152Z" fill="#F9A826"/>
<path d="M11.346 20.4373C11.4757 20.1379 11.6666 19.8693 11.9065 19.6486C12.1463 19.428 12.4297 19.2603 12.7384 19.1564C13.0415 19.0541 13.3632 19.0195 13.681 19.0549C13.9989 19.0903 14.3051 19.1948 14.5784 19.3613C14.86 19.5285 15.1027 19.7539 15.2905 20.0225C15.4783 20.2911 15.6067 20.5967 15.6674 20.919C15.8066 21.6659 15.5807 22.4267 15.3239 23.1221C15.0548 23.8511 14.7194 24.559 14.5322 25.316C14.2718 26.38 14.2665 27.4906 14.5169 28.557C14.7672 29.6234 15.266 30.6151 15.9725 31.451C16.8623 32.4845 18.0342 33.2345 19.3439 33.6089C19.5045 33.6543 19.6669 33.693 19.8305 33.7262C20.0012 33.7609 20.0742 33.4985 19.9027 33.4637C18.54 33.1825 17.2981 32.4839 16.3489 31.4645C15.3426 30.3741 14.7347 28.9742 14.6244 27.493C14.5653 26.7426 14.6339 25.9876 14.8273 25.2602C15.0338 24.4926 15.3832 23.774 15.6467 23.0261C15.8981 22.3125 16.0763 21.5462 15.9183 20.791C15.7731 20.1261 15.3705 19.5461 14.799 19.1784C14.525 18.9974 14.218 18.8727 13.8956 18.8117C13.5732 18.7506 13.2419 18.7544 12.9209 18.8228C12.2655 18.9716 11.6913 19.3651 11.3151 19.9232C11.2236 20.0623 11.1462 20.2103 11.084 20.3649C11.0172 20.5266 11.28 20.5972 11.346 20.4373Z" fill="#3F3D56"/>
<path d="M71.6331 63.4273L73.0976 63.4272L73.7943 57.7656L71.6328 57.7657L71.6331 63.4273Z" fill="#FFB6B6"/>
<path d="M71.2598 62.9484L74.144 62.9482H74.1441C74.6315 62.9483 75.099 63.1424 75.4437 63.4878C75.7884 63.8333 75.9821 64.3018 75.9821 64.7904V64.8502L71.2599 64.8504L71.2598 62.9484Z" fill="#2F2E41"/>
<path d="M62.9619 62.1793L64.3583 62.6219L66.7263 57.4346L64.6655 56.7812L62.9619 62.1793Z" fill="#FFB6B6"/>
<path d="M62.751 61.6094L65.5009 62.4811L65.501 62.4812C65.9658 62.6285 66.3531 62.9549 66.5778 63.3885C66.8025 63.8221 66.8461 64.3273 66.6991 64.7931L66.6811 64.8502L62.1787 63.4229L62.751 61.6094Z" fill="#2F2E41"/>
<path d="M66.2625 37.5703L65.4499 39.8676L65.4268 52.2697L63.1221 60.7609L65.9512 61.5522L69.0764 53.5458L70.0788 46.5133L71.3997 53.5866L71.2179 61.9938H74.1863L74.4103 49.0383C74.4732 45.3998 73.838 41.7831 72.5392 38.3848L66.2625 37.5703Z" fill="#2F2E41"/>
<path d="M65.2947 28.2637H70.0927L72.0975 30.273L72.6964 38.5785L65.4499 39.7472L63.1221 31.8226L64.3897 28.4547L65.2947 28.2637Z" fill="#E4E4E4"/>
<path d="M63.5687 31.9028L56.1815 29.1171L55.9893 27.9656L60.648 24.0146L62.1986 25.1803L59.3882 28.2646L64.3893 28.4556L63.5687 31.9028Z" fill="#E4E4E4"/>
<path d="M61.5442 25.6299C62.2039 25.6299 62.7388 25.0938 62.7388 24.4326C62.7388 23.7714 62.2039 23.2354 61.5442 23.2354C60.8844 23.2354 60.3496 23.7714 60.3496 24.4326C60.3496 25.0938 60.8844 25.6299 61.5442 25.6299Z" fill="#FFB6B6"/>
<path d="M64.3138 25.9412L64.8536 23.5016C64.9482 23.072 65.1264 22.6652 65.378 22.3046C65.6295 21.9441 65.9495 21.6367 66.3197 21.4001C66.6898 21.1636 67.1029 21.0025 67.5352 20.926C67.9675 20.8495 68.4107 20.8592 68.8393 20.9544C69.2678 21.0497 69.6735 21.2287 70.033 21.4811C70.3926 21.7336 70.6989 22.0547 70.9346 22.4259C71.1703 22.7971 71.3306 23.2112 71.4065 23.6446C71.4824 24.0779 71.4723 24.5221 71.3769 24.9515L70.8371 27.3911C70.8112 27.5075 70.7403 27.6088 70.6399 27.6729C70.5396 27.7369 70.418 27.7585 70.3018 27.7328L64.6547 26.4777C64.5386 26.4517 64.4375 26.3807 64.3736 26.2801C64.3096 26.1795 64.2881 26.0576 64.3138 25.9412Z" fill="#2F2E41"/>
<path d="M68.0315 26.8608C69.3308 26.4834 70.079 25.1219 69.7025 23.8196C69.326 22.5173 67.9674 21.7676 66.6681 22.1449C65.3688 22.5222 64.6206 23.8838 64.9971 25.1861C65.3736 26.4883 66.7322 27.2381 68.0315 26.8608Z" fill="#FFB6B6"/>
<path d="M64.0391 23.5259C64.1916 22.8405 64.6091 22.2436 65.2001 21.8664C65.791 21.4891 66.5072 21.3622 67.1914 21.5134L67.6783 21.6216C68.3621 21.7745 68.9576 22.1929 69.334 22.7852C69.7105 23.3775 69.8371 24.0953 69.6862 24.781L69.6754 24.8298L68.6466 24.6011L68.5136 23.5384L68.2255 24.5075L67.6938 24.3894L67.6267 23.8532L67.4814 24.3421L64.0283 23.5747L64.0391 23.5259Z" fill="#2F2E41"/>
<path d="M66.5112 27.1788C66.4774 27.1025 66.4658 27.0182 66.4777 26.9356C66.4896 26.853 66.5245 26.7754 66.5785 26.7118C67.312 25.8431 68.4364 24.1864 67.7256 22.8527L67.6745 22.7568L70.4579 23.3755L69.5312 27.5637L66.9038 27.4488C66.8772 27.4477 66.8507 27.4442 66.8247 27.4384C66.7557 27.4231 66.6913 27.3916 66.6368 27.3464C66.5823 27.3013 66.5392 27.2438 66.5112 27.1788Z" fill="#2F2E41"/>
<path d="M69.8998 28.3154L77.7139 29.429L78.1509 30.5113L74.4579 35.3809L72.692 34.5801L74.7681 30.9583L69.8447 31.859L69.8998 28.3154Z" fill="#E4E4E4"/>
<path d="M81.5995 12.5272C81.5995 7.51413 78.1124 3.4502 73.8107 3.4502C69.5091 3.4502 66.022 7.51413 66.022 12.5272C66.022 17.0739 68.8904 20.8397 72.6334 21.5011V22.3565C72.6334 22.5181 72.6974 22.6731 72.8114 22.7874C72.9254 22.9016 73.0801 22.9658 73.2413 22.9658H74.3802C74.5414 22.9658 74.6961 22.9016 74.8101 22.7874C74.9241 22.6731 74.9881 22.5181 74.9881 22.3565V21.5011C78.731 20.8397 81.5995 17.0739 81.5995 12.5272Z" fill="#F9A826"/>
<path d="M72.4284 22.2135C72.6757 21.9805 72.9705 21.8042 73.2925 21.6967C73.6145 21.5892 73.9559 21.5531 74.2932 21.5909C74.6245 21.6301 74.9426 21.7443 75.2234 21.9248C75.5042 22.1054 75.7403 22.3477 75.9138 22.6333C76.0904 22.9151 76.204 23.232 76.2468 23.562C76.2895 23.8921 76.2604 24.2275 76.1615 24.5452C75.9693 25.1688 75.5475 25.6909 75.1079 26.159C74.6388 26.6583 74.125 27.1148 73.6766 27.6336C72.9456 28.485 72.4319 29.5017 72.1796 30.5961C71.9273 31.6905 71.944 32.83 72.2282 33.9166C72.6085 35.3131 73.412 36.5568 74.5278 37.476C74.6633 37.5866 74.8027 37.692 74.9461 37.7923C75.0897 37.8929 75.2256 37.657 75.0832 37.5572C73.8883 36.7107 73.0034 35.4949 72.5639 34.0961C72.2302 33.0043 72.1829 31.8447 72.4266 30.7292C72.6703 29.6137 73.1967 28.58 73.9552 27.7278C74.4161 27.2121 74.9353 26.7527 75.4015 26.2419C75.848 25.7529 76.2578 25.2037 76.4413 24.5575C76.5336 24.231 76.5604 23.8895 76.5202 23.5526C76.48 23.2157 76.3735 22.8902 76.2069 22.5948C76.041 22.2928 75.8147 22.0283 75.542 21.8181C75.2694 21.6078 74.9564 21.4563 74.6225 21.373C73.9442 21.2167 73.2317 21.3351 72.64 21.7025C72.4949 21.7945 72.3596 21.9012 72.2363 22.0209C72.1103 22.1429 72.3025 22.3353 72.4284 22.2135Z" fill="#3F3D56"/>
<path d="M73.3689 36.7646C74.0286 36.7646 74.5635 36.2286 74.5635 35.5674C74.5635 34.9061 74.0286 34.3701 73.3689 34.3701C72.7091 34.3701 72.1743 34.9061 72.1743 35.5674C72.1743 36.2286 72.7091 36.7646 73.3689 36.7646Z" fill="#FFB6B6"/>
<path d="M60.9195 24.7689C60.8568 24.8682 60.705 24.8538 60.6197 24.7917C60.5013 24.7055 60.5397 24.5396 60.6212 24.4415C60.8803 24.1298 61.3087 24.4589 61.3665 24.7684C61.388 24.9194 61.3648 25.0733 61.2998 25.2112C61.2349 25.349 61.1309 25.4647 61.0009 25.5439C60.7053 25.7195 60.3214 25.6314 60.0672 25.4213C59.5371 24.983 59.6814 24.1054 60.2703 23.7883C60.6461 23.586 61.1212 23.6748 61.4914 23.8443C61.9081 24.0351 62.2665 24.3276 62.6519 24.5714C63.4975 25.1019 64.454 25.4293 65.4467 25.5279C65.6205 25.5457 65.6193 25.2732 65.4467 25.2556C64.8966 25.1986 64.3565 25.0682 63.8408 24.868C63.3306 24.6607 62.8463 24.3943 62.3978 24.0742C61.944 23.7625 61.47 23.4597 60.9084 23.4082C60.6818 23.3816 60.4522 23.4157 60.243 23.507C60.0338 23.5982 59.8524 23.7433 59.7173 23.9276C59.5972 24.0925 59.5167 24.283 59.4823 24.4843C59.4479 24.6855 59.4605 24.892 59.519 25.0876C59.5896 25.2921 59.713 25.4742 59.8766 25.6154C60.0402 25.7566 60.2382 25.8518 60.4505 25.8914C60.6549 25.9301 60.8662 25.9039 61.055 25.8165C61.2438 25.7291 61.4006 25.5848 61.5037 25.4037C61.7104 25.0455 61.7036 24.5642 61.3914 24.2672C61.302 24.176 61.1899 24.1103 61.0668 24.0767C60.9437 24.0431 60.8139 24.0429 60.6906 24.0761C60.5771 24.1146 60.4772 24.1853 60.4032 24.2798C60.3291 24.3742 60.2841 24.4883 60.2737 24.6079C60.2436 25.073 60.9023 25.3055 61.1541 24.9064C61.2478 24.7578 61.0128 24.621 60.9195 24.7689Z" fill="#3F3D56"/>
<path d="M6.56553 39.4039L6.20671 39.8552L4.9375 39.1027L5.29633 38.6514L6.56553 39.4039Z" fill="#E4E4E4"/>
<path d="M7.88655 41.3428L8.20354 41.8169L6.87021 42.4816L6.55322 42.0075L7.88655 41.3428Z" fill="#E4E4E4"/>
<path d="M9.27007 39.2822L9.90349 39.3046L9.84046 40.633L9.20703 40.6106L9.27007 39.2822Z" fill="#E4E4E4"/>
<path d="M21.5074 3.45863L21.1486 3.90985L19.8794 3.15736L20.2382 2.70605L21.5074 3.45863Z" fill="#E4E4E4"/>
<path d="M22.8328 5.39746L23.1498 5.87155L21.8165 6.53627L21.4995 6.06217L22.8328 5.39746Z" fill="#E4E4E4"/>
<path d="M24.212 3.33691L24.8454 3.35933L24.7824 4.68767L24.1489 4.66525L24.212 3.33691Z" fill="#E4E4E4"/>
<path d="M56.7399 8.17836L56.381 8.62958L55.1118 7.87709L55.4706 7.42578L56.7399 8.17836Z" fill="#E4E4E4"/>
<path d="M58.0609 10.1182L58.3779 10.5923L57.0445 11.257L56.7275 10.7829L58.0609 10.1182Z" fill="#E4E4E4"/>
<path d="M59.4444 8.05664L60.0778 8.07906L60.0148 9.40739L59.3813 9.38497L59.4444 8.05664Z" fill="#E4E4E4"/>
<path d="M45.961 1.55238L45.6022 2.0036L44.333 1.25111L44.6918 0.799805L45.961 1.55238Z" fill="#E4E4E4"/>
<path d="M47.2865 3.49121L47.6034 3.9653L46.2701 4.63002L45.9531 4.15592L47.2865 3.49121Z" fill="#E4E4E4"/>
<path d="M48.6656 1.43066L49.299 1.45308L49.236 2.78142L48.6025 2.759L48.6656 1.43066Z" fill="#E4E4E4"/>
<path d="M56.9184 35.4733L56.5596 35.9971L57.8288 36.8705L58.1877 36.3467L56.9184 35.4733Z" fill="#E4E4E4"/>
<path d="M58.1786 39.3706L58.4956 39.9209L59.829 39.1494L59.512 38.5991L58.1786 39.3706Z" fill="#E4E4E4"/>
<path d="M60.8275 37.7474L61.4609 37.7734L61.524 36.2316L60.8906 36.2056L60.8275 37.7474Z" fill="#E4E4E4"/>
<path d="M29.9939 59.2438L31.0911 59.0737L30.3389 50.2871L27.8936 50.741L29.9939 59.2438Z" fill="#FFB6B6"/>
<path d="M29.6572 58.9275L31.8182 58.5926C32.1834 58.536 32.5562 58.6271 32.8544 58.846C33.1526 59.0648 33.3519 59.3934 33.4083 59.7594L33.4153 59.8043L29.8771 60.3526L29.6572 58.9275Z" fill="#2F2E41"/>
<path d="M18.46 59.1346L19.5692 59.1819L20.9185 51.376L18.4732 51.3761L18.46 59.1346Z" fill="#FFB6B6"/>
<path d="M18.1931 58.7598L20.3777 58.853H20.3778C20.7471 58.8688 21.0949 59.031 21.3449 59.3038C21.5948 59.5766 21.7264 59.9378 21.7107 60.3079L21.7088 60.3532L18.1318 60.2005L18.1931 58.7598Z" fill="#2F2E41"/>
<path d="M20.6435 33.7023C20.5912 33.6875 20.5376 33.6775 20.4835 33.6724L21.175 27.9992L23.5215 23.0188C23.6691 22.7055 23.6927 22.3477 23.5875 22.0177C23.4823 21.6877 23.2562 21.4099 22.9547 21.2404C22.6531 21.0709 22.2987 21.0223 21.9629 21.1044C21.627 21.1866 21.3347 21.3933 21.145 21.6829C20.53 22.6213 20.0648 23.6502 19.7661 24.7324L18.7803 28.3048L19.5011 34.4311C19.4735 34.6038 19.4962 34.7808 19.5666 34.9408C19.637 35.1009 19.752 35.2371 19.8978 35.3332C20.0436 35.4292 20.214 35.481 20.3885 35.4823C20.563 35.4836 20.7341 35.4343 20.8813 35.3404C21.0285 35.2465 21.1455 35.1119 21.2182 34.953C21.2909 34.794 21.3162 34.6173 21.2911 34.4443C21.266 34.2712 21.1915 34.1091 21.0766 33.9775C20.9617 33.8458 20.8113 33.7503 20.6435 33.7023Z" fill="#FFB6B6"/>
<path d="M22.0686 28.4804L19.104 25.0813L20.5727 21.6192C20.765 21.1658 21.1265 20.8057 21.58 20.6158C22.0335 20.4258 22.5431 20.421 23.0001 20.6024C23.4571 20.7838 23.8253 21.137 24.0261 21.5867C24.2268 22.0363 24.2443 22.5468 24.0747 23.0092L22.0686 28.4804Z" fill="#2F2E41"/>
<path d="M26.9989 17.6447C27.7121 16.337 27.2326 14.6974 25.9278 13.9826C24.6231 13.2677 22.9871 13.7483 22.2739 15.056C21.5606 16.3637 22.0401 18.0033 23.3449 18.7182C24.6497 19.433 26.2856 18.9524 26.9989 17.6447Z" fill="#FFB6B6"/>
<path d="M25.086 13.0723H23.3468C22.2066 13.0723 21.2822 14.1145 21.2822 15.4001L21.3627 18.5185C22.5947 18.6721 23.7998 18.9951 24.9438 19.4785L25.1062 18.7837L25.4264 19.6987C25.7112 19.837 25.9935 19.9882 26.2735 20.1524C25.9467 18.6137 25.8123 17.0786 26.0366 15.8861H26.6257V15.24L26.8257 15.8861H27.8936C27.8936 15.5166 27.821 15.1507 27.6799 14.8093C27.5388 14.4679 27.332 14.1577 27.0713 13.8964C26.8106 13.6351 26.5011 13.4279 26.1605 13.2865C25.8198 13.145 25.4547 13.0723 25.086 13.0723Z" fill="#2F2E41"/>
<path d="M30.755 50.7644L30.503 50.8252L30.2916 46.8831L28.7519 35.083L26.9859 30.5898L27.8462 27.4582C27.8462 27.4582 28.8425 25.2798 26.3519 23.6005L24.3594 20.242C22.9831 19.3401 21.8507 19.9298 21.247 21.4629C20.7211 22.7986 20.3128 24.4885 20.5556 26.2328C21.0996 30.1401 21.5518 30.5898 21.5518 30.5898C21.5518 30.5898 18.1556 34.3568 18.8801 39.1676L18.4763 51.6235L18.1069 51.6083L18.0664 52.5977L21.2939 52.7303L21.3343 51.7409L21.0666 51.7299L22.2311 46.7923L23.9519 40.2569L26.9406 48.2446L27.9458 51.4424L27.6147 51.5224L27.846 52.485L30.9863 51.727L30.755 50.7644Z" fill="#2F2E41"/>
<path d="M32.9769 28.3981C32.9403 28.4385 32.9075 28.4821 32.8787 28.5283L28.1236 25.3734L24.7264 21.0442C24.5127 20.7718 24.2039 20.5908 23.8623 20.5377C23.5207 20.4845 23.1717 20.5632 22.8857 20.7578C22.5997 20.9525 22.398 21.2485 22.3212 21.5864C22.2444 21.9242 22.2984 22.2786 22.4721 22.5782C23.035 23.5489 23.7455 24.4258 24.5781 25.177L27.3264 27.6572L33.1171 29.7481C33.2588 29.85 33.427 29.9088 33.6013 29.9172C33.7756 29.9256 33.9486 29.8833 34.0995 29.7955C34.2504 29.7077 34.3727 29.578 34.4518 29.4222C34.531 29.2663 34.5634 29.0908 34.5454 28.9169C34.5273 28.7429 34.4595 28.5779 34.3501 28.4417C34.2406 28.3055 34.0942 28.2038 33.9285 28.149C33.7628 28.0942 33.5849 28.0886 33.416 28.1328C33.2472 28.177 33.0947 28.2691 32.9769 28.3981Z" fill="#FFB6B6"/>
<path d="M28.9473 24.7872L24.5887 25.9266L22.1545 23.0629C21.8357 22.6879 21.6758 22.2029 21.7089 21.7113C21.7419 21.2198 21.9654 20.7607 22.3315 20.432C22.6976 20.1033 23.1774 19.931 23.6685 19.9519C24.1595 19.9728 24.623 20.1852 24.96 20.5439L28.9473 24.7872Z" fill="#2F2E41"/>
<path d="M62.7334 60.4456H4.10979C4.08119 60.4456 4.05376 60.4343 4.03354 60.414C4.01331 60.3937 4.00195 60.3662 4.00195 60.3376C4.00195 60.3089 4.01331 60.2814 4.03354 60.2611C4.05376 60.2409 4.08119 60.2295 4.10979 60.2295H62.7334C62.762 60.2295 62.7894 60.2409 62.8096 60.2611C62.8298 60.2814 62.8412 60.3089 62.8412 60.3376C62.8412 60.3662 62.8298 60.3937 62.8096 60.414C62.7894 60.4343 62.762 60.4456 62.7334 60.4456Z" fill="#CACACA"/>
</g>
<defs>
<clipPath id="clip0_6275_1068">
<rect width="80.85" height="64.05" fill="white" transform="translate(0.749512 0.799805)"/>
</clipPath>
</defs>
</svg>
