<svg width="75" height="81" viewBox="0 0 75 81" fill="none" xmlns="http://www.w3.org/2000/svg">
<g clip-path="url(#clip0_6275_1346)">
<path d="M30.259 65.2755C30.1199 65.035 29.5182 65.2925 29.4076 65.0743C29.2974 64.8568 29.8564 64.5255 30.1758 63.7686C30.2334 63.6321 30.5964 62.772 30.3277 62.5065C29.8184 62.0035 27.4877 64.0796 26.6721 63.4002C26.4931 63.2511 26.3681 62.9534 25.8264 62.4702C25.6108 62.2779 25.4805 62.1911 25.3544 62.2234C25.1754 62.2692 25.1613 62.5148 24.9694 62.9977C24.6816 63.7219 24.5114 63.6782 24.3437 64.2559C24.2192 64.6848 24.2476 64.9342 24.1012 64.9828C23.8939 65.0515 23.7031 64.5966 23.4404 64.6373C23.1724 64.6789 23.0103 65.2086 22.9591 65.6052C22.8631 66.3495 23.1296 66.8406 23.2774 67.357C23.4379 67.9181 23.5332 68.7716 23.1624 69.9798L19.4927 80.5819C20.3028 78.4064 22.6487 72.4427 23.6344 70.2265C23.919 69.5868 24.2331 68.9379 24.8783 68.6818C25.4994 68.4352 26.3524 68.5824 27.4399 68.3138C27.5669 68.2824 27.9194 68.1905 27.9637 67.9779C28.0004 67.8022 27.7931 67.7041 27.8249 67.5395C27.8677 67.3187 28.2753 67.316 28.7763 67.0613C29.1296 66.8817 29.3497 66.6681 29.5389 66.4844C29.596 66.429 30.4441 65.5956 30.259 65.2755Z" fill="#F2F2F2"/>
<path d="M15.8192 70.8565C15.664 70.8572 15.6136 71.2343 15.4773 71.227C15.3414 71.2197 15.3441 70.8427 15.0739 70.4636C15.0252 70.3952 14.7182 69.9644 14.5137 70.023C14.1259 70.1342 14.4472 71.9061 13.8867 72.1206C13.7637 72.1677 13.5851 72.1447 13.1975 72.2779C13.0433 72.3309 12.9641 72.3714 12.9432 72.4442C12.9135 72.5475 13.027 72.6255 13.2027 72.8614C13.4663 73.2152 13.3963 73.2882 13.6244 73.5393C13.7938 73.7257 13.9214 73.7834 13.9024 73.8711C13.8755 73.9953 13.6027 73.96 13.5464 74.104C13.4889 74.2509 13.6957 74.4853 13.8708 74.6254C14.1993 74.8885 14.5113 74.8961 14.8011 74.9707C15.116 75.0518 15.552 75.2501 16.0234 75.7853L20.0393 80.6912C19.2317 79.6558 17.054 76.7545 16.2777 75.619C16.0535 75.2912 15.8336 74.9459 15.8971 74.5473C15.9583 74.1636 16.2749 73.7767 16.4601 73.1519C16.4818 73.079 16.5394 72.8751 16.4505 72.7914C16.377 72.7222 16.2702 72.7983 16.2006 72.7347C16.1072 72.6495 16.2236 72.4436 16.2462 72.118C16.2622 71.8884 16.2234 71.716 16.1901 71.5677C16.1801 71.523 16.0259 70.8557 15.8192 70.8565Z" fill="#F2F2F2"/>
<path d="M18.9177 71.5694L18.8242 70.7133L18.867 70.6484C19.0647 70.3483 19.1655 70.0552 19.1667 69.777C19.1669 69.7328 19.1649 69.6885 19.1628 69.6435C19.1548 69.4649 19.1447 69.2429 19.2576 68.9841C19.3209 68.8399 19.4987 68.5059 19.7659 68.5472C19.8379 68.5576 19.8923 68.5914 19.9336 68.6311C19.9397 68.6212 19.9459 68.6113 19.9526 68.6005C20.0358 68.4703 20.1017 68.4145 20.1652 68.3608C20.214 68.3195 20.2644 68.2769 20.3434 68.176C20.3781 68.1318 20.4051 68.0929 20.4279 68.0603C20.497 67.9615 20.5873 67.8437 20.7466 67.8457C20.9167 67.854 21.0058 67.9983 21.0648 68.0938C21.1703 68.2641 21.218 68.3868 21.2497 68.4683C21.2612 68.498 21.2743 68.5315 21.2809 68.5418C21.3357 68.6245 21.7814 68.5472 21.9493 68.5191C22.3264 68.4546 22.6528 68.3988 22.7872 68.6427C22.8836 68.8171 22.812 69.0478 22.5681 69.3467C22.4921 69.4397 22.4113 69.5104 22.3395 69.5658C22.399 69.6021 22.4522 69.6579 22.4738 69.7456C22.5246 69.9531 22.3506 70.161 21.957 70.3644C21.8592 70.4152 21.7276 70.483 21.5432 70.5157C21.4563 70.531 21.3781 70.5347 21.3112 70.5368C21.3097 70.5764 21.3007 70.6194 21.2771 70.6637C21.2079 70.7939 21.064 70.8559 20.8471 70.841C20.6085 70.8282 20.412 70.7815 20.2386 70.7405C20.0872 70.705 19.9568 70.6748 19.8544 70.6819C19.6646 70.6976 19.5182 70.8534 19.3465 71.0555L18.9177 71.5694Z" fill="#F2F2F2"/>
<path d="M19.3499 66.473L18.566 66.7829L18.494 66.757C18.1607 66.637 17.8587 66.6114 17.5959 66.6807C17.5542 66.6917 17.5129 66.705 17.4709 66.7184C17.3045 66.7717 17.0977 66.838 16.8249 66.7917C16.6728 66.7655 16.3126 66.6739 16.2838 66.3983C16.2753 66.3243 16.2935 66.2617 16.3205 66.2107C16.3096 66.2072 16.2986 66.2035 16.2868 66.1996C16.1428 66.1501 16.0735 66.0989 16.0067 66.0495C15.9553 66.0116 15.9024 65.9724 15.7872 65.9197C15.7367 65.8965 15.6931 65.8796 15.6566 65.8652C15.5458 65.8217 15.4118 65.762 15.3734 65.6036C15.338 65.4327 15.4515 65.3078 15.5266 65.225C15.6605 65.0772 15.7642 64.9987 15.833 64.9467C15.8582 64.9277 15.8864 64.9062 15.8945 64.897C15.9586 64.8217 15.7726 64.3992 15.7035 64.2398C15.547 63.8821 15.4116 63.5726 15.6076 63.3774C15.7477 63.2376 15.9834 63.25 16.3272 63.4161C16.4342 63.4679 16.5214 63.5302 16.5919 63.5873C16.6111 63.5191 16.6503 63.4522 16.7275 63.4085C16.9103 63.3055 17.1506 63.4253 17.4423 63.7642C17.5151 63.8482 17.6124 63.9616 17.69 64.1362C17.7265 64.2185 17.7498 64.2952 17.7687 64.361C17.8065 64.3523 17.8494 64.3504 17.8971 64.3626C18.0375 64.3982 18.1325 64.5252 18.1734 64.7441C18.2219 64.984 18.2277 65.1908 18.233 65.3731C18.2379 65.5323 18.2425 65.6693 18.2751 65.7691C18.3381 65.9534 18.5222 66.059 18.7565 66.1781L19.3499 66.473Z" fill="#F2F2F2"/>
<path d="M18.9177 63.9512L18.8242 63.0951L18.867 63.0302C19.0647 62.7301 19.1655 62.437 19.1667 62.1588C19.1669 62.1146 19.1649 62.0704 19.1628 62.0253C19.1548 61.8467 19.1447 61.6248 19.2576 61.366C19.3209 61.2217 19.4987 60.8877 19.7659 60.9291C19.8379 60.9394 19.8923 60.9733 19.9336 61.013C19.9397 61.003 19.9459 60.9931 19.9526 60.9824C20.0358 60.8522 20.1017 60.7964 20.1652 60.7426C20.214 60.7013 20.2644 60.6587 20.3434 60.5578C20.3781 60.5136 20.4051 60.4748 20.4279 60.4421C20.497 60.3433 20.5873 60.2255 20.7466 60.2276C20.9167 60.2358 21.0058 60.3801 21.0648 60.4756C21.1703 60.6459 21.218 60.7687 21.2497 60.8501C21.2612 60.8799 21.2743 60.9133 21.2809 60.9237C21.3357 61.0064 21.7814 60.929 21.9493 60.9009C22.3264 60.8365 22.6528 60.7807 22.7872 61.0245C22.8836 61.199 22.812 61.4296 22.5681 61.7285C22.4921 61.8215 22.4113 61.8922 22.3395 61.9476C22.399 61.984 22.4522 62.0398 22.4738 62.1274C22.5246 62.3349 22.3506 62.5428 21.957 62.7462C21.8592 62.7971 21.7276 62.8649 21.5432 62.8975C21.4563 62.9128 21.3781 62.9165 21.3112 62.9186C21.3097 62.9583 21.3007 63.0013 21.2771 63.0455C21.2079 63.1757 21.064 63.2377 20.8471 63.2228C20.6085 63.21 20.412 63.1633 20.2386 63.1224C20.0872 63.0868 19.9568 63.0567 19.8544 63.0637C19.6646 63.0794 19.5182 63.2352 19.3465 63.4374L18.9177 63.9512Z" fill="#F2F2F2"/>
<path d="M19.7696 80.5683L19.5946 80.4559L19.3906 80.4798C19.3874 80.4604 19.3763 80.4158 19.3596 80.3459C19.2683 79.9631 18.9899 78.7983 18.7577 76.9637C18.5957 75.6831 18.5039 74.3665 18.485 73.05C18.466 71.7313 18.5269 70.733 18.5757 69.9307C18.6126 69.3255 18.6573 68.7493 18.7013 68.1879C18.8182 66.6882 18.9284 65.2716 18.8464 63.7033C18.8283 63.3532 18.7902 62.6244 18.3749 61.8489C18.1341 61.3992 17.8023 60.9999 17.3887 60.6626L17.6459 60.3311C18.1024 60.7039 18.4695 61.1462 18.737 61.6456C19.1973 62.5054 19.2389 63.2995 19.2588 63.681C19.3423 65.277 19.2308 66.7073 19.1127 68.2214C19.0691 68.7807 19.0244 69.3545 18.9877 69.9572C18.9393 70.7521 18.8791 71.7417 18.8978 73.0434C18.9163 74.3442 19.007 75.6447 19.1669 76.9092C19.3963 78.7206 19.6706 79.8681 19.7607 80.2451C19.8087 80.4464 19.8188 80.4885 19.7696 80.5683Z" fill="#F2F2F2"/>
<path d="M16.6323 61.3346C16.6154 61.3346 16.5982 61.3342 16.5809 61.333C16.2294 61.3136 15.9038 61.0978 15.6132 60.6919C15.4769 60.5009 15.4072 60.283 15.2681 59.8486C15.2465 59.7816 15.1417 59.4418 15.078 58.9743C15.0363 58.6688 15.0415 58.5411 15.1006 58.4282C15.1661 58.3026 15.2721 58.215 15.3914 58.1558C15.3862 58.1153 15.3904 58.0736 15.4076 58.031C15.4779 57.8545 15.665 57.8776 15.7662 57.8888C15.8174 57.8954 15.8813 57.9041 15.9502 57.9004C16.0586 57.895 16.1169 57.8619 16.2052 57.8123C16.2896 57.7648 16.3946 57.7057 16.5505 57.673C16.8576 57.6073 17.115 57.6966 17.1999 57.7259C17.6464 57.8785 17.8665 58.2344 18.1213 58.6465C18.1721 58.7292 18.3464 59.0301 18.4615 59.4426C18.5446 59.7403 18.5329 59.8725 18.5079 59.9709C18.4571 60.1731 18.3371 60.2888 18.0326 60.5443C17.7145 60.8117 17.5549 60.9457 17.4178 61.0271C17.0987 61.216 16.8984 61.3346 16.6323 61.3346Z" fill="#F2F2F2"/>
<path d="M35.9729 79.8451L37.0539 79.845L37.5682 75.5693L35.9727 75.5694L35.9729 79.8451Z" fill="#FFB6B6"/>
<path d="M39.6765 79.82C39.7102 79.8781 39.7279 80.0657 39.7279 80.1333C39.7279 80.3411 39.5637 80.5095 39.361 80.5095H36.0132C35.8749 80.5095 35.7629 80.3946 35.7629 80.2529V80.11C35.7629 80.11 35.5973 79.6804 35.9382 79.151C35.9382 79.151 36.362 79.5655 36.9952 78.9162L37.182 78.5693L38.5337 79.583L39.2829 79.6776C39.4469 79.6983 39.5922 79.6744 39.6765 79.82Z" fill="#2F2E41"/>
<path d="M32.6755 79.8451L33.7565 79.845L34.2708 75.5693L32.6753 75.5694L32.6755 79.8451Z" fill="#FFB6B6"/>
<path d="M36.3792 79.82C36.4128 79.8781 36.4306 80.0657 36.4306 80.1333C36.4306 80.3411 36.2663 80.5095 36.0637 80.5095H32.7158C32.5776 80.5095 32.4655 80.3946 32.4655 80.2529V80.11C32.4655 80.11 32.2999 79.6804 32.6409 79.151C32.6409 79.151 33.0646 79.5655 33.6979 78.9162L33.8846 78.5693L35.2363 79.583L35.9856 79.6776C36.1495 79.6983 36.2948 79.6744 36.3792 79.82Z" fill="#2F2E41"/>
<path d="M37.2176 61.3799L38.3707 65.9587L37.7941 77.7168L35.0761 77.9033L34.9113 71.1347L34.5819 78.1024L31.7814 77.5052L31.6167 62.1762L37.2176 61.3799Z" fill="#2F2E41"/>
<path d="M26.058 45.9643C25.6859 45.2949 25.0474 44.949 24.632 45.1919C24.2165 45.4348 24.1814 46.1742 24.5537 46.8439C24.6988 47.1135 24.9048 47.3435 25.1544 47.5148L26.7658 50.3309L28.0385 49.5274L26.3148 46.8365C26.2984 46.5289 26.2103 46.2298 26.058 45.9643Z" fill="#FFB6B6"/>
<path d="M33.3812 55.9063C33.3812 55.9063 31.854 58.0647 30.9199 57.2934C29.9859 56.5222 24.8252 47.8521 24.8252 47.8521L26.8733 46.7266L33.3812 55.9063Z" fill="#6C63FF"/>
<path d="M31.9492 53.2719L33.926 50.2314L35.9028 51.076L35.4086 53.7786L31.9492 53.2719Z" fill="#FFB6B6"/>
<path d="M32.1117 52.5966L35.571 52.4277L37.8773 53.1034L38.3715 65.603L31.4527 64.9274V58.3357L30.4644 54.9614L32.1117 52.5966Z" fill="#6C63FF"/>
<path d="M37.8226 61.028C37.7011 60.6644 37.6526 60.2806 37.684 59.8976C37.7725 58.8169 37.7892 56.6994 36.7149 55.7427L36.1081 55.0687C36.0955 55.0547 36.0813 55.0427 36.0684 55.029L37.0724 52.6091L36.4659 52.3447L35.534 54.5907C35.1207 54.3328 34.644 54.19 34.1509 54.19C33.5813 54.19 33.0369 54.3805 32.5871 54.7157L32.0188 52.5808L31.383 52.7588L32.0936 55.1936C32.0678 55.2259 32.0395 55.2556 32.0151 55.2893L31.6679 55.767C31.5834 55.8834 31.4901 55.9914 31.389 56.0929C31.1759 56.3069 30.7602 56.8265 30.7561 57.6264C30.7548 57.9 30.6999 58.1706 30.6186 58.4312L30.206 59.7534C30.1672 59.8776 30.1368 60.004 30.1162 60.1326C29.9342 61.2648 29.3045 66.5991 33.6087 66.4923C37.621 66.3928 37.8851 63.8876 37.8617 63.0555C37.8566 62.875 37.8724 62.6959 37.9053 62.5184C37.9655 62.193 38.0196 61.617 37.8226 61.028Z" fill="#3F3D56"/>
<path d="M55.9469 7.0332L56.3221 12.9733L51.604 14.0834L51.9327 9.28054L55.9469 7.0332Z" fill="#FFB6B6"/>
<path d="M56.3088 79.2259L54.1821 79.2257L53.1704 70.8145L56.3092 70.8147L56.3088 79.2259Z" fill="#FFB6B6"/>
<path d="M49.0225 79.1771C48.9563 79.2915 48.9214 79.6606 48.9214 79.7935C48.9214 80.2023 49.2445 80.5337 49.6432 80.5337H56.2293C56.5012 80.5337 56.7217 80.3076 56.7217 80.0288V79.7476C56.7217 79.7476 57.0475 78.9026 56.3767 77.861C56.3767 77.861 55.543 78.6766 54.2973 77.3992L53.9299 76.7168L51.2707 78.711L49.7968 78.897C49.4743 78.9377 49.1884 78.8907 49.0225 79.1771Z" fill="#2F2E41"/>
<path d="M62.0715 79.2259L59.9448 79.2257L58.9331 70.8145L62.0719 70.8147L62.0715 79.2259Z" fill="#FFB6B6"/>
<path d="M54.7852 79.1771C54.719 79.2915 54.6841 79.6606 54.6841 79.7935C54.6841 80.2023 55.0072 80.5337 55.4059 80.5337H61.992C62.2639 80.5337 62.4844 80.3076 62.4844 80.0288V79.7476C62.4844 79.7476 62.8102 78.9026 62.1394 77.861C62.1394 77.861 61.3057 78.6766 60.06 77.3992L59.6926 76.7168L57.0334 78.711L55.5595 78.897C55.237 78.9377 54.9511 78.8907 54.7852 79.1771Z" fill="#2F2E41"/>
<path d="M63.4119 39.252C63.4119 39.252 65.2239 41.6168 64.8945 42.9681C64.565 44.3194 62.2588 75.3996 62.2588 75.3996L58.9641 75.2307L56.9873 47.3598L56.4789 75.3996L53.3632 75.2307L49.4097 40.4344L63.4119 39.252Z" fill="#2F2E41"/>
<path d="M44.3644 46.7923C44.0528 48.0166 43.1843 48.8441 42.4244 48.6407C41.6646 48.4373 41.3014 47.2801 41.6132 46.0554C41.7312 45.5644 41.9621 45.1096 42.2867 44.7289L43.6705 39.5586L46.0229 40.2762L44.4089 45.297C44.5108 45.7919 44.4955 46.3046 44.3644 46.7923Z" fill="#FFB6B6"/>
<path d="M52.1148 11.9627C54.7144 11.9627 56.8218 9.80176 56.8218 7.13613C56.8218 4.47049 54.7144 2.30957 52.1148 2.30957C49.5151 2.30957 47.4077 4.47049 47.4077 7.13613C47.4077 9.80176 49.5151 11.9627 52.1148 11.9627Z" fill="#FFB6B6"/>
<path d="M51.5532 13.2391L56.4952 12.2256L61.9313 15.0971L63.0844 33.5088L64.567 40.4342L49.2469 40.6032L49.9059 31.3129L48.9175 16.6174L51.5532 13.2391Z" fill="#E6E6E6"/>
<path d="M50.3987 17.1246C50.3987 17.1246 47.763 16.28 46.7746 17.8002C45.7862 19.3205 43.9742 33.0025 43.9742 33.0025L42.1621 43.3063L45.4567 43.813L50.8929 25.7392L50.3987 17.1246Z" fill="#E6E6E6"/>
<path d="M74.3715 40.87C74.9086 42.0091 74.7706 43.2167 74.0636 43.567C73.3565 43.9173 72.3482 43.2778 71.8111 42.1382C71.5905 41.686 71.4787 41.1861 71.485 40.6805L69.269 35.8244L71.5136 34.8066L73.4599 39.702C73.8504 40.0111 74.163 40.4116 74.3715 40.87Z" fill="#FFB6B6"/>
<path d="M59.8643 15.2723C59.8643 15.2723 62.2313 13.814 63.5415 15.0523C64.8518 16.2905 69.7603 29.1481 69.7603 29.1481L73.8917 38.7228L70.8066 40.0122L61.3659 23.7633L59.8643 15.2723Z" fill="#E6E6E6"/>
<path d="M71.2598 80.5487C71.2598 80.6601 71.1725 80.7497 71.0637 80.7497H0.345933C0.237215 80.7497 0.149902 80.6601 0.149902 80.5487C0.149902 80.4946 0.16968 80.4473 0.202618 80.4118H14.9824C15.297 80.4118 15.6051 80.3899 15.9082 80.3477H71.0637C71.1725 80.3477 71.2598 80.4372 71.2598 80.5487Z" fill="#3F3D56"/>
<path d="M42.3037 47.3248C42.5977 46.6157 43.1928 46.1964 43.6329 46.3883C44.073 46.5802 44.1914 47.3106 43.8972 48.0199C43.7835 48.3049 43.6048 48.5579 43.3762 48.7576L42.0936 51.746L40.7388 51.099L42.147 48.2216C42.1287 47.9141 42.1824 47.6066 42.3037 47.3248Z" fill="#FFB6B6"/>
<path d="M33.7403 52.4763C35.4137 52.4763 36.7702 51.0853 36.7702 49.3695C36.7702 47.6537 35.4137 46.2627 33.7403 46.2627C32.067 46.2627 30.7104 47.6537 30.7104 49.3695C30.7104 51.0853 32.067 52.4763 33.7403 52.4763Z" fill="#FFB6B6"/>
<path d="M37.5479 53.1026L40.513 51.9202L41.5014 48.373L43.6429 49.2176L41.9956 54.285L37.5479 56.0274V53.1026Z" fill="#6C63FF"/>
<path d="M33.3397 52.8233L35.1467 51.3157C35.1467 51.3157 34.9757 49.0562 35.6254 48.853C36.275 48.6498 36.9525 47.8382 36.9525 47.8382C36.9525 47.8382 35.8773 45.3476 33.9847 45.7256C32.0921 46.1035 32.5239 45.5286 31.3576 46.162C30.1913 46.7953 29.9178 47.6404 30.0596 48.5383C30.2015 49.4362 29.7792 51.6671 31.1919 51.782C32.6045 51.8968 33.3397 52.8233 33.3397 52.8233Z" fill="#2F2E41"/>
<path d="M49.2635 8.21736C48.92 7.57505 49.0983 7.26843 48.7884 7.01734C48.7884 7.01733 48.6637 6.91629 47.7248 6.7876C47.6351 5.21238 47.3863 5.00186 47.3863 5.00185C47.0996 4.75923 46.6433 4.79305 46.3525 4.90326C45.7375 5.13634 45.7589 5.75039 45.3505 5.83411C44.7864 5.94975 46.3244 4.96085 46.3064 3.91477C46.2917 3.06146 46.8878 2.28269 47.0954 2.34348C47.3013 2.40375 47.8532 1.78908 48.1229 1.82134C48.3071 1.84338 49.0879 1.56887 49.2889 1.61179C49.5084 1.65868 50.2089 2.10972 50.2463 2.02285C50.5064 1.41917 50.4576 1.24176 50.6511 1.07881C50.9939 0.79007 51.4975 1.05195 52.3051 1.23656C53.9668 1.6164 54.3044 1.07221 55.1357 1.52791C55.5556 1.7581 55.8788 2.31261 56.508 3.41224C57.3879 4.95006 57.8279 5.71897 57.7649 6.56859C57.7006 7.43506 57.2959 7.34656 57.0163 8.61418C56.705 10.0252 57.0792 10.7128 56.5788 11.1385C56.192 11.4675 52.9851 11.4928 52.6264 11.1469C52.0122 10.5546 52.9721 9.32535 52.32 8.31642C51.9198 7.69709 51.0437 7.36434 50.6107 7.6188C50.1211 7.90652 50.3024 8.8836 49.9688 8.94752C49.6832 9.00226 49.3233 8.32929 49.2635 8.21736Z" fill="#2F2E41"/>
<path d="M26.4505 47.4828C27.1062 46.9148 26.9321 45.5979 26.0616 44.5413C25.6806 44.0788 25.2293 43.7429 24.7873 43.559L24.2792 42.9578L17.7185 34.5287C17.7185 34.5287 14.0853 26.1435 13.0127 25.2376C11.9402 24.3318 10.6784 24.8034 10.6784 24.8034L9.69385 26.0524L15.829 37.7602L22.108 44.2396L22.9556 45.1457C23.0586 45.6233 23.3061 46.1357 23.6872 46.5982C24.5576 47.6547 25.7948 48.0507 26.4505 47.4828Z" fill="#FFB6B6"/>
<path d="M14.0646 26.7959L15.7088 29.2683L18.0691 32.8503L13.828 34.3546L10.0835 27.7663L14.0646 26.7959Z" fill="#E6E6E6"/>
<path d="M15.7364 18.382L14.5456 23.037L10.0059 22.1213C10.0059 22.1213 11.792 18.7635 11.3455 17.2373L15.7364 18.382Z" fill="#FFB6B6"/>
<path d="M10.9415 78.9759L13.6753 78.9756L14.9758 68.1631L10.9409 68.1634L10.9415 78.9759Z" fill="#FFB6B6"/>
<path d="M20.3079 78.9127C20.393 79.0597 20.438 79.5342 20.438 79.7051C20.438 80.2306 20.0225 80.6565 19.5101 80.6565H11.0438C10.6942 80.6565 10.4108 80.366 10.4108 80.0075V79.6461C10.4108 79.6461 9.99195 78.5598 10.8542 77.2209C10.8542 77.2209 11.9259 78.2692 13.5273 76.6272L13.9995 75.75L17.4179 78.3135L19.3126 78.5526C19.7271 78.6049 20.0947 78.5445 20.3079 78.9127Z" fill="#2F2E41"/>
<path d="M18.533 47.6848L14.7659 73.9702H10.0396L10.668 58.9659L10.9988 51.0765L10.0396 47.3211C10.0396 47.3211 9.60221 46.4864 9.23377 45.4746C8.81847 44.3327 8.49046 42.9638 8.97743 42.3147C9.15659 42.0754 9.62243 41.8982 10.2555 41.7663C10.6423 41.6853 11.0925 41.6222 11.5786 41.5732C14.3736 41.2896 18.3492 41.4667 18.3492 41.4667L18.4503 44.8867L18.5063 46.7964L18.533 47.6848Z" fill="#2F2E41"/>
<path d="M6.12549 77.6908L8.83027 78.0983L11.6508 67.5947L7.65876 66.9932L6.12549 77.6908Z" fill="#FFB6B6"/>
<path d="M15.4027 79.0251C15.4661 79.1832 15.4432 79.6593 15.419 79.8284C15.3444 80.3483 14.873 80.7078 14.366 80.6313L5.98974 79.3686C5.64387 79.3164 5.40469 78.9867 5.45555 78.632L5.50682 78.2744C5.50682 78.2744 5.24655 77.1372 6.28958 75.9412C6.28958 75.9412 7.20116 77.1383 9.01845 75.7525L9.6101 74.9551L12.6284 78.0011L14.4691 78.5203C14.8718 78.6339 15.244 78.6289 15.4027 79.0251Z" fill="#2F2E41"/>
<path d="M18.5939 43.3013L18.0772 47.864L15.2594 57.4789L10.6209 73.3083L5.94531 72.6037L10.1416 50.0967L9.72606 46.2373C9.72606 46.2373 9.59075 45.8537 9.43564 45.2921C9.12777 44.181 8.74162 42.3716 9.16645 41.4486C9.22381 41.3231 9.29582 41.2143 9.3849 41.1261C9.55199 40.96 9.8916 40.8591 10.3466 40.8056C12.2484 40.5852 16.1649 41.2155 17.9077 41.525L18.5939 43.3013Z" fill="#2F2E41"/>
<path d="M14.9928 21.6628L20.1279 28.302L19.2061 35.2238L18.4162 42.267L9.11337 40.8171C9.11337 40.8171 11.1228 35.8568 11.346 35.6279C11.5693 35.399 12.1301 35.9644 11.7381 35.2238C11.346 34.4832 10.8995 34.4832 11.2716 34.1017C11.6437 33.7201 8.36914 28.7598 8.36914 26.0889C8.36914 23.418 9.93201 21.2812 9.93201 21.2812L14.9928 21.6628Z" fill="#E6E6E6"/>
<path d="M13.7933 19.2622C15.7038 19.2622 17.2526 17.6741 17.2526 15.7151C17.2526 13.7561 15.7038 12.168 13.7933 12.168C11.8828 12.168 10.334 13.7561 10.334 15.7151C10.334 17.6741 11.8828 19.2622 13.7933 19.2622Z" fill="#FFB6B6"/>
<path d="M13.6307 22.4962C13.6307 22.4962 14.1484 18.2964 14.24 17.075C14.3316 15.8537 16.0129 13.9468 16.0129 13.9468L17.204 14.9333C17.204 14.9333 18.2119 14.9333 17.5247 13.4301C16.8375 11.9269 15.5548 11.6921 15.5548 11.6921C15.5548 11.6921 15.4174 9.71912 13.0352 9.95399C10.653 10.1889 9.5993 12.1618 9.5993 12.1618C9.5993 12.1618 9.46186 9.67215 7.95008 11.5042C6.4383 13.3362 5.56788 14.0878 7.17129 14.6984C8.77469 15.3091 9.96579 14.8393 9.96579 14.8393C9.96579 14.8393 8.4082 15.1682 8.68306 16.2956C8.95793 17.423 5.06395 22.5432 6.8506 23.1069C8.63725 23.6706 12.6229 25.0328 13.081 24.1403C13.5391 23.2478 13.6307 22.4962 13.6307 22.4962Z" fill="#2F2E41"/>
<path d="M27.891 47.8344C28.5513 47.2721 28.388 45.9537 27.5262 44.8897C27.1489 44.424 26.7004 44.0842 26.2598 43.8965L25.7567 43.291L19.2651 34.8058C19.2651 34.8058 15.7006 26.3897 14.6355 25.4746C13.5704 24.5595 12.3048 25.0203 12.3048 25.0203L11.3101 26.2608L17.3493 38.0209L23.5751 44.554L24.4153 45.4674C24.5144 45.9459 24.7577 46.4604 25.135 46.9261C25.9968 47.9901 27.2307 48.3967 27.891 47.8344Z" fill="#FFB6B6"/>
<path d="M10.9326 24.3682C10.9326 24.3682 12.5218 32.8243 14.3301 34.0709L17.9337 31.1897C17.9337 31.1897 18.249 31.1758 17.6621 30.496C17.0752 29.8162 17.2255 28.3564 17.2255 28.3564C17.2255 28.3564 17.4896 28.7068 16.9149 28.2204C16.3402 27.734 16.8752 24.389 16.8752 24.389L10.9326 24.3682Z" fill="#E6E6E6"/>
<path d="M37.1796 59.2561C37.1036 59.2561 37.0352 59.202 37.0187 59.1227L36.8375 58.2599C36.5713 56.9911 35.5021 56.0645 34.2375 56.0066C33.0659 55.9527 31.9802 56.6643 31.5352 57.7765L31.0808 58.9124C31.0463 58.9989 30.9503 59.0399 30.8658 59.0046C30.7817 58.9692 30.7415 58.8705 30.7761 58.7843L31.2305 57.6483C31.7283 56.4046 32.9411 55.6103 34.2523 55.6691C35.6664 55.7338 36.8618 56.77 37.1596 58.1888L37.3407 59.0516C37.3599 59.1429 37.3033 59.2327 37.2145 59.2523C37.2027 59.2549 37.191 59.2561 37.1796 59.2561Z" fill="#FFB6B6"/>
<path d="M37.3731 62.0026C37.3683 62.0026 37.3633 62.0023 37.3583 62.0019L31.2624 61.4445C31.1718 61.4362 31.1049 61.3542 31.113 61.2613C31.1212 61.1684 31.2003 61.1002 31.2917 61.108L37.3876 61.6654C37.4781 61.6737 37.5451 61.7557 37.537 61.8487C37.5293 61.9365 37.4576 62.0026 37.3731 62.0026Z" fill="#FFB6B6"/>
</g>
<defs>
<clipPath id="clip0_6275_1346">
<rect width="74.55" height="79.8" fill="white" transform="translate(0.149902 0.950195)"/>
</clipPath>
</defs>
</svg>
