<svg width="94" height="59" viewBox="0 0 94 59" fill="none" xmlns="http://www.w3.org/2000/svg">
<g clip-path="url(#clip0_6275_1413)">
<path d="M14.0908 32.4492H11.1001C10.995 32.4492 10.8941 32.4097 10.8197 32.3394C10.7454 32.2691 10.7036 32.1738 10.7036 32.0744V30.8334C10.7036 30.734 10.7454 30.6386 10.8197 30.5683C10.8941 30.498 10.995 30.4585 11.1001 30.4585H11.5957V28.5991H13.5952V30.4585H14.0908C14.196 30.4585 14.2968 30.498 14.3712 30.5683C14.4455 30.6386 14.4873 30.734 14.4873 30.8334V32.0744C14.4873 32.1738 14.4455 32.2691 14.3712 32.3394C14.2968 32.4097 14.196 32.4492 14.0908 32.4492Z" fill="#EC9611"/>
<path d="M17.0874 21.0916C15.2558 23.6253 14.3195 26.642 14.4125 29.7096C14.4142 29.7804 14.3899 29.8495 14.3438 29.9053C14.2976 29.9611 14.2325 30 14.1594 30.0155V30.5518H11.0009V30.023H10.9573C10.9128 30.0229 10.8687 30.0142 10.8279 29.9973C10.7871 29.9804 10.7504 29.9558 10.7201 29.9249C10.6898 29.894 10.6666 29.8576 10.6519 29.8178C10.6371 29.7781 10.6312 29.7359 10.6345 29.6939C10.8834 26.4147 10.0431 23.4739 8.11375 20.8717C8.00273 20.7221 7.94601 20.5426 7.9521 20.3599L8.29748 10.2602C8.30578 10.0349 8.40579 9.82136 8.57664 9.66413C8.74749 9.5069 8.97597 9.41813 9.2144 9.41634H16.3586C16.5998 9.41819 16.8306 9.50899 17.002 9.66939C17.1734 9.82979 17.2717 10.0471 17.2761 10.2751L17.4092 20.0811C17.4131 20.441 17.3009 20.7935 17.0874 21.0916Z" fill="#3F3D56"/>
<path opacity="0.2" d="M13.4687 32.0449C13.4687 31.8304 13.3786 31.6247 13.2182 31.4731C13.0577 31.3214 12.8401 31.2362 12.6133 31.2362C12.3864 31.2362 12.1688 31.3214 12.0084 31.4731C11.8479 31.6247 11.7578 31.8304 11.7578 32.0449" fill="black"/>
<path d="M15.957 17.737H15.0919C15.0093 18.2437 14.7376 18.7057 14.326 19.0394C13.9144 19.3732 13.3901 19.5566 12.8478 19.5566C12.3055 19.5566 11.7812 19.3732 11.3696 19.0394C10.958 18.7057 10.6863 18.2437 10.6037 17.737H9.73854C9.64649 17.737 9.55553 17.7182 9.47189 17.6819C9.38825 17.6455 9.31392 17.5925 9.25398 17.5265C9.19405 17.4604 9.14993 17.3829 9.12465 17.2992C9.09937 17.2156 9.09352 17.1277 9.10752 17.0417L10.0472 11.2673H15.4431L16.5845 17.0222C16.6018 17.1094 16.5986 17.1991 16.575 17.285C16.5515 17.3708 16.5082 17.4507 16.4483 17.5189C16.3884 17.5872 16.3133 17.6421 16.2284 17.6798C16.1435 17.7175 16.0508 17.737 15.957 17.737Z" fill="#EC9611"/>
<path d="M88.6552 27.0186L88.4477 19.1776L88.1907 9.45437H79.443L79.1418 20.8463L78.9785 27.0186H88.6552Z" fill="#E6E6E6"/>
<path d="M84.3963 31.1895H83.1577V15.6744H84.3963V31.1895Z" fill="#EC9611"/>
<path d="M88.0349 21.11L87.8006 9.96541H79.8272L79.5527 23.0225C80.2711 23.2132 81.0233 23.2621 81.7625 23.166C82.5017 23.0698 83.212 22.8308 83.8492 22.4638C85.1814 21.719 86.678 21.318 88.0349 21.11Z" fill="#3F3D56"/>
<path d="M81.8006 19.8555H80.6641V18.781H81.8006V19.8555Z" fill="#E6E6E6"/>
<path d="M82.576 22.0508H81.4395V20.9763H82.576V22.0508Z" fill="#E6E6E6"/>
<path d="M85.0184 20.5308L84.1055 21.1709L83.4284 20.3079L84.3413 19.6678L85.0184 20.5308Z" fill="#E6E6E6"/>
<path d="M87.0691 18.6275L86.1562 19.2676L85.4792 18.4046L86.3921 17.7645L87.0691 18.6275Z" fill="#E6E6E6"/>
<path d="M83.5867 17.5299L82.6738 18.1699L81.9968 17.3069L82.9097 16.6669L83.5867 17.5299Z" fill="#E6E6E6"/>
<path d="M86.2571 22.4808C86.3854 22.4808 86.4894 22.5791 86.4894 22.7004C86.4894 22.8216 86.3854 22.9199 86.2571 22.9199C86.1289 22.9199 86.0249 22.8216 86.0249 22.7004C86.0249 22.5791 86.1289 22.4808 86.2571 22.4808Z" fill="#3F3D56"/>
<path d="M81.532 23.9447C81.6603 23.9447 81.7643 24.043 81.7643 24.1642C81.7643 24.2855 81.6603 24.3838 81.532 24.3838C81.4038 24.3838 81.2998 24.2855 81.2998 24.1642C81.2998 24.043 81.4038 23.9447 81.532 23.9447Z" fill="#3F3D56"/>
<path d="M85.4818 25.4818C85.61 25.4818 85.714 25.5801 85.714 25.7013C85.714 25.8226 85.61 25.9209 85.4818 25.9209C85.3535 25.9209 85.2495 25.8226 85.2495 25.7013C85.2495 25.5801 85.3535 25.4818 85.4818 25.4818Z" fill="#3F3D56"/>
<path d="M48.3022 9.52111C62.353 9.52111 73.7435 20.2893 73.7435 33.5726C73.7435 46.8558 62.353 57.624 48.3022 57.624C34.2513 57.624 22.8608 46.8558 22.8608 33.5726C22.8608 20.2893 34.2513 9.52111 48.3022 9.52111Z" fill="#EC9611"/>
<path opacity="0.2" d="M48.3044 16.0167C44.0082 16.0167 39.8449 17.425 36.524 20.0016C33.203 22.5782 30.9298 26.1636 30.0917 30.1471C29.2536 34.1305 29.9024 38.2654 31.9276 41.8473C33.9528 45.4292 37.2291 48.2364 41.1983 49.7907C45.1674 51.3449 49.5838 51.55 53.695 50.371C57.8062 49.192 61.3578 46.7019 63.7446 43.3249C66.1314 39.9479 67.2058 35.893 66.7847 31.8511C66.3636 27.8092 64.473 24.0304 61.4352 21.1585C59.7148 19.5232 57.6685 18.2268 55.4146 17.3442C53.1607 16.4616 50.744 16.0104 48.3044 16.0167ZM48.3044 50.0445C38.6965 50.0445 30.8799 42.6549 30.8799 33.5719C30.8799 24.489 38.6965 17.0994 48.3044 17.0994C57.9122 17.0994 65.7288 24.489 65.7288 33.5719C65.7288 42.6549 57.9122 50.0445 48.3044 50.0445Z" fill="black"/>
<path d="M48.3023 16.5591C58.2418 16.5591 66.2994 24.1765 66.2994 33.573C66.2994 42.9695 58.2418 50.5869 48.3023 50.5869C38.3627 50.5869 30.3052 42.9695 30.3052 33.573C30.3052 24.1765 38.3627 16.5591 48.3023 16.5591Z" fill="#3F3D56"/>
<path d="M34.9188 40.3754C34.7823 40.6282 34.6998 40.9038 34.6761 41.1867C34.6524 41.4696 34.6879 41.7541 34.7805 42.024C34.8732 42.2938 35.0212 42.5438 35.2161 42.7596C35.4111 42.9754 35.649 43.1527 35.9165 43.2815C36.184 43.4102 36.4757 43.4879 36.7749 43.51C37.0741 43.5322 37.375 43.4983 37.6604 43.4104C37.9458 43.3225 38.2101 43.1823 38.4381 42.9978C38.6662 42.8133 38.8535 42.5882 38.9894 42.3352L44.0741 32.896C44.2105 32.6433 44.293 32.3676 44.3167 32.0847C44.3404 31.8019 44.305 31.5173 44.2123 31.2475C44.1196 30.9776 43.9716 30.7276 43.7767 30.5118C43.5818 30.296 43.3438 30.1187 43.0763 29.9899C42.8088 29.8612 42.5172 29.7835 42.2179 29.7614C41.9187 29.7393 41.6178 29.7731 41.3324 29.861C41.047 29.9489 40.7827 30.0891 40.5547 30.2736C40.3267 30.4581 40.1393 30.6833 40.0034 30.9363L34.9188 40.3754Z" fill="#FF6584"/>
<path opacity="0.2" d="M35.4861 39.3224L35.2515 39.7581C36.4227 40.6184 37.798 41.2511 39.3221 41.7178L39.5568 41.2821C37.9072 40.9574 36.5037 40.3564 35.4861 39.3224Z" fill="black"/>
<path opacity="0.2" d="M36.5814 37.2892L36.3467 37.7249C37.5179 38.5852 38.8932 39.2179 40.4173 39.6846L40.652 39.2489C39.0024 38.9242 37.599 38.3232 36.5814 37.2892Z" fill="black"/>
<path opacity="0.2" d="M37.6766 35.257L37.4419 35.6926C38.6131 36.5529 39.9884 37.1856 41.5126 37.6523L41.7472 37.2167C40.0976 36.8919 38.6942 36.2909 37.6766 35.257Z" fill="black"/>
<path opacity="0.2" d="M38.7718 33.2238L38.5371 33.6594C39.7083 34.5197 41.0836 35.1524 42.6078 35.6191L42.8425 35.1835C41.1928 34.8587 39.7894 34.2577 38.7718 33.2238Z" fill="black"/>
<path opacity="0.2" d="M39.8665 31.1906L39.6318 31.6262C40.803 32.4865 42.1783 33.1192 43.7025 33.5859L43.9372 33.1503C42.2876 32.8255 40.8841 32.2245 39.8665 31.1906Z" fill="black"/>
<path d="M31.1042 36.8424C30.9677 37.0952 30.8853 37.3708 30.8616 37.6537C30.8379 37.9365 30.8734 38.221 30.9661 38.4909C31.0588 38.7607 31.2068 39.0107 31.4017 39.2264C31.5966 39.4422 31.8346 39.6195 32.1021 39.7483C32.3695 39.877 32.6612 39.9547 32.9604 39.9768C33.2596 39.999 33.5605 39.9651 33.8459 39.8773C34.1312 39.7894 34.3955 39.6492 34.6235 39.4647C34.8516 39.2803 35.0389 39.0551 35.1749 38.8022L40.2595 29.363C40.5336 28.8527 40.5823 28.2605 40.3948 27.7163C40.2073 27.1722 39.799 26.7207 39.2596 26.461C38.7201 26.2013 38.0937 26.1547 37.5179 26.3313C36.9421 26.508 36.4641 26.8936 36.1888 27.4032L31.1042 36.8424Z" fill="#FF6584"/>
<path opacity="0.2" d="M31.6717 35.7892L31.437 36.2249C32.6082 37.0852 33.9835 37.7179 35.5077 38.1846L35.7424 37.7489C34.0927 37.4242 32.6893 36.8232 31.6717 35.7892Z" fill="black"/>
<path opacity="0.2" d="M32.7669 33.756L32.5322 34.1916C33.7034 35.052 35.0787 35.6847 36.6029 36.1514L36.8376 35.7157C35.188 35.391 33.7845 34.79 32.7669 33.756Z" fill="black"/>
<path opacity="0.2" d="M33.8621 31.7228L33.6274 32.1584C34.7986 33.0187 36.1739 33.6515 37.6981 34.1182L37.9328 33.6825C36.2832 33.3578 34.8797 32.7568 33.8621 31.7228Z" fill="black"/>
<path opacity="0.2" d="M34.9573 29.6906L34.7227 30.1262C35.8938 30.9865 37.2692 31.6192 38.7933 32.0859L39.028 31.6503C37.3784 31.3255 35.9749 30.7245 34.9573 29.6906Z" fill="black"/>
<path opacity="0.2" d="M36.0521 27.6574L35.8174 28.093C36.9886 28.9533 38.3639 29.586 39.8881 30.0527L40.1227 29.6171C38.4731 29.2923 37.0697 28.6913 36.0521 27.6574Z" fill="black"/>
<path d="M60.3291 33.0316L60.3452 33.0316C60.8929 33.0273 61.4292 33.1791 61.8842 33.4672C62.3393 33.7553 62.6919 34.1665 62.896 34.6469C63.316 35.6504 63.5276 36.7209 63.5194 37.8C63.4908 42.3676 59.5601 46.1147 54.729 46.1779C52.6716 46.2051 50.6674 45.5589 49.0564 44.3488C47.4453 43.1387 46.3265 41.4391 45.8895 39.5383C45.4525 37.6374 45.7243 35.6521 46.6587 33.919C47.5931 32.1859 49.1328 30.8116 51.0166 30.0291C51.5144 29.8207 52.0673 29.7594 52.6026 29.8533C53.1379 29.9471 53.6307 30.1917 54.0165 30.555C54.8437 31.3412 55.8275 31.9648 56.9109 32.3899C57.9944 32.8149 59.1561 33.033 60.3291 33.0316Z" fill="#E6E6E6"/>
<path d="M55.7472 35.5832C57.3737 35.5832 58.6922 36.8297 58.6922 38.3673C58.6922 39.9049 57.3737 41.1514 55.7472 41.1514C54.1208 41.1514 52.8022 39.9049 52.8022 38.3673C52.8022 36.8297 54.1208 35.5832 55.7472 35.5832Z" fill="#F9A825"/>
<path d="M49.3469 38.68C49.5385 38.68 49.6939 38.8268 49.6939 39.008C49.6939 39.1891 49.5385 39.3359 49.3469 39.3359C49.1553 39.3359 49 39.1891 49 39.008C49 38.8268 49.1553 38.68 49.3469 38.68Z" fill="#3F3D56"/>
<path d="M37.8953 38.3714C38.0869 38.3714 38.2422 38.5182 38.2422 38.6994C38.2422 38.8805 38.0869 39.0273 37.8953 39.0273C37.7037 39.0273 37.5483 38.8805 37.5483 38.6994C37.5483 38.5182 37.7037 38.3714 37.8953 38.3714Z" fill="#3F3D56"/>
<path d="M51.1965 42.0794C51.3881 42.0794 51.5435 42.2262 51.5435 42.4074C51.5435 42.5885 51.3881 42.7354 51.1965 42.7354C51.0049 42.7354 50.8496 42.5885 50.8496 42.4074C50.8496 42.2262 51.0049 42.0794 51.1965 42.0794Z" fill="#3F3D56"/>
<path d="M51.1843 32.6263C51.3759 32.6263 51.5313 32.7731 51.5313 32.9542C51.5313 33.1354 51.3759 33.2822 51.1843 33.2822C50.9927 33.2822 50.8374 33.1354 50.8374 32.9542C50.8374 32.7731 50.9927 32.6263 51.1843 32.6263Z" fill="#3F3D56"/>
<path d="M58.0588 42.7571C58.2505 42.7571 58.4058 42.904 58.4058 43.0851C58.4058 43.2662 58.2505 43.4131 58.0588 43.4131C57.8672 43.4131 57.7119 43.2662 57.7119 43.0851C57.7119 42.904 57.8672 42.7571 58.0588 42.7571Z" fill="#3F3D56"/>
<path d="M35.6438 33.7864C35.8354 33.7864 35.9907 33.9333 35.9907 34.1144C35.9907 34.2955 35.8354 34.4424 35.6438 34.4424C35.4522 34.4424 35.2969 34.2955 35.2969 34.1144C35.2969 33.9333 35.4522 33.7864 35.6438 33.7864Z" fill="#3F3D56"/>
<path d="M38.1785 29.0687C38.3701 29.0687 38.5254 29.2155 38.5254 29.3966C38.5254 29.5778 38.3701 29.7246 38.1785 29.7246C37.9869 29.7246 37.8315 29.5778 37.8315 29.3966C37.8315 29.2155 37.9869 29.0687 38.1785 29.0687Z" fill="#3F3D56"/>
<path d="M54.1111 27.5409C54.834 27.5409 55.42 28.0949 55.42 28.7783C55.42 29.4616 54.834 30.0156 54.1111 30.0156C53.3883 30.0156 52.8022 29.4616 52.8022 28.7783C52.8022 28.0949 53.3883 27.5409 54.1111 27.5409Z" fill="#FF6584"/>
<path opacity="0.2" d="M55.0937 28.7012C55.0937 28.455 54.9903 28.219 54.8062 28.045C54.6221 27.8709 54.3724 27.7731 54.112 27.7731C53.8517 27.7731 53.602 27.8709 53.4179 28.045C53.2338 28.219 53.1304 28.455 53.1304 28.7012" fill="black"/>
<path opacity="0.2" d="M53.1304 28.8542C53.1304 29.1003 53.2338 29.3364 53.4179 29.5104C53.602 29.6845 53.8517 29.7822 54.112 29.7822C54.3724 29.7822 54.6221 29.6845 54.8062 29.5104C54.9903 29.3364 55.0937 29.1003 55.0937 28.8542" fill="black"/>
<path d="M53.6223 29.0873C53.6675 29.0873 53.7041 29.1393 53.7041 29.2033C53.7041 29.2674 53.6675 29.3193 53.6223 29.3193C53.5772 29.3193 53.5405 29.2674 53.5405 29.2033C53.5405 29.1393 53.5772 29.0873 53.6223 29.0873Z" fill="#FF6584"/>
<path d="M54.1101 29.2416C54.1553 29.2416 54.1919 29.2936 54.1919 29.3576C54.1919 29.4217 54.1553 29.4736 54.1101 29.4736C54.0649 29.4736 54.0283 29.4217 54.0283 29.3576C54.0283 29.2936 54.0649 29.2416 54.1101 29.2416Z" fill="#FF6584"/>
<path d="M54.1101 28.2358C54.1553 28.2358 54.1919 28.2877 54.1919 28.3518C54.1919 28.4158 54.1553 28.4678 54.1101 28.4678C54.0649 28.4678 54.0283 28.4158 54.0283 28.3518C54.0283 28.2877 54.0649 28.2358 54.1101 28.2358Z" fill="#FF6584"/>
<path d="M54.6023 28.8549C54.6475 28.8549 54.6841 28.9068 54.6841 28.9709C54.6841 29.035 54.6475 29.0869 54.6023 29.0869C54.5571 29.0869 54.5205 29.035 54.5205 28.9709C54.5205 28.9068 54.5571 28.8549 54.6023 28.8549Z" fill="#FF6584"/>
<path d="M54.5203 28.0043C54.5655 28.0043 54.6021 28.0563 54.6021 28.1203C54.6021 28.1844 54.5655 28.2363 54.5203 28.2363C54.4751 28.2363 54.4385 28.1844 54.4385 28.1203C54.4385 28.0563 54.4751 28.0043 54.5203 28.0043Z" fill="#FF6584"/>
<path d="M53.5403 28.391C53.5855 28.391 53.6221 28.443 53.6221 28.507C53.6221 28.5711 53.5855 28.623 53.5403 28.623C53.4951 28.623 53.4585 28.5711 53.4585 28.507C53.4585 28.443 53.4951 28.391 53.5403 28.391Z" fill="#FF6584"/>
<path d="M56.7278 30.8661C57.4507 30.8661 58.0367 31.4201 58.0367 32.1034C58.0367 32.7868 57.4507 33.3408 56.7278 33.3408C56.0049 33.3408 55.4189 32.7868 55.4189 32.1034C55.4189 31.4201 56.0049 30.8661 56.7278 30.8661Z" fill="#FF6584"/>
<path opacity="0.2" d="M57.7104 32.0264C57.7104 31.7802 57.607 31.5442 57.4229 31.3702C57.2388 31.1961 56.9891 31.0983 56.7287 31.0983C56.4684 31.0983 56.2187 31.1961 56.0346 31.3702C55.8505 31.5442 55.7471 31.7802 55.7471 32.0264" fill="black"/>
<path opacity="0.2" d="M55.7471 32.1813C55.7471 32.4275 55.8505 32.6635 56.0346 32.8376C56.2187 33.0116 56.4684 33.1094 56.7287 33.1094C56.9891 33.1094 57.2388 33.0116 57.4229 32.8376C57.607 32.6635 57.7104 32.4275 57.7104 32.1813" fill="black"/>
<path d="M56.239 32.4125C56.2842 32.4125 56.3208 32.4645 56.3208 32.5285C56.3208 32.5926 56.2842 32.6445 56.239 32.6445C56.1939 32.6445 56.1572 32.5926 56.1572 32.5285C56.1572 32.4645 56.1939 32.4125 56.239 32.4125Z" fill="#FF6584"/>
<path d="M56.7273 32.5668C56.7725 32.5668 56.8091 32.6188 56.8091 32.6828C56.8091 32.7469 56.7725 32.7988 56.7273 32.7988C56.6821 32.7988 56.6455 32.7469 56.6455 32.6828C56.6455 32.6188 56.6821 32.5668 56.7273 32.5668Z" fill="#FF6584"/>
<path d="M56.7273 31.561C56.7725 31.561 56.8091 31.6129 56.8091 31.677C56.8091 31.741 56.7725 31.793 56.7273 31.793C56.6821 31.793 56.6455 31.741 56.6455 31.677C56.6455 31.6129 56.6821 31.561 56.7273 31.561Z" fill="#FF6584"/>
<path d="M57.2195 32.1811C57.2647 32.1811 57.3013 32.233 57.3013 32.2971C57.3013 32.3611 57.2647 32.4131 57.2195 32.4131C57.1743 32.4131 57.1377 32.3611 57.1377 32.2971C57.1377 32.233 57.1743 32.1811 57.2195 32.1811Z" fill="#FF6584"/>
<path d="M57.1375 31.3295C57.1826 31.3295 57.2193 31.3815 57.2193 31.4455C57.2193 31.5096 57.1826 31.5615 57.1375 31.5615C57.0923 31.5615 57.0557 31.5096 57.0557 31.4455C57.0557 31.3815 57.0923 31.3295 57.1375 31.3295Z" fill="#FF6584"/>
<path d="M56.157 31.7162C56.2022 31.7162 56.2388 31.7682 56.2388 31.8322C56.2388 31.8963 56.2022 31.9482 56.157 31.9482C56.1118 31.9482 56.0752 31.8963 56.0752 31.8322C56.0752 31.7682 56.1118 31.7162 56.157 31.7162Z" fill="#FF6584"/>
<path d="M59.3445 29.1649C60.0674 29.1649 60.6534 29.7189 60.6534 30.4023C60.6534 31.0857 60.0674 31.6396 59.3445 31.6396C58.6216 31.6396 58.0356 31.0857 58.0356 30.4023C58.0356 29.7189 58.6216 29.1649 59.3445 29.1649Z" fill="#EC9611"/>
<path opacity="0.2" d="M60.3271 30.3242C60.3271 30.0781 60.2237 29.842 60.0396 29.668C59.8555 29.494 59.6058 29.3962 59.3454 29.3962C59.0851 29.3962 58.8354 29.494 58.6513 29.668C58.4672 29.842 58.3638 30.0781 58.3638 30.3242" fill="black"/>
<path opacity="0.2" d="M58.3638 30.4792C58.3638 30.7253 58.4672 30.9614 58.6513 31.1354C58.8354 31.3095 59.0851 31.4072 59.3454 31.4072C59.6058 31.4072 59.8555 31.3095 60.0396 31.1354C60.2237 30.9614 60.3271 30.7253 60.3271 30.4792" fill="black"/>
<path d="M58.8557 30.7114C58.9009 30.7114 58.9375 30.7633 58.9375 30.8274C58.9375 30.8914 58.9009 30.9434 58.8557 30.9434C58.8106 30.9434 58.7739 30.8914 58.7739 30.8274C58.7739 30.7633 58.8106 30.7114 58.8557 30.7114Z" fill="#EC9611"/>
<path d="M59.3479 30.8666C59.3931 30.8666 59.4297 30.9186 59.4297 30.9826C59.4297 31.0467 59.3931 31.0986 59.3479 31.0986C59.3027 31.0986 59.2661 31.0467 59.2661 30.9826C59.2661 30.9186 59.3027 30.8666 59.3479 30.8666Z" fill="#EC9611"/>
<path d="M59.3479 29.8598C59.3931 29.8598 59.4297 29.9117 59.4297 29.9758C59.4297 30.0399 59.3931 30.0918 59.3479 30.0918C59.3027 30.0918 59.2661 30.0399 59.2661 29.9758C59.2661 29.9117 59.3027 29.8598 59.3479 29.8598Z" fill="#EC9611"/>
<path d="M59.8362 30.4799C59.8814 30.4799 59.918 30.5318 59.918 30.5959C59.918 30.66 59.8814 30.7119 59.8362 30.7119C59.791 30.7119 59.7544 30.66 59.7544 30.5959C59.7544 30.5318 59.791 30.4799 59.8362 30.4799Z" fill="#EC9611"/>
<path d="M59.7542 29.6283C59.7993 29.6283 59.836 29.6803 59.836 29.7443C59.836 29.8084 59.7993 29.8604 59.7542 29.8604C59.709 29.8604 59.6724 29.8084 59.6724 29.7443C59.6724 29.6803 59.709 29.6283 59.7542 29.6283Z" fill="#EC9611"/>
<path d="M58.7737 30.0151C58.8189 30.0151 58.8555 30.067 58.8555 30.1311C58.8555 30.1951 58.8189 30.2471 58.7737 30.2471C58.7285 30.2471 58.6919 30.1951 58.6919 30.1311C58.6919 30.067 58.7285 30.0151 58.7737 30.0151Z" fill="#EC9611"/>
<path d="M52.8025 29.0096C53.5254 29.0096 54.1114 29.5636 54.1114 30.247C54.1114 30.9304 53.5254 31.4844 52.8025 31.4844C52.0797 31.4844 51.4937 30.9304 51.4937 30.247C51.4937 29.5636 52.0797 29.0096 52.8025 29.0096Z" fill="#EC9611"/>
<path opacity="0.2" d="M53.7851 30.1699C53.7851 29.9238 53.6817 29.6877 53.4976 29.5137C53.3135 29.3397 53.0638 29.2419 52.8034 29.2419C52.5431 29.2419 52.2934 29.3397 52.1093 29.5137C51.9252 29.6877 51.8218 29.9238 51.8218 30.1699" fill="black"/>
<path opacity="0.2" d="M51.8218 30.3239C51.8218 30.5701 51.9252 30.8061 52.1093 30.9801C52.2934 31.1542 52.5431 31.252 52.8034 31.252C53.0638 31.252 53.3135 31.1542 53.4976 30.9801C53.6817 30.8061 53.7851 30.5701 53.7851 30.3239" fill="black"/>
<path d="M52.3098 30.5561C52.355 30.5561 52.3916 30.608 52.3916 30.6721C52.3916 30.7361 52.355 30.7881 52.3098 30.7881C52.2647 30.7881 52.228 30.7361 52.228 30.6721C52.228 30.608 52.2647 30.5561 52.3098 30.5561Z" fill="#EC9611"/>
<path d="M52.802 30.7114C52.8472 30.7114 52.8838 30.7633 52.8838 30.8274C52.8838 30.8914 52.8472 30.9434 52.802 30.9434C52.7568 30.9434 52.7202 30.8914 52.7202 30.8274C52.7202 30.7633 52.7568 30.7114 52.802 30.7114Z" fill="#EC9611"/>
<path d="M52.802 29.7055C52.8472 29.7055 52.8838 29.7574 52.8838 29.8215C52.8838 29.8856 52.8472 29.9375 52.802 29.9375C52.7568 29.9375 52.7202 29.8856 52.7202 29.8215C52.7202 29.7574 52.7568 29.7055 52.802 29.7055Z" fill="#EC9611"/>
<path d="M53.2942 30.3246C53.3394 30.3246 53.376 30.3766 53.376 30.4406C53.376 30.5047 53.3394 30.5566 53.2942 30.5566C53.249 30.5566 53.2124 30.5047 53.2124 30.4406C53.2124 30.3766 53.249 30.3246 53.2942 30.3246Z" fill="#EC9611"/>
<path d="M53.2122 29.474C53.2574 29.474 53.294 29.526 53.294 29.5901C53.294 29.6541 53.2574 29.7061 53.2122 29.7061C53.167 29.7061 53.1304 29.6541 53.1304 29.5901C53.1304 29.526 53.167 29.474 53.2122 29.474Z" fill="#EC9611"/>
<path d="M52.2278 29.8598C52.273 29.8598 52.3096 29.9117 52.3096 29.9758C52.3096 30.0399 52.273 30.0918 52.2278 30.0918C52.1826 30.0918 52.146 30.0399 52.146 29.9758C52.146 29.9117 52.1826 29.8598 52.2278 29.8598Z" fill="#EC9611"/>
<path d="M55.7474 28.4686C56.4702 28.4686 57.0562 29.0226 57.0562 29.706C57.0562 30.3894 56.4702 30.9434 55.7474 30.9434C55.0245 30.9434 54.4385 30.3894 54.4385 29.706C54.4385 29.0226 55.0245 28.4686 55.7474 28.4686Z" fill="#EC9611"/>
<path opacity="0.2" d="M56.7299 29.6289C56.7299 29.507 56.7045 29.3864 56.6552 29.2738C56.6059 29.1612 56.5336 29.0589 56.4424 28.9727C56.3512 28.8865 56.243 28.8182 56.1239 28.7715C56.0048 28.7249 55.8772 28.7009 55.7483 28.7009C55.6193 28.7009 55.4917 28.7249 55.3726 28.7715C55.2535 28.8182 55.1453 28.8865 55.0541 28.9727C54.963 29.0589 54.8907 29.1612 54.8413 29.2738C54.792 29.3864 54.7666 29.507 54.7666 29.6289" fill="black"/>
<path opacity="0.2" d="M54.7666 29.7839C54.7666 29.9058 54.792 30.0264 54.8413 30.139C54.8907 30.2516 54.963 30.3539 55.0541 30.4401C55.1453 30.5263 55.2535 30.5946 55.3726 30.6413C55.4917 30.6879 55.6193 30.7119 55.7483 30.7119C55.8772 30.7119 56.0048 30.6879 56.1239 30.6413C56.243 30.5946 56.3512 30.5263 56.4424 30.4401C56.5336 30.3539 56.6059 30.2516 56.6552 30.139C56.7045 30.0264 56.7299 29.9058 56.7299 29.7839" fill="black"/>
<path d="M55.2547 30.0151C55.2998 30.0151 55.3365 30.067 55.3365 30.1311C55.3365 30.1951 55.2998 30.2471 55.2547 30.2471C55.2095 30.2471 55.1729 30.1951 55.1729 30.1311C55.1729 30.067 55.2095 30.0151 55.2547 30.0151Z" fill="#EC9611"/>
<path d="M55.7468 30.1703C55.792 30.1703 55.8286 30.2223 55.8286 30.2863C55.8286 30.3504 55.792 30.4023 55.7468 30.4023C55.7017 30.4023 55.665 30.3504 55.665 30.2863C55.665 30.2223 55.7017 30.1703 55.7468 30.1703Z" fill="#EC9611"/>
<path d="M55.7468 29.1645C55.792 29.1645 55.8286 29.2164 55.8286 29.2805C55.8286 29.3445 55.792 29.3965 55.7468 29.3965C55.7017 29.3965 55.665 29.3445 55.665 29.2805C55.665 29.2164 55.7017 29.1645 55.7468 29.1645Z" fill="#EC9611"/>
<path d="M56.239 29.7836C56.2842 29.7836 56.3208 29.8356 56.3208 29.8996C56.3208 29.9637 56.2842 30.0156 56.239 30.0156C56.1939 30.0156 56.1572 29.9637 56.1572 29.8996C56.1572 29.8356 56.1939 29.7836 56.239 29.7836Z" fill="#EC9611"/>
<path d="M56.157 28.9321C56.2022 28.9321 56.2388 28.984 56.2388 29.0481C56.2388 29.1121 56.2022 29.1641 56.157 29.1641C56.1118 29.1641 56.0752 29.1121 56.0752 29.0481C56.0752 28.984 56.1118 28.9321 56.157 28.9321Z" fill="#EC9611"/>
<path d="M55.1726 29.3188C55.2178 29.3188 55.2544 29.3707 55.2544 29.4348C55.2544 29.4988 55.2178 29.5508 55.1726 29.5508C55.1274 29.5508 55.0908 29.4988 55.0908 29.4348C55.0908 29.3707 55.1274 29.3188 55.1726 29.3188Z" fill="#EC9611"/>
<path d="M57.7942 27.1542C58.5171 27.1542 59.1031 27.7082 59.1031 28.3915C59.1031 29.0749 58.5171 29.6289 57.7942 29.6289C57.0714 29.6289 56.4854 29.0749 56.4854 28.3915C56.4854 27.7082 57.0714 27.1542 57.7942 27.1542Z" fill="#FF6584"/>
<path opacity="0.2" d="M58.7729 28.3135C58.7729 28.0673 58.6695 27.8313 58.4854 27.6573C58.3013 27.4832 58.0516 27.3854 57.7912 27.3854C57.5309 27.3854 57.2812 27.4832 57.0971 27.6573C56.913 27.8313 56.8096 28.0673 56.8096 28.3135" fill="black"/>
<path opacity="0.2" d="M56.8096 28.4685C56.8096 28.7146 56.913 28.9506 57.0971 29.1247C57.2812 29.2987 57.5309 29.3965 57.7912 29.3965C58.0516 29.3965 58.3013 29.2987 58.4854 29.1247C58.6695 28.9506 58.7729 28.7146 58.7729 28.4685" fill="black"/>
<path d="M57.3015 28.7006C57.3467 28.7006 57.3833 28.7525 57.3833 28.8166C57.3833 28.8807 57.3467 28.9326 57.3015 28.9326C57.2564 28.9326 57.2197 28.8807 57.2197 28.8166C57.2197 28.7525 57.2564 28.7006 57.3015 28.7006Z" fill="#FF6584"/>
<path d="M57.7937 28.8549C57.8389 28.8549 57.8755 28.9068 57.8755 28.9709C57.8755 29.035 57.8389 29.0869 57.7937 29.0869C57.7485 29.0869 57.7119 29.035 57.7119 28.9709C57.7119 28.9068 57.7485 28.8549 57.7937 28.8549Z" fill="#FF6584"/>
<path d="M57.7937 27.849C57.8389 27.849 57.8755 27.901 57.8755 27.9651C57.8755 28.0291 57.8389 28.0811 57.7937 28.0811C57.7485 28.0811 57.7119 28.0291 57.7119 27.9651C57.7119 27.901 57.7485 27.849 57.7937 27.849Z" fill="#FF6584"/>
<path d="M58.2815 28.4692C58.3267 28.4692 58.3633 28.5211 58.3633 28.5852C58.3633 28.6492 58.3267 28.7012 58.2815 28.7012C58.2363 28.7012 58.1997 28.6492 58.1997 28.5852C58.1997 28.5211 58.2363 28.4692 58.2815 28.4692Z" fill="#FF6584"/>
<path d="M58.1995 27.6176C58.2447 27.6176 58.2813 27.6695 58.2813 27.7336C58.2813 27.7977 58.2447 27.8496 58.1995 27.8496C58.1543 27.8496 58.1177 27.7977 58.1177 27.7336C58.1177 27.6695 58.1543 27.6176 58.1995 27.6176Z" fill="#FF6584"/>
<path d="M57.2195 28.0043C57.2647 28.0043 57.3013 28.0563 57.3013 28.1203C57.3013 28.1844 57.2647 28.2363 57.2195 28.2363C57.1743 28.2363 57.1377 28.1844 57.1377 28.1203C57.1377 28.0563 57.1743 28.0043 57.2195 28.0043Z" fill="#FF6584"/>
<path d="M40.9592 32.7806C41.1508 32.7806 41.3062 32.9274 41.3062 33.1085C41.3062 33.2897 41.1508 33.4365 40.9592 33.4365C40.7676 33.4365 40.6123 33.2897 40.6123 33.1085C40.6123 32.9274 40.7676 32.7806 40.9592 32.7806Z" fill="#3F3D56"/>
<path d="M50.3922 21.2035L42.0601 23.388L42.3792 24.5088L50.7113 22.3242L50.3922 21.2035Z" fill="#F9A825"/>
<path d="M49.1678 21.5784C46.3146 21.062 43.3836 21.062 40.5303 21.5784V22.7402C43.39 22.2922 46.3082 22.2922 49.1678 22.7402V21.5784Z" fill="#F9A825"/>
<path d="M50.058 25.0637C47.2047 24.5474 44.2737 24.5474 41.4204 25.0637V26.2256C44.2801 25.7775 47.1983 25.7775 50.058 26.2256V25.0637Z" fill="#F9A825"/>
<path d="M53.0438 23.6692C50.1905 23.1528 47.2595 23.1528 44.4062 23.6692V24.8311C47.2659 24.383 50.1841 24.383 53.0438 24.8311V23.6692Z" fill="#F9A825"/>
<path d="M53.7699 22.3528C50.9166 21.8364 47.9856 21.8364 45.1323 22.3528V23.5146C47.992 23.0666 50.9102 23.0666 53.7699 23.5146V22.3528Z" fill="#F9A825"/>
<path d="M56.3043 20.632L47.7826 19.2788L47.585 20.4251L56.1066 21.7783L56.3043 20.632Z" fill="#F9A825"/>
<path d="M55.0285 20.4834C52.6659 18.8733 50.0031 17.6993 47.1799 17.0228L46.6743 18.0785C49.4728 18.8193 52.124 19.9883 54.5229 21.5391L55.0285 20.4834Z" fill="#F9A825"/>
<path d="M54.319 24.0058C51.9564 22.3958 49.2936 21.2217 46.4704 20.5452L45.9648 21.6009C48.7633 22.3417 51.4146 23.5107 53.8134 25.0615L54.319 24.0058Z" fill="#F9A825"/>
<path d="M57.6413 23.9365C55.2787 22.3265 52.6159 21.1524 49.7927 20.4759L49.2871 21.5316C52.0856 22.2724 54.7368 23.4414 57.1357 24.9922L57.6413 23.9365Z" fill="#F9A825"/>
<path d="M58.8756 23.0312C56.513 21.4212 53.8503 20.2471 51.0271 19.5706L50.5215 20.6263C53.3199 21.3671 55.9712 22.5361 58.37 24.0869L58.8756 23.0312Z" fill="#F9A825"/>
<path d="M48.5477 25.2979H48.1387V24.9112H48.5477V25.2979Z" fill="#00BF71"/>
<path d="M49.7743 18.5693H49.3652V18.1827H49.7743V18.5693Z" fill="#00BF71"/>
<path d="M43.2323 25.2979H42.8232V24.9112H43.2323V25.2979Z" fill="#00BF71"/>
<path d="M52.7191 20.5029H52.3101V20.1163H52.7191V20.5029Z" fill="#00BF71"/>
<path d="M52.9652 22.7451H52.5562V22.3584H52.9652V22.7451Z" fill="#00BF71"/>
<path d="M46.217 23.8045L45.7432 24.1084L45.5594 23.8524L46.0333 23.5485L46.217 23.8045Z" fill="#00BF71"/>
<path d="M51.0447 22.9529L50.5708 23.2568L50.3871 23.0008L50.8609 22.6969L51.0447 22.9529Z" fill="#00BF71"/>
<path d="M45.155 21.4841L44.6812 21.7881L44.4974 21.5321L44.9713 21.2282L45.155 21.4841Z" fill="#00BF71"/>
<path d="M48.1536 21.5071L48.4751 21.9551L48.2043 22.1288L47.8828 21.6808L48.1536 21.5071Z" fill="#00BF71"/>
<path d="M50.364 20.9651L50.6855 21.4131L50.4148 21.5868L50.0933 21.1388L50.364 20.9651Z" fill="#00BF71"/>
<path d="M56.2542 22.8216L56.5757 23.2695L56.3049 23.4432L55.9834 22.9952L56.2542 22.8216Z" fill="#00BF71"/>
<path d="M94.9744 9.54688H1.52441V9.32395H94.9744V9.54688Z" fill="#3F3D56"/>
</g>
<defs>
<clipPath id="clip0_6275_1413">
<rect width="93.45" height="57.75" fill="white" transform="matrix(1 0 0 -1 0.474609 58.1494)"/>
</clipPath>
</defs>
</svg>
