<svg width="95" height="66" viewBox="0 0 95 66" fill="none" xmlns="http://www.w3.org/2000/svg">
<g clip-path="url(#clip0_6275_578)">
<path opacity="0.1" d="M31.9194 65.7136C36.4704 65.7136 40.1596 65.1308 40.1596 64.412C40.1596 63.6931 36.4704 63.1104 31.9194 63.1104C27.3685 63.1104 23.6792 63.6931 23.6792 64.412C23.6792 65.1308 27.3685 65.7136 31.9194 65.7136Z" fill="#EC9611"/>
<path opacity="0.1" d="M76.7122 65.7497C82.3911 65.7497 86.9947 65.1669 86.9947 64.4481C86.9947 63.7292 82.3911 63.1465 76.7122 63.1465C71.0333 63.1465 66.4297 63.7292 66.4297 64.4481C66.4297 65.1669 71.0333 65.7497 76.7122 65.7497Z" fill="#EC9611"/>
<path opacity="0.1" d="M2.01818 28.7773H10.6009V40.2822H2.64652C2.62538 40.4003 2.60508 40.5192 2.58309 40.6381H10.6009V49.9165C10.5865 49.9123 10.5738 49.9074 10.5603 49.9024C10.3337 49.8142 10.1087 49.7211 9.88377 49.6213L9.74 49.5572C9.51449 49.4524 9.28898 49.3415 9.06347 49.2245C8.98482 49.1838 8.90617 49.1414 8.82837 49.0981C7.57642 48.4084 6.4391 47.5345 5.45584 46.5066C5.42708 46.4791 5.40002 46.45 5.37127 46.4234C5.23427 46.277 5.09981 46.129 4.96957 45.9776L4.82581 45.8113C4.6719 45.6258 4.52306 45.4353 4.37845 45.2424C4.35731 45.2141 4.33701 45.1858 4.31503 45.1592C3.7269 44.3572 3.23857 43.4889 2.86047 42.5726C2.84863 42.5452 2.83849 42.5153 2.82749 42.4895C2.71135 42.1956 2.60846 41.899 2.51882 41.5996C2.47992 41.474 2.44271 41.3501 2.41058 41.2195C2.39874 41.1812 2.38859 41.1438 2.37929 41.1064C1.89894 39.2625 1.84229 37.3471 1.84229 35.445C1.84229 35.223 1.84229 35.0001 1.84229 34.7797C1.84229 34.0104 1.85159 33.2361 1.86512 32.4626C1.86512 32.2621 1.87357 32.0625 1.8778 31.8613C1.88964 31.3506 1.90656 30.8399 1.92854 30.3293C1.93362 30.1871 1.94038 30.0457 1.94799 29.9043C1.94799 29.8228 1.95222 29.7413 1.96068 29.6598C1.98098 29.3637 1.99789 29.0701 2.01818 28.7773Z" fill="#EC9611"/>
<path opacity="0.1" d="M10.6024 15.968H5.89453C6.65982 14.79 7.49598 13.658 8.39856 12.578C9.09793 11.733 9.8362 10.9096 10.6024 10.1162V15.968Z" fill="#EC9611"/>
<path opacity="0.1" d="M10.603 16.3242V28.422H2.04736C2.04736 28.3871 2.05328 28.3513 2.05582 28.3164C2.06343 28.2208 2.07104 28.1251 2.0795 28.0303C2.0888 27.9189 2.09895 27.8066 2.10994 27.6976C2.12094 27.5887 2.13278 27.4556 2.14546 27.335C2.15815 27.2144 2.16999 27.0922 2.18436 26.9716C2.19874 26.851 2.21142 26.7304 2.22665 26.6106C2.24187 26.4908 2.2554 26.3694 2.27147 26.2497C2.28415 26.1498 2.29768 26.0509 2.31121 25.9511C2.33066 25.8105 2.35096 25.6691 2.37295 25.5294C2.37295 25.5086 2.37887 25.487 2.38225 25.467C2.5366 24.4442 2.74691 23.4303 3.01227 22.4297C3.29004 21.3801 3.64474 20.3516 4.07359 19.3524C4.52938 18.3071 5.06304 17.2964 5.67022 16.3284L10.603 16.3242Z" fill="#EC9611"/>
<path opacity="0.1" d="M12.6499 28.777V40.2826H30.9815V28.777H12.6499ZM12.6499 40.6378V50.5183C12.7548 50.5399 12.8588 50.5607 12.962 50.5782C13.1023 50.6048 13.2419 50.6289 13.3848 50.6497C13.4119 50.6539 13.4398 50.658 13.4694 50.6605C13.5252 50.6697 13.5827 50.6771 13.6385 50.6846C13.7797 50.7038 13.9201 50.7196 14.0613 50.732C14.1281 50.7387 14.1958 50.7445 14.2634 50.7495L14.4267 50.762C14.5155 50.7686 14.6034 50.7736 14.6905 50.7761C14.7446 50.7761 14.7988 50.7811 14.8546 50.7828C14.8968 50.7828 14.9391 50.7828 14.9831 50.7828C15.0271 50.7828 15.0897 50.7828 15.1429 50.7828C15.2157 50.7828 15.2884 50.7828 15.3603 50.7828H15.4575C15.5303 50.7828 15.603 50.7828 15.6749 50.7761H15.6799C15.7298 50.7761 15.7806 50.7761 15.8313 50.7695C15.8454 50.7703 15.8595 50.7703 15.8736 50.7695C15.9159 50.7695 15.9582 50.7695 15.9988 50.7636H16.0284L16.3117 50.742C16.4047 50.7337 16.4985 50.7229 16.5933 50.7129L16.7861 50.6905C17.5705 50.5824 18.3462 50.4201 19.1074 50.2047C20.8174 49.7357 22.4901 49.0795 24.1992 48.5987C26.409 47.9791 28.8504 47.6747 30.9857 48.4324V40.6378H12.6499ZM30.9815 15.9681V0.650774C28.9745 0.629389 26.973 0.860251 25.0254 1.33775C20.3836 2.48466 16.2186 4.97226 12.6499 8.14933V15.9672H13.57V16.3224H12.6499V28.4219H30.9815V16.3232H17.3476V15.9681H30.9815ZM54.5275 10.7941C53.3791 10.7542 52.2374 10.3966 51.2049 9.84432C49.2302 8.78807 47.6531 7.15711 45.8907 5.78066C42.2289 2.91381 37.6877 1.18389 33.0289 0.754736V15.9681H59.1981L59.2633 15.9007L54.5275 10.7941ZM56.9115 10.3783L59.4392 13.1062V9.66301C58.5926 9.76614 57.851 10.0115 56.9148 10.3749L56.9115 10.3783ZM59.4392 52.9718V40.6378H54.0531C54.0387 40.5854 54.0243 40.5322 54.0074 40.4789C54.0235 40.5322 54.037 40.5854 54.0522 40.6378H33.0323V49.5577C33.2318 49.7032 33.4289 49.8563 33.6242 50.0118C33.8348 50.1781 34.0428 50.3536 34.2517 50.5258L34.4623 50.6971C34.5629 50.7803 34.6644 50.8634 34.7667 50.9416C34.9697 51.1035 35.1746 51.2632 35.3815 51.4207C35.4839 51.5039 35.5887 51.5787 35.6927 51.6569C37.3441 52.8986 39.0861 54.0191 40.9046 55.0094C41.3122 55.2312 41.7235 55.4477 42.1384 55.659C42.415 55.7979 42.6932 55.9359 42.9723 56.0699C43.3917 56.2711 43.8146 56.4652 44.2408 56.652C48.1703 58.3868 52.3255 59.5772 56.5876 60.1892C57.5341 60.3267 58.4844 60.4349 59.4383 60.5136V52.971H59.5229L59.4392 52.9718ZM33.0323 16.3232V28.4219H59.4425V16.3232H33.0323ZM33.0323 28.777V40.2826H59.4425V28.777H33.0323ZM61.4925 9.64804V13.4888L64.7187 10.0073C63.6498 9.83766 62.5743 9.71651 61.4925 9.64388V9.64804ZM61.4925 28.7811V40.2826H87.1797V28.777L61.4925 28.7811ZM87.0858 53.885L87.1763 40.6378H61.4925V60.6458C63.147 60.7142 64.8041 60.6948 66.4565 60.5876H66.4853C67.2746 60.5388 68.0602 60.4678 68.8422 60.3747H68.8599C73.0317 59.8972 77.1109 58.8267 80.9699 57.1968M92.1328 30.6716C92.0364 30.4479 91.9357 30.2258 91.8334 30.0062C91.6423 29.5904 91.4402 29.1862 91.2322 28.782H89.2279V40.2826H94.2952C94.2926 37.0257 93.4546 33.699 92.1353 30.6674L92.1328 30.6716ZM89.2279 40.6419V52.0361C90.6554 50.6905 91.8613 49.151 92.7298 47.3911C93.7742 45.272 94.252 42.9773 94.2909 40.6403L89.2279 40.6419ZM89.2279 25.4286V28.4227H91.0444C90.4949 27.392 89.8894 26.3911 89.2304 25.4244L89.2279 25.4286ZM71.8071 11.9053C71.6735 11.8554 71.5399 11.8046 71.4054 11.7555C69.9873 11.2405 68.5381 10.8122 67.0663 10.4731L62.1292 15.8017L62.0345 15.9007L62.098 15.9689H79.6693C77.2221 14.3122 74.5838 12.9467 71.8096 11.9011L71.8071 11.9053ZM80.1843 16.3274H61.8527L61.4925 16.6517V28.4219H64.6502H64.6553H87.1831V22.7206C85.1452 20.2967 82.7931 18.1459 80.1868 16.3232L80.1843 16.3274Z" fill="#EC9611"/>
<path opacity="0.1" d="M10.603 22.4258V28.4215H2.04736C2.04736 28.3865 2.05328 28.3508 2.05582 28.3158C2.06343 28.2202 2.07104 28.1245 2.0795 28.0297C2.0888 27.9183 2.09895 27.806 2.10994 27.6971C2.12094 27.5881 2.13278 27.455 2.14546 27.3344C2.15815 27.2138 2.16999 27.0916 2.18436 26.971C2.19874 26.8504 2.21142 26.7298 2.22665 26.61C2.24187 26.4903 2.2554 26.3688 2.27147 26.2491C2.28415 26.1493 2.29768 26.0503 2.31121 25.9505C2.33066 25.8099 2.35096 25.6686 2.37295 25.5288C2.37295 25.508 2.37887 25.4864 2.38225 25.4665C2.5366 24.4436 2.74691 23.4297 3.01227 22.4291L10.603 22.4258Z" fill="#EC9611"/>
<path opacity="0.1" d="M2.01818 28.7773H10.6009V40.2822H2.64652C2.62538 40.4003 2.60508 40.5192 2.58309 40.6381H10.6009V49.9165C10.5865 49.9123 10.5738 49.9074 10.5603 49.9024C10.3337 49.8142 10.1087 49.7211 9.88377 49.6213L9.74 49.5572C9.51449 49.4524 9.28898 49.3415 9.06347 49.2245C8.98482 49.1838 8.90617 49.1414 8.82837 49.0981C7.57642 48.4084 6.4391 47.5345 5.45584 46.5066C5.42708 46.4791 5.40002 46.45 5.37127 46.4234C5.23427 46.277 5.09981 46.129 4.96957 45.9776L4.82581 45.8113C4.6719 45.6258 4.52306 45.4353 4.37845 45.2424C4.35731 45.2141 4.33701 45.1858 4.31503 45.1592C3.7269 44.3572 3.23857 43.4889 2.86047 42.5726C2.84863 42.5452 2.83849 42.5153 2.82749 42.4895C2.71135 42.1956 2.60846 41.899 2.51882 41.5996C2.47992 41.474 2.44271 41.3501 2.41058 41.2195C2.39874 41.1812 2.38859 41.1438 2.37929 41.1064C1.89894 39.2625 1.84229 37.3471 1.84229 35.445C1.84229 35.223 1.84229 35.0001 1.84229 34.7797C1.84229 34.0104 1.85159 33.2361 1.86512 32.4626C1.86512 32.2621 1.87357 32.0625 1.8778 31.8613C1.88964 31.3506 1.90656 30.8399 1.92854 30.3293C1.93362 30.1871 1.94038 30.0457 1.94799 29.9043C1.94799 29.8228 1.95222 29.7413 1.96068 29.6598C1.98098 29.3637 1.99789 29.0701 2.01818 28.7773Z" fill="#EC9611"/>
<path opacity="0.1" d="M19.1032 18.0556V28.4219H12.6499V18.0556H13.57V14.5459H17.3468V18.0556H19.1032Z" fill="#EC9611"/>
<path opacity="0.1" d="M19.1068 28.7773H12.6543V40.2822H19.1068V28.7773Z" fill="#EC9611"/>
<path opacity="0.1" d="M12.6499 40.6377H19.1032V50.2022C18.342 50.4173 17.5663 50.5793 16.7818 50.6871L16.589 50.7103C16.4943 50.7211 16.4005 50.7303 16.3074 50.7394C16.2144 50.7486 16.118 50.7552 16.0241 50.7611H15.9945C15.9539 50.7611 15.91 50.7661 15.8702 50.7669H15.8271C15.7763 50.7669 15.7256 50.7719 15.6749 50.7735C15.603 50.7777 15.5311 50.7785 15.4575 50.7794C15.4262 50.7794 15.3966 50.7794 15.3654 50.7794C15.2926 50.7794 15.2207 50.7794 15.148 50.7794H14.9882C14.9451 50.7794 14.9036 50.7794 14.8588 50.7794L14.6956 50.7735C14.611 50.7735 14.5197 50.7644 14.4317 50.7586L14.2694 50.7469L14.0672 50.7286C13.9252 50.7162 13.7839 50.7004 13.6444 50.6812L13.4753 50.6579L13.3907 50.6463C13.2495 50.6247 13.1099 50.6014 12.9679 50.5748C12.8639 50.5573 12.7607 50.5357 12.6558 50.5149L12.6499 40.6377Z" fill="#EC9611"/>
<path opacity="0.1" d="M59.446 16.832H54.125V28.4217H59.446V16.832Z" fill="#EC9611"/>
<path opacity="0.1" d="M59.4458 28.7773V40.283H33.0347V35.3203H47.1024V38.2478H54.124V28.7773H59.4458Z" fill="#EC9611"/>
<path opacity="0.1" d="M59.5295 52.975H59.445V60.5226C58.4922 60.4433 57.5422 60.3355 56.595 60.1991C52.3309 59.5851 48.1739 58.3922 44.2432 56.6544C43.1083 56.1521 41.9965 55.6037 40.9079 55.0093C39.0894 54.0185 37.3471 52.898 35.6951 51.6568C35.2802 51.344 34.8706 51.0241 34.4664 50.697C34.1865 50.4699 33.9082 50.2371 33.6266 50.0108C33.4313 49.8553 33.2342 49.7023 33.0347 49.5559V40.6393H54.0538C54.0394 40.5861 54.0251 40.5329 54.0098 40.4805C54.0259 40.5329 54.0411 40.5861 54.0555 40.6393H59.445V52.97C59.4737 52.9708 59.5016 52.9733 59.5295 52.975Z" fill="#EC9611"/>
<path opacity="0.1" d="M73.3217 15.9678H69.8545V14.9082H71.4088V11.752C71.5436 11.8002 71.6778 11.8498 71.8114 11.9008V14.9082H73.3217V15.9678Z" fill="#EC9611"/>
<path opacity="0.1" d="M81.6767 28.422H64.655C64.655 28.422 64.655 28.422 64.6609 28.4262L64.6533 28.422H61.4956V16.8324H62.3903V25.3988H66.4791V20.3255H69.8567V16.3242H73.324V20.3288H76.7016V25.4022H81.6767V28.422Z" fill="#EC9611"/>
<path opacity="0.1" d="M61.4956 28.7773V40.283H81.6767V28.7773H61.4956ZM87.1549 53.8263L87.1829 44.7192H81.6767V40.6439H61.4956V60.6462C63.1502 60.7145 64.8073 60.6951 66.4597 60.588H66.4884C67.2777 60.5392 68.0634 60.4682 68.8453 60.375H68.8631C73.0348 59.8976 77.114 58.8271 80.9731 57.1972" fill="#EC9611"/>
<path opacity="0.1" d="M89.5896 40.6377H94.2974C94.256 42.9739 93.779 45.2686 92.7355 47.3877C91.8669 49.1484 90.6602 50.6879 89.2344 52.0327V44.7138H89.5896V40.6377Z" fill="#EC9611"/>
<path opacity="0.1" d="M94.2973 40.2822H89.5869V30.667H92.1358C93.455 33.6985 94.2931 37.0253 94.2973 40.2822Z" fill="#EC9611"/>
<path opacity="0.1" d="M59.445 20.0537H56.5942V23.6874H59.445V20.0537Z" fill="#EC9611"/>
<path opacity="0.1" d="M59.445 27.585H56.5942V28.4216H59.445V27.585Z" fill="#EC9611"/>
<path opacity="0.1" d="M59.445 28.7773H56.5942V31.2184H59.445V28.7773Z" fill="#EC9611"/>
<path opacity="0.1" d="M59.445 35.1172H56.5942V38.7509H59.445V35.1172Z" fill="#EC9611"/>
<path opacity="0.1" d="M59.445 42.6494H56.5942V46.2831H59.445V42.6494Z" fill="#EC9611"/>
<path opacity="0.1" d="M59.4441 52.9693C59.4729 52.9693 59.5008 52.9693 59.5287 52.9743H59.4441V53.8185H56.5942V50.1807H59.4441V52.9693Z" fill="#EC9611"/>
<path opacity="0.1" d="M59.4441 57.7109V60.5179C58.4914 60.4386 57.5414 60.3308 56.5942 60.1944V57.7109H59.4441Z" fill="#EC9611"/>
<path opacity="0.1" d="M45.2521 40.0156H33.0347V40.2826H45.2521V40.0156Z" fill="#EC9611"/>
<path opacity="0.1" d="M45.2521 40.6377H33.0347V41.6607H45.2521V40.6377Z" fill="#EC9611"/>
<path opacity="0.1" d="M45.2521 45.0146H33.0347V46.6597H45.2521V45.0146Z" fill="#EC9611"/>
<path opacity="0.1" d="M45.2509 50.0127V51.6578H35.6948C35.2799 51.3462 34.87 51.0263 34.4652 50.698C34.1853 50.471 33.9079 50.2381 33.6255 50.0127H45.2509Z" fill="#EC9611"/>
<path opacity="0.1" d="M45.2491 55.0103V56.6537H44.2402C43.1065 56.1508 41.995 55.6022 40.9058 55.0078L45.2491 55.0103Z" fill="#EC9611"/>
<path opacity="0.1" d="M68.8636 29.8916H66.4585V32.2569H68.8636V29.8916Z" fill="#EC9611"/>
<path opacity="0.1" d="M16.7899 18.8711H14.3848V21.2364H16.7899V18.8711Z" fill="#EC9611"/>
<path opacity="0.1" d="M16.7899 24.3652H14.3848V26.7306H16.7899V24.3652Z" fill="#EC9611"/>
<path opacity="0.1" d="M16.7899 29.8604H14.3848V32.2257H16.7899V29.8604Z" fill="#EC9611"/>
<path opacity="0.1" d="M16.7899 35.3535H14.3848V37.7189H16.7899V35.3535Z" fill="#EC9611"/>
<path opacity="0.1" d="M16.7899 40.8477H14.3848V43.213H16.7899V40.8477Z" fill="#EC9611"/>
<path opacity="0.1" d="M16.7899 46.3418H14.3848V48.7071H16.7899V46.3418Z" fill="#EC9611"/>
<path opacity="0.1" d="M78.0467 29.8916H75.6416V32.2569H78.0467V29.8916Z" fill="#EC9611"/>
<path opacity="0.1" d="M68.8636 35.7266H66.4585V38.0919H68.8636V35.7266Z" fill="#EC9611"/>
<path opacity="0.1" d="M78.0467 35.7266H75.6416V38.0919H78.0467V35.7266Z" fill="#EC9611"/>
<path opacity="0.1" d="M68.8636 41.5596H66.4585V43.9249H68.8636V41.5596Z" fill="#EC9611"/>
<path opacity="0.1" d="M78.0467 41.5596H75.6416V43.9249H78.0467V41.5596Z" fill="#EC9611"/>
<path opacity="0.1" d="M68.8636 47.3945H66.4585V49.7599H68.8636V47.3945Z" fill="#EC9611"/>
<path opacity="0.1" d="M78.0467 47.3945H75.6416V49.7599H78.0467V47.3945Z" fill="#EC9611"/>
<path opacity="0.1" d="M68.8636 53.2285H66.4585V55.5939H68.8636V53.2285Z" fill="#EC9611"/>
<path opacity="0.1" d="M78.0467 53.2285H75.6416V55.5939H78.0467V53.2285Z" fill="#EC9611"/>
<path opacity="0.1" d="M66.4585 60.5878V59.0625H68.8627V60.3708L66.4585 60.5878Z" fill="#EC9611"/>
<path opacity="0.1" d="M2.37158 25.4658V26.819H10.6025V25.4658H2.37158ZM3.19188 26.7342H2.52042V25.549H3.19696L3.19188 26.7342ZM4.01134 26.7342H3.3348V25.549H4.01134V26.7342ZM4.8291 26.7342H4.15256V25.549H4.8291V26.7342ZM5.64856 26.7342H4.97286V25.549H5.6494L5.64856 26.7342ZM6.46716 26.7342H5.79063V25.549H6.46716V26.7342ZM7.28662 26.7342H6.61008V25.549H7.28662V26.7342ZM8.10607 26.7342H7.42954V25.549H8.10607V26.7342ZM8.92468 26.7342H8.24815V25.549H8.92468V26.7342ZM9.74329 26.7342H9.06676V25.549H9.74329V26.7342ZM10.5619 26.7342H9.88536V25.549H10.5619V26.7342Z" fill="#EC9611"/>
<path opacity="0.1" d="M2.37158 29.4033V30.7565H10.6025V29.4033H2.37158ZM3.19188 30.6708H2.52042V29.489H3.19696L3.19188 30.6708ZM4.01134 30.6708H3.3348V29.489H4.01134V30.6708ZM4.8291 30.6708H4.15256V29.489H4.8291V30.6708ZM5.64856 30.6708H4.97286V29.489H5.6494L5.64856 30.6708ZM6.46716 30.6708H5.79063V29.489H6.46716V30.6708ZM7.28662 30.6708H6.61008V29.489H7.28662V30.6708ZM8.10607 30.6708H7.42954V29.489H8.10607V30.6708ZM8.92468 30.6708H8.24815V29.489H8.92468V30.6708ZM9.74329 30.6708H9.06676V29.489H9.74329V30.6708ZM10.5619 30.6708H9.88536V29.489H10.5619V30.6708Z" fill="#EC9611"/>
<path opacity="0.1" d="M2.37158 33.3418V34.6975H10.6025V33.3418H2.37158ZM3.19188 34.6093H2.52042V33.4266H3.19696L3.19188 34.6093ZM4.01134 34.6093H3.3348V33.4266H4.01134V34.6093ZM4.8291 34.6093H4.15256V33.4266H4.8291V34.6093ZM5.64856 34.6093H4.97286V33.4266H5.6494L5.64856 34.6093ZM6.46716 34.6093H5.79063V33.4266H6.46716V34.6093ZM7.28662 34.6093H6.61008V33.4266H7.28662V34.6093ZM8.10607 34.6093H7.42954V33.4266H8.10607V34.6093ZM8.92468 34.6093H8.24815V33.4266H8.92468V34.6093ZM9.74329 34.6093H9.06676V33.4266H9.74329V34.6093ZM10.5619 34.6093H9.88536V33.4266H10.5619V34.6093Z" fill="#EC9611"/>
<path opacity="0.1" d="M2.37158 37.2803V38.6318H10.6025V37.2803H2.37158ZM3.19188 38.5478H2.52042V37.3643H3.19696L3.19188 38.5478ZM4.01134 38.5478H3.3348V37.3643H4.01134V38.5478ZM4.8291 38.5478H4.15256V37.3643H4.8291V38.5478ZM5.64856 38.5478H4.97286V37.3643H5.6494L5.64856 38.5478ZM6.46716 38.5478H5.79063V37.3643H6.46716V38.5478ZM7.28662 38.5478H6.61008V37.3643H7.28662V38.5478ZM8.10607 38.5478H7.42954V37.3643H8.10607V38.5478ZM8.92468 38.5478H8.24815V37.3643H8.92468V38.5478ZM9.74329 38.5478H9.06676V37.3643H9.74329V38.5478ZM10.5619 38.5478H9.88536V37.3643H10.5619V38.5478Z" fill="#EC9611"/>
<path opacity="0.1" d="M2.4082 41.2188C2.44118 41.346 2.47839 41.4732 2.51729 41.5988V41.3036H3.19383V42.4863H2.83188C2.84288 42.5137 2.85387 42.5436 2.86486 42.5694H10.6036V41.2188H2.4082ZM4.01498 42.4863H3.33844V41.3036H4.01498V42.4863ZM4.83274 42.4863H4.1562V41.3036H4.83274V42.4863ZM5.6522 42.4863H4.97397V41.3036H5.6505L5.6522 42.4863ZM6.4708 42.4863H5.79427V41.3036H6.4708V42.4863ZM7.29026 42.4863H6.61372V41.3036H7.29026V42.4863ZM8.10971 42.4863H7.43318V41.3036H8.10971V42.4863ZM8.92832 42.4863H8.25179V41.3036H8.92832V42.4863ZM9.74693 42.4863H9.0704V41.3036H9.74693V42.4863ZM10.5655 42.4863H9.889V41.3036H10.5655V42.4863Z" fill="#EC9611"/>
<path opacity="0.1" d="M4.31982 45.1572C4.34097 45.1838 4.36126 45.2138 4.38325 45.2404H4.83061V45.8084C4.87881 45.865 4.92617 45.9215 4.97522 45.9748V45.2371H5.65176V46.4239H5.37776C5.40482 46.4513 5.43103 46.4804 5.46232 46.5071H10.6065V45.1572H4.31982ZM6.46867 46.4239H5.79214V45.2421H6.46867V46.4239ZM7.28813 46.4239H6.61159V45.2421H7.28813V46.4239ZM8.10758 46.4239H7.43105V45.2421H8.10758V46.4239ZM8.92619 46.4239H8.24966V45.2421H8.92619V46.4239ZM9.7448 46.4239H9.06826V45.2421H9.7448V46.4239ZM10.5634 46.4239H9.88687V45.2421H10.5634V46.4239Z" fill="#EC9611"/>
<path opacity="0.1" d="M8.83545 49.0957C8.91241 49.139 8.99105 49.1789 9.07055 49.2221V49.1805H9.74708V49.5548L9.89085 49.6205V49.1805H10.5674V49.8999C10.5804 49.9063 10.594 49.9113 10.608 49.9149V49.0957H8.83545Z" fill="#EC9611"/>
<path opacity="0.1" d="M54.0112 40.4782C54.0273 40.5314 54.0408 40.5846 54.056 40.637C54.0425 40.5846 54.0281 40.5314 54.0112 40.4782ZM13.5771 15.9648V16.32H17.3548V15.9648H13.5771ZM54.0112 40.4782C54.0273 40.5314 54.0408 40.5846 54.056 40.637C54.0425 40.5846 54.0281 40.5314 54.0112 40.4782ZM54.0112 40.4782C54.0273 40.5314 54.0408 40.5846 54.056 40.637C54.0425 40.5846 54.0281 40.5314 54.0112 40.4782Z" fill="#EC9611"/>
<path d="M39.8854 32.227C39.8854 32.227 39.5522 32.1812 39.5522 31.7038C39.5522 31.2264 39.3137 30.3349 39.3137 30.3349C39.3137 30.3307 39.1074 28.7821 38.8224 28.5359C38.5374 28.2897 38.1712 26.8442 38.1712 26.8442C38.1712 26.8442 38.1086 26.06 37.9809 25.8911C37.8532 25.7223 37.6807 25.3089 37.4262 24.7193C37.1716 24.1296 36.1103 23.7212 36.1103 23.7212C36.1103 23.7212 34.1915 22.6267 33.6477 22.2699C33.5983 22.2406 33.5521 22.2063 33.5099 22.1676C33.4152 22.0454 33.0025 22.0429 33.0025 22.0429C32.9594 21.7751 32.9179 21.4673 32.9044 21.1887C32.9044 21.1588 32.9044 21.1288 32.9002 21.0989C33.5065 20.7464 33.9632 20.1907 34.1864 19.5337C34.1966 19.5021 34.205 19.4688 34.2143 19.4372C34.2507 19.4254 34.2841 19.4063 34.3125 19.3811C34.3409 19.3559 34.3636 19.3251 34.3792 19.2908C34.4283 19.1835 34.4291 19.0579 34.49 18.9581C34.5611 18.84 34.6964 18.7768 34.8029 18.6878C35.0718 18.4633 35.1412 18.0848 35.1285 17.7405C35.12 17.4619 35.0744 17.1808 35.0921 16.9038L35.0972 16.834C35.1023 16.7924 35.1082 16.7508 35.1158 16.7109C35.1572 16.5046 35.2477 16.31 35.2985 16.1054C35.3492 15.9008 35.3543 15.6704 35.2359 15.4941C35.0625 15.2355 34.7014 15.1839 34.3843 15.1573C34.0249 15.1273 33.7035 15.1664 33.4735 14.8728C33.3659 14.7194 33.2448 14.5755 33.1116 14.4429C33.0642 14.3996 32.6042 14.1235 32.6042 14.1052C32.1552 13.9007 31.6462 13.8623 31.1708 13.9971C30.9323 14.0653 30.7073 14.1767 30.4655 14.2324C29.9437 14.3539 29.3433 14.2225 28.9001 14.516C28.6532 14.6824 28.5052 14.9469 28.3665 15.2047C28.2538 15.4171 28.1393 15.6291 28.0232 15.8409C27.8363 16.1894 27.646 16.5437 27.5674 16.9296C27.5508 17.0136 27.5406 17.0987 27.5369 17.1841V17.1883C27.5369 17.2191 27.5369 17.2498 27.5369 17.2806V17.3197C27.5369 17.3488 27.5369 17.3771 27.542 17.4029C27.5471 17.4286 27.5462 17.437 27.5487 17.4544C27.5513 17.4719 27.5555 17.511 27.5606 17.5376C27.5657 17.5642 27.5758 17.6108 27.586 17.6474C27.5902 17.6632 27.5961 17.6781 27.6012 17.6931C27.6096 17.7214 27.6198 17.7488 27.6308 17.7763C27.6367 17.7904 27.6426 17.8054 27.6494 17.8195C27.6621 17.8486 27.6773 17.8769 27.6925 17.9027C27.6993 17.9143 27.7044 17.9252 27.7111 17.936C27.7347 17.9747 27.7607 18.0119 27.7889 18.0474C27.9699 18.2695 28.2363 18.4109 28.4333 18.6188C28.4333 18.6271 28.4333 18.6354 28.4333 18.6429C28.4333 18.6662 28.4333 18.6887 28.4333 18.7119C28.4438 19.1757 28.5693 19.6298 28.7989 20.035C29.0285 20.4401 29.3553 20.7839 29.7509 21.0365C29.7509 21.0681 29.7551 21.1006 29.7568 21.1322C29.7733 21.379 29.7702 21.6268 29.7475 21.8732C29.7131 21.8333 29.67 21.8016 29.6214 21.7802C29.5728 21.7589 29.5199 21.7486 29.4667 21.7501C29.4304 21.7484 29.394 21.7515 29.3585 21.7593L29.3509 21.7534V21.7609C29.1648 21.8058 28.9356 21.9963 28.7166 22.5377C28.7166 22.5377 28.0502 23.2763 27.5428 23.2455C27.0354 23.2147 25.7509 24.014 25.7509 24.014C25.7509 24.014 24.4976 24.8141 24.2286 25.6291C24.0783 26.0913 23.8981 26.5436 23.6891 26.9831L22.1398 30.1228L21.854 32.6137C21.854 32.6137 22.0121 33.7215 21.9809 33.8904C21.9496 34.0592 22.6312 35.582 22.6312 35.582C22.6312 35.582 24.8832 39.4735 25.8033 39.6731L25.8692 39.6274C25.9086 39.6476 25.9504 39.663 25.9936 39.6731L26.183 39.5417C26.1944 39.6882 26.1895 39.8354 26.1686 39.9808C26.0418 40.3651 26.216 42.8726 26.4375 43.3642C26.6591 43.8557 26.5805 50.3005 26.5805 50.3005L26.5492 50.8694C26.5492 50.8694 26.5492 50.8877 26.5568 50.9193L26.5492 51.054L26.572 51.0657C26.5957 51.2461 26.588 51.4292 26.5492 51.6071C26.4697 51.8566 26.4375 52.5619 26.4375 52.5619C26.4375 52.5619 25.8041 56.544 26.1043 57.3441C26.4046 58.1442 26.66 59.0208 26.66 59.0208C26.66 59.0208 26.9771 60.0188 26.6752 60.1893C26.3733 60.3598 25.5149 60.6459 25.6917 61.0618C25.8523 61.446 26.4621 62.4757 26.5525 62.6262L26.5449 62.7052L26.4206 64.0301C26.4408 64.205 26.489 64.3757 26.5635 64.5358C26.6997 64.8244 26.9644 65.1238 27.4676 65.0913C27.5521 65.0855 27.6502 65.0755 27.7449 65.0631C28.6659 64.9416 29.7999 64.5374 29.7999 64.5374C29.741 64.5007 29.6871 64.4568 29.6392 64.4069C29.594 64.3637 29.5581 64.312 29.5338 64.2548C29.5096 64.1976 29.4974 64.1362 29.498 64.0742C29.5116 63.833 29.0524 62.6836 28.9382 62.4008C28.9204 62.3601 28.9111 62.3368 28.9111 62.3368C28.9111 62.3368 29.9581 61.2606 29.7839 60.3066C29.7839 60.3066 28.6253 59.6413 29.0067 59.2761C29.3881 58.911 30.0697 57.8623 30.0697 57.8623C30.0697 57.8623 30.101 53.9408 30.0697 53.3553C30.0371 52.9489 30.0567 52.5401 30.128 52.1385C30.1407 52.0778 30.156 52.0188 30.172 51.9606C30.6995 52.038 31.232 52.0777 31.7653 52.0795C31.9598 52.0795 32.1577 52.0795 32.3572 52.0678C32.3572 52.1233 32.3598 52.1832 32.3648 52.2475C32.4088 53.2189 32.4908 54.9222 32.5577 55.5551C32.6524 56.4625 33.1758 58.9077 33.1758 58.9077C33.1758 58.9077 32.1771 59.5381 33.35 61.0917C33.35 61.0917 33.3501 61.6548 33.2722 61.7363C33.1892 62.0027 33.1223 62.2738 33.0718 62.548C33.0228 62.8408 33.0025 63.1369 33.082 63.2907C33.2722 63.6583 34.4139 63.6284 34.4139 63.6284L34.4418 63.6234C34.6573 63.6015 34.8752 63.6219 35.0826 63.6834C35.29 63.745 35.483 63.8464 35.6503 63.9819C36.0841 64.3245 37.7306 64.174 38.622 64.065C38.9712 64.0218 39.2046 63.9819 39.2046 63.9819C39.2159 63.943 39.22 63.9024 39.2165 63.8621C39.2072 63.6467 39.0355 63.1743 37.8719 62.7526C37.8719 62.7526 36.7776 62.029 36.7928 61.3986H36.7699H36.6431C36.7353 61.3936 36.7945 61.3986 36.7945 61.3986C36.7945 61.3986 36.3657 59.86 36.5408 59.7352C36.7158 59.6105 36.1915 57.9055 36.1915 57.9055C36.1915 57.9055 35.8913 55.0445 35.8752 54.844C35.8759 54.672 35.9024 54.5011 35.9539 54.3367L35.8752 52.7681C35.8752 52.7681 35.86 52.2467 35.8752 52.077C35.8727 51.9297 35.8605 51.7828 35.8389 51.637C35.8312 51.5788 35.8236 51.5181 35.8152 51.4582C36.2253 51.3559 36.4917 51.2611 36.4917 51.2611L36.4444 45.801C36.7928 45.1357 36.857 43.6761 36.8554 42.6406C36.8554 41.9752 36.8249 41.4829 36.8249 41.4829L37.301 40.7186C37.301 40.7186 37.411 39.8037 37.2368 39.6033C37.1598 39.5126 37.1945 39.4186 37.2579 39.3413C37.2908 39.3156 37.3256 39.2922 37.3619 39.2714C37.3619 39.2714 37.3568 39.2639 37.3509 39.2531C37.3842 39.2258 37.4195 39.201 37.4566 39.1791C37.4566 39.1791 37.2875 38.9213 37.4389 38.8123C37.5809 38.9071 37.7078 38.9787 37.8042 39.0369C37.7974 39.0976 37.7907 39.1325 37.7907 39.1325L37.8313 39.0493C37.9243 39.1009 37.9809 39.1325 37.9809 39.1325C37.9809 39.1325 38.7268 37.6712 38.7108 37.4558C38.6947 37.2404 39.2182 36.333 39.2182 36.333C39.2182 36.333 39.2816 35.8565 39.5674 35.6569C39.8533 35.4573 39.789 34.0109 39.789 34.0109C39.789 34.0109 39.8685 33.2574 40.0588 32.9497C40.249 32.642 39.8854 32.227 39.8854 32.227ZM25.6139 31.5857L25.6282 31.9342C25.5437 31.8003 25.4828 31.7038 25.4828 31.7038L25.6139 31.5857Z" fill="url(#paint0_linear_6275_578)"/>
<path d="M38.0223 38.5004L37.8397 39.2656C37.8397 39.2656 36.3766 38.5312 36.1128 37.598C35.849 36.6648 36.5542 36.3105 36.5542 36.3105L37.9175 36.8786L38.0223 38.5004Z" fill="white"/>
<path opacity="0.1" d="M38.0223 38.5004L37.8397 39.2656C37.8397 39.2656 36.3766 38.5312 36.1128 37.598C35.849 36.6648 36.5542 36.3105 36.5542 36.3105L37.9175 36.8786L38.0223 38.5004Z" fill="black"/>
<path d="M29.8109 64.5416C29.8109 64.5416 28.4579 65.0306 27.5276 65.0922C27.0337 65.1246 26.7741 64.8269 26.6405 64.5399C26.5675 64.3804 26.5204 64.2106 26.501 64.0367L26.6219 62.7185L26.6862 62.0166L28.6625 61.5117L28.9424 62.3534L28.9686 62.4174C29.0811 62.6985 29.5319 63.8421 29.5183 64.0808C29.5178 64.1419 29.5298 64.2025 29.5536 64.259C29.5774 64.3154 29.6126 64.3666 29.657 64.4093C29.7024 64.4597 29.7541 64.5041 29.8109 64.5416Z" fill="white"/>
<path d="M39.0555 63.8716C39.0588 63.9117 39.0548 63.952 39.0436 63.9906C39.0436 63.9906 36.1497 64.4655 35.5578 63.9906C35.3909 63.8518 35.1963 63.749 34.9866 63.6885C34.7769 63.6281 34.5566 63.6114 34.34 63.6396C34.34 63.6396 33.2203 63.6695 33.0334 63.3069C32.9556 63.1547 32.9759 62.8595 33.0241 62.5684C33.0733 62.2956 33.1388 62.026 33.2203 61.7608L33.2652 61.7259L33.5315 61.5155L36.6504 61.4248H36.674C36.6588 62.0519 37.7328 62.7713 37.7328 62.7713C38.8736 63.1872 39.0419 63.6571 39.0555 63.8716Z" fill="white"/>
<path opacity="0.1" d="M39.055 63.8726C39.058 63.9127 39.0537 63.9529 39.0423 63.9915C39.0423 63.9915 36.1493 64.4664 35.5573 63.9915C35.3905 63.8529 35.1961 63.7501 34.9865 63.6896C34.777 63.6292 34.5569 63.6125 34.3404 63.6406C34.3404 63.6406 33.2199 63.6705 33.0338 63.3079C32.956 63.1548 32.9755 62.8604 33.0237 62.5693C33.455 62.6118 34.1357 62.7174 34.403 62.9694C34.8072 63.3528 35.4922 63.7354 35.9125 63.7653C36.2415 63.7861 38.2093 63.8476 39.055 63.8726Z" fill="black"/>
<path opacity="0.1" d="M29.8102 64.5421C29.8102 64.5421 28.4571 65.0312 27.5269 65.0927C27.033 65.1252 26.7734 64.8274 26.6406 64.5396C26.9848 64.6536 27.4626 64.7734 27.7138 64.6636C28.0115 64.5338 29.0669 64.4498 29.6588 64.4141C29.7039 64.4626 29.7547 64.5056 29.8102 64.5421Z" fill="black"/>
<path d="M31.8186 25.1327C30.7023 24.7061 29.2663 23.2964 29.6249 22.6377C29.7045 22.4714 29.7519 22.292 29.7644 22.1087C29.7875 21.8598 29.7909 21.6096 29.7746 21.3602C29.7494 20.9517 29.6995 20.5451 29.6249 20.1426C29.6249 20.1426 33.1099 20.2199 32.9069 20.7248C32.8478 20.8728 32.8384 21.1298 32.8545 21.4176C32.8706 21.7053 32.9129 22.0305 32.9568 22.3058C33.0177 22.6834 33.0786 22.9712 33.0786 22.9712C33.0786 22.9712 32.8655 23.2648 32.7404 23.2806C32.6152 23.2964 33.4203 25.7407 31.8186 25.1327Z" fill="#CF6F80"/>
<path opacity="0.1" d="M28.9669 62.4174L28.9406 62.4457C27.8988 61.2065 26.6387 62.7509 26.6387 62.7509L26.6201 62.7185L26.6844 62.0166L28.6607 61.5117L28.9406 62.3534L28.9669 62.4174Z" fill="black"/>
<path opacity="0.1" d="M36.6722 61.5125C36.6722 61.5125 35.9111 61.4967 35.5052 61.8494C35.0993 62.202 33.1373 61.9259 33.2219 61.8494C33.2469 61.8114 33.2621 61.768 33.2659 61.7229L33.5323 61.5125L36.6511 61.4219C36.6629 61.4776 36.6722 61.5125 36.6722 61.5125Z" fill="black"/>
<path d="M30.2627 51.7813C30.206 51.9191 30.163 52.062 30.1342 52.2079C30.0636 52.6076 30.044 53.0144 30.0758 53.4189C30.1071 54.0011 30.0758 57.9025 30.0758 57.9025C30.0758 57.9025 29.4069 58.943 29.0339 59.3098C28.661 59.6765 29.795 60.3352 29.795 60.3352C29.9642 61.2834 28.9392 62.3546 28.9392 62.3546C27.8974 61.1154 26.6373 62.6607 26.6373 62.6607C26.6373 62.6607 25.9523 61.4963 25.7815 61.0804C25.6107 60.6646 26.4504 60.3768 26.7456 60.208C27.0407 60.0392 26.7312 59.0436 26.7312 59.0436C26.7312 59.0436 26.4817 58.1712 26.1857 57.3752C25.8897 56.5793 26.5122 52.6171 26.5122 52.6171C26.5122 52.6171 26.5443 51.9135 26.6212 51.6682C26.6601 51.4911 26.6678 51.3088 26.6441 51.1292C26.639 51.0685 26.6331 51.0178 26.6289 50.9837C26.6246 50.9496 26.6212 50.9338 26.6212 50.9338L26.6331 50.9138L27.0559 50.1387C27.0559 50.1387 30.4657 51.2931 30.2627 51.7813Z" fill="#EC9611"/>
<path d="M36.6717 61.4205C36.6717 61.4205 35.9106 61.4047 35.5047 61.7532C35.0988 62.1017 33.1368 61.8297 33.2214 61.7532C33.306 61.6767 33.2992 61.1103 33.2992 61.1103C32.1482 59.565 33.1301 58.9379 33.1301 58.9379C33.1301 58.9379 32.6159 56.5052 32.5229 55.6028C32.4578 54.9724 32.3774 53.2782 32.3343 52.311C32.3157 51.8951 32.3047 51.609 32.3047 51.609L33.2451 51.4227L33.366 51.3986L35.6341 50.9512C35.6341 50.9512 35.6967 51.367 35.739 51.7072C35.76 51.8524 35.7719 51.9988 35.7745 52.1455C35.7593 52.3118 35.7745 52.8325 35.7745 52.8325L35.8514 54.3936C35.8012 54.5573 35.7752 54.7273 35.7745 54.8984C35.7897 55.0972 36.0848 57.9432 36.0848 57.9432C36.0848 57.9432 36.5982 59.6415 36.4231 59.7638C36.2481 59.8861 36.6717 61.4205 36.6717 61.4205Z" fill="#EC9611"/>
<path opacity="0.1" d="M32.9085 20.7248C32.8493 20.8728 32.84 21.1298 32.8561 21.4176C32.3893 21.694 31.8526 21.8354 31.3078 21.8254C30.763 21.8154 30.2321 21.6544 29.7761 21.361C29.751 20.9523 29.7011 20.5454 29.6265 20.1426C29.6265 20.1426 33.1115 20.2183 32.9085 20.7248Z" fill="black"/>
<path d="M34.2562 18.8869C34.2569 19.1866 34.2089 19.4845 34.1142 19.7693C33.9023 20.4075 33.4678 20.9515 32.8876 21.3052C32.3073 21.6588 31.6186 21.7994 30.9432 21.7019C30.2678 21.6045 29.6491 21.2753 29.1966 20.7727C28.744 20.2701 28.4867 19.6263 28.4701 18.9551C28.4701 18.9318 28.4701 18.9102 28.4701 18.8869C28.4636 18.5091 28.5336 18.1338 28.676 17.7829C28.8185 17.432 29.0306 17.1125 29.2999 16.8431C29.5692 16.5736 29.8904 16.3596 30.2448 16.2135C30.5991 16.0674 30.9794 15.9922 31.3636 15.9922C31.7478 15.9922 32.1282 16.0674 32.4825 16.2135C32.8368 16.3596 33.158 16.5736 33.4273 16.8431C33.6966 17.1125 33.9087 17.432 34.0512 17.7829C34.1937 18.1338 34.2636 18.5091 34.2571 18.8869H34.2562Z" fill="#CF6F80"/>
<path opacity="0.1" d="M31.8186 25.1324C30.7023 24.7058 29.2663 23.2961 29.6249 22.6374C29.7045 22.4711 29.7519 22.2917 29.7644 22.1084L31.2926 23.3435L32.238 24.1061L32.9568 22.3063C33.0177 22.6839 33.0786 22.9717 33.0786 22.9717C33.0786 22.9717 32.8655 23.2653 32.7404 23.2811C32.6152 23.2969 33.4203 25.7404 31.8186 25.1324Z" fill="black"/>
<path d="M35.769 30.5903L34.4929 51.6737L32.8286 51.781L28.519 39.5559L29.226 25.042L29.3749 21.9756L31.2912 23.5234L32.2375 24.286L32.9774 22.4338L34.3533 23.6132L35.769 30.5903Z" fill="#EC9611"/>
<path opacity="0.1" d="M30.2646 51.7805C30.2079 51.9183 30.1649 52.0612 30.1361 52.2071C28.9251 52.0232 27.7489 51.6619 26.6469 51.1351L26.624 51.1234L26.6316 50.9895L26.6359 50.9197L27.0587 50.1445C27.0587 50.1445 30.4676 51.2923 30.2646 51.7805Z" fill="black"/>
<path opacity="0.1" d="M33.2657 52.2112C32.9561 52.263 32.6439 52.298 32.3304 52.316C32.3118 51.9001 32.3008 51.614 32.3008 51.614L33.2412 51.4277L33.2657 52.2112Z" fill="black"/>
<path opacity="0.1" d="M35.7357 51.7121C35.1345 51.8659 34.2059 52.0389 33.3746 51.9308L33.3628 51.4035L35.6309 50.9561C35.6309 50.9561 35.6935 51.3677 35.7357 51.7121Z" fill="black"/>
<path opacity="0.1" d="M33.3605 52.0263C29.8932 52.6085 26.7177 50.9393 26.7177 50.9393L26.7482 50.3737C26.7482 50.3737 26.8268 43.9622 26.6086 43.4706C26.3905 42.9791 26.2205 40.4865 26.3439 40.104C26.4674 39.7214 25.8932 33.9844 25.8932 33.9844L25.8002 31.6556L22.3955 30.2991L23.9177 27.1786C24.1233 26.7411 24.3001 26.2911 24.4471 25.8313C24.7118 25.0212 25.9406 24.2253 25.9406 24.2253C25.9406 24.2253 27.2006 23.4302 27.6987 23.4601C28.1968 23.49 28.8497 22.7565 28.8497 22.7565C29.3317 21.548 29.7681 22.0953 29.7681 22.0953C29.7681 22.1527 29.7681 22.0953 29.7444 22.2741C29.5753 23.6007 32.4793 27.7924 32.5207 27.8664L32.7973 34.4917L33.0772 42.876L33.3605 52.0263Z" fill="black"/>
<path d="M33.2644 52.0274C29.7971 52.6096 26.6208 50.9403 26.6208 50.9403L26.6521 50.3748C26.6521 50.3748 26.7307 43.9633 26.5117 43.4717C26.2927 42.9802 26.1235 40.4876 26.2478 40.105C26.3722 39.7225 25.7971 33.9854 25.7971 33.9854L25.7032 31.6567L22.2969 30.2952L23.8191 27.1747C24.0242 26.737 24.2011 26.287 24.3485 25.8274C24.6123 25.0173 25.8419 24.2214 25.8419 24.2214C25.8419 24.2214 27.102 23.4263 27.5992 23.4562C28.0965 23.4861 28.7502 22.7526 28.7502 22.7526C29.2331 21.5441 29.765 22.0914 29.765 22.0914C29.765 22.1488 29.7143 22.1746 29.7413 22.2702C30.1134 23.5568 32.3832 27.7885 32.4246 27.8625L32.7045 34.4878L32.9845 42.8721L33.2644 52.0274Z" fill="white"/>
<path opacity="0.1" d="M32.3323 28.0501C31.9593 27.897 29.9839 25.6789 29.9839 25.6789V25.1741C29.912 25.0077 29.4849 25.1092 29.1382 25.2256L29.287 22.1592L29.4562 22.2972C29.8266 23.583 32.2892 27.976 32.3323 28.0501Z" fill="black"/>
<path d="M32.4235 27.8665C32.0497 27.7134 30.0742 25.4953 30.0742 25.4953V24.9905C30.0023 24.8241 29.5752 24.9256 29.2285 25.042L29.3782 21.9756L29.5473 22.1136C29.9186 23.3994 32.382 27.7933 32.4235 27.8665Z" fill="white"/>
<path opacity="0.1" d="M26.7157 38.9291C26.7622 38.9291 29.1267 38.6846 29.1267 38.6846C29.1267 38.6846 30.5584 41.4533 30.4645 42.127C30.3707 42.8006 30.2007 43.3969 29.6248 43.2913C29.0489 43.1857 26.5254 43.3745 26.5254 43.3745L26.7157 38.9291Z" fill="black"/>
<path d="M26.6214 38.7455C26.6679 38.7455 29.0324 38.501 29.0324 38.501C29.0324 38.501 30.4633 41.2705 30.3703 41.9434C30.2773 42.6162 30.1056 43.2134 29.5305 43.1077C28.9555 43.0021 26.4312 43.1909 26.4312 43.1909L26.6214 38.7455Z" fill="white"/>
<path d="M28.4053 37.4463C28.4053 37.4463 30.5753 38.5932 30.6218 38.9433C30.6683 39.2935 29.5174 38.7903 29.2688 38.7296C29.1051 38.6908 28.9385 38.6652 28.7707 38.6531L27.1123 38.6972L28.4053 37.4463Z" fill="#CF6F80"/>
<path opacity="0.1" d="M31.7249 28.1942C31.851 28.1942 31.9532 28.0937 31.9532 27.9697C31.9532 27.8457 31.851 27.7451 31.7249 27.7451C31.5988 27.7451 31.4966 27.8457 31.4966 27.9697C31.4966 28.0937 31.5988 28.1942 31.7249 28.1942Z" fill="black"/>
<path d="M31.7249 28.1024C31.851 28.1024 31.9532 28.0019 31.9532 27.8779C31.9532 27.7539 31.851 27.6533 31.7249 27.6533C31.5988 27.6533 31.4966 27.7539 31.4966 27.8779C31.4966 28.0019 31.5988 28.1024 31.7249 28.1024Z" fill="#3F3D56"/>
<path opacity="0.1" d="M32.1473 37.9149C32.2734 37.9149 32.3756 37.8144 32.3756 37.6904C32.3756 37.5664 32.2734 37.4658 32.1473 37.4658C32.0212 37.4658 31.9189 37.5664 31.9189 37.6904C31.9189 37.8144 32.0212 37.9149 32.1473 37.9149Z" fill="black"/>
<path d="M32.1473 37.8222C32.2734 37.8222 32.3756 37.7216 32.3756 37.5976C32.3756 37.4736 32.2734 37.373 32.1473 37.373C32.0212 37.373 31.9189 37.4736 31.9189 37.5976C31.9189 37.7216 32.0212 37.8222 32.1473 37.8222Z" fill="#3F3D56"/>
<path opacity="0.1" d="M31.9549 33.0546C32.081 33.0546 32.1832 32.954 32.1832 32.83C32.1832 32.706 32.081 32.6055 31.9549 32.6055C31.8288 32.6055 31.7266 32.706 31.7266 32.83C31.7266 32.954 31.8288 33.0546 31.9549 33.0546Z" fill="black"/>
<path d="M31.9549 32.9628C32.081 32.9628 32.1832 32.8622 32.1832 32.7382C32.1832 32.6142 32.081 32.5137 31.9549 32.5137C31.8288 32.5137 31.7266 32.6142 31.7266 32.7382C31.7266 32.8622 31.8288 32.9628 31.9549 32.9628Z" fill="#3F3D56"/>
<path d="M37.2175 38.6059C37.2175 38.6059 37.3731 38.8355 37.2175 38.9428C37.0619 39.0501 37.2327 39.3095 37.2327 39.3095C37.2327 39.3095 36.8446 39.5333 37.0154 39.7345C37.1862 39.9358 37.078 40.8449 37.078 40.8449L36.6112 41.605C36.6112 41.605 36.6391 42.0949 36.6408 42.7569C36.6408 43.7899 36.579 45.242 36.2374 45.904L36.2847 51.3358C36.2847 51.3358 34.6501 51.923 33.2818 51.7442L33.0788 43.028C33.0788 43.028 33.3748 38.0853 33.4839 37.1372C33.5477 36.6449 33.5737 36.1487 33.5617 35.6526C33.5617 35.6526 33.5152 34.1688 33.3587 33.4802C33.3587 33.4802 33.1896 30.4969 33.1727 29.671C33.1651 29.276 33.1862 28.1233 33.2099 27.0271C33.2361 25.8286 33.2657 24.6984 33.2657 24.6984L32.957 22.2964C32.957 22.2964 33.2657 22.2656 33.3587 22.3879C33.4004 22.4262 33.4457 22.4604 33.494 22.4902C34.0268 22.8445 35.9093 23.934 35.9093 23.934C35.9093 23.934 36.9511 24.3416 37.2006 24.9254C37.4501 25.5093 37.6234 25.9234 37.7444 26.0898C37.8653 26.2561 37.9313 27.0379 37.9313 27.0379C37.9313 27.0379 38.2898 28.4767 38.5697 28.7204C38.8497 28.9641 39.0543 30.5144 39.0543 30.5144L36.5807 32.4273C36.5807 32.4273 36.3634 35.6093 36.3169 35.7324C36.2704 35.8555 37.2175 38.6059 37.2175 38.6059Z" fill="white"/>
<path d="M37.309 38.6061C37.309 38.6061 37.4638 38.8356 37.309 38.9429C37.1543 39.0502 37.3234 39.3097 37.3234 39.3097C37.3234 39.3097 36.9378 39.5359 37.1069 39.7372C37.276 39.9384 37.1695 40.8475 37.1695 40.8475L36.7027 41.6076C36.7027 41.6076 36.7306 42.0975 36.7331 42.7595C36.7331 43.7925 36.6714 45.2446 36.3297 45.9067L36.3762 51.3385C36.3762 51.3385 34.739 51.9256 33.3724 51.7468L33.1703 43.0307C33.1703 43.0307 33.4663 38.0879 33.5754 37.1398C33.6393 36.6476 33.665 36.1513 33.6523 35.6552C33.6523 35.6552 33.6058 34.1715 33.4502 33.4828C33.4502 33.4828 33.2811 30.4995 33.2633 29.6737C33.2557 29.2786 33.2777 28.1259 33.3005 27.0297C33.3267 25.8312 33.3563 24.701 33.3563 24.701L32.9487 22.2666C32.9487 22.2666 33.3563 22.2666 33.4502 22.3905C33.4915 22.4293 33.5368 22.4635 33.5855 22.4928C34.1183 22.8471 36.0016 23.9366 36.0016 23.9366C36.0016 23.9366 37.0426 24.3442 37.2921 24.928C37.5416 25.5119 37.7149 25.9261 37.8367 26.0924C37.9585 26.2587 38.0228 27.0405 38.0228 27.0405C38.0228 27.0405 38.3813 28.4794 38.6612 28.723C38.9412 28.9667 39.1433 30.5137 39.1433 30.5137L36.6697 32.4266C36.6697 32.4266 36.4523 35.6086 36.405 35.7317C36.3576 35.8548 37.309 38.6061 37.309 38.6061Z" fill="white"/>
<path opacity="0.1" d="M34.347 25.4076L34.5702 26.048L33.3948 27.2123C33.421 26.0147 33.4506 24.8836 33.4506 24.8836L33.043 22.4492C33.043 22.4492 33.4506 22.4492 33.5445 22.5731C33.5856 22.6118 33.631 22.6458 33.6798 22.6746L34.6793 25.5107L34.347 25.4076Z" fill="black"/>
<path d="M34.2528 25.224L34.4769 25.8644L33.3014 27.0287C33.3276 25.8303 33.3572 24.7 33.3572 24.7L32.9487 22.2656C32.9487 22.2656 33.3572 22.2656 33.4502 22.3895C33.4917 22.428 33.537 22.4623 33.5855 22.4918L34.586 25.3271L34.2528 25.224Z" fill="white"/>
<path opacity="0.1" d="M34.2562 18.8869C34.2569 19.1866 34.2089 19.4845 34.1142 19.7693C34.0982 19.7718 34.0819 19.771 34.0662 19.7672C34.0505 19.7633 34.0357 19.7564 34.0228 19.7469C34.0008 18.9983 33.6262 18.2956 33.1653 17.6976C33.0359 17.517 32.879 17.3571 32.7002 17.2235C32.5194 17.0899 32.2945 17.0274 32.0693 17.048C31.8156 17.0821 31.5915 17.2518 31.3353 17.2734C30.997 17.3009 30.6943 17.0705 30.3585 17.0588C30.222 17.0601 30.0874 17.09 29.9636 17.1465C29.8398 17.203 29.7297 17.2848 29.6406 17.3865C29.4642 17.5917 29.3331 17.8308 29.2558 18.0885C29.1228 18.4792 29.0504 18.8875 29.041 19.2994C29.0367 19.5323 29.0139 19.8242 28.794 19.909C28.8106 19.7378 28.7908 19.565 28.7359 19.4017C28.681 19.2383 28.5923 19.0879 28.4752 18.9601L28.4701 18.9551C28.4701 18.9318 28.4701 18.9102 28.4701 18.8869C28.4636 18.5091 28.5336 18.1338 28.676 17.7829C28.8185 17.432 29.0306 17.1125 29.2999 16.8431C29.5692 16.5736 29.8904 16.3596 30.2448 16.2135C30.5991 16.0674 30.9794 15.9922 31.3636 15.9922C31.7478 15.9922 32.1282 16.0674 32.4825 16.2135C32.8368 16.3596 33.158 16.5736 33.4273 16.8431C33.6966 17.1125 33.9087 17.432 34.0512 17.7829C34.1937 18.1338 34.2636 18.5091 34.2571 18.8869H34.2562Z" fill="black"/>
<path d="M32.5592 14.368C32.1197 14.1647 31.6199 14.1263 31.1537 14.2599C30.9194 14.3281 30.6987 14.4387 30.4611 14.4944C29.9537 14.615 29.3617 14.4845 28.9262 14.7764C28.6843 14.9427 28.5389 15.2055 28.4036 15.4609L28.0653 16.0946C27.8809 16.4414 27.6949 16.7941 27.6179 17.1758C27.541 17.5576 27.5875 17.9851 27.8336 18.2919C28.0129 18.5157 28.2776 18.6562 28.4721 18.8666C28.5886 18.9946 28.677 19.1449 28.7317 19.3081C28.7864 19.4712 28.8063 19.6437 28.79 19.8148C29.0108 19.7316 29.0319 19.4388 29.037 19.206C29.0464 18.794 29.1188 18.3858 29.2518 17.995C29.329 17.7373 29.46 17.4982 29.6366 17.2931C29.7257 17.1915 29.8359 17.1097 29.9597 17.0532C30.0835 16.9967 30.2181 16.9668 30.3545 16.9654C30.6928 16.977 30.9964 17.2066 31.3313 17.1791C31.585 17.1583 31.8099 16.9878 32.0653 16.9546C32.2905 16.9336 32.5155 16.9962 32.6962 17.1301C32.875 17.2635 33.0316 17.4234 33.1605 17.6041C33.6222 18.2021 33.9968 18.9032 34.0188 19.6534C34.1144 19.7225 34.2522 19.6326 34.2996 19.5262C34.3469 19.4197 34.3486 19.295 34.4087 19.1935C34.478 19.0762 34.6108 19.0139 34.7148 18.9257C34.9787 18.702 35.0446 18.3252 35.0345 17.9834C35.0243 17.6416 34.9567 17.2947 35.0226 16.9587C35.0624 16.7525 35.152 16.5595 35.2011 16.3558C35.2501 16.152 35.256 15.9233 35.1402 15.7478C34.971 15.49 34.615 15.4392 34.3047 15.4151C33.952 15.3852 33.6366 15.4234 33.4116 15.1315C33.306 14.9792 33.1872 14.8361 33.0564 14.704C33.0116 14.6608 32.5592 14.3863 32.5592 14.368Z" fill="#512E4E"/>
<path opacity="0.1" d="M23.3702 31.9066L22.4865 30.2998L22.2065 32.7791C22.2065 32.7791 22.3621 33.8802 22.3309 34.0491C22.2996 34.2179 22.9685 35.7316 22.9685 35.7316C22.9685 35.7316 25.1782 39.6023 26.0806 39.8019L29.1292 37.6595L28.3207 36.6498C28.3207 36.6498 28.0408 36.5425 27.9706 36.6498C27.9706 36.6498 26.4696 34.1098 26.314 33.926C26.1584 33.7422 26.1888 33.3754 26.1888 33.3754C26.1888 33.3754 25.9554 33.1309 26.0332 32.9013C26.111 32.6718 25.5825 31.8759 25.5825 31.8759L26.0645 31.4326L23.3702 31.9066Z" fill="black"/>
<path d="M22.5314 30.1162L22.298 30.2992L22.0181 32.7785C22.0181 32.7785 22.1737 33.8796 22.1424 34.0485C22.1111 34.2173 22.7809 35.731 22.7809 35.731C22.7809 35.731 24.9898 39.6017 25.8921 39.8013L28.9416 37.6588L28.1323 36.6492C28.1323 36.6492 27.8523 36.5419 27.7822 36.6492C27.7822 36.6492 26.2811 34.1092 26.1255 33.9254C25.9699 33.7416 26.0012 33.3748 26.0012 33.3748C26.0012 33.3748 25.7678 33.1303 25.8456 32.9007C25.9234 32.6712 25.394 31.8752 25.394 31.8752L25.876 31.432L22.5314 30.1162Z" fill="white"/>
<path opacity="0.1" d="M37.0138 39.8299C37.1829 40.032 37.0764 40.9394 37.0764 40.9394L36.6096 41.6995C36.6096 41.6995 36.6375 42.1902 36.6392 42.8514L35.8544 43.0926C35.7835 43.1144 35.7083 43.1192 35.6351 43.1066C35.5619 43.094 35.4928 43.0643 35.4337 43.0201C35.3745 42.9759 35.3269 42.9185 35.2949 42.8525C35.2629 42.7866 35.2474 42.714 35.2497 42.641L35.385 38.3486L37.2159 39.0373C37.0603 39.1437 37.2311 39.4049 37.2311 39.4049C37.2311 39.4049 36.843 39.6278 37.0138 39.8299Z" fill="black"/>
<path d="M37.1089 39.7363C37.278 39.9384 37.1715 40.8466 37.1715 40.8466L36.7046 41.6068C36.7046 41.6068 36.7325 42.0966 36.7351 42.7586L35.9359 43.004C35.8665 43.0252 35.7929 43.0298 35.7212 43.0174C35.6496 43.005 35.582 42.976 35.5241 42.9327C35.4662 42.8894 35.4196 42.8331 35.3883 42.7686C35.357 42.704 35.3418 42.633 35.344 42.5615L35.4801 38.2559L37.3118 38.9445C37.1554 39.051 37.3262 39.3113 37.3262 39.3113C37.3262 39.3113 36.9397 39.535 37.1089 39.7363Z" fill="white"/>
<path d="M37.7152 37.6912C37.7152 37.6912 37.5909 38.4721 37.2797 38.5179C36.9685 38.5636 36.8289 39.7812 36.5186 39.738C36.2082 39.6947 36.4137 38.606 36.4247 38.3948C36.4357 38.1835 36.0864 37.3086 36.3477 37.1098C36.6091 36.9111 37.4361 37.1098 37.4361 37.1098L37.7152 37.6912Z" fill="#CF6F80"/>
<path opacity="0.1" d="M38.3768 31.6771L38.9637 30.5127C38.9637 30.5127 39.1971 31.4001 39.1971 31.8742C39.1971 32.3482 39.5235 32.3948 39.5235 32.3948C39.5235 32.3948 39.8813 32.8107 39.6927 33.1134C39.5041 33.4161 39.428 34.1697 39.428 34.1697C39.428 34.1697 39.4897 35.6077 39.2098 35.8064C38.9299 36.0052 38.8715 36.4801 38.8715 36.4801C38.8715 36.4801 38.3574 37.3825 38.3734 37.5971C38.3895 37.8116 37.658 39.2646 37.658 39.2646C37.658 39.2646 38.0157 37.459 35.9311 36.6789C35.9311 36.6789 35.9151 36.0659 36.0707 35.8979C36.2263 35.7299 36.469 35.6534 36.3168 34.8042C36.1645 33.9551 36.2728 32.9404 36.2728 32.7366C36.2728 32.5329 36.7396 31.2621 36.7396 31.2621L38.3768 31.6771Z" fill="black"/>
<path d="M38.63 30.3467L39.1425 30.513C39.1425 30.513 39.3767 31.4004 39.3767 31.8745C39.3767 32.3486 39.7031 32.3951 39.7031 32.3951C39.7031 32.3951 40.0609 32.811 39.8723 33.1137C39.6837 33.4165 39.6084 34.17 39.6084 34.17C39.6084 34.17 39.6701 35.608 39.3902 35.8067C39.1103 36.0055 39.0477 36.4804 39.0477 36.4804C39.0477 36.4804 38.5344 37.3828 38.5505 37.5974C38.5665 37.812 37.8342 39.2649 37.8342 39.2649C37.8342 39.2649 38.1928 37.4593 36.1073 36.6792C36.1073 36.6792 36.0921 36.0662 36.2477 35.8982C36.4033 35.7302 36.646 35.6537 36.4938 34.8046C36.3416 33.9554 36.4498 32.9407 36.4498 32.737C36.4498 32.5332 36.9166 31.2624 36.9166 31.2624L38.63 30.3467Z" fill="white"/>
<path opacity="0.1" d="M27.313 60.5265C27.313 60.5265 28.1299 60.0217 28.6661 60.3885C29.2022 60.7552 27.313 60.5265 27.313 60.5265Z" fill="black"/>
<path opacity="0.1" d="M33.6582 58.9654C33.6582 58.9654 34.3813 58.8739 34.9884 59.5168C35.5956 60.1597 33.6582 58.9654 33.6582 58.9654Z" fill="black"/>
<g opacity="0.1">
<path d="M34.7165 18.7438C34.6125 18.8319 34.4789 18.8951 34.4096 19.0124C34.3504 19.113 34.3487 19.237 34.3013 19.3451C34.254 19.4532 34.1161 19.5414 34.0205 19.4732C33.9986 18.7246 33.6231 18.0219 33.1622 17.423C33.0333 17.2423 32.8767 17.0824 32.6979 16.949C32.5169 16.8151 32.2916 16.7526 32.0662 16.7735C31.8125 16.8076 31.5892 16.9773 31.333 16.998C30.9947 17.0263 30.6911 16.7959 30.3554 16.7843C30.219 16.7856 30.0844 16.8156 29.9607 16.8723C29.837 16.929 29.7271 17.011 29.6383 17.1128C29.4617 17.3176 29.3307 17.5564 29.2535 17.8139C29.1206 18.2047 29.0482 18.6129 29.0387 19.0249C29.0336 19.2569 29.0116 19.5464 28.7935 19.6328C28.7985 19.6943 28.7985 19.756 28.7935 19.8175C29.0133 19.7343 29.0353 19.4416 29.0404 19.2087C29.0498 18.7967 29.1222 18.3885 29.2552 17.9977C29.3324 17.74 29.4634 17.5009 29.64 17.2958C29.729 17.1942 29.839 17.1124 29.9626 17.0559C30.0863 16.9994 30.2208 16.9695 30.3571 16.9681C30.6954 16.9797 30.9998 17.2093 31.3347 17.1818C31.5884 17.1611 31.8133 16.9906 32.0679 16.9573C32.2933 16.9364 32.5186 16.9989 32.6996 17.1328C32.8784 17.2662 33.035 17.4261 33.1639 17.6068C33.6248 18.2048 34.0003 18.9059 34.0222 19.6561C34.1178 19.7252 34.2556 19.6353 34.303 19.5289C34.3504 19.4224 34.352 19.2977 34.4112 19.1962C34.4806 19.0789 34.6142 19.0166 34.7182 18.9284C34.9821 18.7047 35.048 18.3279 35.0379 17.9861C35.0379 17.9753 35.0379 17.9645 35.0379 17.9545C35.0218 18.2506 34.9415 18.5525 34.7165 18.7438Z" fill="black"/>
<path d="M28.4728 18.6837C28.2782 18.4733 28.0127 18.3328 27.8343 18.1099C27.684 17.9126 27.5982 17.675 27.5882 17.4287C27.5616 17.7365 27.649 18.0434 27.8343 18.2928C28.0127 18.5166 28.2782 18.6571 28.4728 18.8675C28.6595 19.0734 28.7716 19.3343 28.7916 19.6094C28.8045 19.442 28.783 19.2737 28.7282 19.1146C28.6734 18.9555 28.5865 18.809 28.4728 18.6837Z" fill="black"/>
<path d="M35.2027 16.1735C35.1529 16.3772 35.0641 16.571 35.0235 16.7764C34.9994 16.9137 34.9906 17.0531 34.9972 17.1923C35.0001 17.113 35.0088 17.0341 35.0235 16.9561C35.0641 16.7498 35.1529 16.5569 35.2027 16.3531C35.2318 16.2407 35.2413 16.1243 35.2307 16.0088C35.2254 16.0643 35.2161 16.1193 35.2027 16.1735Z" fill="black"/>
</g>
<path opacity="0.1" d="M12.0762 63.9079C16.6271 63.9079 20.3164 63.3251 20.3164 62.6063C20.3164 61.8874 16.6271 61.3047 12.0762 61.3047C7.52521 61.3047 3.83594 61.8874 3.83594 62.6063C3.83594 63.3251 7.52521 63.9079 12.0762 63.9079Z" fill="#EC9611"/>
<path d="M12.3393 37.6719H11.8091V49.4129H12.3393V37.6719Z" fill="#535461"/>
<path d="M15.6722 49.3778L15.6392 49.9068L15.5918 50.6553L15.5724 50.9664L15.5259 51.7149L15.5056 52.0259L15.4582 52.7745L14.9237 61.2636C14.9005 61.6288 14.7366 61.9716 14.4655 62.2222C14.1943 62.4728 13.8362 62.6124 13.4641 62.6126H10.6852C10.3132 62.6124 9.95524 62.4728 9.68421 62.2222C9.41318 61.9715 9.24949 61.6287 9.22646 61.2636L8.69454 52.7686L8.64718 52.0201L8.62773 51.7091L8.58037 50.9605L8.56092 50.6495L8.51357 49.901L8.47974 49.372C8.47386 49.2702 8.4892 49.1683 8.52481 49.0725C8.56042 48.9767 8.61555 48.8891 8.68682 48.8151C8.75809 48.741 8.84399 48.682 8.93926 48.6418C9.03453 48.6016 9.13716 48.5809 9.24084 48.5811H14.9246C15.0279 48.5819 15.1299 48.6036 15.2243 48.6448C15.3188 48.6859 15.4037 48.7457 15.4737 48.8203C15.5438 48.895 15.5975 48.983 15.6316 49.0789C15.6658 49.1747 15.6796 49.2765 15.6722 49.3778Z" fill="#3F3D56"/>
<path d="M15.6407 49.9062L15.5934 50.6523H8.55908L8.51172 49.9062H15.6407Z" fill="#9D9CB5"/>
<path d="M15.5725 50.9629L15.526 51.7097H8.62451L8.57715 50.9629H15.5725Z" fill="#9D9CB5"/>
<path d="M15.5043 52.0225L15.4578 52.7685H8.68994L8.64258 52.0225H15.5043Z" fill="#9D9CB5"/>
<path d="M7.70267 42.0721C10.7902 44.2694 12.079 47.706 12.079 47.706C12.079 47.706 8.35806 47.5804 5.26967 45.3831C2.18128 43.1857 0.89502 39.75 0.89502 39.75C0.89502 39.75 4.61428 39.8748 7.70267 42.0721Z" fill="#EC9611"/>
<path d="M0.890625 39.75C0.890625 39.75 4.75365 41.8583 5.99256 43.6041C7.23146 45.3498 12.0772 47.706 12.0772 47.706" stroke="#535461" stroke-width="2.1" stroke-miterlimit="10"/>
<path d="M9.69499 37.646C11.3753 38.8412 12.0781 40.7116 12.0781 40.7116C12.0781 40.7116 10.0527 40.6434 8.37151 39.4483C6.69032 38.2531 5.98926 36.3818 5.98926 36.3818C5.98926 36.3818 8.01379 36.45 9.69499 37.646Z" fill="#EC9611"/>
<path d="M5.98926 36.3818C5.98926 36.3818 8.0916 37.5296 8.76559 38.4794C9.43959 39.4292 12.0781 40.7116 12.0781 40.7116" stroke="#535461" stroke-width="2.1" stroke-miterlimit="10"/>
<path d="M14.5173 40.6176C12.5867 42.7044 12.1782 45.4315 12.1782 45.4315C12.1782 45.4315 14.9004 44.7744 16.8294 42.6869C18.7584 40.5993 19.1685 37.873 19.1685 37.873C19.1685 37.873 16.448 38.5309 14.5173 40.6176Z" fill="#EC9611"/>
<path d="M19.1702 37.874C19.1702 37.874 16.6552 40.0131 16.0159 41.4869C15.3765 42.9607 12.1782 45.4316 12.1782 45.4316" stroke="#535461" stroke-width="2.1" stroke-miterlimit="10"/>
<path d="M85.3894 39.8829C85.3894 39.8829 83.9932 33.0513 84.5277 32.2013C84.5277 32.2013 84.5471 31.4112 84.515 30.4041C84.515 30.3658 84.515 30.3275 84.515 30.2885C84.609 30.3501 84.7071 30.4057 84.8084 30.4548C85.3009 30.7036 85.8662 30.7754 86.4068 30.6577L85.9839 30.1945C85.8824 30.0839 85.7767 29.9641 85.7547 29.8177C85.7328 29.6713 85.7936 29.5408 85.8461 29.4102C86.2478 28.4121 86.2689 27.1571 85.4951 26.3953C84.8414 25.7549 84.6824 24.9282 83.9729 24.3435C83.4545 23.9152 83.1695 23.2873 82.9006 22.6801C82.6731 22.167 82.4439 21.6496 82.3137 21.1057C82.2122 20.6807 82.1716 20.2408 82.0321 19.8257C81.8926 19.4107 81.6313 19.0074 81.2228 18.8219C81.0773 18.7562 80.9158 18.7188 80.783 18.6314C80.6088 18.5158 80.504 18.3279 80.378 18.1632C79.7378 17.3315 77.594 17.8214 76.5792 18.159C76.3033 18.2441 76.0479 18.3833 75.8283 18.5682L75.8376 18.5533C75.8452 18.5408 75.8545 18.5283 75.8629 18.5158C75.7519 18.6042 75.6559 18.7095 75.5788 18.8277C75.4308 19.0581 75.3691 19.3267 75.2456 19.5762C75.0968 19.8715 74.2688 20.6957 74.6249 21.0275C74.6498 21.0498 74.6784 21.0678 74.7094 21.0808C74.8431 21.1355 74.9903 21.1499 75.1323 21.1224L75.1171 21.1581C74.9955 21.4509 74.9331 21.7642 74.9335 22.0805C74.9335 23.4469 76.0794 24.5548 77.4942 24.5548C77.7602 24.555 78.0246 24.5149 78.2782 24.4358C78.2841 24.4674 78.2892 24.499 78.2951 24.5306C78.2951 24.5431 78.2993 24.5556 78.301 24.5681L78.2562 24.6296C78.2539 24.6258 78.2514 24.6222 78.2486 24.6188L76.9209 26.4435C76.7179 26.5841 75.5492 27.4158 75.4832 28.0396C75.4139 28.7224 75.3445 29.5216 75.3445 29.5216L75.3352 29.693C75.2772 29.7406 75.2094 29.7754 75.1364 29.7948C75.0634 29.8141 74.9869 29.8177 74.9124 29.8052C74.498 29.7387 74.498 31.3023 74.498 31.3023C74.498 31.3023 74.2223 31.5518 74.0329 31.3356C73.8435 31.1193 73.3428 31.852 73.3428 31.852L70.2054 31.9851L70.1335 31.9893L69.9644 31.4744C69.9462 31.4201 69.9069 31.3751 69.8551 31.3491C69.8034 31.3231 69.7432 31.3182 69.6878 31.3356C69.6747 31.3398 69.662 31.3451 69.6498 31.3514L69.638 31.358L69.616 31.373L69.605 31.383C69.5989 31.3884 69.5933 31.3942 69.5881 31.4004L69.5779 31.4121L69.5728 31.4171C69.5533 31.4436 69.5404 31.4743 69.5351 31.5067C69.5298 31.539 69.5323 31.5721 69.5424 31.6034L69.6878 32.045C69.0823 32.1648 68.4633 32.5024 68.9682 33.4323L66.4092 32.9673L67.2371 33.651L71.5111 34.5184C71.4545 34.6182 71.4917 34.763 71.6684 34.9667C72.4295 35.8458 73.8164 36.0845 74.3746 36.1461C74.522 36.4703 74.7061 36.7772 74.9234 37.0609L74.8752 37.9367C74.8752 37.9367 73.4621 44.6119 73.2033 44.9504C73.3339 44.8048 73.4535 44.65 73.561 44.4871C73.1509 45.8586 72.5775 47.7357 72.427 48.0168C72.1851 48.466 71.961 50.2832 72.2367 50.3996C72.3213 50.4354 72.5631 50.4179 72.9082 50.3922V50.5427L72.8929 56.2473C72.8929 56.2473 72.9623 59.7462 72.772 60.0797C72.5817 60.4132 72.531 61.1127 72.531 61.1127C72.531 61.1127 71.7699 62.4925 71.1669 63.0472C71.1628 63.0515 71.1583 63.0554 71.1534 63.0588L71.1348 62.9291C71.1348 62.9291 70.4101 63.829 68.8067 63.7783C68.8067 63.7783 67.8417 64.3954 69.2726 64.4286C70.7035 64.4619 72.531 64.3787 72.531 64.3787C72.531 64.3787 73.8071 62.4658 74.876 62.7154V64.165H75.2033V62.6921C75.3551 62.5938 75.485 62.4662 75.5851 62.3171C75.6853 62.168 75.7536 62.0005 75.786 61.8246C75.814 61.6434 75.7935 61.458 75.7264 61.287C75.6594 61.1159 75.5482 60.9649 75.4037 60.849C75.3388 60.7913 75.2868 60.7211 75.2508 60.6426C75.2149 60.5642 75.1958 60.4793 75.1949 60.3933L75.183 60.4033C75.183 60.3741 75.1754 60.3442 75.172 60.3134C75.0782 59.5649 74.9606 58.0204 75.3758 56.8777C75.945 55.3108 76.1175 53.1284 75.7031 51.8293C75.5694 51.4141 75.4596 50.9917 75.3741 50.5643C75.364 50.5103 75.3547 50.4587 75.3462 50.4104C75.6295 50.4481 75.91 50.5037 76.186 50.5768C77.1458 50.8371 79.2456 50.8853 81.0384 50.8712C81.0427 50.9194 81.0477 50.9702 81.0537 51.0209C81.0856 51.3736 81.1525 51.7223 81.2532 52.0622C81.4782 52.7275 81.5814 55.6609 81.5814 55.6609C81.5814 55.6609 81.8714 58.0728 81.7133 59.0542C81.6287 59.5998 81.5441 60.1479 81.4959 60.6985V60.7093C81.4959 60.7093 81.0207 62.04 80.6731 62.7628C80.6647 62.7811 80.6554 62.7994 80.6469 62.8168C80.5542 62.8251 80.463 62.845 80.3754 62.8759C80.3754 62.8759 79.9095 63.7907 79.4452 63.9421C78.9809 64.0935 79.1348 64.5917 80.186 64.4087C81.2372 64.2257 82.8245 64.076 82.8245 64.076L82.893 63.1428L83.216 62.7453L83.1315 63.676L83.4757 63.6094L83.43 62.4775L83.9585 61.8271C83.9585 61.8271 84.597 61.2682 83.6482 60.1687V60.1928C83.638 60.177 83.6287 60.1604 83.6177 60.1446V60.1396C83.4604 59.9001 83.3353 59.4535 83.5645 58.6609C83.9788 57.2287 84.2198 55.9287 84.2198 55.9287C84.2198 55.9287 85.145 52.4464 84.033 50.7988H84.082C83.968 50.567 83.8875 50.3207 83.8427 50.067C83.837 50.037 83.832 50.0062 83.8275 49.9746C84.6503 49.9281 85.4579 49.7817 86.1167 49.4656C86.1142 49.4623 85.7175 41.1986 85.3894 39.8829ZM74.9428 34.1192V34.1359L74.7737 34.1442L74.9428 34.1192ZM74.3627 34.1982C74.3349 34.2043 74.3089 34.2165 74.2866 34.234C74.2139 34.3352 74.1682 34.4527 74.1538 34.5758L73.89 34.5176C73.89 34.5176 73.7048 34.4785 73.4384 34.4344L73.3124 34.3097C73.6591 34.2814 74.0194 34.2398 74.3627 34.1982Z" fill="url(#paint1_linear_6275_578)"/>
<path d="M83.0923 62.4886L82.9917 63.6671L83.3291 63.6006L83.2784 62.3223L83.0923 62.4886Z" fill="#1D2366"/>
<path d="M75.395 56.8931C74.9882 58.0326 75.1032 59.5704 75.1945 60.3172C75.2284 60.5934 75.2597 60.7614 75.2597 60.7614C75.2597 60.7614 74.6516 62.1237 74.6009 62.1752C74.5501 62.2268 72.8114 63.2706 72.8114 63.2706L71.5962 63.9684C71.5962 63.9684 70.3632 63.4369 70.9543 63.2539C71.0751 63.2063 71.1839 63.1333 71.2732 63.0402C71.8651 62.4871 72.6085 61.1123 72.6085 61.1123C72.6085 61.1123 72.6592 60.4145 72.8453 60.0827C73.0313 59.7508 72.9637 56.2636 72.9637 56.2636L72.978 50.5789V49.8379L75.2909 49.8545C75.3055 50.1061 75.3389 50.3563 75.3907 50.603C75.4737 51.029 75.5813 51.45 75.7129 51.8639C76.1205 53.1605 75.9514 55.3321 75.395 56.8931Z" fill="#FFB0B1"/>
<path opacity="0.1" d="M75.2597 60.7618C75.2597 60.7618 74.6516 62.1241 74.6009 62.1757C74.5501 62.2272 72.8114 63.271 72.8114 63.271L71.5962 63.9688C71.5962 63.9688 70.3632 63.4374 70.9543 63.2544C71.0751 63.2067 71.1839 63.1338 71.2732 63.0406L71.3256 63.4041L71.7307 63.3875L75.1979 60.3193C75.2284 60.5938 75.2597 60.7618 75.2597 60.7618Z" fill="black"/>
<path d="M75.2161 60.3965L71.7294 63.4854L71.3243 63.502L71.2397 62.9198C71.2397 62.9198 70.5311 63.8164 68.9564 63.7665C68.9564 63.7665 68.011 64.3811 69.4122 64.4144C70.8135 64.4477 72.603 64.3645 72.603 64.3645C72.603 64.3645 73.8529 62.4516 74.899 62.7011V64.1458H75.2203V62.6878C75.3697 62.5889 75.4972 62.4613 75.5952 62.3126C75.6932 62.164 75.7595 61.9974 75.7903 61.8228C75.8181 61.6431 75.7984 61.4593 75.7331 61.2891C75.6678 61.119 75.5591 60.9683 75.4174 60.8514C75.3541 60.7931 75.3036 60.7226 75.269 60.6444C75.2344 60.5662 75.2164 60.4818 75.2161 60.3965Z" fill="#1D2366"/>
<path d="M83.4128 58.6701C83.1879 59.4602 83.3105 59.9051 83.4644 60.1438V60.1488C83.6618 60.4435 83.7991 60.7732 83.8687 61.1194L83.8822 61.1943L82.2957 63.4689L81.4348 63.8016C81.4348 63.8016 80.0505 63.3367 80.3033 63.2036C80.3667 63.1712 80.4657 62.9982 80.579 62.7595C80.9173 62.0401 81.3841 60.7127 81.3841 60.7127V60.7019C81.4331 60.1538 81.5109 59.6074 81.5972 59.0635C81.7519 58.0846 81.4678 55.6818 81.4678 55.6818C81.4678 55.6818 81.3663 52.7601 81.1464 52.0955C81.0472 51.7577 80.9812 51.4112 80.9494 51.0609C80.9037 50.6451 80.8936 50.3024 80.8936 50.3024C80.8936 50.3024 81.8052 49.0549 83.4763 50.4022C83.6099 50.5097 83.7275 50.6351 83.8255 50.7748C84.9799 52.39 84.0505 55.9479 84.0505 55.9479C84.0505 55.9479 83.8179 57.2421 83.4128 58.6701Z" fill="#FFB0B1"/>
<path opacity="0.1" d="M83.8861 61.1944L82.2996 63.4691L81.4387 63.8018C81.4387 63.8018 80.0544 63.3369 80.3072 63.2038C80.3706 63.1714 80.4696 62.9984 80.5829 62.7597C81.169 62.7547 81.4726 63.3036 81.4726 63.3036L82.2151 63.1872C82.2151 63.1872 83.1943 61.2942 83.4142 61.1786C83.6341 61.063 83.448 60.3145 83.448 60.3145V60.124C83.454 60.1307 83.459 60.1382 83.4658 60.1448V60.1498C83.6632 60.4445 83.8005 60.7742 83.87 61.1204L83.8861 61.1944Z" fill="black"/>
<path d="M81.5244 63.3523C81.5244 63.3523 81.1016 62.5888 80.2915 62.8707C80.2915 62.8707 79.8356 63.7856 79.3798 63.9336C78.924 64.0817 79.0762 64.5807 80.1063 64.3985C81.1363 64.2164 82.6889 64.0659 82.6889 64.0659L82.7566 63.1352L83.8035 61.8236C83.8035 61.8236 84.4276 61.2672 83.4991 60.1719V60.3623C83.4991 60.3623 83.6851 61.1109 83.4653 61.2265C83.2454 61.3421 82.2695 63.2358 82.2695 63.2358L81.5244 63.3523Z" fill="#1D2366"/>
<path opacity="0.1" d="M75.291 49.8526C75.3056 50.1041 75.339 50.3543 75.3908 50.6011C74.4386 50.4639 73.5549 50.5321 72.9756 50.577V49.8359L75.291 49.8526Z" fill="black"/>
<path opacity="0.1" d="M83.9184 50.9817C83.9184 50.9817 82.5654 51.0466 80.9518 51.0599C80.9061 50.6441 80.896 50.3014 80.896 50.3014C80.896 50.3014 81.8076 49.0539 83.4787 50.4012C83.6123 50.5087 83.7299 50.6341 83.8279 50.7738C83.8541 50.8447 83.8844 50.9141 83.9184 50.9817Z" fill="black"/>
<path d="M83.9198 50.8321C83.9198 50.8321 77.9934 51.114 76.187 50.6158C74.3807 50.1176 72.5904 50.5493 72.3206 50.4337C72.0508 50.3181 72.2699 48.5075 72.5067 48.0592C72.7434 47.6109 74.0424 43.0773 74.0424 43.0773L75.2923 36.6683L76.609 36.3115L76.702 36.2857L78.9963 35.6636L80.6775 35.207C80.6775 35.207 84.0205 48.0426 83.7338 48.989C83.6297 49.3515 83.6129 49.7327 83.6847 50.1027C83.7285 50.3553 83.8076 50.6007 83.9198 50.8321Z" fill="#1D2366"/>
<path d="M70.9369 32.2852C70.9369 32.2852 69.753 33.5327 70.6494 34.228C71.5458 34.9233 72.1353 34.2945 72.1353 34.2945L70.9369 32.2852Z" fill="#C7DAF5"/>
<path opacity="0.1" d="M70.9369 32.2852C70.9369 32.2852 69.753 33.5327 70.6494 34.228C71.5458 34.9233 72.1353 34.2945 72.1353 34.2945L70.9369 32.2852Z" fill="black"/>
<path d="M80.5001 24.0826C80.5001 24.0826 80.3614 24.2123 80.1525 24.4036C79.8548 24.6773 79.4142 25.0773 79.0235 25.4125C78.4823 25.8757 78.0358 26.2159 78.1956 25.9256C78.3554 25.6354 78.325 25.1297 78.2455 24.6565C78.2396 24.6249 78.2345 24.5933 78.2286 24.5625C78.1628 24.2149 78.0755 23.8716 77.9673 23.5345C77.9673 23.5345 78.8417 22.4234 79.3254 21.9851C79.5056 21.8187 79.6316 21.7505 79.6392 21.8661C79.6476 22.0217 79.766 22.3652 79.9132 22.7294C79.9174 22.7411 79.9216 22.7519 79.9267 22.7635C80.0248 23.013 80.1356 23.2692 80.2328 23.4904C80.3817 23.8298 80.5001 24.0826 80.5001 24.0826Z" fill="#FFB0B1"/>
<path opacity="0.1" d="M79.9267 22.7635C79.8445 23.1982 79.6452 23.6032 79.3494 23.9362C79.0537 24.2692 78.6724 24.5179 78.2455 24.6565C78.1783 24.2768 78.0853 23.902 77.9673 23.5345C77.9673 23.5345 79.6138 21.4428 79.6392 21.8661C79.6451 22.0267 79.7736 22.3826 79.9267 22.7635Z" fill="black"/>
<path opacity="0.1" d="M78.0822 25.2161L78.2953 24.9209C78.2953 24.9209 78.4365 25.7676 78.9558 25.3941C79.475 25.0207 79.5004 28.2044 79.5004 28.2044L78.9431 36.3991L74.916 36.1621L75.0302 32.2024L75.486 30.2063L76.6133 27.3045L77.2839 26.3456L78.0822 25.2161Z" fill="black"/>
<path d="M79.5018 28.2545L78.9944 35.664L78.9411 36.4492L76.6958 36.3169L76.6113 36.3119L74.9199 36.2121L75.0341 32.2516L75.4899 30.2555L76.6172 27.3538L77.2878 26.3948L78.0861 25.2612L78.2992 24.9668C78.2992 24.9668 78.4405 25.8135 78.9597 25.44L78.9707 25.4325C79.4781 25.1165 79.5018 28.2545 79.5018 28.2545Z" fill="#1D2366"/>
<path d="M75.5448 29.5615C75.5448 29.5615 75.3427 29.9774 74.9368 29.91C74.5308 29.8426 74.5317 31.4071 74.5317 31.4071C74.5317 31.4071 74.2619 31.6566 74.0759 31.4403C73.8898 31.2241 73.3993 31.9551 73.3993 31.9551L70.3262 32.0882C70.3262 32.0882 71.6936 32.7028 71.4255 34.5625C71.4255 34.5625 76.0683 34.2797 76.2205 33.8481C76.3727 33.4164 75.5448 29.5615 75.5448 29.5615Z" fill="white"/>
<path opacity="0.03" d="M75.5448 29.5615C75.5448 29.5615 75.3427 29.9774 74.9368 29.91C74.5308 29.8426 74.5317 31.4071 74.5317 31.4071C74.5317 31.4071 74.2619 31.6566 74.0759 31.4403C73.8898 31.2241 73.3993 31.9551 73.3993 31.9551L70.3262 32.0882C70.3262 32.0882 71.6936 32.7028 71.4255 34.5625C71.4255 34.5625 76.0683 34.2797 76.2205 33.8481C76.3727 33.4164 75.5448 29.5615 75.5448 29.5615Z" fill="black"/>
<path d="M66.6143 33.0654L67.4244 33.7458L74.0934 35.1239L73.2663 34.2938L66.6143 33.0654Z" fill="white"/>
<path d="M78.095 25.4778C77.9842 25.6442 77.6671 26.4958 77.4024 27.2394C77.1817 27.859 76.9973 28.4037 76.9973 28.4037C76.9973 28.4037 76.5669 31.16 76.347 31.6581C76.1271 32.1563 76.2464 34.0992 76.2464 34.0992L75.4269 38.8972C75.4269 38.8972 75.0557 41.3715 74.4823 42.8494C73.9166 44.304 73.2865 44.986 73.2671 45.0077C73.5208 44.67 74.9035 38.0214 74.9035 38.0214L75.3601 29.6363C75.3601 29.6363 75.4269 28.8395 75.4946 28.1584C75.5622 27.4772 76.9322 26.5474 76.9322 26.5474L78.2532 24.7002C78.3859 24.8749 78.2971 25.1793 78.095 25.4778Z" fill="white"/>
<path d="M74.6498 36.2544C74.6498 36.2544 72.7048 36.1712 71.7627 35.0584C70.8206 33.9456 73.9403 34.6143 73.9403 34.6143L74.7513 34.7972L74.6498 36.2544Z" fill="#FFB0B1"/>
<path opacity="0.1" d="M83.7346 48.9895C83.6305 49.3519 83.6137 49.7332 83.6856 50.1031C81.5638 50.2512 79.294 49.6873 79.294 49.6873C78.8712 50.0699 77.7574 50.6337 77.7574 50.6337L77.1502 43.2317C76.7621 42.2336 76.6099 37.0048 76.6099 37.0048C76.6099 37.0048 76.6445 36.7311 76.6944 36.3211C76.6944 36.3111 76.6944 36.3003 76.6987 36.2904C76.85 35.1451 77.1502 32.9952 77.2974 32.7049C77.5003 32.3057 76.6733 31.2436 76.6733 31.2436L77.0496 28.0874L77.0953 27.7064C77.8885 27.358 78.4966 26.2452 78.4966 26.2452L78.9634 25.4409C79.4708 25.1207 79.497 28.2587 79.497 28.2587L78.9896 35.6682L80.6708 35.2116C80.6708 35.2116 84.0213 48.043 83.7346 48.9895Z" fill="black"/>
<path d="M85.9133 49.5018C83.6004 50.6312 79.3966 49.585 79.3966 49.585C78.9737 49.9676 77.86 50.5314 77.86 50.5314L77.2519 43.1294C76.8646 42.1313 76.7124 36.9025 76.7124 36.9025C76.7124 36.9025 77.2012 33.001 77.4042 32.6026C77.4634 32.4862 77.4346 32.3132 77.3644 32.1269C77.0193 31.2402 76.8924 30.2857 76.994 29.3415L77.1564 27.9851L77.2012 27.605C77.9953 27.2557 78.6033 26.1429 78.6033 26.1429L79.0262 25.4143L79.8042 24.0719L80.1729 23.4365L80.2355 23.4922L80.7133 23.9181C80.7133 23.9181 80.9162 24.0844 81.2207 24.3339C81.8828 24.8828 83.027 25.8493 83.6173 26.4406C84.1365 26.9612 84.3006 28.9864 84.348 30.5109C84.3792 31.5148 84.3606 32.3015 84.3606 32.3015C83.8372 33.149 85.2063 39.9531 85.2063 39.9531C85.5251 41.268 85.9133 49.5018 85.9133 49.5018Z" fill="white"/>
<path opacity="0.03" d="M81.4709 26.1251C81.4709 26.1251 79.8836 29.0968 80.068 30.2262C80.2523 31.3556 80.7766 32.634 80.5238 32.9325C80.4369 33.0457 80.3246 33.1375 80.1956 33.2008C80.0667 33.2642 79.9246 33.2973 79.7804 33.2976C79.5267 33.3143 78.8502 33.7792 78.8502 33.8291C78.8502 33.879 78.2253 33.879 77.6663 34.1119C77.1073 34.3447 76.2819 34.477 76.2819 34.477C76.2819 34.477 74.6751 34.4271 74.5254 34.5768C74.3758 34.7265 74.2218 35.6222 74.5424 36.3367C74.8629 37.0511 75.2189 37.5842 75.4878 37.6815C75.7567 37.7788 77.4633 37.2166 78.8477 37.0835C80.232 36.9504 81.7348 35.8717 81.7348 35.8717C81.7348 35.8717 83.3898 35.2896 83.6798 34.3106C83.9699 33.3317 83.3255 27.9515 83.3255 27.9515C83.3255 27.9515 82.8384 25.444 81.4709 26.1251Z" fill="black"/>
<path opacity="0.03" d="M81.2673 25.8759C81.2673 25.8759 79.68 28.8483 79.866 29.9769C80.0521 31.1056 80.5747 32.3847 80.321 32.6841C80.2344 32.7974 80.1223 32.8893 79.9935 32.9526C79.8646 33.016 79.7226 33.0491 79.5785 33.0492C79.3248 33.0659 78.6483 33.5308 78.6483 33.5807C78.6483 33.6306 78.0233 33.6306 77.4643 33.8626C76.9053 34.0947 76.08 34.2277 76.08 34.2277C76.08 34.2277 74.4732 34.1778 74.3244 34.3275C74.1755 34.4772 74.0199 35.3738 74.3413 36.0874C74.6626 36.801 75.0178 37.3349 75.2867 37.4323C75.5557 37.5296 77.2622 36.9673 78.6466 36.8351C80.0309 36.7029 81.5337 35.6225 81.5337 35.6225C81.5337 35.6225 83.1878 35.0403 83.4745 34.0622C83.7612 33.0842 83.1202 27.7023 83.1202 27.7023C83.1202 27.7023 82.6348 25.1955 81.2673 25.8759Z" fill="black"/>
<path d="M81.4199 25.9765C81.4199 25.9765 79.8326 28.949 80.0187 30.0776C80.2047 31.2062 80.7273 32.4853 80.4745 32.7839C80.3879 32.8974 80.2757 32.9896 80.1467 33.0531C80.0177 33.1166 79.8754 33.1497 79.7311 33.1499C79.4774 33.1665 78.8009 33.6314 78.8009 33.6805C78.8009 33.7296 78.1768 33.7304 77.6169 33.9633C77.0571 34.1961 76.2326 34.3284 76.2326 34.3284C76.2326 34.3284 74.6258 34.2785 74.4761 34.4282C74.3264 34.5779 74.1725 35.4744 74.493 36.188C74.8136 36.9016 75.1696 37.4356 75.4385 37.5329C75.7074 37.6302 77.414 37.068 78.7983 36.9349C80.1827 36.8018 81.6855 35.7231 81.6855 35.7231C81.6855 35.7231 83.3404 35.1409 83.6305 34.162C83.9206 33.1831 83.2804 27.8029 83.2804 27.8029C83.2804 27.8029 82.7865 25.2995 81.4199 25.9765Z" fill="white"/>
<path opacity="0.1" d="M81.3857 33.9492C81.3857 33.9492 80.1172 33.6997 80.5586 34.1156C81.0001 34.5314 80.9975 34.8957 81.5379 34.8791C82.0783 34.8624 81.3857 33.9492 81.3857 33.9492Z" fill="black"/>
<path opacity="0.1" d="M83.5311 42.8965C83.5311 42.8965 82.9578 43.2782 84.0546 44.1582C85.1514 45.0381 83.5311 42.8965 83.5311 42.8965Z" fill="black"/>
<path opacity="0.1" d="M82.4382 46.0342C82.4382 46.0841 82.2352 47.8639 82.9947 48.3089C83.7541 48.7538 82.4382 46.0342 82.4382 46.0342Z" fill="black"/>
<path d="M70.3813 32.084C69.769 32.1048 68.4464 32.2886 69.1322 33.5469C69.7386 34.6606 70.7576 33.9162 71.331 33.3515C71.1911 32.825 70.8512 32.3713 70.3813 32.084Z" fill="#FFB0B1"/>
<path opacity="0.1" d="M81.2196 24.3844C80.5701 24.8211 80.0255 25.1895 79.9189 25.266C79.628 25.4781 79.0733 26.7231 78.7155 27.3585C78.4305 27.87 77.5045 28.0014 77.1553 28.0339L77.2001 27.6538C77.9942 27.3045 78.6022 26.1917 78.6022 26.1917L80.1718 23.4854L80.7122 23.9686C80.7122 23.9686 80.9151 24.1349 81.2196 24.3844Z" fill="black"/>
<path d="M81.2196 24.3346C80.5701 24.7712 80.0255 25.1397 79.9189 25.217C79.628 25.4283 79.0733 26.6733 78.7155 27.3087C78.4305 27.8202 77.5045 27.9516 77.1553 27.9841L77.2001 27.604C77.9942 27.2547 78.6022 26.1419 78.6022 26.1419L80.1718 23.4355L80.7122 23.9171C80.7122 23.9171 80.9151 24.0818 81.2196 24.3346Z" fill="#DCE7FF"/>
<path d="M79.9692 22.2154C79.9695 22.7147 79.8156 23.2022 79.5277 23.6135C79.1878 24.0997 78.6818 24.45 78.1017 24.6008C77.5217 24.7515 76.9058 24.6928 76.366 24.4352C75.8262 24.1776 75.3981 23.7383 75.1595 23.1968C74.9209 22.6554 74.8875 22.0478 75.0655 21.4843C75.2434 20.9207 75.6209 20.4386 76.1293 20.1253C76.6378 19.8121 77.2436 19.6884 77.8369 19.7769C78.4301 19.8653 78.9714 20.16 79.3626 20.6074C79.7539 21.0548 79.9691 21.6253 79.9692 22.2154Z" fill="#FFB0B1"/>
<path opacity="0.1" d="M84.3452 30.5116C84.0018 30.3038 83.7221 30.0083 83.5359 29.6566C83.3947 29.3821 83.3008 29.0652 83.0598 28.8706C82.8424 28.696 82.5524 28.6536 82.2818 28.5754C81.3921 28.3167 80.6462 27.5183 80.6183 26.6068C80.6048 26.1776 80.7409 25.7493 80.6792 25.3243C80.6441 25.0838 80.5469 24.8561 80.3968 24.6631C80.3222 24.5708 80.2405 24.4843 80.1524 24.4044C80.034 24.2946 79.9096 24.1882 79.8014 24.0718C79.7332 23.9997 79.6736 23.9201 79.6238 23.8347C79.5836 23.7648 79.551 23.6909 79.5266 23.6143C79.3574 23.1053 79.5113 22.5015 79.3253 21.9867L79.3151 21.9584C79.2449 21.7754 79.102 21.5925 78.9033 21.5783C78.7046 21.5642 78.5346 21.7264 78.3452 21.7987C77.9485 21.9501 77.5206 21.6923 77.19 21.4295C76.8593 21.1666 76.4864 20.8664 76.0661 20.9246C75.7878 20.9637 75.568 21.15 75.3117 21.2465C75.2539 21.2685 75.1942 21.2855 75.1333 21.2972C75.3502 20.7654 75.7486 20.3244 76.2601 20.05C76.7716 19.7757 77.3644 19.6851 77.9364 19.7938C78.5085 19.9026 79.0242 20.2039 79.3949 20.6459C79.7657 21.088 79.9683 21.6432 79.968 22.2162C79.9683 22.3893 79.9499 22.5619 79.913 22.7311C79.9173 22.7427 79.9215 22.7535 79.9266 22.7652C80.0247 23.0147 80.1354 23.2708 80.2327 23.4921L80.7105 23.9179C80.7105 23.9179 80.9135 24.0842 81.2179 24.3337C81.8801 24.8827 83.0242 25.8491 83.6145 26.4404C84.1338 26.9627 84.2961 28.9871 84.3452 30.5116Z" fill="black"/>
<path d="M75.282 19.7265C75.4029 19.4845 75.463 19.2134 75.6076 18.9838C75.8198 18.6512 76.1903 18.4382 76.5708 18.3093C77.5645 17.9725 79.6643 17.4835 80.2918 18.3093C80.4152 18.4757 80.5175 18.6603 80.6884 18.7751C80.8186 18.8624 80.9759 18.8998 81.1188 18.9655C81.5188 19.1502 81.7742 19.5527 81.9104 19.9636C82.0465 20.3744 82.0871 20.8152 82.1869 21.2386C82.3146 21.7817 82.5387 22.2965 82.762 22.808C83.025 23.4118 83.304 24.038 83.8114 24.4647C84.504 25.0469 84.6571 25.8711 85.2998 26.5098C86.0609 27.2683 86.0364 28.52 85.644 29.5139C85.5924 29.6445 85.5341 29.7809 85.5544 29.9198C85.5747 30.0587 85.6795 30.1851 85.7785 30.2957L86.1945 30.7573C85.2102 30.991 84.0964 30.4853 83.6381 29.5979C83.4968 29.3235 83.403 29.0074 83.1611 28.812C82.9446 28.6373 82.6537 28.5957 82.3839 28.5175C81.4943 28.2581 80.7484 27.4588 80.7205 26.5473C80.707 26.1189 80.8431 25.6906 80.7814 25.2664C80.747 25.0243 80.6494 24.7951 80.4981 24.6011C80.2655 24.3025 79.9146 24.1021 79.7252 23.7694C79.4046 23.213 79.6482 22.4903 79.4173 21.8931C79.3463 21.7101 79.2042 21.5272 79.0055 21.513C78.8068 21.4989 78.6368 21.6611 78.4465 21.7334C78.0507 21.8848 77.6228 21.6278 77.2922 21.3641C76.9615 21.1005 76.5886 20.8011 76.1674 20.8601C75.8892 20.8984 75.6702 21.0847 75.4139 21.182C75.2245 21.2535 74.8406 21.3176 74.6748 21.1604C74.3247 20.8435 75.1357 20.0226 75.282 19.7265Z" fill="#591D4B"/>
<path opacity="0.1" d="M83.8748 29.323C83.7327 29.0486 83.6397 28.7325 83.3978 28.5379C83.1813 28.3633 82.8904 28.3209 82.6198 28.2427C81.731 27.984 80.9851 27.1848 80.9564 26.2732C80.9429 25.8449 81.079 25.4158 81.0181 24.9916C80.9827 24.751 80.8852 24.5234 80.7348 24.3304C80.5014 24.0318 80.1505 23.8314 79.9619 23.4987C79.6414 22.9431 79.8849 22.2204 79.6532 21.6224C79.583 21.4403 79.4401 21.2573 79.2422 21.2423C79.0443 21.2273 78.8727 21.3912 78.6832 21.4635C78.2875 21.6149 77.8587 21.3571 77.5289 21.0943C77.1991 20.8315 76.8244 20.5312 76.4041 20.5894C76.1259 20.6285 75.906 20.8148 75.6507 20.9113C75.4612 20.9828 75.0764 21.0477 74.9107 20.8905C74.5623 20.5578 75.3733 19.7386 75.5187 19.4442C75.6397 19.2013 75.6997 18.931 75.8452 18.7015C75.8528 18.689 75.8612 18.6765 75.8697 18.6641C75.7609 18.7527 75.667 18.8577 75.5915 18.9751C75.4468 19.2047 75.3868 19.4741 75.2659 19.7178C75.1196 20.0122 74.3086 20.834 74.6578 21.1641C74.827 21.3222 75.2075 21.2573 75.3969 21.1858C75.6507 21.0884 75.8722 20.9021 76.1504 20.8639C76.5733 20.8048 76.9454 21.1051 77.2752 21.3679C77.605 21.6307 78.0363 21.8885 78.4304 21.7372C78.6198 21.6648 78.7855 21.5018 78.9885 21.5168C79.1915 21.5317 79.3268 21.7139 79.4004 21.8969C79.6312 22.494 79.3877 23.2168 79.7082 23.7732C79.8976 24.1 80.2486 24.3046 80.4811 24.6049C80.6325 24.7988 80.7301 25.0281 80.7644 25.2702C80.8262 25.6944 80.69 26.1227 80.7035 26.551C80.7314 27.4659 81.4773 28.2618 82.367 28.5213C82.635 28.5995 82.9276 28.6411 83.1441 28.8157C83.3868 29.0112 83.4824 29.3272 83.6211 29.6017C84.0794 30.4891 85.1932 30.9948 86.1776 30.761L85.9814 30.5431C85.1281 30.5556 84.2647 30.0782 83.8748 29.323Z" fill="black"/>
<path opacity="0.1" d="M78.0457 25.5272C77.9349 25.6935 77.6178 26.5452 77.3531 27.2887C77.1053 27.1939 76.8804 26.5892 76.8804 26.5892L78.2013 24.7412C78.3366 24.9242 78.2478 25.2278 78.0457 25.5272Z" fill="black"/>
<path d="M78.095 25.4775C77.9842 25.6438 77.6671 26.4955 77.4024 27.239C77.1546 27.145 76.9297 26.5396 76.9297 26.5396L78.2506 24.6924C78.3859 24.8745 78.2971 25.1789 78.095 25.4775Z" fill="#DCE7FF"/>
<path d="M70.4165 33.9738L69.6841 31.7024C69.6755 31.6758 69.6722 31.6478 69.6746 31.62C69.6769 31.5922 69.6849 31.5651 69.6979 31.5403C69.711 31.5155 69.7289 31.4934 69.7506 31.4754C69.7723 31.4575 69.7974 31.4439 69.8245 31.4355C69.879 31.4187 69.938 31.4238 69.9887 31.4497C70.0394 31.4756 70.0776 31.5201 70.0951 31.5735L70.8275 33.8424L70.7547 34.3173L70.4165 33.9738Z" fill="#BE8B87"/>
<path opacity="0.1" d="M69.7519 31.5024C69.8065 31.4854 69.8657 31.4904 69.9166 31.5163C69.9675 31.5422 70.0058 31.5868 70.0233 31.6405L70.7557 33.9093L70.7007 34.2653L70.754 34.3202L70.8267 33.8453L70.0901 31.5764C70.0726 31.523 70.0344 31.4785 69.9837 31.4526C69.933 31.4268 69.874 31.4217 69.8195 31.4384C69.7736 31.453 69.7341 31.4823 69.707 31.5216C69.7214 31.514 69.7364 31.5076 69.7519 31.5024Z" fill="white"/>
<path d="M70.4165 33.9738L70.8275 33.8457L70.7675 34.2349L70.7548 34.3206L70.6347 34.1975L70.4165 33.9738Z" fill="#EFC8C4"/>
<path d="M70.6338 34.1982C70.6409 34.1893 70.6499 34.1819 70.66 34.1766C70.666 34.1729 70.6728 34.1709 70.6799 34.1709C70.6869 34.1709 70.6938 34.1729 70.6998 34.1766C70.7055 34.1834 70.7103 34.1909 70.7141 34.199C70.7197 34.2082 70.7273 34.216 70.7364 34.2219C70.7455 34.2278 70.7558 34.2316 70.7666 34.2331L70.7539 34.3163L70.6338 34.1982Z" fill="#727A9C"/>
<path d="M69.6782 32.5098C69.6782 32.5098 71.1471 32.5015 70.8013 33.1161C70.4554 33.7307 69.915 33.8047 69.915 33.8047L69.6782 32.5098Z" fill="#FFB0B1"/>
<path d="M60.5417 4.92676H60.4783C57.9548 4.92676 55.7231 6.24 54.4393 8.17785C53.1556 6.24 50.9239 4.92676 48.4004 4.92676H48.337C46.4432 4.94451 44.633 5.69657 43.2999 7.01953C41.9667 8.34248 41.2183 10.1294 41.2173 11.992C41.2173 14.3049 42.2473 17.5868 44.2558 20.2873C48.0824 25.433 54.4393 29.935 54.4393 29.935C54.4393 29.935 60.7962 25.4338 64.6221 20.2873C66.6314 17.5868 67.6606 14.3049 67.6606 11.992C67.6595 10.1296 66.9112 8.34275 65.5783 7.01982C64.2453 5.69689 62.4354 4.94472 60.5417 4.92676ZM59.6343 20.6832C59.3469 20.6821 59.0666 20.5956 58.8301 20.435C58.5936 20.2744 58.412 20.0472 58.3091 19.7833H56.8005C56.7011 19.7827 56.6044 19.7516 56.5239 19.6943C56.4434 19.6371 56.3831 19.5565 56.3514 19.4639L55.888 18.0908L54.4216 23.13C54.393 23.227 54.3332 23.3123 54.2512 23.3731C54.1692 23.4338 54.0693 23.4667 53.9666 23.4669H53.937C53.8299 23.4618 53.7277 23.4207 53.6477 23.3504C53.5677 23.2802 53.5146 23.1851 53.4973 23.081L51.9861 14.1419L50.8816 19.4315C50.8563 19.532 50.7975 19.6212 50.7145 19.685C50.6316 19.7488 50.5294 19.7834 50.4241 19.7833H48.2989C48.2352 19.786 48.1716 19.7759 48.112 19.7538C48.0523 19.7316 47.9978 19.6978 47.9518 19.6544C47.9058 19.611 47.8692 19.5589 47.8441 19.5012C47.8191 19.4436 47.8062 19.3815 47.8062 19.3188C47.8062 19.2561 47.8191 19.194 47.8441 19.1364C47.8692 19.0787 47.9058 19.0266 47.9518 18.9832C47.9978 18.9398 48.0523 18.906 48.112 18.8838C48.1716 18.8617 48.2352 18.8516 48.2989 18.8543H50.052L51.6165 11.7425C51.6422 11.6373 51.7042 11.5442 51.792 11.4791C51.8797 11.4139 51.9878 11.3808 52.0976 11.3853C52.2075 11.3898 52.3123 11.4317 52.3942 11.5039C52.4762 11.576 52.5301 11.6739 52.5467 11.7807L54.0901 20.8994L55.4042 16.3908C55.4316 16.2959 55.4895 16.2122 55.5692 16.1522C55.6489 16.0922 55.7462 16.0593 55.8465 16.0581H55.8558C55.9552 16.0582 56.0521 16.0891 56.1326 16.1464C56.213 16.2038 56.2731 16.2846 56.304 16.3775L57.1421 18.8568H58.2905C58.3722 18.6128 58.5208 18.3958 58.7199 18.2296C58.9191 18.0635 59.161 17.9547 59.4191 17.9152C59.6772 17.8758 59.9413 17.9072 60.1823 18.0061C60.4234 18.1049 60.632 18.2673 60.7851 18.4754C60.9382 18.6835 61.0298 18.9291 61.0499 19.1852C61.0701 19.4413 61.0179 19.6979 60.8991 19.9266C60.7803 20.1553 60.5996 20.3474 60.3768 20.4815C60.1541 20.6156 59.898 20.6865 59.6368 20.6865L59.6343 20.6832Z" fill="#EC9611"/>
</g>
<defs>
<linearGradient id="paint0_linear_6275_578" x1="30.983" y1="65.0955" x2="30.983" y2="13.9181" gradientUnits="userSpaceOnUse">
<stop stop-color="#808080" stop-opacity="0.25"/>
<stop offset="0.54" stop-color="#808080" stop-opacity="0.12"/>
<stop offset="1" stop-color="#808080" stop-opacity="0.1"/>
</linearGradient>
<linearGradient id="paint1_linear_6275_578" x1="76.405" y1="64.4486" x2="76.405" y2="17.7074" gradientUnits="userSpaceOnUse">
<stop stop-color="#808080" stop-opacity="0.25"/>
<stop offset="0.54" stop-color="#808080" stop-opacity="0.12"/>
<stop offset="1" stop-color="#808080" stop-opacity="0.1"/>
</linearGradient>
<clipPath id="clip0_6275_578">
<rect width="93.45" height="65.1" fill="white" transform="translate(0.849609 0.650391)"/>
</clipPath>
</defs>
</svg>
