<svg width="122" height="64" viewBox="0 0 122 64" fill="none" xmlns="http://www.w3.org/2000/svg">
<g clip-path="url(#clip0_6275_512)">
<path d="M99.9886 56.8117H74.001V52.0975C73.9997 50.3148 74.7209 48.6045 76.0065 47.3417C77.292 46.0788 79.0369 45.3666 80.8582 45.3613H99.9886V56.8117Z" fill="#F2F2F2"/>
<path d="M81.5758 38.6982H79.0825V47.7084H81.5758V38.6982Z" fill="#F2F2F2"/>
<path d="M99.9879 38.6982H97.4946V47.7084H99.9879V38.6982Z" fill="#F2F2F2"/>
<path d="M98.2603 39.4492H81.1909V39.6369H98.2603V39.4492Z" fill="#F2F2F2"/>
<path d="M98.2603 42.4521H81.1909V42.6399H98.2603V42.4521Z" fill="#F2F2F2"/>
<path d="M98.2603 43.9551H81.1909V44.1428H98.2603V43.9551Z" fill="#F2F2F2"/>
<path d="M97.5386 56.3326C97.5226 56.456 97.5188 56.5807 97.5273 56.7049H104.251C104.312 56.5843 104.365 56.4599 104.409 56.3326C105.232 54.0208 103.88 50.173 105.594 44.4679C106.867 40.2344 109.242 36.9231 110.35 35.3804C111.711 33.4831 113.253 31.7321 115.04 28.935C115.427 28.3299 115.825 27.6738 116.238 26.9579C116.376 26.7185 117.968 23.9413 117.823 23.8549C117.755 23.815 117.334 24.3757 117.191 24.5641C115.932 26.2309 115.2 26.9601 114.152 28.1592C113.515 28.8862 112.764 29.7839 111.708 31.1692C109.002 34.7177 107.65 36.4909 107.179 37.8185C106.614 39.4158 105.933 40.9713 105.141 42.4731C104.502 43.6877 104.183 44.295 104.009 44.2462C103.515 44.1066 104.181 39.0775 106.273 34.0505C106.631 33.195 106.898 32.6475 107.406 31.6124C108.23 29.9235 112.82 20.5368 116.195 14.9181C116.618 14.2111 117.023 13.5661 117.397 13.0009C117.47 12.8945 117.54 12.7903 117.608 12.6906C117.974 12.1314 118.387 11.6029 118.842 11.1102C119.025 10.9241 119.492 10.3965 120.427 9.33709C120.799 8.91595 121.07 8.60344 121.254 8.37514C121.281 8.3419 121.306 8.30865 121.326 8.27983C121.548 7.99614 121.611 7.8587 121.559 7.78557C121.485 7.68139 121.197 7.74124 120.882 7.84984C120.848 7.86092 120.812 7.87422 120.778 7.88752C120.436 8.01164 120.09 8.17345 119.974 8.22886C118.914 8.72756 117.879 9.62079 116.921 10.6825C116.566 11.0748 116.224 11.4893 115.893 11.9148C114.901 13.2203 114.001 14.5903 113.198 16.0153C112.338 17.5313 111.822 18.6462 111.822 18.6462C109.419 23.8393 106.753 29.7794 106.613 29.7285C106.459 29.6731 109.414 22.279 110.275 18.2627C110.562 16.9174 110.615 15.951 110.236 15.7648C110.223 15.7576 110.208 15.7516 110.193 15.7471C110.147 15.7323 110.099 15.727 110.051 15.7316C109.81 15.7071 109.567 15.7183 109.33 15.7648C108.871 15.8623 108.348 17.1146 107.838 18.8723C106.513 23.4027 105.254 31.28 105.254 31.28C103.995 39.1595 102.084 45.5362 101.631 45.4653C101.379 45.4254 101.739 43.4461 101.404 40.1458C101.169 37.8318 100.902 37.9027 100.046 33.7181C98.6868 27.0798 98.0074 23.7551 98.0074 23.744C98.0249 23.5061 98.0189 23.2671 97.9893 23.0303C97.944 22.7134 97.8285 22.3809 97.5545 22.1925C97.1378 21.9044 96.4674 22.0285 96.1957 22.1925C95.9783 22.3255 95.8673 22.5693 95.8424 22.9195C95.693 25.1227 98.9268 31.5105 100.046 40.1458C100.603 44.4479 100.908 46.7952 100.046 49.8982C99.1918 52.9746 97.7039 54.934 97.5386 56.3326Z" fill="#F2F2F2"/>
<path d="M82.623 0.804925C85.2292 0.474094 88.4663 1.69122 88.6591 3.02138C88.8178 4.11632 86.8889 5.11603 87.0706 5.23783C87.2405 5.35167 88.4358 4.1503 89.9298 4.12961C92.1874 4.09833 94.8969 6.76591 94.0597 8.34087C93.3877 9.60514 90.5082 10.0187 90.5652 10.114C90.619 10.204 92.8129 9.22278 95.0128 9.4491C98.1626 9.77312 101.179 12.5575 100.413 14.3253C99.5584 16.3005 94.023 16.9122 94.0597 16.985C94.0986 17.0621 99.631 15.0859 101.684 16.3201C103.061 17.1479 102.864 19.0775 102.002 20.3097C100.203 22.8816 94.5903 23.793 91.8359 22.5262C89.6943 21.5411 90.596 17.791 88.4343 14.6823C85.7795 10.8649 81.705 11.8432 81.67 9.00581C81.6668 8.74779 81.6565 7.91702 82.3053 7.67594C83.3415 7.29091 85.3413 8.67648 85.4822 8.56252C85.6346 8.43924 82.9577 7.08999 81.3523 4.79455C80.8473 4.07255 79.6984 2.42993 80.7169 1.46987C81.2354 0.981065 82.1016 0.871122 82.623 0.804925Z" fill="#F2F2F2"/>
<path d="M22.4116 45.3613H41.542C43.3633 45.3666 45.1082 46.0788 46.3937 47.3417C47.6792 48.6045 48.4005 50.3148 48.3992 52.0975V56.8117H22.4116V45.3613Z" fill="#F2F2F2"/>
<path d="M40.8236 47.709H43.3169V38.6988H40.8236V47.709Z" fill="#F2F2F2"/>
<path d="M22.412 47.709H24.9053V38.6988H22.412V47.709Z" fill="#F2F2F2"/>
<path d="M24.1396 39.6367H41.209V39.449H24.1396V39.6367Z" fill="#F2F2F2"/>
<path d="M24.1396 42.6406H41.209V42.4529H24.1396V42.6406Z" fill="#F2F2F2"/>
<path d="M24.1396 44.1416H41.209V43.9539H24.1396V44.1416Z" fill="#F2F2F2"/>
<path d="M24.8627 56.3326C24.8787 56.456 24.8825 56.5807 24.874 56.7049H18.1503C18.0892 56.5843 18.0362 56.46 17.9918 56.3326C17.1697 54.0208 18.5217 50.173 16.8074 44.4679C15.5347 40.2344 13.1591 36.9231 12.0517 35.3804C10.6907 33.4831 9.14847 31.7321 7.36169 28.935C6.97445 28.3299 6.57587 27.6738 6.16371 26.9579C6.02557 26.7185 4.43354 23.9413 4.57848 23.8549C4.64641 23.815 5.06763 24.3757 5.2103 24.5641C6.46943 26.2309 7.20091 26.9601 8.24943 28.1592C8.88578 28.8862 9.63764 29.7839 10.6929 31.1692C13.3992 34.7177 14.7511 36.4909 15.2222 37.8185C15.7868 39.4158 16.468 40.9713 17.2603 42.4731C17.899 43.6877 18.2183 44.295 18.3926 44.2462C18.8863 44.1066 18.2205 39.0775 16.128 34.0505C15.7702 33.195 15.503 32.6475 14.9957 31.6124C14.1714 29.9235 9.58102 20.5368 6.20674 14.9181C5.78326 14.2111 5.37789 13.5661 5.00423 13.0009C4.93176 12.8945 4.86155 12.7903 4.79362 12.6906C4.42739 12.1314 4.01458 11.6029 3.5594 11.1102C3.37597 10.9241 2.90945 10.3966 1.97417 9.33709C1.60277 8.91596 1.33101 8.60344 1.14757 8.37514C1.12041 8.3419 1.09549 8.30865 1.07512 8.27984C0.853178 7.99614 0.789776 7.8587 0.841859 7.78557C0.916594 7.68139 1.20419 7.74124 1.51898 7.84984C1.55295 7.86092 1.58918 7.87422 1.62315 7.88752C1.96511 8.01164 2.31159 8.17345 2.42709 8.22886C3.48693 8.72756 4.52186 9.62079 5.47979 10.6825C5.83534 11.0748 6.1773 11.4893 6.50794 11.9148C7.50008 13.2203 8.40045 14.5903 9.20283 16.0153C10.0634 17.5313 10.5797 18.6462 10.5797 18.6462C12.9825 23.8393 15.6479 29.7794 15.7883 29.7285C15.9423 29.6731 12.987 22.279 12.1265 18.2627C11.8388 16.9174 11.7868 15.951 12.165 15.7648C12.1787 15.7576 12.1931 15.7516 12.208 15.7471C12.2539 15.7323 12.3025 15.727 12.3507 15.7316C12.591 15.7071 12.8338 15.7183 13.0708 15.7648C13.5305 15.8623 14.0536 17.1146 14.5632 18.8723C15.888 23.4027 17.1471 31.28 17.1471 31.28C18.4062 39.1595 20.3176 45.5362 20.7705 45.4653C21.0219 45.4254 20.6618 43.4461 20.997 40.1458C21.2325 37.8318 21.4997 37.9028 22.3557 33.7181C23.7145 27.0798 24.3939 23.7551 24.3939 23.744C24.3763 23.5061 24.3824 23.2671 24.412 23.0303C24.4573 22.7134 24.5728 22.3809 24.8468 22.1925C25.2635 21.9044 25.9338 22.0285 26.2056 22.1925C26.423 22.3255 26.534 22.5693 26.5589 22.9195C26.7083 25.1227 23.4745 31.5105 22.3557 40.1458C21.7986 44.4479 21.4929 46.7952 22.3557 49.8982C23.2095 52.9746 24.6973 54.934 24.8627 56.3326Z" fill="#F2F2F2"/>
<path d="M110.263 56.7245C110.263 56.7382 110.26 56.7519 110.255 56.7646C110.249 56.7773 110.242 56.7889 110.232 56.7986C110.222 56.8083 110.21 56.816 110.197 56.8212C110.184 56.8264 110.17 56.829 110.156 56.8289H11.9937V56.6201H110.156C110.17 56.6201 110.184 56.6228 110.197 56.628C110.21 56.6333 110.222 56.6409 110.231 56.6506C110.241 56.6603 110.249 56.6719 110.255 56.6845C110.26 56.6972 110.263 56.7108 110.263 56.7245Z" fill="#E6E6E6"/>
<path d="M62.9528 11.1185C63.3183 11.3195 63.908 10.5246 64.0416 10.9134C64.1753 11.3022 63.8516 12.8711 63.6846 13.2474C63.6016 13.4344 63.4842 13.6054 63.4028 13.7931C63.3094 13.9778 63.2904 14.1902 63.3497 14.3879C63.475 14.721 63.8884 14.8564 64.0934 15.1491C64.3322 15.49 64.2358 15.9491 64.1242 16.3477C64.0419 16.6952 63.9128 17.0305 63.7402 17.3446C63.5645 17.661 63.2745 17.9018 62.9269 18.0198C62.4827 18.149 62.0079 17.9954 61.5796 17.8221C61.1625 17.667 60.7691 17.4567 60.4104 17.197C60.0502 16.9346 59.7828 16.5686 59.6456 16.1502C59.4921 15.6243 59.6203 15.0487 59.8862 14.5675C60.1716 14.0961 60.5301 13.6709 60.9489 13.3071C61.6288 12.6696 62.3515 12.0772 63.1122 11.5341" fill="#2F2E41"/>
<path d="M57.5166 38.1045L58.2783 45.0628C58.2783 45.0628 56.501 48.6662 58.4053 53.0152L58.5322 55.5003L60.6905 55.2518L60.1827 53.1395L61.3253 44.5658L62.214 38.353L57.5166 38.1045Z" fill="#FFB6B6"/>
<path d="M63.6113 37.9805C63.6113 37.9805 63.1035 43.4477 64.1192 46.3056C64.1192 46.3056 63.6113 50.6546 65.0078 55.252V58.6749L67.2931 58.2342L67.1661 45.4358L67.8009 38.4775L63.6113 37.9805Z" fill="#FFB6B6"/>
<path d="M63.9371 16.7005C63.6237 17.0848 63.1832 17.3502 62.6915 17.4508C62.1997 17.5514 61.6875 17.4809 61.2431 17.2516C59.936 16.5774 58.1513 15.8047 57.8359 16.4221C57.5285 17.0331 57.3555 17.7004 57.3281 18.3809L56.8203 29.966C56.8203 29.966 56.5663 34.6437 59.7402 34.2308C62.9141 33.818 67.8654 35.5575 67.8654 35.5575L66.6593 23.3183L66.4054 18.4724L65.2628 17.9753C65.2628 17.9753 65.1359 17.1055 64.755 17.1055C64.3741 17.1055 64.2822 16.27 63.9473 16.6878L63.9371 16.7005Z" fill="#EC9611"/>
<path d="M57.2671 29.7783L55.1089 38.6005C55.1089 38.6005 60.3141 41.5826 62.7262 38.7247L63.1071 37.3579L63.361 38.849C63.361 38.849 67.0427 40.9613 68.0584 39.5945L67.868 35.5562L65.5193 30.8966L57.2671 29.7783Z" fill="#2F2E41"/>
<path d="M58.4582 54.0361C58.4582 54.0361 57.6443 54.6305 57.8982 55.3761C58.1521 56.1216 60.0565 58.9795 61.7069 58.6067C63.3573 58.234 62.5956 57.3642 62.5956 57.3642L60.6912 54.6305C60.6912 54.6305 59.9295 54.7548 59.5486 55.0033C59.1678 55.2518 58.4582 54.0361 58.4582 54.0361Z" fill="#2F2E41"/>
<path d="M65.0072 57.6125C65.0072 57.6125 63.6106 58.9793 64.3724 59.6006C65.1341 60.2219 70.3393 60.7189 70.2123 59.9734C70.0854 59.2278 67.4193 57.1155 67.4193 57.1155C67.4193 57.1155 66.6576 56.867 66.4037 57.4883C66.1498 58.1095 65.0072 57.6125 65.0072 57.6125Z" fill="#2F2E41"/>
<path d="M65.6461 44.0691C64.7523 44.5966 64.6641 44.8455 64.1226 45.0631C63.8486 45.1732 63.3354 45.3247 62.3452 45.1874C60.9809 44.9982 60.1397 44.4589 57.7748 43.1993C56.0881 42.3009 55.2635 41.908 54.0931 41.7082C53.2161 41.5585 52.7064 41.613 52.3157 41.7082C50.9527 42.0403 50.2087 43.0692 50.0305 43.3235C49.4146 44.2026 49.3367 45.0611 49.2688 45.8086C49.1833 46.7503 49.0597 48.111 49.7766 49.1635C50.6749 50.4825 51.926 49.8979 54.0931 51.1516C56.4883 52.5373 56.0878 53.9038 58.0287 54.6308C60.5124 55.561 63.2163 54.0907 63.3609 54.0095C65.9323 52.5661 66.4584 49.9468 67.8043 50.1576C68.6085 50.2835 68.6886 51.2604 69.9626 51.5244C70.201 51.5738 71.1821 51.7771 71.8669 51.1516C72.2877 50.7674 72.2747 51.6276 72.0574 51.0895C71.7784 50.3986 71.2154 49.0501 70.8513 48.2937C70.6568 47.8897 70.876 47.765 70.7243 46.6784C70.6502 46.1477 70.6128 45.8798 70.4704 45.5601C70.1176 44.768 69.4324 44.3589 68.9469 44.0691C68.3564 43.7164 67.7757 43.3698 67.0426 43.4478C66.6231 43.4924 66.2974 43.6846 65.6461 44.0691Z" fill="#3F3D56"/>
<path d="M50.1559 47.0518C49.9307 47.2323 49.8771 47.5983 49.7751 48.2943C49.6807 48.9382 49.7381 49.3332 49.7751 50.0339C49.8306 51.0857 49.743 50.9878 49.7751 52.3948C49.8014 53.5524 49.8146 54.1312 49.902 54.6314C50.0593 55.5307 50.143 55.1852 50.9177 57.4893C51.0748 57.9567 51.2 58.3535 51.5524 58.4833C51.994 58.6459 52.5028 58.2827 52.5681 58.2348C52.6751 58.1563 53.0523 57.8796 53.0759 57.4893C53.1059 56.9937 52.5328 56.8681 52.0603 56.1224C51.7652 55.6568 51.6943 55.1908 51.5524 54.2586C51.4175 53.3721 51.3501 52.9289 51.5524 52.519C51.9217 51.7712 52.7664 51.5394 52.822 51.525C53.3275 51.3942 53.4909 51.5794 54.0916 51.525C54.6534 51.4741 55.579 51.2153 55.742 50.7794C56.1888 49.5848 51.2318 46.1892 50.1559 47.0518Z" fill="#3F3D56"/>
<path d="M52.1823 45.3106C51.9571 45.4911 51.9034 45.8571 51.8014 46.5531C51.7071 47.197 51.7644 47.592 51.8014 48.2927C51.8569 49.3445 51.7694 49.2466 51.8014 50.6536C51.8278 51.8112 51.8409 52.39 51.9284 52.8902C52.0856 53.7895 52.1694 53.444 52.944 55.748C53.1012 56.2155 53.2264 56.6123 53.5788 56.7421C54.0204 56.9047 54.5292 56.5415 54.5944 56.4936C54.7015 56.4151 55.0786 56.1384 55.1023 55.748C55.1323 55.2525 54.5591 55.1269 54.0866 54.3812C53.7916 53.9156 53.7207 53.4495 53.5788 52.5174C53.4439 51.6309 53.3764 51.1877 53.5788 50.7778C53.948 50.03 54.7928 49.7981 54.8484 49.7838C55.3539 49.653 55.5172 49.8382 56.1179 49.7838C56.6798 49.7329 57.6053 49.4741 57.7683 49.0382C58.2152 47.8435 53.2581 44.448 52.1823 45.3106Z" fill="#3F3D56"/>
<path d="M55.9939 51.4004C55.851 51.6137 55.687 52.1639 55.3591 53.2642C55.2129 53.7549 54.266 56.9834 53.9626 57.9859C53.8726 58.3507 53.6989 58.6907 53.4548 58.98C53.1959 59.2713 53.0576 59.2622 52.947 59.477C52.659 60.0361 53.221 60.8248 53.3278 60.9681C53.4522 61.1349 54.0297 61.9094 54.8513 61.8379C54.9371 61.8304 55.4923 61.7821 55.613 61.4651C55.798 60.9792 54.7103 60.5232 54.7243 59.7255C54.7326 59.2544 55.1183 59.0592 55.613 58.483C56.6743 57.2467 56.2217 56.6044 57.0095 55.6251C58.188 54.1604 60.3782 54.1336 60.6913 54.134C61.5022 54.1352 62.6308 54.1368 63.3573 54.8795C64.3702 55.9151 63.9516 57.7266 64.373 60.4711C64.4379 60.8479 64.5226 61.2211 64.6269 61.5894C64.9332 62.7005 65.1775 62.9875 65.2617 63.0804C65.4877 63.3482 65.7861 63.5485 66.1228 63.6583C66.4595 63.7682 66.821 63.7832 67.166 63.7017C67.4643 63.6356 67.7363 63.5754 67.9277 63.3289C68.0232 63.2067 68.0851 63.0626 68.1073 62.9103C68.1295 62.758 68.1114 62.6026 68.0547 62.4592C67.9019 62.1237 67.587 62.1782 67.166 61.8379C66.8689 61.5977 66.714 61.2636 66.4043 60.5953C66.1931 60.1557 66.0231 59.6982 65.8965 59.2285C65.7051 58.5081 65.6817 57.9515 65.6425 56.8676C65.6096 55.9545 65.6255 55.1955 65.6425 54.3825C65.6624 53.436 65.6895 53.1268 65.6425 52.5187C65.5933 51.8806 65.5454 51.2593 65.3886 50.9034C64.5454 48.9883 57.855 48.6223 55.9939 51.4004Z" fill="#3F3D56"/>
<path d="M50.6613 42.9502C50.1186 42.6564 50.0411 41.9691 49.8995 40.7136C49.7964 39.7989 49.735 39.2543 50.0265 38.6012C50.2894 38.0244 50.7344 37.5453 51.296 37.2344C51.4463 37.1536 52.4325 36.6418 53.4543 36.9859C53.5969 37.0339 53.9745 37.3085 54.7238 37.8557C55.6181 38.5087 55.7493 38.6332 55.8665 38.8497C56.1799 39.4291 56.1466 40.2121 55.8665 40.3408C55.6537 40.4385 55.2859 40.1644 55.1047 39.968C54.8881 39.7333 54.9207 39.5912 54.7238 39.3467C54.5679 39.153 54.4211 39.0854 53.9621 38.8497C52.8253 38.2659 52.7677 38.1884 52.5656 38.2284C52.0619 38.3281 51.8218 38.9274 51.8039 38.974C51.6501 39.3734 51.7555 39.7367 51.9308 40.3408C52.0362 40.6797 52.1634 41.0117 52.3117 41.3348C52.6426 42.1095 52.7298 42.1676 52.6926 42.3289C52.5705 42.858 51.3779 43.3381 50.6613 42.9502Z" fill="#3F3D56"/>
<path d="M67.2503 35.6169C67.2305 36.3268 67.5887 36.9123 68.0503 36.9246C68.5119 36.9369 68.902 36.3713 68.9218 35.6612C68.9336 35.3776 68.8759 35.0954 68.7535 34.8381L68.7987 31.8291L67.3555 31.8385L67.4642 34.8038C67.3276 35.0542 67.2542 35.3331 67.2503 35.6169Z" fill="#FFB6B6"/>
<path d="M66.2158 18.4092C66.2158 18.4092 68.1202 19.0305 68.2471 21.1428C68.3741 23.2552 68.501 24.4977 68.501 24.4977L68.6915 25.3608C68.6915 25.3608 69.2628 26.7343 69.0089 27.7284C68.7549 28.7224 69.0397 32.7475 69.0397 32.7475L67.2315 32.6986L65.9619 28.1011L66.2158 18.4092Z" fill="#EC9611"/>
<path d="M63.6735 45.1257C63.4636 45.1597 63.3618 46.3343 63.6735 47.3623C63.8537 47.9006 64.0952 48.4173 64.3935 48.9026C64.4539 49.0015 64.5121 49.0917 64.6892 49.3504C65.5551 50.6159 65.9926 51.248 66.2126 51.2143C66.5061 51.1694 65.7029 50.4902 65.6413 49.8408C65.5268 48.6334 64.9729 48.4841 63.9909 46.7344C63.4595 45.7875 63.8374 45.0993 63.6735 45.1257Z" fill="#EC9611"/>
<path d="M68.1174 44.7527C68.2235 44.224 67.6201 43.4897 66.9748 43.3859C66.0338 43.2345 65.217 44.4578 64.9435 45.2497C64.5673 46.3388 64.9898 47.2748 65.1974 47.7348C65.4578 48.3118 65.6525 48.3497 65.7052 48.3561C66.0893 48.4032 66.5447 47.7146 66.7209 47.1135C66.8759 46.5848 66.7009 46.5124 66.8478 46.1195C67.1502 45.3107 68.0041 45.3169 68.1174 44.7527Z" fill="#2F2E41"/>
<path d="M64.6899 13.7366C64.6899 14.2498 64.5344 14.7515 64.2431 15.1783C63.9518 15.605 63.5377 15.9376 63.0532 16.134C62.5687 16.3304 62.0356 16.3818 61.5213 16.2817C61.007 16.1816 60.5346 15.9344 60.1638 15.5715C59.793 15.2086 59.5405 14.7462 59.4382 14.2428C59.3359 13.7395 59.3884 13.2177 59.589 12.7435C59.7897 12.2694 60.1295 11.8641 60.5656 11.5789C61.0016 11.2938 61.5142 11.1416 62.0386 11.1416C62.7418 11.1416 63.4161 11.415 63.9134 11.9017C64.4106 12.3883 64.6899 13.0483 64.6899 13.7366Z" fill="#FFB6B6"/>
<path d="M59.0518 17.8011C59.6734 18.6743 59.9844 19.7234 59.9369 20.7866C60.6385 20.4539 61.1121 19.7511 61.2733 19.0046C61.4344 18.258 61.3115 17.4741 61.0525 16.7544C61.0499 16.7472 61.0473 16.74 61.0447 16.7328C60.8502 16.2084 60.8349 15.6363 61.0012 15.1027C61.1674 14.569 61.5062 14.1026 61.9666 13.7737C62.6097 13.3204 63.1602 12.7531 63.5894 12.101C63.8302 11.7333 64.0348 11.272 63.8549 10.8723C63.6892 10.504 63.2611 10.3318 62.8671 10.2166C61.9674 9.95361 61.0115 9.80395 60.0881 9.97038C59.1646 10.1368 58.2757 10.6566 57.8393 11.4702C57.4028 12.2839 57.5172 13.3944 58.2255 13.9976C58.1128 14.0333 58.0156 14.1052 57.9498 14.2017C57.884 14.2981 57.8534 14.4135 57.863 14.5291C57.8726 14.6447 57.9218 14.7538 58.0026 14.8386C58.0834 14.9235 58.1911 14.9791 58.3083 14.9966C58.1568 14.9913 58.0674 15.1865 58.1214 15.3251C58.1915 15.4581 58.3069 15.5628 58.4476 15.6211C58.6369 15.7227 58.8467 15.829 58.8475 16.0951C58.8461 16.2021 58.8104 16.3059 58.7454 16.392C58.5915 16.6022 58.343 16.6968 58.1038 16.7856C58.3567 16.8622 58.5834 17.0048 58.7596 17.1981C58.9358 17.3914 59.0548 17.628 59.1038 17.8826" fill="#2F2E41"/>
<path d="M60.4969 31.2289L60.1255 31.3115L63.8628 47.4027L64.2342 47.32L60.4969 31.2289Z" fill="#EC9611"/>
<path d="M59.8298 32.3986C60.4124 32.822 61.1078 32.871 61.383 32.5081C61.6583 32.1452 61.4091 31.5079 60.8263 31.0844C60.5959 30.9122 60.3266 30.7964 60.0411 30.7468L57.5496 28.9834L56.729 30.1453L59.2723 31.7604C59.4034 32.0137 59.5946 32.2325 59.8298 32.3986Z" fill="#FFB6B6"/>
<path d="M58.2582 18.0371C58.2582 18.0371 56.2484 18.0992 55.8676 19.4661C55.0962 22.174 54.7537 24.9816 54.8519 27.7912C54.8519 27.7912 54.2172 30.4006 55.8676 30.2763L58.1528 31.2704L59.6763 29.2823L58.4067 27.7912L58.2582 18.0371Z" fill="#EC9611"/>
</g>
<defs>
<clipPath id="clip0_6275_512">
<rect width="120.75" height="63" fill="white" transform="translate(0.824707 0.75)"/>
</clipPath>
</defs>
</svg>
