<svg width="132" height="56" viewBox="0 0 132 56" fill="none" xmlns="http://www.w3.org/2000/svg">
<path d="M99.4995 24.4554V14.2059C99.4995 13.1839 100.33 12.3525 101.35 12.3525H108.045C109.066 12.3525 109.896 13.1839 109.896 14.2059V24.4554C109.896 25.4773 109.066 26.3087 108.045 26.3087H101.35C100.33 26.3087 99.4995 25.4773 99.4995 24.4554Z" fill="#F9A826"/>
<path d="M102.93 16.7832H106.469V15.8971H102.93V16.7832Z" fill="#3F3D56"/>
<path d="M103.813 15.2324H105.583V12.3526H103.813V15.2324Z" fill="#3F3D56"/>
<path d="M103.813 26.3076H105.583V23.4278H103.813V26.3076Z" fill="#3F3D56"/>
<path d="M94.7482 24.8688H84.5137C83.4932 24.8688 82.6631 24.0374 82.6631 23.0154V16.3104C82.6631 15.2884 83.4932 14.457 84.5137 14.457H94.7482C95.7686 14.457 96.5988 15.2884 96.5988 16.3104V23.0154C96.5988 24.0374 95.7686 24.8688 94.7482 24.8688Z" fill="#F9A826"/>
<path d="M91.6208 15.8965H88.0815V16.7826H91.6208V15.8965Z" fill="#3F3D56"/>
<path d="M85.5366 20.5496V18.7773H82.661V20.5496H85.5366Z" fill="#3F3D56"/>
<path d="M96.6006 20.5496V18.7773H93.725V20.5496H96.6006Z" fill="#3F3D56"/>
<path d="M12.1304 43.3514L10.4298 33.499C9.67419 29.1211 12.9367 25.0699 17.4031 24.8401L41.6465 23.593L47.4325 14.122C48.1995 12.8664 49.571 12.0996 51.0497 12.0996H68.4693C69.8386 12.0996 70.9955 13.1081 71.1732 14.4565L71.6156 22.0348L115.045 22.164L120.508 40.0457L115.437 39.8001L115.697 45.224L109.065 45.4822L106.855 39.2742C106.439 38.1053 104.615 36.7872 102.719 35.6844C98.4684 33.2123 93.008 34.0057 89.7916 37.7106C89.0328 38.5845 88.5024 39.4952 88.3541 40.349L87.3509 46.1279L38.7209 45.3531L32.3475 36.4985C30.4645 34.4633 21.5756 33.7158 20.7751 36.4985L15.9662 43.5451L12.1304 43.3514Z" fill="#E6E6E6"/>
<path d="M65.5068 17.7095L67.0351 24.6602L47.5903 25.0622L51.6971 16.5557C52.0697 15.784 52.8875 15.3049 53.7691 15.3418L63.0868 15.7327C64.2664 15.7822 65.2618 16.5953 65.5068 17.7095Z" fill="white"/>
<path d="M45.7864 24.518L49.2106 14.7176L48.3141 13.7197L42.729 23.1569L43.8638 25.0625L45.7864 24.518Z" fill="white"/>
<path d="M97.8222 55.8498C102.297 55.8498 105.924 51.8596 105.924 46.9376C105.924 42.0155 102.297 38.0254 97.8222 38.0254C93.3476 38.0254 89.7202 42.0155 89.7202 46.9376C89.7202 51.8596 93.3476 55.8498 97.8222 55.8498Z" fill="#3F3D56"/>
<path d="M91.3408 46.938C91.3408 43.8108 94.2484 41.2666 97.8224 41.2666C101.396 41.2666 104.304 43.8108 104.304 46.938C104.304 50.0652 101.396 52.6094 97.8224 52.6094C94.2484 52.6094 91.3408 50.0652 91.3408 46.938ZM91.4833 46.938C91.4833 49.9964 94.327 52.4847 97.8224 52.4847C101.318 52.4847 104.162 49.9964 104.162 46.938C104.162 43.8795 101.318 41.3912 97.8224 41.3912C94.327 41.3912 91.4833 43.8795 91.4833 46.938Z" fill="white"/>
<path d="M92.9609 46.938C92.9609 50.0702 95.1374 52.6094 97.8221 52.6094C100.507 52.6094 102.683 50.0702 102.683 46.938C102.683 43.8058 100.507 41.2666 97.8221 41.2666C95.1374 41.2666 92.9609 43.8058 92.9609 46.938ZM100.982 45.5799L100.121 46.2348L99.7898 45.6424L100.982 45.5799ZM99.6708 48.9107L99.9002 48.2562L100.622 49.3646L99.6708 48.9107ZM97.4654 51.1552L98.0714 49.9557V51.1552H97.4654ZM97.4654 44.2111L98.0714 43.0116V44.2111H97.4654ZM94.7725 49.3646L95.4948 48.2562L95.7241 48.9107L94.7725 49.3646ZM94.4129 45.5799L95.6051 45.6424L95.2742 46.2348L94.4129 45.5799Z" fill="#E6E6E6"/>
<path d="M25.7144 55.8498C30.6365 55.8498 34.6266 51.8596 34.6266 46.9376C34.6266 42.0155 30.6365 38.0254 25.7144 38.0254C20.7924 38.0254 16.8022 42.0155 16.8022 46.9376C16.8022 51.8596 20.7924 55.8498 25.7144 55.8498Z" fill="#3F3D56"/>
<path d="M20.0435 46.938C20.0435 43.8108 22.5876 41.2666 25.7148 41.2666C28.8421 41.2666 31.3862 43.8108 31.3862 46.938C31.3862 50.0652 28.8421 52.6094 25.7148 52.6094C22.5876 52.6094 20.0435 50.0652 20.0435 46.938ZM20.1681 46.938C20.1681 49.9964 22.6563 52.4847 25.7148 52.4847C28.7734 52.4847 31.2616 49.9964 31.2616 46.938C31.2616 43.8795 28.7734 41.3912 25.7148 41.3912C22.6563 41.3912 20.1681 43.8795 20.1681 46.938Z" fill="white"/>
<path d="M20.0435 46.938C20.0435 50.0702 22.5826 52.6094 25.7148 52.6094C28.8471 52.6094 31.3862 50.0702 31.3862 46.938C31.3862 43.8058 28.8471 41.2666 25.7148 41.2666C22.5826 41.2666 20.0435 43.8058 20.0435 46.938ZM29.4014 45.5799L28.3966 46.2348L28.0105 45.6424L29.4014 45.5799ZM27.8717 48.9107L28.1393 48.2562L28.9819 49.3646L27.8717 48.9107ZM25.2986 51.1552L26.0057 49.9557V51.1552H25.2986ZM25.2986 44.2111L26.0057 43.0116V44.2111H25.2986ZM22.157 49.3646L22.9996 48.2562L23.2672 48.9107L22.157 49.3646ZM21.7374 45.5799L23.1283 45.6424L22.7423 46.2348L21.7374 45.5799Z" fill="#E6E6E6"/>
<path d="M62.1735 28.3027H67.0347V26.6823H62.1735V28.3027Z" fill="#3F3D56"/>
<path d="M131.468 49.0125C131.422 48.8707 131.071 48.9331 131.037 48.8063C131.004 48.6799 131.34 48.574 131.599 48.2178C131.645 48.1536 131.938 47.7489 131.826 47.5787C131.613 47.256 130.129 48.0596 129.773 47.6087C129.695 47.5097 129.663 47.3398 129.43 47.0236C129.337 46.8978 129.278 46.8371 129.207 46.8389C129.106 46.8415 129.07 46.9677 128.912 47.1963C128.674 47.5391 128.589 47.4961 128.432 47.777C128.316 47.9856 128.302 48.1188 128.219 48.1267C128.1 48.1378 128.051 47.8781 127.906 47.8681C127.759 47.8578 127.611 48.1143 127.538 48.3148C127.4 48.6909 127.485 48.9784 127.504 49.2649C127.525 49.5763 127.476 50.0321 127.139 50.6171L123.952 55.7013C124.636 54.6649 126.579 51.8386 127.362 50.8019C127.588 50.5026 127.83 50.2021 128.204 50.1455C128.564 50.0911 129.002 50.2694 129.613 50.259C129.684 50.2578 129.883 50.2519 129.931 50.1465C129.971 50.0593 129.872 49.9835 129.908 49.9016C129.956 49.7917 130.174 49.8389 130.47 49.7659C130.68 49.7144 130.822 49.6294 130.944 49.5563C130.981 49.5342 131.53 49.2013 131.468 49.0125Z" fill="#F2F2F2"/>
<path d="M123.12 50.2C123.037 50.1818 122.966 50.3722 122.895 50.3522C122.823 50.3322 122.868 50.1362 122.768 49.9066C122.75 49.8652 122.636 49.6043 122.52 49.6105C122.301 49.6222 122.267 50.5832 121.943 50.6281C121.872 50.638 121.779 50.6048 121.557 50.628C121.469 50.6372 121.422 50.6489 121.402 50.6843C121.374 50.7345 121.426 50.7887 121.492 50.9325C121.592 51.1481 121.546 51.1778 121.638 51.3357C121.707 51.453 121.769 51.4982 121.748 51.5416C121.719 51.6031 121.578 51.5522 121.531 51.6205C121.484 51.6901 121.567 51.8368 121.644 51.9307C121.789 52.1068 121.954 52.1479 122.1 52.2213C122.258 52.301 122.468 52.4562 122.657 52.7911L124.229 55.8242C123.919 55.1888 123.094 53.4186 122.812 52.7348C122.731 52.5374 122.653 52.3313 122.733 52.1313C122.811 51.9388 123.024 51.775 123.195 51.4717C123.215 51.4363 123.27 51.337 123.232 51.2828C123.201 51.238 123.135 51.2649 123.105 51.2235C123.066 51.168 123.151 51.0747 123.201 50.9078C123.236 50.7901 123.236 50.6957 123.235 50.6145C123.235 50.5901 123.23 50.2242 123.12 50.2Z" fill="#F2F2F2"/>
<path d="M124.686 50.9407L124.735 50.4837L124.766 50.455C124.906 50.3223 124.994 50.1817 125.027 50.0369C125.032 50.0139 125.036 49.9906 125.04 49.9669C125.057 49.873 125.077 49.7562 125.167 49.6349C125.218 49.5673 125.351 49.4145 125.489 49.4679C125.526 49.4818 125.551 49.506 125.569 49.5316C125.573 49.5271 125.577 49.5227 125.582 49.5179C125.642 49.46 125.683 49.4388 125.723 49.4183C125.754 49.4026 125.786 49.3865 125.84 49.3433C125.863 49.3244 125.882 49.3074 125.898 49.2931C125.947 49.2499 126.008 49.1993 126.093 49.2194C126.183 49.2439 126.214 49.3297 126.234 49.3864C126.27 49.4877 126.282 49.5573 126.289 49.6035C126.292 49.6203 126.295 49.6393 126.297 49.6455C126.317 49.6951 126.563 49.7079 126.656 49.7133C126.865 49.7246 127.045 49.7344 127.089 49.8774C127.12 49.9798 127.055 50.0914 126.89 50.218C126.839 50.2573 126.788 50.2845 126.743 50.3048C126.77 50.3309 126.792 50.3663 126.794 50.4145C126.797 50.5286 126.68 50.6161 126.446 50.6752C126.388 50.69 126.31 50.7096 126.208 50.7047C126.16 50.7023 126.118 50.6949 126.082 50.688C126.077 50.7085 126.067 50.7298 126.049 50.75C125.997 50.8096 125.913 50.8248 125.799 50.7912C125.674 50.7561 125.574 50.7084 125.486 50.6664C125.41 50.6299 125.344 50.5986 125.288 50.5901C125.185 50.5756 125.089 50.6394 124.974 50.7242L124.686 50.9407Z" fill="#F2F2F2"/>
<path d="M125.509 48.3367L125.055 48.4048L125.02 48.3827C124.856 48.2805 124.698 48.2312 124.55 48.236C124.526 48.2368 124.503 48.2387 124.479 48.2407C124.384 48.2487 124.266 48.2586 124.126 48.202C124.048 48.1702 123.866 48.0796 123.883 47.9327C123.887 47.8931 123.904 47.8627 123.924 47.8393C123.919 47.8362 123.914 47.833 123.908 47.8295C123.837 47.7866 123.806 47.7517 123.776 47.718C123.753 47.6922 123.729 47.6654 123.674 47.6242C123.649 47.6062 123.628 47.5922 123.61 47.5804C123.556 47.5445 123.492 47.4975 123.49 47.4104C123.491 47.3172 123.566 47.2656 123.615 47.2314C123.704 47.1704 123.768 47.1419 123.811 47.123C123.827 47.1161 123.844 47.1083 123.85 47.1045C123.892 47.0729 123.842 46.8307 123.824 46.7395C123.782 46.5346 123.746 46.3572 123.873 46.2789C123.964 46.2228 124.088 46.2574 124.252 46.3848C124.303 46.4245 124.342 46.4673 124.373 46.5055C124.392 46.4722 124.42 46.442 124.466 46.4285C124.576 46.3966 124.69 46.4876 124.806 46.6989C124.835 46.7513 124.874 46.8219 124.895 46.9221C124.905 46.9693 124.909 47.012 124.911 47.0486C124.932 47.0485 124.955 47.0527 124.979 47.0647C125.05 47.0999 125.086 47.1774 125.082 47.2962C125.08 47.427 125.06 47.5353 125.041 47.6309C125.025 47.7144 125.012 47.7863 125.018 47.8421C125.03 47.9456 125.116 48.0226 125.227 48.1125L125.509 48.3367Z" fill="#F2F2F2"/>
<path d="M125.572 46.9719L125.622 46.515L125.652 46.4863C125.792 46.3535 125.88 46.2129 125.913 46.0682C125.918 46.0452 125.922 46.0219 125.926 45.9982C125.943 45.9042 125.963 45.7874 126.053 45.6661C126.104 45.5985 126.237 45.4458 126.375 45.4991C126.412 45.5131 126.437 45.5372 126.455 45.5628C126.459 45.5584 126.464 45.5539 126.468 45.5491C126.528 45.4912 126.569 45.47 126.61 45.4496C126.64 45.4339 126.672 45.4177 126.726 45.3746C126.75 45.3557 126.769 45.3387 126.784 45.3244C126.833 45.2812 126.895 45.2306 126.979 45.2506C127.069 45.2752 127.1 45.3609 127.12 45.4177C127.157 45.5189 127.168 45.5886 127.175 45.6347C127.178 45.6516 127.181 45.6706 127.183 45.6768C127.203 45.7263 127.45 45.7392 127.543 45.7445C127.751 45.7559 127.932 45.7657 127.975 45.9087C128.006 46.011 127.941 46.1226 127.776 46.2492C127.725 46.2886 127.674 46.3158 127.629 46.3361C127.657 46.3621 127.679 46.3975 127.68 46.4457C127.683 46.5598 127.566 46.6474 127.333 46.7064C127.275 46.7212 127.196 46.7409 127.094 46.7359C127.046 46.7335 127.004 46.7262 126.968 46.7193C126.963 46.7398 126.953 46.7611 126.935 46.7813C126.883 46.8409 126.799 46.856 126.686 46.8224C126.56 46.7873 126.46 46.7396 126.373 46.6977C126.296 46.6611 126.23 46.6299 126.175 46.6213C126.072 46.6069 125.975 46.6706 125.86 46.7554L125.572 46.9719Z" fill="#F2F2F2"/>
<path d="M124.103 55.7284L124.023 55.649L123.912 55.6372C123.912 55.6267 123.911 55.6021 123.911 55.5638C123.906 55.3536 123.893 54.7138 123.982 53.7308C124.044 53.0445 124.148 52.348 124.29 51.6601C124.433 50.9711 124.581 50.4585 124.701 50.0465C124.79 49.7357 124.881 49.441 124.97 49.1539C125.206 48.3868 125.429 47.6622 125.567 46.8357C125.598 46.6512 125.662 46.2671 125.531 45.8138C125.455 45.5509 125.324 45.3035 125.143 45.0785L125.318 44.9365C125.518 45.1851 125.663 45.4591 125.747 45.751C125.893 46.2536 125.823 46.6721 125.79 46.8732C125.649 47.7143 125.424 48.4458 125.185 49.2203C125.097 49.5064 125.007 49.7998 124.917 50.1093C124.799 50.5175 124.652 51.0257 124.511 51.7058C124.37 52.3855 124.268 53.0735 124.206 53.7511C124.119 54.7217 124.132 55.352 124.136 55.559C124.138 55.6696 124.139 55.6927 124.103 55.7284Z" fill="#F2F2F2"/>
<path d="M124.656 45.338C124.647 45.336 124.638 45.3337 124.629 45.331C124.443 45.279 124.295 45.1279 124.187 44.8819C124.136 44.7662 124.124 44.6444 124.101 44.4016C124.097 44.3642 124.08 44.1747 124.101 43.9237C124.114 43.7596 124.132 43.6937 124.176 43.642C124.226 43.5843 124.292 43.5513 124.363 43.5348C124.365 43.513 124.372 43.4918 124.386 43.4717C124.444 43.3881 124.541 43.4225 124.594 43.4403C124.62 43.4499 124.653 43.462 124.69 43.4683C124.749 43.4784 124.784 43.4681 124.837 43.4528C124.887 43.4381 124.95 43.4198 125.037 43.4214C125.208 43.4237 125.335 43.5009 125.377 43.5263C125.597 43.6589 125.673 43.8704 125.761 44.1154C125.779 44.1645 125.837 44.342 125.851 44.5705C125.86 44.7354 125.839 44.8029 125.814 44.8512C125.763 44.9504 125.686 44.9964 125.494 45.0932C125.293 45.1946 125.193 45.2453 125.11 45.2714C124.918 45.3317 124.798 45.3697 124.656 45.338Z" fill="#F2F2F2"/>
<path d="M66.4369 54.5477L68.2507 54.5475L69.1136 47.541L66.4365 47.5412L66.4369 54.5477Z" fill="#FFB6B6"/>
<path d="M72.6526 54.5065C72.709 54.6017 72.7388 54.9092 72.7388 55.0199C72.7388 55.3604 72.4632 55.6365 72.1232 55.6365L66.506 55.6365C66.2741 55.6365 66.086 55.4482 66.086 55.2159V54.9817C66.086 54.9817 65.8081 54.2778 66.3802 53.4102C66.3802 53.4102 67.0913 54.0895 68.1538 53.0255L68.4671 52.457L70.7351 54.1182L71.9922 54.2731C72.2672 54.307 72.5111 54.2679 72.6526 54.5065Z" fill="#2F2E41"/>
<path d="M58.2811 54.5477L60.0949 54.5475L60.9578 47.541L58.2808 47.5412L58.2811 54.5477Z" fill="#FFB6B6"/>
<path d="M64.4973 54.5065C64.5538 54.6017 64.5836 54.9092 64.5836 55.0199C64.5836 55.3604 64.3079 55.6365 63.9679 55.6365L58.3507 55.6365C58.1188 55.6365 57.9308 55.4482 57.9308 55.2159V54.9817C57.9308 54.9817 57.6529 54.2778 58.225 53.4102C58.225 53.4102 58.936 54.0895 59.9985 53.0255L60.3118 52.457L62.5798 54.1182L63.8369 54.2731C64.1119 54.307 64.3558 54.2679 64.4973 54.5065Z" fill="#2F2E41"/>
<path d="M66.1456 6.70479L66.4899 9.92334L62.4727 9.5785L63.1613 6.58984L66.1456 6.70479Z" fill="#FFB6B6"/>
<path opacity="0.1" d="M66.1456 6.70479L66.4899 9.92334L62.4727 9.5785L63.1613 6.58984L66.1456 6.70479Z" fill="black"/>
<path d="M64.7078 7.10793C66.1658 7.10793 67.3477 5.92426 67.3477 4.46412C67.3477 3.00399 66.1658 1.82031 64.7078 1.82031C63.2498 1.82031 62.0679 3.00399 62.0679 4.46412C62.0679 5.92426 63.2498 7.10793 64.7078 7.10793Z" fill="#FFB6B6"/>
<path d="M66.4298 8.60197L70.8488 11.1883L69.401 18.2001L70.3897 27.6259L69.701 50.7305L65.4542 50.2707L64.8803 30.6146L61.5517 50.9604H57.4277L58.1083 29.0053L60.1743 19.6945L58.9117 9.57903L62.7569 8.37207L66.4298 8.60197Z" fill="#2F2E41"/>
<path d="M66.6025 5.21116C66.6025 5.21116 66.8321 4.40652 67.3486 4.464C67.8651 4.52147 67.9799 4.06168 67.8651 3.83178C67.7503 3.60189 67.5208 2.4524 67.5208 2.4524C67.5208 2.4524 67.6355 1.64777 66.9469 1.53282C66.2582 1.41787 66.0286 1.30292 65.9138 1.07303C65.7991 0.843128 64.0774 0.613233 63.5035 0.958077C62.9296 1.30292 62.4704 1.96455 62.0687 2.151C61.667 2.33746 61.3226 2.6823 61.5522 3.25704C61.7818 3.83178 62.1147 4.95585 62.1147 4.95585C62.1147 4.95585 62.7 4.75137 62.8148 5.09621C62.9296 5.44106 62.4704 4.98127 63.0443 4.06168C63.6182 3.14209 63.6182 2.22251 64.5365 2.56735C65.4547 2.9122 66.4877 2.79725 66.373 3.48694C66.2582 4.17663 66.6025 5.21116 66.6025 5.21116Z" fill="#2F2E41"/>
<path d="M68.5689 25.5646C68.0164 26.1504 67.8704 26.9108 68.2427 27.2628C68.6151 27.6149 69.3646 27.4253 69.9172 26.8392C70.1412 26.6081 70.3066 26.3266 70.3997 26.0184L72.7092 23.5066L71.5091 22.4463L69.3597 25.0351C69.0577 25.1458 68.7865 25.3273 68.5689 25.5646Z" fill="#FFB6B6"/>
<path d="M70.8062 11.1318L74.6956 17.7678L75.2717 20.7973L71.5265 25.5578L69.9419 23.5382L71.8146 20.7973L68.7896 15.4596L70.8062 11.1318Z" fill="#2F2E41"/>
<path d="M59.8662 24.9468V17.1226C59.8662 15.9301 60.8349 14.96 62.0257 14.96H73.9683C75.1591 14.96 76.1278 15.9301 76.1278 17.1226V24.9468C76.1278 26.1393 75.1591 27.1094 73.9683 27.1094H62.0257C60.8349 27.1094 59.8662 26.1393 59.8662 24.9468Z" fill="#F9A826"/>
<path d="M65.6738 19.8984H69.8037V18.8644H65.6738V19.8984Z" fill="#3F3D56"/>
<path d="M69.4619 27.0397V24.9717H66.1063V27.0397H69.4619Z" fill="#3F3D56"/>
<path d="M69.6201 17.0973V15.0293H66.2645V17.0973H69.6201Z" fill="#3F3D56"/>
<path d="M61.0759 24.0704C61.6284 24.6563 61.7744 25.4166 61.4021 25.7687C61.0297 26.1207 60.2801 25.9312 59.7276 25.345C59.5036 25.1139 59.3382 24.8325 59.2451 24.5242L56.9355 22.0124L58.1356 20.9521L60.2851 23.5409C60.5871 23.6516 60.8583 23.8332 61.0759 24.0704Z" fill="#FFB6B6"/>
<path d="M58.8439 9.63672L54.9546 16.2727L54.3784 19.3021L58.1237 24.0627L59.7082 22.0431L57.8356 19.3021L60.8606 13.9645L58.8439 9.63672Z" fill="#2F2E41"/>
<path d="M10.3209 41.2658C12.1107 41.2658 13.5617 39.8148 13.5617 38.025C13.5617 36.2351 12.1107 34.7842 10.3209 34.7842C8.53103 34.7842 7.08008 36.2351 7.08008 38.025C7.08008 39.8148 8.53103 41.2658 10.3209 41.2658Z" fill="#E6E6E6"/>
</svg>
