<svg width="98" height="64" viewBox="0 0 98 64" fill="none" xmlns="http://www.w3.org/2000/svg">
<g clip-path="url(#clip0_6275_1534)">
<path d="M7.6356 58.9524C6.32823 58.5872 5.77033 60.595 7.0744 60.9719C8.3817 61.3371 8.9396 59.3293 7.6356 58.9524Z" fill="#3F3D56"/>
<path d="M14.8829 61.5364C13.5755 61.1711 13.0176 63.179 14.3217 63.5559C15.629 63.9211 16.1869 61.9133 14.8829 61.5364Z" fill="#3F3D56"/>
<path d="M17.8172 40.3593L17.797 40.3536L14.4296 49.5998L13.9856 49.4735L17.3772 40.1611C17.3845 40.0175 17.4402 39.8809 17.5349 39.7738C17.6297 39.6666 17.7578 39.5955 17.898 39.5722C19.5821 39.3029 20.2647 40.8147 20.2647 40.8147L20.258 40.8248L16.8151 50.2779L16.3712 50.1517L19.7127 40.9767C18.6954 39.9592 17.8172 40.3593 17.8172 40.3593Z" fill="#3F3D56"/>
<path d="M13.9247 62.0553C11.9398 62.0247 9.4852 60.9399 7.81161 60.1267C7.36827 59.9118 7.01424 59.5454 6.81196 59.0922C6.60968 58.639 6.57215 58.1282 6.706 57.6497L8.87501 49.8454C8.9718 49.4995 9.13712 49.1771 9.36093 48.8979C9.58473 48.6187 9.86235 48.3884 10.1769 48.221C10.4821 48.0569 10.8175 47.9583 11.1622 47.9314C11.5068 47.9044 11.8532 47.9498 12.1797 48.0646C12.2572 48.0998 14.3643 48.6963 15.7587 49.0909C16.579 49.3231 17.1717 49.4909 17.2113 49.5044C17.2442 49.5153 18.7183 50.0276 18.4567 51.8288C18.2558 53.2121 16.7393 58.3096 16.0967 60.4371C15.957 60.9021 15.6742 61.3098 15.2895 61.6009C14.9047 61.892 14.4382 62.0513 13.9577 62.0555C13.9468 62.0555 13.9357 62.0554 13.9247 62.0553Z" fill="#F9A826"/>
<path d="M7.76332 58.84L10.5753 49.214L17.188 51.104L17.2275 50.9627L10.4767 49.0332L10.4564 49.1028L7.62402 58.7984L7.76332 58.84Z" fill="#3F3D56"/>
<path d="M97.0757 2.35547H39.1526V30.153H97.0757V2.35547Z" fill="#E5E5E5"/>
<path d="M95.4858 4.74023H40.8752V27.9326H95.4858V4.74023Z" fill="white"/>
<path d="M97.0513 0.75H39.1282V3.23868H97.0513V0.75Z" fill="#F9A826"/>
<path d="M40.9541 2.45086C41.206 2.45086 41.4102 2.24434 41.4102 1.98959C41.4102 1.73484 41.206 1.52832 40.9541 1.52832C40.7022 1.52832 40.498 1.73484 40.498 1.98959C40.498 2.24434 40.7022 2.45086 40.9541 2.45086Z" fill="white"/>
<path d="M42.6849 2.45086C42.9367 2.45086 43.1409 2.24434 43.1409 1.98959C43.1409 1.73484 42.9367 1.52832 42.6849 1.52832C42.433 1.52832 42.2288 1.73484 42.2288 1.98959C42.2288 2.24434 42.433 2.45086 42.6849 2.45086Z" fill="white"/>
<path d="M44.42 2.45086C44.6718 2.45086 44.876 2.24434 44.876 1.98959C44.876 1.73484 44.6718 1.52832 44.42 1.52832C44.1681 1.52832 43.9639 1.73484 43.9639 1.98959C43.9639 2.24434 44.1681 2.45086 44.42 2.45086Z" fill="white"/>
<path d="M66.6561 16.0142C66.6574 17.0635 66.4723 18.1045 66.1098 19.0877C65.9452 19.538 65.7433 19.9734 65.5061 20.3894C64.7439 21.7346 63.6439 22.8524 62.3174 23.6298C60.991 24.4072 59.4851 24.8166 57.952 24.8166C56.419 24.8166 54.9131 24.4072 53.5866 23.6298C52.2602 22.8524 51.1602 21.7346 50.3979 20.3894C50.3208 20.2541 50.2476 20.1168 50.1784 19.9774C49.5867 18.7905 49.2685 17.4834 49.2477 16.1542C49.2268 14.8251 49.5038 13.5085 50.0579 12.3031C50.6121 11.0977 51.4289 10.0349 52.4471 9.19433C53.4654 8.35379 54.6586 7.75737 55.9373 7.44981C57.216 7.14226 58.547 7.13155 59.8304 7.4185C61.1137 7.70544 62.3162 8.28259 63.3476 9.10664C64.3789 9.93069 65.2123 10.9802 65.7853 12.1766C66.3583 13.3729 66.656 14.6849 66.6561 16.0142Z" fill="#F1F1F1"/>
<path d="M58.4043 17.5006C59.3233 17.5006 60.0683 16.7471 60.0683 15.8177C60.0683 14.8882 59.3233 14.1348 58.4043 14.1348C57.4853 14.1348 56.7402 14.8882 56.7402 15.8177C56.7402 16.7471 57.4853 17.5006 58.4043 17.5006Z" fill="#F9A826"/>
<path d="M50.1777 19.9769C50.9109 19.1756 51.891 17.9033 52.8102 18.8226C53.2716 19.2562 53.9936 20.3307 54.6847 19.6283L60.0818 14.1699C60.1834 14.0685 60.304 13.9886 60.4366 13.9349C60.5692 13.8813 60.711 13.855 60.8538 13.8576C60.9965 13.8602 61.1373 13.8916 61.2679 13.95C61.3985 14.0084 61.5162 14.0926 61.6142 14.1977L66.1091 19.0871C65.9445 19.5374 65.7426 19.9729 65.5055 20.3888H50.3973L50.1777 19.9769Z" fill="white"/>
<path d="M84.4292 14.2891C84.3696 14.2891 84.3124 14.313 84.2702 14.3557C84.228 14.3983 84.2043 14.4562 84.2043 14.5165C84.2043 14.5768 84.228 14.6346 84.2702 14.6773C84.3124 14.7199 84.3696 14.7439 84.4292 14.7439H86.7888C86.8485 14.7439 86.9057 14.7199 86.9478 14.6773C86.99 14.6346 87.0137 14.5768 87.0137 14.5165C87.0137 14.4562 86.99 14.3983 86.9478 14.3557C86.9057 14.313 86.8485 14.2891 86.7888 14.2891H84.4292Z" fill="#F9A826"/>
<path d="M73.7983 10.9482C73.7688 10.9482 73.7395 10.954 73.7121 10.9654C73.6848 10.9768 73.66 10.9936 73.639 11.0147C73.6181 11.0358 73.6015 11.0609 73.5902 11.0885C73.5788 11.1161 73.573 11.1458 73.573 11.1757C73.573 11.2056 73.5788 11.2352 73.5902 11.2628C73.6015 11.2904 73.6181 11.3155 73.639 11.3366C73.66 11.3578 73.6848 11.3745 73.7121 11.3859C73.7395 11.3973 73.7688 11.4031 73.7983 11.4031H86.892C86.9515 11.4029 87.0086 11.3789 87.0507 11.3363C87.0927 11.2937 87.1164 11.2359 87.1164 11.1757C87.1164 11.1154 87.0927 11.0577 87.0507 11.015C87.0086 10.9724 86.9515 10.9484 86.892 10.9482H73.7983Z" fill="#E5E5E5"/>
<path d="M73.7983 12.6201C73.7688 12.6201 73.7395 12.6259 73.7121 12.6373C73.6848 12.6487 73.66 12.6654 73.639 12.6866C73.6181 12.7077 73.6015 12.7328 73.5902 12.7604C73.5788 12.788 73.573 12.8176 73.573 12.8475C73.573 12.8774 73.5788 12.9071 73.5902 12.9347C73.6015 12.9623 73.6181 12.9874 73.639 13.0085C73.66 13.0296 73.6848 13.0464 73.7121 13.0578C73.7395 13.0692 73.7688 13.075 73.7983 13.075H86.892C86.9515 13.0748 87.0086 13.0508 87.0507 13.0082C87.0927 12.9655 87.1164 12.9078 87.1164 12.8475C87.1164 12.7873 87.0927 12.7295 87.0507 12.6869C87.0086 12.6443 86.9515 12.6202 86.892 12.6201H73.7983Z" fill="#E5E5E5"/>
<path d="M84.4287 25.0068C84.3692 25.007 84.3121 25.031 84.27 25.0736C84.228 25.1162 84.2043 25.174 84.2043 25.2343C84.2043 25.2945 84.228 25.3523 84.27 25.3949C84.3121 25.4375 84.3692 25.4615 84.4287 25.4617H86.7884C86.8179 25.4617 86.8472 25.4559 86.8746 25.4445C86.9019 25.4331 86.9267 25.4164 86.9477 25.3952C86.9686 25.3741 86.9852 25.349 86.9965 25.3214C87.0079 25.2938 87.0137 25.2642 87.0137 25.2343C87.0137 25.2043 87.0079 25.1747 86.9965 25.1471C86.9852 25.1195 86.9686 25.0944 86.9477 25.0733C86.9267 25.0521 86.9019 25.0354 86.8746 25.024C86.8472 25.0126 86.8179 25.0068 86.7884 25.0068H84.4287Z" fill="#F9A826"/>
<path d="M73.7979 21.666C73.7382 21.666 73.681 21.69 73.6389 21.7326C73.5967 21.7753 73.573 21.8331 73.573 21.8934C73.573 21.9537 73.5967 22.0116 73.6389 22.0542C73.681 22.0969 73.7382 22.1209 73.7979 22.1209H86.8915C86.9511 22.1209 87.0083 22.0969 87.0505 22.0542C87.0927 22.0116 87.1164 21.9537 87.1164 21.8934C87.1164 21.8331 87.0927 21.7753 87.0505 21.7326C87.0083 21.69 86.9511 21.666 86.8915 21.666H73.7979Z" fill="#E5E5E5"/>
<path d="M73.7983 23.335C73.7688 23.3349 73.7395 23.3407 73.7121 23.3521C73.6848 23.3635 73.66 23.3803 73.639 23.4014C73.6181 23.4225 73.6015 23.4476 73.5902 23.4752C73.5788 23.5029 73.573 23.5325 73.573 23.5624C73.573 23.5923 73.5788 23.6219 73.5902 23.6495C73.6015 23.6771 73.6181 23.7022 73.639 23.7234C73.66 23.7445 73.6848 23.7612 73.7121 23.7726C73.7395 23.784 73.7688 23.7899 73.7983 23.7898H86.892C86.9516 23.7898 87.0088 23.7658 87.051 23.7232C87.0931 23.6805 87.1168 23.6227 87.1168 23.5624C87.1168 23.5021 87.0931 23.4442 87.051 23.4016C87.0088 23.3589 86.9516 23.335 86.892 23.335H73.7983Z" fill="#E5E5E5"/>
<path d="M81.6606 8.40162H80.9515L80.3429 7.51953H80.0853L80.391 8.40162H79.6972L79.4125 8.11366H79.1716L79.2919 8.6464L79.1716 9.1121H79.4125L79.6972 8.82413L79.7017 8.81653H80.399L80.0853 9.72187H80.3429L80.954 8.83614L80.9612 8.81653H81.6606C81.715 8.81653 81.7672 8.79468 81.8056 8.75577C81.8441 8.71687 81.8657 8.6641 81.8657 8.60908C81.8657 8.55406 81.8441 8.50129 81.8056 8.46239C81.7672 8.42348 81.715 8.40162 81.6606 8.40162Z" fill="#E5E5E5"/>
<path d="M81.056 19.9104H79.9356C79.8352 19.9103 79.7391 19.8699 79.6681 19.7982C79.5972 19.7264 79.5572 19.6292 79.5571 19.5277V18.4969C79.5568 18.4283 79.5788 18.3616 79.6197 18.307C79.6607 18.2524 79.7184 18.213 79.7837 18.1949C80.2495 18.0701 80.7394 18.0705 81.205 18.1959C81.271 18.2136 81.3294 18.2529 81.3709 18.3077C81.4124 18.3626 81.4347 18.4298 81.4344 18.4988V19.5277C81.4343 19.6292 81.3944 19.7264 81.3234 19.7982C81.2525 19.8699 81.1563 19.9103 81.056 19.9104Z" fill="#E5E5E5"/>
<path d="M81.2214 18.5342H79.7747V19.0829H81.2214V18.5342Z" fill="white"/>
<path d="M79.9555 19.6324C80.0554 19.6324 80.1363 19.5505 80.1363 19.4495C80.1363 19.3485 80.0554 19.2666 79.9555 19.2666C79.8556 19.2666 79.7747 19.3485 79.7747 19.4495C79.7747 19.5505 79.8556 19.6324 79.9555 19.6324Z" fill="white"/>
<path d="M81.0383 19.6324C81.1381 19.6324 81.2191 19.5505 81.2191 19.4495C81.2191 19.3485 81.1381 19.2666 81.0383 19.2666C80.9384 19.2666 80.8574 19.3485 80.8574 19.4495C80.8574 19.5505 80.9384 19.6324 81.0383 19.6324Z" fill="white"/>
<path d="M81.3604 20.4329H79.6145L80.0273 20.085H80.9476L81.3604 20.4329ZM79.886 20.3335H81.089L80.912 20.1844H80.0629L79.886 20.3335Z" fill="#E5E5E5"/>
<path d="M81.4517 19.9793H79.5251C79.4977 19.9793 79.4715 19.9683 79.4521 19.9487C79.4327 19.9291 79.4219 19.9026 79.4219 19.8749C79.4219 19.8472 79.4327 19.8207 79.4521 19.8011C79.4715 19.7815 79.4977 19.7705 79.5251 19.7705H81.4517C81.4791 19.7705 81.5053 19.7815 81.5247 19.8011C81.544 19.8207 81.5549 19.8472 81.5549 19.8749C81.5549 19.9026 81.544 19.9291 81.5247 19.9487C81.5053 19.9683 81.4791 19.9793 81.4517 19.9793Z" fill="#E5E5E5"/>
<path d="M19.4663 41.1403C19.527 41.0152 19.5599 40.8781 19.5626 40.7387C19.5653 40.5993 19.5378 40.4611 19.4819 40.3336C19.426 40.2062 19.3432 40.0927 19.2393 40.0011C19.1354 39.9095 19.0129 39.8421 18.8804 39.8036L18.6991 36.4199L17.2996 37.4674L17.6863 40.52C17.637 40.7494 17.6727 40.9891 17.7866 41.1936C17.9004 41.3981 18.0844 41.5533 18.3038 41.6298C18.5233 41.7062 18.7628 41.6986 18.977 41.6084C19.1913 41.5182 19.3653 41.3517 19.4663 41.1403Z" fill="#FFB7B7"/>
<path d="M30.3123 41.7709C30.2332 41.6567 30.1798 41.5264 30.1559 41.3891C30.132 41.2518 30.1381 41.1109 30.1739 40.9763C30.2097 40.8416 30.2742 40.7166 30.3629 40.6099C30.4516 40.5032 30.5624 40.4175 30.6874 40.3588L30.3507 36.9873L31.8932 37.8041L31.9765 40.8805C32.0601 41.0994 32.0613 41.3418 31.9801 41.5616C31.8988 41.7815 31.7406 41.9635 31.5354 42.0732C31.3303 42.183 31.0925 42.2128 30.8671 42.1571C30.6416 42.1014 30.4442 41.964 30.3123 41.7709Z" fill="#FFB7B7"/>
<path d="M22.0781 62.4974L23.1801 62.4973L23.7044 58.1982H22.0779L22.0781 62.4974Z" fill="#FFB7B7"/>
<path d="M21.7991 62.1339L23.9694 62.1338C24.3363 62.1338 24.6881 62.2812 24.9475 62.5435C25.2069 62.8058 25.3526 63.1616 25.3527 63.5326V63.5781L21.7991 63.5782L21.7991 62.1339Z" fill="#2F2E41"/>
<path d="M27.6438 61.8277L28.7214 62.0612L30.1248 57.9686L28.5344 57.624L27.6438 61.8277Z" fill="#FFB7B7"/>
<path d="M27.4466 61.4121L29.5688 61.872C29.9275 61.9497 30.241 62.1684 30.4403 62.4799C30.6396 62.7914 30.7084 63.1701 30.6315 63.5329L30.6221 63.5773L27.1475 62.8244L27.4466 61.4121Z" fill="#2F2E41"/>
<path d="M20.0921 37.8945C20.0921 37.8945 18.9196 41.5593 20.0679 45.7036L21.2366 50.6679L21.5266 61.6524L23.8933 60.8841L24.8575 44.1295L29.2986 51.7533L26.9612 60.8841L29.6492 60.9728L32.5519 51.0982L29.9998 41.8837L29.5323 39.638L20.0921 37.8945Z" fill="#2F2E41"/>
<path d="M29.6721 25.724L27.3181 24.367L23.2456 24.1289L20.4208 25.6288L21.5688 33.594C21.5688 33.594 19.3793 36.772 20.1776 38.8894C21.1628 41.5029 29.7782 42.8662 29.6097 40.3158C29.3438 36.2908 28.9331 36.5684 28.632 34.5947C28.3016 32.4291 30.6137 29.6522 30.6137 29.6522L29.6721 25.724Z" fill="#CBCBCB"/>
<path d="M21.2952 26.4148L21.0328 25.2646C21.0328 25.2646 19.9133 25.4112 19.1375 27.6027C18.3617 29.7943 16.9826 34.414 16.9826 34.414L17.0547 36.0924C17.0547 36.0924 16.5232 36.7134 16.8899 36.9971C17.2566 37.2807 16.2275 37.6653 16.7487 38.0684C16.9775 38.2457 17.1507 38.486 17.2476 38.7606C17.3445 39.0351 17.3609 39.3321 17.2948 39.6159L18.8955 39.1159L18.7778 36.4733L19.412 34.3902L21.1069 29.1764L21.2952 26.4148Z" fill="#CBCBCB"/>
<path d="M28.8102 26.6106L29.1668 25.4952C29.1668 25.4952 29.8234 25.2234 30.3082 26.7549C30.7929 28.2864 31.023 32.162 31.023 32.162L31.9646 36.7817C31.9646 36.7817 32.3164 37.37 32.1293 37.5387C31.9423 37.7074 32.951 37.9445 32.3647 38.2569C31.7785 38.5693 32.4153 38.1896 32.1962 38.9019C32.0524 39.3698 32.2 39.6156 32.2 39.6156L30.3874 39.2468L29.893 36.8787L28.7717 32.476L28.8102 26.6106Z" fill="#CBCBCB"/>
<path d="M25.2902 23.127C27.0168 23.127 28.4164 21.7115 28.4164 19.9654C28.4164 18.2192 27.0168 16.8037 25.2902 16.8037C23.5637 16.8037 22.1641 18.2192 22.1641 19.9654C22.1641 21.7115 23.5637 23.127 25.2902 23.127Z" fill="#2F2E41"/>
<path d="M24.9726 17.9983C24.2999 17.3084 23.4858 16.776 22.5877 16.4386C22.0113 16.2226 21.3838 16.0892 20.7811 16.2118C20.1784 16.3345 19.6084 16.7562 19.4403 17.3542C19.3028 17.8433 19.4447 18.3698 19.6581 18.8302C19.8715 19.2905 20.1564 19.7174 20.3289 20.1949C20.505 20.6822 20.5579 21.2062 20.483 21.7194C20.408 22.2326 20.2075 22.7187 19.8996 23.1336C19.5917 23.5486 19.1863 23.8792 18.72 24.0954C18.2538 24.3117 17.7415 24.4068 17.2297 24.372C17.8219 24.4523 18.3678 24.7338 18.9466 24.8836C19.5254 25.0334 20.2086 25.0232 20.6387 24.6038C21.0939 24.1601 21.103 23.4387 21.081 22.7997C21.0483 21.8499 21.0155 20.9001 20.9828 19.9503C20.9661 19.4659 20.9519 18.966 21.1246 18.5139C21.2974 18.0618 21.7078 17.6659 22.1871 17.67C22.5503 17.6731 22.8717 17.8956 23.163 18.1151C23.4543 18.3345 23.7626 18.5687 24.1244 18.6013C24.4861 18.634 24.8992 18.3632 24.8721 17.9969L24.9726 17.9983Z" fill="#2F2E41"/>
<path d="M27.6261 22.2442C28.2357 21.1164 27.8259 19.7023 26.7107 19.0858C25.5955 18.4692 24.1973 18.8837 23.5877 20.0116C22.9781 21.1394 23.3879 22.5535 24.5031 23.17C25.6183 23.7866 27.0165 23.3721 27.6261 22.2442Z" fill="#FFB7B7"/>
<path d="M28.841 20.951H25.5181L25.484 20.4685L25.3136 20.951H24.802L24.7344 19.9948L24.3968 20.951H23.4067V20.9036C23.4075 20.2379 23.6693 19.5996 24.1348 19.1289C24.6002 18.6581 25.2313 18.3933 25.8896 18.3926H26.3581C27.0164 18.3933 27.6475 18.6581 28.1129 19.1289C28.5784 19.5996 28.8402 20.2379 28.841 20.9036V20.951Z" fill="#2F2E41"/>
<path d="M23.9102 22.6854L22.6968 21.4569L22.4922 18.7373H25.1707L25.1043 18.8043C24.1817 19.7362 23.1857 21.1037 23.9102 22.6854Z" fill="#2F2E41"/>
<path d="M39.8904 63.7497H0.578035C0.55067 63.7497 0.524425 63.7387 0.505075 63.7192C0.485724 63.6996 0.474854 63.673 0.474854 63.6454C0.474854 63.6177 0.485724 63.5912 0.505075 63.5716C0.524425 63.552 0.55067 63.541 0.578035 63.541H39.8904C39.9177 63.541 39.944 63.552 39.9633 63.5716C39.9827 63.5912 39.9935 63.6177 39.9935 63.6454C39.9935 63.673 39.9827 63.6996 39.9633 63.7192C39.944 63.7387 39.9177 63.7497 39.8904 63.7497Z" fill="#CBCBCB"/>
</g>
<defs>
<clipPath id="clip0_6275_1534">
<rect width="96.6" height="63" fill="white" transform="translate(0.474854 0.75)"/>
</clipPath>
</defs>
</svg>
